G04 Layer_Color=16711935*
%FSLAX25Y25*%
%MOIN*%
G70*
G01*
G75*
%ADD52C,0.00394*%
%ADD53R,0.06693X0.01509*%
%ADD54R,0.06693X0.01509*%
D52*
X20051Y287449D02*
G03*
X20051Y287449I-1969J0D01*
G01*
X42874Y36500D02*
G03*
X42874Y36500I-7874J0D01*
G01*
X25638Y223799D02*
G03*
X25638Y223799I-1969J0D01*
G01*
X21874Y59000D02*
G03*
X21874Y59000I-7874J0D01*
G01*
X14539Y240008D02*
X44461D01*
X14539Y290992D02*
X44461D01*
Y240008D02*
Y290992D01*
X14539Y240008D02*
Y290992D01*
X49130Y215154D02*
Y221847D01*
X52870Y215154D02*
Y221847D01*
X49130D02*
X52870D01*
X49130Y215154D02*
X52870D01*
X45654Y28890D02*
Y40110D01*
X52346Y28890D02*
Y40110D01*
X45654Y28890D02*
X52346D01*
X45654Y40110D02*
X52346D01*
X20126Y207658D02*
X35874D01*
X20126Y227343D02*
X35874D01*
Y207658D02*
Y227343D01*
X20126Y207658D02*
Y227343D01*
X14146Y35831D02*
X19854D01*
X14146Y27169D02*
X19854D01*
Y35831D01*
X14146Y27169D02*
Y35831D01*
X2630Y251445D02*
X6370D01*
X2630Y244555D02*
X6370D01*
X2630D02*
Y251445D01*
X6370Y244555D02*
Y251445D01*
X48630Y284945D02*
X52370D01*
X48630Y278055D02*
X52370D01*
Y284945D01*
X48630Y278055D02*
Y284945D01*
X5130Y267055D02*
X8870D01*
X5130Y273945D02*
X8870D01*
Y267055D02*
Y273945D01*
X5130Y267055D02*
Y273945D01*
X31555Y251130D02*
Y254870D01*
X38445Y251130D02*
Y254870D01*
X31555Y251130D02*
X38445D01*
X31555Y254870D02*
X38445D01*
X12630Y253055D02*
X16370D01*
X12630Y259945D02*
X16370D01*
Y253055D02*
Y259945D01*
X12630Y253055D02*
Y259945D01*
X38130Y277055D02*
X41870D01*
X38130Y283945D02*
X41870D01*
Y277055D02*
Y283945D01*
X38130Y277055D02*
Y283945D01*
X4555Y231130D02*
Y234870D01*
X11445Y231130D02*
Y234870D01*
X4555Y231130D02*
X11445D01*
X4555Y234870D02*
X11445D01*
X32630Y244445D02*
X36370D01*
X32630Y237555D02*
X36370D01*
X32630D02*
Y244445D01*
X36370Y237555D02*
Y244445D01*
X21130Y259945D02*
X24870D01*
X21130Y253055D02*
X24870D01*
X21130D02*
Y259945D01*
X24870Y253055D02*
Y259945D01*
X21130Y275445D02*
X24870D01*
X21130Y268555D02*
X24870D01*
X21130D02*
Y275445D01*
X24870Y268555D02*
Y275445D01*
X9169Y70146D02*
Y75854D01*
X17831Y70146D02*
Y75854D01*
X9169D02*
X17831D01*
X9169Y70146D02*
X17831D01*
X9347Y28890D02*
Y40110D01*
X2654Y28890D02*
Y40110D01*
X9347D01*
X2654Y28890D02*
X9347D01*
X21130Y284154D02*
Y290846D01*
X24870Y284154D02*
Y290846D01*
X21130D02*
X24870D01*
X21130Y284154D02*
X24870D01*
X6870Y308653D02*
Y315347D01*
X3130Y308653D02*
Y315347D01*
Y308653D02*
X6870D01*
X3130Y315347D02*
X6870D01*
X52370Y313154D02*
Y319847D01*
X48630Y313154D02*
Y319847D01*
Y313154D02*
X52370D01*
X48630Y319847D02*
X52370D01*
X5870Y360154D02*
Y366846D01*
X2130Y360154D02*
Y366846D01*
Y360154D02*
X5870D01*
X2130Y366846D02*
X5870D01*
X52370Y295153D02*
Y301847D01*
X48630Y295153D02*
Y301847D01*
X52370D01*
X48630Y295153D02*
X52370D01*
X48630Y278153D02*
Y284846D01*
X52370Y278153D02*
Y284846D01*
X48630D02*
X52370D01*
X48630Y278153D02*
X52370D01*
X29630Y277153D02*
Y283846D01*
X33370Y277153D02*
Y283846D01*
X29630D02*
X33370D01*
X29630Y277153D02*
X33370D01*
X52870Y263154D02*
Y269847D01*
X49130Y263154D02*
Y269847D01*
X52870D01*
X49130Y263154D02*
X52870D01*
X33370Y261653D02*
Y268347D01*
X29630Y261653D02*
Y268347D01*
Y261653D02*
X33370D01*
X29630Y268347D02*
X33370D01*
X2130Y282653D02*
Y289347D01*
X5870Y282653D02*
Y289347D01*
X2130Y282653D02*
X5870D01*
X2130Y289347D02*
X5870D01*
X2130Y267154D02*
Y273847D01*
X5870Y267154D02*
Y273847D01*
X2130Y267154D02*
X5870D01*
X2130Y273847D02*
X5870D01*
X38130Y261653D02*
Y268347D01*
X41870Y261653D02*
Y268347D01*
X38130D02*
X41870D01*
X38130Y261653D02*
X41870D01*
X52870Y241154D02*
Y247847D01*
X49130Y241154D02*
Y247847D01*
X52870D01*
X49130Y241154D02*
X52870D01*
X49130Y245654D02*
Y252346D01*
X52870Y245654D02*
Y252346D01*
X49130D02*
X52870D01*
X49130Y245654D02*
X52870D01*
X7870Y251153D02*
Y257846D01*
X4130Y251153D02*
Y257846D01*
X7870D01*
X4130Y251153D02*
X7870D01*
X2630Y220153D02*
Y226847D01*
X6370Y220153D02*
Y226847D01*
X2630Y220153D02*
X6370D01*
X2630Y226847D02*
X6370D01*
X48630Y125654D02*
Y132346D01*
X52370Y125654D02*
Y132346D01*
X48630D02*
X52370D01*
X48630Y125654D02*
X52370D01*
X6370Y213154D02*
Y219847D01*
X2630Y213154D02*
Y219847D01*
Y213154D02*
X6370D01*
X2630Y219847D02*
X6370D01*
D53*
X49000Y29645D02*
D03*
D54*
X6000Y39355D02*
D03*
M02*
