G04 Layer_Color=8388736*
%FSLAX25Y25*%
%MOIN*%
G70*
G01*
G75*
%ADD36O,0.08083X0.02965*%
%ADD37R,0.07099X0.11036*%
%ADD38R,0.03556X0.05524*%
G04:AMPARAMS|DCode=39|XSize=29.65mil|YSize=57.21mil|CornerRadius=5.95mil|HoleSize=0mil|Usage=FLASHONLY|Rotation=90.000|XOffset=0mil|YOffset=0mil|HoleType=Round|Shape=RoundedRectangle|*
%AMROUNDEDRECTD39*
21,1,0.02965,0.04532,0,0,90.0*
21,1,0.01776,0.05721,0,0,90.0*
1,1,0.01190,0.02266,0.00888*
1,1,0.01190,0.02266,-0.00888*
1,1,0.01190,-0.02266,-0.00888*
1,1,0.01190,-0.02266,0.00888*
%
%ADD39ROUNDEDRECTD39*%
%ADD40R,0.06509X0.05328*%
%ADD41R,0.05131X0.05131*%
%ADD42R,0.11036X0.07099*%
%ADD43R,0.05328X0.06509*%
%ADD44C,0.06800*%
%ADD45C,0.10642*%
%ADD46C,0.12611*%
%ADD47C,0.06706*%
%ADD48R,0.06706X0.06706*%
D36*
X42500Y243000D02*
D03*
Y248000D02*
D03*
Y253000D02*
D03*
Y258000D02*
D03*
Y263000D02*
D03*
Y268000D02*
D03*
Y273000D02*
D03*
Y278000D02*
D03*
Y283000D02*
D03*
Y288000D02*
D03*
X16500Y243000D02*
D03*
Y248000D02*
D03*
Y253000D02*
D03*
Y258000D02*
D03*
Y263000D02*
D03*
Y268000D02*
D03*
Y273000D02*
D03*
Y278000D02*
D03*
Y283000D02*
D03*
Y288000D02*
D03*
D37*
X35000Y43587D02*
D03*
Y29413D02*
D03*
D38*
X49000Y27217D02*
D03*
Y41783D02*
D03*
X6000Y41783D02*
D03*
Y27217D02*
D03*
D39*
X38335Y210000D02*
D03*
Y215000D02*
D03*
Y220000D02*
D03*
Y225000D02*
D03*
X17665Y210000D02*
D03*
Y215000D02*
D03*
Y220000D02*
D03*
Y225000D02*
D03*
D40*
X17000Y35043D02*
D03*
Y27957D02*
D03*
D41*
X50500Y285043D02*
D03*
Y277957D02*
D03*
X50500Y302043D02*
D03*
Y294957D02*
D03*
X51000Y270043D02*
D03*
Y262957D02*
D03*
X4000Y282457D02*
D03*
Y289543D02*
D03*
Y266957D02*
D03*
Y274043D02*
D03*
X51000Y248043D02*
D03*
Y240957D02*
D03*
X6000Y258043D02*
D03*
Y250957D02*
D03*
X4500Y219957D02*
D03*
Y227043D02*
D03*
D42*
X6913Y59000D02*
D03*
X21087D02*
D03*
D43*
X9957Y73000D02*
D03*
X17043D02*
D03*
D44*
X27500Y106000D02*
D03*
Y366941D02*
D03*
X17658D02*
D03*
X37343D02*
D03*
X27500Y175000D02*
D03*
Y306941D02*
D03*
X17658D02*
D03*
X37343D02*
D03*
D45*
X27500Y125370D02*
D03*
Y92693D02*
D03*
Y80488D02*
D03*
Y194370D02*
D03*
Y161693D02*
D03*
Y149488D02*
D03*
D46*
X48366Y394500D02*
D03*
X6634D02*
D03*
X48366Y334500D02*
D03*
X6634D02*
D03*
D47*
X47500Y7500D02*
D03*
Y17500D02*
D03*
X37500Y7500D02*
D03*
Y17500D02*
D03*
X27500Y7500D02*
D03*
Y17500D02*
D03*
X17500Y7500D02*
D03*
Y17500D02*
D03*
X7500Y7500D02*
D03*
D48*
Y17500D02*
D03*
M02*
