G04 Layer_Color=255*
%FSLAX25Y25*%
%MOIN*%
G70*
G01*
G75*
%ADD13R,0.04331X0.04331*%
%ADD20C,0.09842*%
%ADD21C,0.06000*%
%ADD22C,0.11811*%
%ADD23R,0.05905X0.05905*%
%ADD24C,0.05905*%
%ADD28R,0.06299X0.10236*%
%ADD29R,0.04331X0.04331*%
D13*
X23000Y283957D02*
D03*
Y291043D02*
D03*
X48000Y82957D02*
D03*
Y90043D02*
D03*
X51000Y214957D02*
D03*
Y222043D02*
D03*
X4500Y220043D02*
D03*
Y212957D02*
D03*
X50500Y125457D02*
D03*
Y132543D02*
D03*
X51000Y240957D02*
D03*
Y248043D02*
D03*
X40000Y261457D02*
D03*
Y268543D02*
D03*
X31500Y268543D02*
D03*
Y261457D02*
D03*
X31500Y276957D02*
D03*
Y284043D02*
D03*
X50500Y277957D02*
D03*
Y285043D02*
D03*
X4000Y367043D02*
D03*
Y359957D02*
D03*
X50500Y320043D02*
D03*
Y312957D02*
D03*
X5000Y315543D02*
D03*
Y308457D02*
D03*
X17000Y217543D02*
D03*
Y210457D02*
D03*
X7500Y82957D02*
D03*
Y90043D02*
D03*
X4500Y244457D02*
D03*
Y251543D02*
D03*
X23000Y268457D02*
D03*
Y275543D02*
D03*
Y252957D02*
D03*
Y260043D02*
D03*
X34500Y237457D02*
D03*
Y244543D02*
D03*
X40000Y284043D02*
D03*
Y276957D02*
D03*
X14500Y260043D02*
D03*
Y252957D02*
D03*
X7000Y274043D02*
D03*
Y266957D02*
D03*
D20*
X27500Y149488D02*
D03*
Y161693D02*
D03*
Y194370D02*
D03*
Y80488D02*
D03*
Y92693D02*
D03*
Y125370D02*
D03*
D21*
Y175000D02*
D03*
X37343Y306941D02*
D03*
X17658D02*
D03*
X27500D02*
D03*
X37343Y382441D02*
D03*
X17658D02*
D03*
X27500D02*
D03*
Y106000D02*
D03*
X5500Y75500D02*
D03*
D22*
X6634Y334500D02*
D03*
X48366D02*
D03*
X6634Y410000D02*
D03*
X48366D02*
D03*
D23*
X32500Y46000D02*
D03*
D24*
X22500D02*
D03*
X32500Y36000D02*
D03*
X22500D02*
D03*
X32500Y26000D02*
D03*
X22500D02*
D03*
X32500Y16000D02*
D03*
X22500D02*
D03*
X32500Y6000D02*
D03*
X22500D02*
D03*
D28*
X12500Y71500D02*
D03*
Y57327D02*
D03*
X42500Y57413D02*
D03*
Y71587D02*
D03*
D29*
X11543Y233000D02*
D03*
X4457D02*
D03*
X38543Y253000D02*
D03*
X31457D02*
D03*
X38957Y228500D02*
D03*
X46043D02*
D03*
M02*
