G04 Layer_Color=16711935*
%FSLAX25Y25*%
%MOIN*%
G70*
G01*
G75*
%ADD36R,0.05131X0.05131*%
%ADD44C,0.06800*%
%ADD45C,0.12611*%
%ADD46C,0.10642*%
%ADD47R,0.06706X0.06706*%
%ADD48C,0.06706*%
%ADD49C,0.03556*%
%ADD50R,0.05131X0.05131*%
D36*
X40000Y284043D02*
D03*
Y276957D02*
D03*
X31500Y285500D02*
D03*
Y278413D02*
D03*
X51000Y245457D02*
D03*
Y252543D02*
D03*
X4500Y220043D02*
D03*
Y212957D02*
D03*
X50500Y125457D02*
D03*
Y132543D02*
D03*
X40000Y261457D02*
D03*
Y268543D02*
D03*
X31500Y268543D02*
D03*
Y261457D02*
D03*
X50500Y277957D02*
D03*
Y285043D02*
D03*
X4000Y367043D02*
D03*
Y359957D02*
D03*
X50500Y320043D02*
D03*
Y312957D02*
D03*
X5000Y315543D02*
D03*
Y308457D02*
D03*
X23000Y283957D02*
D03*
Y291043D02*
D03*
X23000Y268457D02*
D03*
Y275543D02*
D03*
Y252957D02*
D03*
Y260043D02*
D03*
X34500Y237457D02*
D03*
Y244543D02*
D03*
X14500Y260043D02*
D03*
Y252957D02*
D03*
X7000Y274043D02*
D03*
Y266957D02*
D03*
X6000Y244500D02*
D03*
Y251587D02*
D03*
X51000Y214957D02*
D03*
Y222043D02*
D03*
D44*
X37343Y306941D02*
D03*
X17658D02*
D03*
X27500D02*
D03*
Y175000D02*
D03*
X37343Y366941D02*
D03*
X17658D02*
D03*
X27500D02*
D03*
Y106000D02*
D03*
D45*
X6634Y334500D02*
D03*
X48366D02*
D03*
X6634Y394500D02*
D03*
X48366D02*
D03*
D46*
X27500Y149488D02*
D03*
Y161693D02*
D03*
Y194370D02*
D03*
Y80488D02*
D03*
Y92693D02*
D03*
Y125370D02*
D03*
D47*
X7500Y17500D02*
D03*
D48*
Y7500D02*
D03*
X17500Y17500D02*
D03*
Y7500D02*
D03*
X27500Y17500D02*
D03*
Y7500D02*
D03*
X37500Y17500D02*
D03*
Y7500D02*
D03*
X47500Y17500D02*
D03*
Y7500D02*
D03*
D49*
X52000Y280500D02*
D03*
X22000Y301000D02*
D03*
X3000Y300500D02*
D03*
X26500Y285000D02*
D03*
X51500Y253500D02*
D03*
X26957Y263780D02*
D03*
X31500Y289500D02*
D03*
D50*
X11543Y233000D02*
D03*
X4457D02*
D03*
X38543Y253000D02*
D03*
X31457D02*
D03*
M02*
