G04 Layer_Color=16711935*
%FSLAX25Y25*%
%MOIN*%
G70*
G01*
G75*
%ADD41R,0.05131X0.05131*%
%ADD44C,0.06800*%
%ADD45C,0.10642*%
%ADD46C,0.12611*%
%ADD47C,0.06706*%
%ADD48R,0.06706X0.06706*%
%ADD49R,0.05131X0.05131*%
D41*
X51000Y222043D02*
D03*
Y214957D02*
D03*
X4500Y251543D02*
D03*
Y244457D02*
D03*
X7000Y266957D02*
D03*
Y274043D02*
D03*
X14500Y252957D02*
D03*
Y260043D02*
D03*
X40000Y276957D02*
D03*
Y284043D02*
D03*
X34500Y244543D02*
D03*
Y237457D02*
D03*
X23000Y260043D02*
D03*
Y252957D02*
D03*
Y275543D02*
D03*
Y268457D02*
D03*
X23000Y291043D02*
D03*
Y283957D02*
D03*
X5000Y308457D02*
D03*
Y315543D02*
D03*
X50500Y312957D02*
D03*
Y320043D02*
D03*
X4000Y359957D02*
D03*
Y367043D02*
D03*
X50500Y285043D02*
D03*
Y277957D02*
D03*
X31500Y284043D02*
D03*
Y276957D02*
D03*
X31500Y261457D02*
D03*
Y268543D02*
D03*
X40000Y268543D02*
D03*
Y261457D02*
D03*
X51000Y252543D02*
D03*
Y245457D02*
D03*
X50500Y132543D02*
D03*
Y125457D02*
D03*
X4500Y212957D02*
D03*
Y220043D02*
D03*
D44*
X27500Y106000D02*
D03*
Y366941D02*
D03*
X17658D02*
D03*
X37343D02*
D03*
X27500Y175000D02*
D03*
Y306941D02*
D03*
X17658D02*
D03*
X37343D02*
D03*
D45*
X27500Y125370D02*
D03*
Y92693D02*
D03*
Y80488D02*
D03*
Y194370D02*
D03*
Y161693D02*
D03*
Y149488D02*
D03*
D46*
X48366Y394500D02*
D03*
X6634D02*
D03*
X48366Y334500D02*
D03*
X6634D02*
D03*
D47*
X47500Y7500D02*
D03*
Y17500D02*
D03*
X37500Y7500D02*
D03*
Y17500D02*
D03*
X27500Y7500D02*
D03*
Y17500D02*
D03*
X17500Y7500D02*
D03*
Y17500D02*
D03*
X7500Y7500D02*
D03*
D48*
Y17500D02*
D03*
D49*
X31457Y253000D02*
D03*
X38543D02*
D03*
X4457Y233000D02*
D03*
X11543D02*
D03*
M02*
