G04 Layer_Color=32768*
%FSLAX25Y25*%
%MOIN*%
G70*
G01*
G75*
%ADD45C,0.00394*%
%ADD48C,0.00197*%
D45*
X27531Y265500D02*
X31468D01*
X29500Y263531D02*
Y267469D01*
X12500Y62445D02*
Y66382D01*
X10531Y64413D02*
X14469D01*
X7000Y27531D02*
Y31468D01*
X5032Y29500D02*
X8969D01*
X28000Y215531D02*
Y219468D01*
X26032Y217500D02*
X29969D01*
X48000Y27031D02*
Y30968D01*
X46031Y29000D02*
X49968D01*
X42500Y62532D02*
Y66469D01*
X40532Y64500D02*
X44469D01*
D48*
X7354Y239516D02*
Y291484D01*
X51646Y239516D02*
Y291484D01*
X7354D02*
X51646D01*
X7354Y239516D02*
X51646D01*
X18866Y279823D02*
X27134D01*
X18866Y295177D02*
X27134D01*
Y279823D02*
Y295177D01*
X18866Y279823D02*
Y295177D01*
X23000Y285630D02*
Y289370D01*
X21130Y287500D02*
X24870D01*
X2854Y77012D02*
X22146D01*
X2854Y51815D02*
Y77012D01*
Y51815D02*
X22146D01*
Y77012D01*
X2866Y19264D02*
X11134D01*
X2866Y39736D02*
X11134D01*
X2866Y19264D02*
Y39736D01*
X11134Y19264D02*
Y39736D01*
X13433Y206673D02*
X42567D01*
X13433Y228327D02*
X42567D01*
Y206673D02*
Y228327D01*
X13433Y206673D02*
Y228327D01*
X43866Y78823D02*
X52134D01*
X43866Y94177D02*
X52134D01*
Y78823D02*
Y94177D01*
X43866Y78823D02*
Y94177D01*
X48000Y84630D02*
Y88370D01*
X46130Y86500D02*
X49870D01*
X46866Y210823D02*
X55134D01*
X46866Y226177D02*
X55134D01*
Y210823D02*
Y226177D01*
X46866Y210823D02*
Y226177D01*
X51000Y216630D02*
Y220370D01*
X49130Y218500D02*
X52870D01*
X366Y224177D02*
X8634D01*
X366Y208823D02*
X8634D01*
X366D02*
Y224177D01*
X8634Y208823D02*
Y224177D01*
X4500Y214630D02*
Y218370D01*
X2630Y216500D02*
X6370D01*
X46366Y121323D02*
X54634D01*
X46366Y136677D02*
X54634D01*
Y121323D02*
Y136677D01*
X46366Y121323D02*
Y136677D01*
X50500Y127130D02*
Y130870D01*
X48630Y129000D02*
X52370D01*
X366Y231177D02*
X8634D01*
X366Y215823D02*
X8634D01*
Y231177D01*
X366Y215823D02*
Y231177D01*
X4500Y221630D02*
Y225370D01*
X2630Y223500D02*
X6370D01*
X1866Y246823D02*
X10134D01*
X1866Y262177D02*
X10134D01*
X1866Y246823D02*
Y262177D01*
X10134Y246823D02*
Y262177D01*
X6000Y252630D02*
Y256370D01*
X4130Y254500D02*
X7870D01*
X46866Y236823D02*
X55134D01*
X46866Y252177D02*
X55134D01*
Y236823D02*
Y252177D01*
X46866Y236823D02*
Y252177D01*
X51000Y242630D02*
Y246370D01*
X49130Y244500D02*
X52870D01*
X46866Y252177D02*
X55134D01*
X46866Y236823D02*
X55134D01*
Y252177D01*
X46866Y236823D02*
Y252177D01*
X51000Y242630D02*
Y246370D01*
X49130Y244500D02*
X52870D01*
X35866Y257323D02*
X44134D01*
X35866Y272677D02*
X44134D01*
Y257323D02*
Y272677D01*
X35866Y257323D02*
Y272677D01*
X40000Y263130D02*
Y266870D01*
X38130Y265000D02*
X41870D01*
X-134Y278177D02*
X8134D01*
X-134Y262823D02*
X8134D01*
Y278177D01*
X-134Y262823D02*
Y278177D01*
X4000Y268630D02*
Y272370D01*
X2130Y270500D02*
X5870D01*
X-134Y293677D02*
X8134D01*
X-134Y278323D02*
X8134D01*
Y293677D01*
X-134Y278323D02*
Y293677D01*
X4000Y284130D02*
Y287870D01*
X2130Y286000D02*
X5870D01*
X27366Y272677D02*
X35634D01*
X27366Y257323D02*
X35634D01*
X27366D02*
Y272677D01*
X35634Y257323D02*
Y272677D01*
X31500Y263130D02*
Y266870D01*
X29630Y265000D02*
X33370D01*
X46866Y258823D02*
X55134D01*
X46866Y274177D02*
X55134D01*
X46866Y258823D02*
Y274177D01*
X55134Y258823D02*
Y274177D01*
X51000Y264630D02*
Y268370D01*
X49130Y266500D02*
X52870D01*
X27366Y272823D02*
X35634D01*
X27366Y288177D02*
X35634D01*
Y272823D02*
Y288177D01*
X27366Y272823D02*
Y288177D01*
X31500Y278630D02*
Y282370D01*
X29630Y280500D02*
X33370D01*
X46366Y273823D02*
X54634D01*
X46366Y289177D02*
X54634D01*
Y273823D02*
Y289177D01*
X46366Y273823D02*
Y289177D01*
X50500Y279630D02*
Y283370D01*
X48630Y281500D02*
X52370D01*
X46366Y290823D02*
X54634D01*
X46366Y306177D02*
X54634D01*
X46366Y290823D02*
Y306177D01*
X54634Y290823D02*
Y306177D01*
X50500Y296630D02*
Y300370D01*
X48630Y298500D02*
X52370D01*
X-134Y371177D02*
X8134D01*
X-134Y355823D02*
X8134D01*
X-134D02*
Y371177D01*
X8134Y355823D02*
Y371177D01*
X4000Y361630D02*
Y365370D01*
X2130Y363500D02*
X5870D01*
X46366Y324177D02*
X54634D01*
X46366Y308823D02*
X54634D01*
X46366D02*
Y324177D01*
X54634Y308823D02*
Y324177D01*
X50500Y314630D02*
Y318370D01*
X48630Y316500D02*
X52370D01*
X866Y319677D02*
X9134D01*
X866Y304323D02*
X9134D01*
X866D02*
Y319677D01*
X9134Y304323D02*
Y319677D01*
X5000Y310130D02*
Y313870D01*
X3130Y312000D02*
X6870D01*
X43866Y39236D02*
X52134D01*
X43866Y18764D02*
X52134D01*
Y39236D01*
X43866Y18764D02*
Y39236D01*
X12866Y221677D02*
X21134D01*
X12866Y206323D02*
X21134D01*
X12866D02*
Y221677D01*
X21134Y206323D02*
Y221677D01*
X17000Y212130D02*
Y215870D01*
X15130Y214000D02*
X18870D01*
X32854Y51902D02*
X52146D01*
Y77098D01*
X32854D02*
X52146D01*
X32854Y51902D02*
Y77098D01*
X3366Y78823D02*
X11634D01*
X3366Y94177D02*
X11634D01*
Y78823D02*
Y94177D01*
X3366Y78823D02*
Y94177D01*
X7500Y84630D02*
Y88370D01*
X5630Y86500D02*
X9370D01*
X2630Y248000D02*
X6370D01*
X4500Y246130D02*
Y249870D01*
X8634Y240323D02*
Y255677D01*
X366Y240323D02*
Y255677D01*
Y240323D02*
X8634D01*
X366Y255677D02*
X8634D01*
X21130Y272000D02*
X24870D01*
X23000Y270130D02*
Y273870D01*
X27134Y264323D02*
Y279677D01*
X18866Y264323D02*
Y279677D01*
Y264323D02*
X27134D01*
X18866Y279677D02*
X27134D01*
X21130Y256500D02*
X24870D01*
X23000Y254630D02*
Y258370D01*
X27134Y248823D02*
Y264177D01*
X18866Y248823D02*
Y264177D01*
Y248823D02*
X27134D01*
X18866Y264177D02*
X27134D01*
X32630Y241000D02*
X36370D01*
X34500Y239130D02*
Y242870D01*
X38634Y233323D02*
Y248677D01*
X30366Y233323D02*
Y248677D01*
Y233323D02*
X38634D01*
X30366Y248677D02*
X38634D01*
X8000Y231130D02*
Y234870D01*
X6130Y233000D02*
X9870D01*
X323Y237134D02*
X15677D01*
X323Y228866D02*
X15677D01*
Y237134D01*
X323Y228866D02*
Y237134D01*
X38130Y280500D02*
X41870D01*
X40000Y278630D02*
Y282370D01*
X35866Y272823D02*
Y288177D01*
X44134Y272823D02*
Y288177D01*
X35866D02*
X44134D01*
X35866Y272823D02*
X44134D01*
X12630Y256500D02*
X16370D01*
X14500Y254630D02*
Y258370D01*
X10366Y248823D02*
Y264177D01*
X18634Y248823D02*
Y264177D01*
X10366D02*
X18634D01*
X10366Y248823D02*
X18634D01*
X35000Y251130D02*
Y254870D01*
X33130Y253000D02*
X36870D01*
X27323Y257134D02*
X42677D01*
X27323Y248866D02*
X42677D01*
Y257134D01*
X27323Y248866D02*
Y257134D01*
X5130Y270500D02*
X8870D01*
X7000Y268630D02*
Y272370D01*
X2866Y262823D02*
Y278177D01*
X11134Y262823D02*
Y278177D01*
X2866D02*
X11134D01*
X2866Y262823D02*
X11134D01*
X48630Y281500D02*
X52370D01*
X50500Y279630D02*
Y283370D01*
X46366Y273823D02*
Y289177D01*
X54634Y273823D02*
Y289177D01*
X46366Y273823D02*
X54634D01*
X46366Y289177D02*
X54634D01*
X34823Y224366D02*
Y232634D01*
X50177Y224366D02*
Y232634D01*
X34823Y224366D02*
X50177D01*
X34823Y232634D02*
X50177D01*
X40630Y228500D02*
X44370D01*
X42500Y226630D02*
Y230370D01*
M02*
