G04 Layer_Color=32896*
%FSLAX25Y25*%
%MOIN*%
G70*
G01*
G75*
%ADD18C,0.00800*%
%ADD20C,0.01000*%
%ADD21C,0.05000*%
%ADD33C,0.00787*%
D18*
X38168Y291834D02*
X37501Y292501D01*
Y293834D01*
X38168Y294500D01*
X40834D01*
X41500Y293834D01*
Y292501D01*
X40834Y291834D01*
X37501Y287836D02*
Y290501D01*
X39501D01*
X38834Y289168D01*
Y288502D01*
X39501Y287836D01*
X40834D01*
X41500Y288502D01*
Y289835D01*
X40834Y290501D01*
X54000Y256000D02*
Y259999D01*
X52001D01*
X51334Y259332D01*
Y257999D01*
X52001Y257333D01*
X54000D01*
X52667D02*
X51334Y256000D01*
X50001D02*
X48668D01*
X49335D01*
Y259999D01*
X50001Y259332D01*
X44670Y256000D02*
Y259999D01*
X46669Y257999D01*
X44003D01*
X9834Y280832D02*
X10501Y281499D01*
X11834D01*
X12500Y280832D01*
Y278166D01*
X11834Y277500D01*
X10501D01*
X9834Y278166D01*
X5835Y277500D02*
X8501D01*
X5835Y280166D01*
Y280832D01*
X6502Y281499D01*
X7835D01*
X8501Y280832D01*
X41334Y249332D02*
X42001Y249999D01*
X43334D01*
X44000Y249332D01*
Y246666D01*
X43334Y246000D01*
X42001D01*
X41334Y246666D01*
X40001Y249332D02*
X39335Y249999D01*
X38002D01*
X37336Y249332D01*
Y248666D01*
X38002Y247999D01*
X38668D01*
X38002D01*
X37336Y247333D01*
Y246666D01*
X38002Y246000D01*
X39335D01*
X40001Y246666D01*
X15234Y270432D02*
X15901Y271099D01*
X17233D01*
X17900Y270432D01*
Y267766D01*
X17233Y267100D01*
X15901D01*
X15234Y267766D01*
X11902Y267100D02*
Y271099D01*
X13901Y269099D01*
X11236D01*
X8334Y239832D02*
X9001Y240499D01*
X10334D01*
X11000Y239832D01*
Y237166D01*
X10334Y236500D01*
X9001D01*
X8334Y237166D01*
X4335Y240499D02*
X5668Y239832D01*
X7001Y238499D01*
Y237166D01*
X6335Y236500D01*
X5002D01*
X4335Y237166D01*
Y237833D01*
X5002Y238499D01*
X7001D01*
X28834Y241332D02*
X29501Y241999D01*
X30834D01*
X31500Y241332D01*
Y238666D01*
X30834Y238000D01*
X29501D01*
X28834Y238666D01*
X27501Y241999D02*
X24836D01*
Y241332D01*
X27501Y238666D01*
Y238000D01*
X23334Y248832D02*
X24001Y249499D01*
X25333D01*
X26000Y248832D01*
Y246166D01*
X25333Y245500D01*
X24001D01*
X23334Y246166D01*
X22001Y248832D02*
X21335Y249499D01*
X20002D01*
X19335Y248832D01*
Y248166D01*
X20002Y247499D01*
X19335Y246833D01*
Y246166D01*
X20002Y245500D01*
X21335D01*
X22001Y246166D01*
Y246833D01*
X21335Y247499D01*
X22001Y248166D01*
Y248832D01*
X21335Y247499D02*
X20002D01*
X16834Y280332D02*
X17501Y280999D01*
X18834D01*
X19500Y280332D01*
Y277666D01*
X18834Y277000D01*
X17501D01*
X16834Y277666D01*
X15501D02*
X14835Y277000D01*
X13502D01*
X12835Y277666D01*
Y280332D01*
X13502Y280999D01*
X14835D01*
X15501Y280332D01*
Y279666D01*
X14835Y278999D01*
X12835D01*
X10168Y249377D02*
X9501Y250044D01*
Y251377D01*
X10168Y252043D01*
X12834D01*
X13500Y251377D01*
Y250044D01*
X12834Y249377D01*
X13500Y248045D02*
Y246712D01*
Y247378D01*
X9501D01*
X10168Y248045D01*
Y244712D02*
X9501Y244046D01*
Y242713D01*
X10168Y242046D01*
X12834D01*
X13500Y242713D01*
Y244046D01*
X12834Y244712D01*
X10168D01*
X25000Y295000D02*
Y298999D01*
X23001D01*
X22334Y298332D01*
Y296999D01*
X23001Y296333D01*
X25000D01*
X23667D02*
X22334Y295000D01*
X21001D02*
X19668D01*
X20335D01*
Y298999D01*
X21001Y298332D01*
X8000Y319500D02*
Y323499D01*
X6001D01*
X5334Y322832D01*
Y321499D01*
X6001Y320833D01*
X8000D01*
X6667D02*
X5334Y319500D01*
X1335D02*
X4001D01*
X1335Y322166D01*
Y322832D01*
X2002Y323499D01*
X3335D01*
X4001Y322832D01*
X47500Y323500D02*
Y327499D01*
X45501D01*
X44834Y326832D01*
Y325499D01*
X45501Y324833D01*
X47500D01*
X46167D02*
X44834Y323500D01*
X43501Y326832D02*
X42835Y327499D01*
X41502D01*
X40835Y326832D01*
Y326166D01*
X41502Y325499D01*
X42168D01*
X41502D01*
X40835Y324833D01*
Y324166D01*
X41502Y323500D01*
X42835D01*
X43501Y324166D01*
X7400Y374100D02*
Y378099D01*
X5401D01*
X4734Y377432D01*
Y376099D01*
X5401Y375433D01*
X7400D01*
X6067D02*
X4734Y374100D01*
X1402D02*
Y378099D01*
X3401Y376099D01*
X735D01*
X53500Y288000D02*
Y291999D01*
X51501D01*
X50834Y291332D01*
Y289999D01*
X51501Y289333D01*
X53500D01*
X52167D02*
X50834Y288000D01*
X46836Y291999D02*
X48168Y291332D01*
X49501Y289999D01*
Y288666D01*
X48835Y288000D01*
X47502D01*
X46836Y288666D01*
Y289333D01*
X47502Y289999D01*
X49501D01*
X38500Y271500D02*
Y275499D01*
X36501D01*
X35834Y274832D01*
Y273499D01*
X36501Y272833D01*
X38500D01*
X37167D02*
X35834Y271500D01*
X34501Y272166D02*
X33835Y271500D01*
X32502D01*
X31835Y272166D01*
Y274832D01*
X32502Y275499D01*
X33835D01*
X34501Y274832D01*
Y274166D01*
X33835Y273499D01*
X31835D01*
X37500Y269000D02*
X33501D01*
Y267001D01*
X34168Y266334D01*
X35501D01*
X36167Y267001D01*
Y269000D01*
Y267667D02*
X37500Y266334D01*
Y265001D02*
Y263668D01*
Y264335D01*
X33501D01*
X34168Y265001D01*
X37500Y259003D02*
Y261669D01*
X34834Y259003D01*
X34168D01*
X33501Y259670D01*
Y261003D01*
X34168Y261669D01*
X53000Y137000D02*
Y140999D01*
X51001D01*
X50334Y140332D01*
Y138999D01*
X51001Y138333D01*
X53000D01*
X51667D02*
X50334Y137000D01*
X49001D02*
X47668D01*
X48335D01*
Y140999D01*
X49001Y140332D01*
X45669Y140999D02*
X43003D01*
Y140332D01*
X45669Y137666D01*
Y137000D01*
X11500Y205500D02*
Y209499D01*
X9501D01*
X8834Y208832D01*
Y207499D01*
X9501Y206833D01*
X11500D01*
X10167D02*
X8834Y205500D01*
X7501D02*
X6168D01*
X6835D01*
Y209499D01*
X7501Y208832D01*
X4169D02*
X3503Y209499D01*
X2170D01*
X1503Y208832D01*
Y208166D01*
X2170Y207499D01*
X1503Y206833D01*
Y206166D01*
X2170Y205500D01*
X3503D01*
X4169Y206166D01*
Y206833D01*
X3503Y207499D01*
X4169Y208166D01*
Y208832D01*
X3503Y207499D02*
X2170D01*
X53500Y227500D02*
Y231499D01*
X51501D01*
X50834Y230832D01*
Y229499D01*
X51501Y228833D01*
X53500D01*
X52167D02*
X50834Y227500D01*
X49501D02*
X48168D01*
X48835D01*
Y231499D01*
X49501Y230832D01*
X46169Y228166D02*
X45503Y227500D01*
X44170D01*
X43503Y228166D01*
Y230832D01*
X44170Y231499D01*
X45503D01*
X46169Y230832D01*
Y230166D01*
X45503Y229499D01*
X43503D01*
D20*
X34700Y292700D02*
Y298698D01*
X31701D01*
X30701Y297698D01*
Y295699D01*
X31701Y294699D01*
X34700D01*
X32701D02*
X30701Y292700D01*
X28702Y298698D02*
X24703D01*
Y297698D01*
X28702Y293700D01*
Y292700D01*
D21*
X52500Y6500D02*
Y22500D01*
D33*
X38228Y280303D02*
Y280697D01*
X41772Y280303D02*
Y280697D01*
X29728Y281760D02*
Y282154D01*
X33272Y281760D02*
Y282154D01*
X52772Y248803D02*
Y249197D01*
X49228Y248803D02*
Y249197D01*
X2728Y216303D02*
Y216697D01*
X6272Y216303D02*
Y216697D01*
X52272Y128803D02*
Y129197D01*
X48728Y128803D02*
Y129197D01*
X41772Y264803D02*
Y265197D01*
X38228Y264803D02*
Y265197D01*
X29728Y264803D02*
Y265197D01*
X33272Y264803D02*
Y265197D01*
X52272Y281303D02*
Y281697D01*
X48728Y281303D02*
Y281697D01*
X2228Y363303D02*
Y363697D01*
X5772Y363303D02*
Y363697D01*
X48728Y316303D02*
Y316697D01*
X52272Y316303D02*
Y316697D01*
X3228Y311803D02*
Y312197D01*
X6772Y311803D02*
Y312197D01*
X24772Y287303D02*
Y287697D01*
X21228Y287303D02*
Y287697D01*
X24772Y271803D02*
Y272197D01*
X21228Y271803D02*
Y272197D01*
X24772Y256303D02*
Y256697D01*
X21228Y256303D02*
Y256697D01*
X36272Y240803D02*
Y241197D01*
X32728Y240803D02*
Y241197D01*
X7803Y234772D02*
X8197D01*
X7803Y231228D02*
X8197D01*
X12728Y256303D02*
Y256697D01*
X16272Y256303D02*
Y256697D01*
X34803Y254772D02*
X35197D01*
X34803Y251228D02*
X35197D01*
X5228Y270303D02*
Y270697D01*
X8772Y270303D02*
Y270697D01*
X7772Y247847D02*
Y248240D01*
X4228Y247847D02*
Y248240D01*
X52500Y2500D02*
Y22500D01*
X2500Y2500D02*
Y22500D01*
Y2500D02*
X52500D01*
X2500Y22500D02*
X52500D01*
X52772Y218303D02*
Y218697D01*
X49228Y218303D02*
Y218697D01*
M02*
