G04 Layer_Color=32896*
%FSLAX25Y25*%
%MOIN*%
G70*
G01*
G75*
%ADD14C,0.05000*%
%ADD15C,0.00800*%
%ADD18C,0.01000*%
%ADD32C,0.00787*%
G36*
X15800Y188811D02*
X18200D01*
Y188011D01*
X19000D01*
Y187211D01*
X19800D01*
Y186411D01*
X20600D01*
Y185611D01*
X21400D01*
Y183211D01*
X22200D01*
Y184011D01*
X23000D01*
Y183211D01*
X35000D01*
Y182411D01*
X37400D01*
Y181611D01*
X39000D01*
Y180811D01*
X40600D01*
Y180011D01*
X43000D01*
Y179211D01*
X43800D01*
Y178411D01*
X45400D01*
Y177611D01*
X47000D01*
Y176811D01*
X48600D01*
Y176011D01*
X49400D01*
Y174411D01*
X51000D01*
Y178411D01*
X51800D01*
Y177611D01*
X53400D01*
Y176811D01*
X55000D01*
Y153611D01*
X54200D01*
Y152811D01*
X52600D01*
Y152011D01*
X51000D01*
Y156811D01*
X50200D01*
Y156011D01*
X49400D01*
Y155211D01*
X48600D01*
Y156011D01*
X47800D01*
Y155211D01*
X48600D01*
Y154411D01*
X47800D01*
Y153611D01*
X46200D01*
Y152811D01*
X45400D01*
Y152011D01*
X43800D01*
Y151211D01*
X42200D01*
Y150411D01*
X40600D01*
Y149611D01*
X38200D01*
Y148811D01*
X36600D01*
Y148011D01*
X32600D01*
Y147211D01*
X25400D01*
Y146411D01*
X22200D01*
Y145611D01*
X21400D01*
Y143211D01*
X20600D01*
Y142411D01*
X19000D01*
Y141611D01*
X16600D01*
Y140811D01*
X14200D01*
Y140011D01*
X6200D01*
Y139211D01*
X7000D01*
Y138411D01*
X3000D01*
Y139211D01*
X1400D01*
Y140011D01*
X600D01*
Y140811D01*
X-200D01*
Y188811D01*
X5400D01*
Y189611D01*
X15800D01*
Y188811D01*
D02*
G37*
%LPC*%
G36*
X35000Y181611D02*
X8600D01*
Y180811D01*
X7000D01*
Y180011D01*
X6200D01*
Y179211D01*
X5400D01*
Y178411D01*
X4600D01*
Y177611D01*
X3800D01*
Y175211D01*
X3000D01*
Y172011D01*
X2200D01*
Y168811D01*
X3000D01*
Y161611D01*
X2200D01*
Y158411D01*
X3000D01*
Y154411D01*
X3800D01*
Y152811D01*
X4600D01*
Y152011D01*
X5400D01*
Y150411D01*
X7000D01*
Y149611D01*
X7800D01*
Y148811D01*
X35000D01*
Y149611D01*
X37400D01*
Y150411D01*
X39000D01*
Y151211D01*
X39800D01*
Y152011D01*
X40600D01*
Y152811D01*
X41400D01*
Y153611D01*
X42200D01*
Y156011D01*
X41400D01*
Y156811D01*
X40600D01*
Y157611D01*
X39800D01*
Y158411D01*
X44600D01*
Y159211D01*
X46200D01*
Y160811D01*
X47000D01*
Y161611D01*
X46200D01*
Y163211D01*
X45400D01*
Y164011D01*
X44600D01*
Y164811D01*
X43800D01*
Y165611D01*
X44600D01*
Y166411D01*
X45400D01*
Y165611D01*
X46200D01*
Y166411D01*
X45400D01*
Y167211D01*
X46200D01*
Y168811D01*
X47000D01*
Y169611D01*
X46200D01*
Y170411D01*
X45400D01*
Y171211D01*
X43800D01*
Y172011D01*
X39800D01*
Y172811D01*
X40600D01*
Y173611D01*
X41400D01*
Y174411D01*
X42200D01*
Y176011D01*
X41400D01*
Y177611D01*
X40600D01*
Y178411D01*
X39800D01*
Y179211D01*
X38200D01*
Y180011D01*
X36600D01*
Y180811D01*
X35000D01*
Y181611D01*
D02*
G37*
G36*
X46200Y164811D02*
X45400D01*
Y164011D01*
X46200D01*
Y164811D01*
D02*
G37*
G36*
X15800Y142411D02*
X15000D01*
Y141611D01*
X15800D01*
Y142411D01*
D02*
G37*
G36*
X40600Y180011D02*
X39800D01*
Y179211D01*
X40600D01*
Y180011D01*
D02*
G37*
G36*
X19000Y187211D02*
X18200D01*
Y186411D01*
X19000D01*
Y187211D01*
D02*
G37*
G36*
X14200Y188811D02*
X13400D01*
Y188011D01*
X14200D01*
Y188811D01*
D02*
G37*
%LPD*%
G36*
X23000Y176811D02*
X23800D01*
Y176011D01*
X24600D01*
Y175211D01*
X25400D01*
Y169611D01*
X24600D01*
Y168811D01*
X23800D01*
Y168011D01*
X22200D01*
Y167211D01*
X21400D01*
Y163211D01*
X23000D01*
Y162411D01*
X23800D01*
Y161611D01*
X24600D01*
Y160811D01*
X25400D01*
Y155211D01*
X24600D01*
Y154411D01*
X23800D01*
Y153611D01*
X23000D01*
Y152811D01*
X18200D01*
Y153611D01*
X16600D01*
Y154411D01*
X15800D01*
Y156011D01*
X15000D01*
Y160011D01*
X15800D01*
Y161611D01*
X16600D01*
Y162411D01*
X17400D01*
Y163211D01*
X20600D01*
Y167211D01*
X19000D01*
Y168011D01*
X17400D01*
Y168811D01*
X16600D01*
Y169611D01*
X15800D01*
Y170411D01*
X15000D01*
Y174411D01*
X15800D01*
Y176011D01*
X16600D01*
Y176811D01*
X17400D01*
Y177611D01*
X23000D01*
Y176811D01*
D02*
G37*
G36*
X35800Y167211D02*
X35000D01*
Y163211D01*
X35800D01*
Y161611D01*
X36600D01*
Y160011D01*
X35000D01*
Y161611D01*
X34200D01*
Y163211D01*
X33400D01*
Y167211D01*
X34200D01*
Y168811D01*
X35000D01*
Y169611D01*
X35800D01*
Y167211D01*
D02*
G37*
G36*
X36600Y169611D02*
X35800D01*
Y170411D01*
X36600D01*
Y169611D01*
D02*
G37*
G36*
X37400Y170411D02*
X36600D01*
Y171211D01*
X37400D01*
Y170411D01*
D02*
G37*
%LPC*%
G36*
X22200Y162411D02*
X19000D01*
Y161611D01*
X18200D01*
Y160811D01*
X17400D01*
Y160011D01*
X16600D01*
Y156011D01*
X17400D01*
Y155211D01*
X18200D01*
Y154411D01*
X20600D01*
Y153611D01*
X21400D01*
Y154411D01*
X23000D01*
Y155211D01*
X23800D01*
Y156011D01*
X24600D01*
Y160011D01*
X23800D01*
Y160811D01*
X23000D01*
Y161611D01*
X22200D01*
Y162411D01*
D02*
G37*
G36*
Y176811D02*
X19000D01*
Y176011D01*
X18200D01*
Y175211D01*
X17400D01*
Y174411D01*
X16600D01*
Y170411D01*
X17400D01*
Y169611D01*
X18200D01*
Y168811D01*
X23000D01*
Y169611D01*
X23800D01*
Y170411D01*
X24600D01*
Y174411D01*
X23800D01*
Y175211D01*
X23000D01*
Y176011D01*
X22200D01*
Y176811D01*
D02*
G37*
%LPD*%
D14*
X36500Y2500D02*
X52500D01*
D15*
X41932Y394869D02*
X36934D01*
X38600Y393203D01*
X36934Y391537D01*
X41932D01*
X38600Y389871D02*
X41099D01*
X41932Y389038D01*
Y386539D01*
X42765D01*
X43598Y387372D01*
Y388205D01*
X41932Y386539D02*
X38600D01*
Y376542D02*
Y379041D01*
X39433Y379874D01*
X41099D01*
X41932Y379041D01*
Y376542D01*
X38600Y374043D02*
Y372377D01*
X39433Y371544D01*
X41932D01*
Y374043D01*
X41099Y374876D01*
X40266Y374043D01*
Y371544D01*
X37767Y369044D02*
X38600D01*
Y369877D01*
Y368211D01*
Y369044D01*
X41099D01*
X41932Y368211D01*
Y360714D02*
X38600D01*
Y359881D01*
X39433Y359048D01*
X41932D01*
X39433D01*
X38600Y358214D01*
X39433Y357381D01*
X41932D01*
X38600Y354882D02*
Y353216D01*
X39433Y352383D01*
X41932D01*
Y354882D01*
X41099Y355715D01*
X40266Y354882D01*
Y352383D01*
X36934Y347385D02*
X41932D01*
Y349884D01*
X41099Y350717D01*
X39433D01*
X38600Y349884D01*
Y347385D01*
X41932Y343219D02*
Y344885D01*
X41099Y345719D01*
X39433D01*
X38600Y344885D01*
Y343219D01*
X39433Y342386D01*
X40266D01*
Y345719D01*
X52350Y394869D02*
X49017D01*
Y394036D01*
X49850Y393203D01*
X52350D01*
X49850D01*
X49017Y392370D01*
X49850Y391537D01*
X52350D01*
Y387372D02*
Y389038D01*
X51516Y389871D01*
X49850D01*
X49017Y389038D01*
Y387372D01*
X49850Y386539D01*
X50683D01*
Y389871D01*
X47351Y376542D02*
X52350D01*
Y379041D01*
X51516Y379874D01*
X49850D01*
X49017Y379041D01*
Y376542D01*
X52350Y374043D02*
Y372377D01*
X51516Y371544D01*
X49850D01*
X49017Y372377D01*
Y374043D01*
X49850Y374876D01*
X51516D01*
X52350Y374043D01*
Y364879D02*
Y363213D01*
Y364046D01*
X49017D01*
Y364879D01*
X48184Y359881D02*
X49017D01*
Y360714D01*
Y359048D01*
Y359881D01*
X51516D01*
X52350Y359048D01*
X50683Y356548D02*
X46518D01*
X51516D02*
X52350D01*
X50683Y354882D02*
X46518D01*
X51516D02*
X52350D01*
X25591Y300197D02*
X21592D01*
Y298198D01*
X22258Y297531D01*
X23591D01*
X24258Y298198D01*
Y300197D01*
Y298864D02*
X25591Y297531D01*
Y296198D02*
Y294865D01*
Y295532D01*
X21592D01*
X22258Y296198D01*
X7587Y49817D02*
X6921Y49151D01*
X5588D01*
X4921Y49817D01*
Y52483D01*
X5588Y53150D01*
X6921D01*
X7587Y52483D01*
X8920Y53150D02*
X10253D01*
X9586D01*
Y49151D01*
X8920Y49817D01*
X12252Y53150D02*
X13585D01*
X12919D01*
Y49151D01*
X12252Y49817D01*
X49592Y96170D02*
X50259Y95503D01*
Y94170D01*
X49592Y93504D01*
X46926D01*
X46260Y94170D01*
Y95503D01*
X46926Y96170D01*
X46260Y97503D02*
Y98836D01*
Y98169D01*
X50259D01*
X49592Y97503D01*
X50259Y103501D02*
X49592Y102168D01*
X48259Y100835D01*
X46926D01*
X46260Y101501D01*
Y102834D01*
X46926Y103501D01*
X47593D01*
X48259Y102834D01*
Y100835D01*
X53500Y227500D02*
Y231499D01*
X51501D01*
X50834Y230832D01*
Y229499D01*
X51501Y228833D01*
X53500D01*
X52167D02*
X50834Y227500D01*
X49501D02*
X48168D01*
X48835D01*
Y231499D01*
X49501Y230832D01*
X46169Y228166D02*
X45503Y227500D01*
X44170D01*
X43503Y228166D01*
Y230832D01*
X44170Y231499D01*
X45503D01*
X46169Y230832D01*
Y230166D01*
X45503Y229499D01*
X43503D01*
X6890Y207677D02*
X2891D01*
Y205678D01*
X3557Y205011D01*
X4890D01*
X5557Y205678D01*
Y207677D01*
Y206344D02*
X6890Y205011D01*
Y203678D02*
Y202346D01*
Y203012D01*
X2891D01*
X3557Y203678D01*
Y200346D02*
X2891Y199680D01*
Y198347D01*
X3557Y197680D01*
X4224D01*
X4890Y198347D01*
X5557Y197680D01*
X6223D01*
X6890Y198347D01*
Y199680D01*
X6223Y200346D01*
X5557D01*
X4890Y199680D01*
X4224Y200346D01*
X3557D01*
X4890Y199680D02*
Y198347D01*
X52165Y147638D02*
X48167D01*
Y145638D01*
X48833Y144972D01*
X50166D01*
X50832Y145638D01*
Y147638D01*
Y146305D02*
X52165Y144972D01*
Y143639D02*
Y142306D01*
Y142973D01*
X48167D01*
X48833Y143639D01*
X48167Y140307D02*
Y137641D01*
X48833D01*
X51499Y140307D01*
X52165D01*
X48228Y243110D02*
X44230D01*
Y241111D01*
X44896Y240444D01*
X46229D01*
X46895Y241111D01*
Y243110D01*
Y241777D02*
X48228Y240444D01*
Y239111D02*
Y237779D01*
Y238445D01*
X44230D01*
X44896Y239111D01*
X48228Y233780D02*
X44230D01*
X46229Y235779D01*
Y233114D01*
X37500Y269000D02*
X33501D01*
Y267001D01*
X34168Y266334D01*
X35501D01*
X36167Y267001D01*
Y269000D01*
Y267667D02*
X37500Y266334D01*
Y265001D02*
Y263668D01*
Y264335D01*
X33501D01*
X34168Y265001D01*
X37500Y259003D02*
Y261669D01*
X34834Y259003D01*
X34168D01*
X33501Y259670D01*
Y261003D01*
X34168Y261669D01*
X38500Y271500D02*
Y275499D01*
X36501D01*
X35834Y274832D01*
Y273499D01*
X36501Y272833D01*
X38500D01*
X37167D02*
X35834Y271500D01*
X34501Y272166D02*
X33835Y271500D01*
X32502D01*
X31835Y272166D01*
Y274832D01*
X32502Y275499D01*
X33835D01*
X34501Y274832D01*
Y274166D01*
X33835Y273499D01*
X31835D01*
X33465Y294291D02*
X29466D01*
Y292292D01*
X30132Y291625D01*
X31465D01*
X32132Y292292D01*
Y294291D01*
Y292958D02*
X33465Y291625D01*
X29466Y290293D02*
Y287627D01*
X30132D01*
X32798Y290293D01*
X33465D01*
X52165Y295276D02*
X48167D01*
Y293276D01*
X48833Y292610D01*
X50166D01*
X50832Y293276D01*
Y295276D01*
Y293943D02*
X52165Y292610D01*
X48167Y288611D02*
X48833Y289944D01*
X50166Y291277D01*
X51499D01*
X52165Y290610D01*
Y289278D01*
X51499Y288611D01*
X50832D01*
X50166Y289278D01*
Y291277D01*
X7400Y374100D02*
Y378099D01*
X5401D01*
X4734Y377432D01*
Y376099D01*
X5401Y375433D01*
X7400D01*
X6067D02*
X4734Y374100D01*
X1402D02*
Y378099D01*
X3401Y376099D01*
X735D01*
X45276Y314961D02*
Y318959D01*
X43276D01*
X42610Y318293D01*
Y316960D01*
X43276Y316294D01*
X45276D01*
X43943D02*
X42610Y314961D01*
X41277Y318293D02*
X40610Y318959D01*
X39277D01*
X38611Y318293D01*
Y317626D01*
X39277Y316960D01*
X39944D01*
X39277D01*
X38611Y316294D01*
Y315627D01*
X39277Y314961D01*
X40610D01*
X41277Y315627D01*
X15748Y313976D02*
Y317975D01*
X13749D01*
X13082Y317309D01*
Y315976D01*
X13749Y315309D01*
X15748D01*
X14415D02*
X13082Y313976D01*
X9083D02*
X11749D01*
X9083Y316642D01*
Y317309D01*
X9750Y317975D01*
X11083D01*
X11749Y317309D01*
X15369Y202059D02*
X14702Y202725D01*
Y204058D01*
X15369Y204724D01*
X18034D01*
X18701Y204058D01*
Y202725D01*
X18034Y202059D01*
X18701Y200726D02*
Y199393D01*
Y200059D01*
X14702D01*
X15369Y200726D01*
X18701Y195394D02*
X14702D01*
X16701Y197393D01*
Y194728D01*
X43020Y49817D02*
X42354Y49151D01*
X41021D01*
X40354Y49817D01*
Y52483D01*
X41021Y53150D01*
X42354D01*
X43020Y52483D01*
X44353Y53150D02*
X45686D01*
X45020D01*
Y49151D01*
X44353Y49817D01*
X47685D02*
X48352Y49151D01*
X49685D01*
X50351Y49817D01*
Y50484D01*
X49685Y51150D01*
X49018D01*
X49685D01*
X50351Y51817D01*
Y52483D01*
X49685Y53150D01*
X48352D01*
X47685Y52483D01*
X8253Y97154D02*
X8920Y96487D01*
Y95155D01*
X8253Y94488D01*
X5588D01*
X4921Y95155D01*
Y96487D01*
X5588Y97154D01*
X4921Y98487D02*
Y99820D01*
Y99153D01*
X8920D01*
X8253Y98487D01*
X4921Y104485D02*
Y101819D01*
X7587Y104485D01*
X8253D01*
X8920Y103819D01*
Y102486D01*
X8253Y101819D01*
X8479Y247334D02*
X7812Y248001D01*
Y249334D01*
X8479Y250000D01*
X11145D01*
X11811Y249334D01*
Y248001D01*
X11145Y247334D01*
X11811Y246001D02*
Y244668D01*
Y245335D01*
X7812D01*
X8479Y246001D01*
Y242669D02*
X7812Y242003D01*
Y240670D01*
X8479Y240003D01*
X11145D01*
X11811Y240670D01*
Y242003D01*
X11145Y242669D01*
X8479D01*
X16035Y277939D02*
X16701Y278605D01*
X18034D01*
X18701Y277939D01*
Y275273D01*
X18034Y274606D01*
X16701D01*
X16035Y275273D01*
X14702D02*
X14036Y274606D01*
X12703D01*
X12036Y275273D01*
Y277939D01*
X12703Y278605D01*
X14036D01*
X14702Y277939D01*
Y277272D01*
X14036Y276606D01*
X12036D01*
X21940Y248411D02*
X22607Y249077D01*
X23940D01*
X24606Y248411D01*
Y245745D01*
X23940Y245079D01*
X22607D01*
X21940Y245745D01*
X20608Y248411D02*
X19941Y249077D01*
X18608D01*
X17942Y248411D01*
Y247744D01*
X18608Y247078D01*
X17942Y246412D01*
Y245745D01*
X18608Y245079D01*
X19941D01*
X20608Y245745D01*
Y246412D01*
X19941Y247078D01*
X20608Y247744D01*
Y248411D01*
X19941Y247078D02*
X18608D01*
X28164Y240444D02*
X27497Y241111D01*
Y242444D01*
X28164Y243110D01*
X30830D01*
X31496Y242444D01*
Y241111D01*
X30830Y240444D01*
X27497Y239111D02*
Y236446D01*
X28164D01*
X30830Y239111D01*
X31496D01*
X12508Y225998D02*
X11842Y225332D01*
X10509D01*
X9843Y225998D01*
Y228664D01*
X10509Y229331D01*
X11842D01*
X12508Y228664D01*
X16507Y225332D02*
X15174Y225998D01*
X13841Y227331D01*
Y228664D01*
X14508Y229331D01*
X15841D01*
X16507Y228664D01*
Y227998D01*
X15841Y227331D01*
X13841D01*
X38991Y291625D02*
X38324Y292292D01*
Y293625D01*
X38991Y294291D01*
X41656D01*
X42323Y293625D01*
Y292292D01*
X41656Y291625D01*
X38324Y287627D02*
Y290293D01*
X40323D01*
X39657Y288960D01*
Y288293D01*
X40323Y287627D01*
X41656D01*
X42323Y288293D01*
Y289626D01*
X41656Y290293D01*
X13400Y267019D02*
X12734Y267686D01*
Y269019D01*
X13400Y269685D01*
X16066D01*
X16732Y269019D01*
Y267686D01*
X16066Y267019D01*
X16732Y263687D02*
X12734D01*
X14733Y265686D01*
Y263020D01*
X42610Y249395D02*
X43276Y250062D01*
X44609D01*
X45276Y249395D01*
Y246729D01*
X44609Y246063D01*
X43276D01*
X42610Y246729D01*
X41277Y249395D02*
X40610Y250062D01*
X39277D01*
X38611Y249395D01*
Y248729D01*
X39277Y248062D01*
X39944D01*
X39277D01*
X38611Y247396D01*
Y246729D01*
X39277Y246063D01*
X40610D01*
X41277Y246729D01*
X6510Y281783D02*
X5844Y282450D01*
Y283782D01*
X6510Y284449D01*
X9176D01*
X9843Y283782D01*
Y282450D01*
X9176Y281783D01*
X9843Y277784D02*
Y280450D01*
X7177Y277784D01*
X6510D01*
X5844Y278451D01*
Y279784D01*
X6510Y280450D01*
X39083Y221077D02*
X38417Y220411D01*
X37084D01*
X36417Y221077D01*
Y223743D01*
X37084Y224410D01*
X38417D01*
X39083Y223743D01*
X40416Y224410D02*
X41749D01*
X41083D01*
Y220411D01*
X40416Y221077D01*
X46414Y220411D02*
X43748D01*
Y222410D01*
X45081Y221744D01*
X45748D01*
X46414Y222410D01*
Y223743D01*
X45748Y224410D01*
X44415D01*
X43748Y223743D01*
D18*
X15671Y410371D02*
X14671Y411371D01*
Y413370D01*
X15671Y414370D01*
X16671D01*
X17670Y413370D01*
Y411371D01*
X18670Y410371D01*
X19670D01*
X20669Y411371D01*
Y413370D01*
X19670Y414370D01*
X20669Y407372D02*
Y405373D01*
X19670Y404373D01*
X17670D01*
X16671Y405373D01*
Y407372D01*
X17670Y408372D01*
X19670D01*
X20669Y407372D01*
X16671Y402374D02*
X19670D01*
X20669Y401374D01*
Y398375D01*
X16671D01*
X20669Y396376D02*
X16671D01*
Y393377D01*
X17670Y392377D01*
X20669D01*
X14671Y386379D02*
X20669D01*
Y389378D01*
X19670Y390378D01*
X17670D01*
X16671Y389378D01*
Y386379D01*
X20669Y378382D02*
X14671D01*
X20669Y374383D01*
X14671D01*
X20669Y372384D02*
Y370384D01*
Y371384D01*
X16671D01*
Y372384D01*
Y363387D02*
Y366386D01*
X17670Y367385D01*
X19670D01*
X20669Y366386D01*
Y363387D01*
Y358388D02*
Y360387D01*
X19670Y361387D01*
X17670D01*
X16671Y360387D01*
Y358388D01*
X17670Y357388D01*
X18670D01*
Y361387D01*
X16671Y355389D02*
X20669D01*
X18670D01*
X17670Y354390D01*
X16671Y353390D01*
Y352390D01*
X14671Y343393D02*
X18670D01*
X20669Y341394D01*
X18670Y339394D01*
X14671D01*
X20669Y337395D02*
Y335396D01*
Y336395D01*
X14671D01*
X15671Y337395D01*
X20669Y332397D02*
X19670D01*
Y331397D01*
X20669D01*
Y332397D01*
Y327398D02*
Y325399D01*
Y326398D01*
X14671D01*
X15671Y327398D01*
X32449Y426135D02*
X31450D01*
Y427135D01*
X32449D01*
Y426135D01*
X31450Y425135D01*
X29450D01*
X28451Y426135D01*
Y428134D01*
X29450Y429134D01*
X33449D01*
X34449Y428134D01*
Y425135D01*
X30450Y422136D02*
Y420137D01*
X31450Y419137D01*
X34449D01*
Y422136D01*
X33449Y423136D01*
X32449Y422136D01*
Y419137D01*
X30450Y417138D02*
X33449D01*
X34449Y416138D01*
Y413139D01*
X30450D01*
Y411140D02*
X34449Y407141D01*
X32449Y409140D01*
X30450Y407141D01*
X34449Y411140D01*
X30450Y405142D02*
X34449D01*
X32449D01*
X31450Y404142D01*
X30450Y403142D01*
Y402143D01*
X34449Y396145D02*
Y398144D01*
X33449Y399144D01*
X31450D01*
X30450Y398144D01*
Y396145D01*
X31450Y395145D01*
X32449D01*
Y399144D01*
X34449Y393145D02*
X30450D01*
Y390146D01*
X31450Y389147D01*
X34449D01*
X16732Y5967D02*
Y1969D01*
Y3968D01*
X15733Y4967D01*
X14733Y5967D01*
X13733D01*
X7735Y1969D02*
X9735D01*
X10734Y2968D01*
Y4967D01*
X9735Y5967D01*
X7735D01*
X6735Y4967D01*
Y3968D01*
X10734D01*
X738Y7967D02*
Y1969D01*
X3737D01*
X4736Y2968D01*
Y4967D01*
X3737Y5967D01*
X738D01*
D32*
X24772Y287303D02*
Y287697D01*
X21228Y287303D02*
Y287697D01*
X17224Y73272D02*
X18602D01*
X21358Y70516D01*
Y55555D02*
Y70516D01*
X6398Y73272D02*
X7776D01*
X3642Y70516D02*
X6398Y73272D01*
X3642Y55555D02*
Y70516D01*
X17224Y55555D02*
X21358D01*
X3642D02*
X7776D01*
X17500Y1000D02*
X37500D01*
X17500Y51000D02*
X37500D01*
X17500Y1000D02*
Y51000D01*
X37500Y1000D02*
Y51000D01*
X49772Y86303D02*
Y86697D01*
X46228Y86303D02*
Y86697D01*
X52772Y218303D02*
Y218697D01*
X49228Y218303D02*
Y218697D01*
X2728Y216303D02*
Y216697D01*
X6272Y216303D02*
Y216697D01*
X52272Y128803D02*
Y129197D01*
X48728Y128803D02*
Y129197D01*
X52772Y244303D02*
Y244697D01*
X49228Y244303D02*
Y244697D01*
X41772Y264803D02*
Y265197D01*
X38228Y264803D02*
Y265197D01*
X29728Y264803D02*
Y265197D01*
X33272Y264803D02*
Y265197D01*
Y280303D02*
Y280697D01*
X29728Y280303D02*
Y280697D01*
X52272Y281303D02*
Y281697D01*
X48728Y281303D02*
Y281697D01*
X2228Y363303D02*
Y363697D01*
X5772Y363303D02*
Y363697D01*
X48728Y316303D02*
Y316697D01*
X52272Y316303D02*
Y316697D01*
X3228Y311803D02*
Y312197D01*
X6772Y311803D02*
Y312197D01*
X15228Y213803D02*
Y214197D01*
X18772Y213803D02*
Y214197D01*
X36398Y55642D02*
X37776D01*
X33642Y58398D02*
X36398Y55642D01*
X33642Y58398D02*
Y73358D01*
X47224Y55642D02*
X48602D01*
X51358Y58398D01*
Y73358D01*
X33642D02*
X37776D01*
X47224D02*
X51358D01*
X9272Y86303D02*
Y86697D01*
X5728Y86303D02*
Y86697D01*
X6272Y247803D02*
Y248197D01*
X2728Y247803D02*
Y248197D01*
X24772Y271803D02*
Y272197D01*
X21228Y271803D02*
Y272197D01*
X24772Y256303D02*
Y256697D01*
X21228Y256303D02*
Y256697D01*
X36272Y240803D02*
Y241197D01*
X32728Y240803D02*
Y241197D01*
X7803Y234772D02*
X8197D01*
X7803Y231228D02*
X8197D01*
X38228Y280303D02*
Y280697D01*
X41772Y280303D02*
Y280697D01*
X12728Y256303D02*
Y256697D01*
X16272Y256303D02*
Y256697D01*
X34803Y254772D02*
X35197D01*
X34803Y251228D02*
X35197D01*
X5228Y270303D02*
Y270697D01*
X8772Y270303D02*
Y270697D01*
X42303Y226728D02*
X42697D01*
X42303Y230272D02*
X42697D01*
M02*
