G04 Layer_Color=32768*
%FSLAX25Y25*%
%MOIN*%
G70*
G01*
G75*
%ADD51C,0.00394*%
%ADD54C,0.00197*%
D51*
X6000Y32531D02*
Y36468D01*
X4031Y34500D02*
X7969D01*
X13500Y71031D02*
Y74968D01*
X11531Y73000D02*
X15469D01*
X12032Y59000D02*
X15969D01*
X14000Y57032D02*
Y60969D01*
X15032Y31500D02*
X18969D01*
X17000Y29531D02*
Y33468D01*
X26032Y217500D02*
X29969D01*
X28000Y215531D02*
Y219468D01*
X49000Y32531D02*
Y36468D01*
X47032Y34500D02*
X50968D01*
X35000Y34532D02*
Y38469D01*
X33031Y36500D02*
X36968D01*
X27531Y265500D02*
X31468D01*
X29500Y263531D02*
Y267469D01*
D54*
X38130Y280500D02*
X41870D01*
X40000Y278630D02*
Y282370D01*
X35866Y272823D02*
Y288177D01*
X44134Y272823D02*
Y288177D01*
X35866D02*
X44134D01*
X35866Y272823D02*
X44134D01*
X29630Y281957D02*
X33370D01*
X31500Y280087D02*
Y283827D01*
X27366Y274279D02*
Y289634D01*
X35634Y274279D02*
Y289634D01*
X27366D02*
X35634D01*
X27366Y274279D02*
X35634D01*
X46866Y241323D02*
X55134D01*
X46866Y256677D02*
X55134D01*
Y241323D02*
Y256677D01*
X46866Y241323D02*
Y256677D01*
X51000Y247130D02*
Y250870D01*
X49130Y249000D02*
X52870D01*
X366Y224177D02*
X8634D01*
X366Y208823D02*
X8634D01*
X366D02*
Y224177D01*
X8634Y208823D02*
Y224177D01*
X4500Y214630D02*
Y218370D01*
X2630Y216500D02*
X6370D01*
X46366Y121323D02*
X54634D01*
X46366Y136677D02*
X54634D01*
Y121323D02*
Y136677D01*
X46366Y121323D02*
Y136677D01*
X50500Y127130D02*
Y130870D01*
X48630Y129000D02*
X52370D01*
X366Y231177D02*
X8634D01*
X366Y215823D02*
X8634D01*
Y231177D01*
X366Y215823D02*
Y231177D01*
X4500Y221630D02*
Y225370D01*
X2630Y223500D02*
X6370D01*
X1866Y246823D02*
X10134D01*
X1866Y262177D02*
X10134D01*
X1866Y246823D02*
Y262177D01*
X10134Y246823D02*
Y262177D01*
X6000Y252630D02*
Y256370D01*
X4130Y254500D02*
X7870D01*
X47366Y255677D02*
X55634D01*
X47366Y240323D02*
X55634D01*
Y255677D01*
X47366Y240323D02*
Y255677D01*
X51500Y246130D02*
Y249870D01*
X49630Y248000D02*
X53370D01*
X35866Y257323D02*
X44134D01*
X35866Y272677D02*
X44134D01*
Y257323D02*
Y272677D01*
X35866Y257323D02*
Y272677D01*
X40000Y263130D02*
Y266870D01*
X38130Y265000D02*
X41870D01*
X-134Y278177D02*
X8134D01*
X-134Y262823D02*
X8134D01*
Y278177D01*
X-134Y262823D02*
Y278177D01*
X4000Y268630D02*
Y272370D01*
X2130Y270500D02*
X5870D01*
X-134Y293677D02*
X8134D01*
X-134Y278323D02*
X8134D01*
Y293677D01*
X-134Y278323D02*
Y293677D01*
X4000Y284130D02*
Y287870D01*
X2130Y286000D02*
X5870D01*
X27366Y272677D02*
X35634D01*
X27366Y257323D02*
X35634D01*
X27366D02*
Y272677D01*
X35634Y257323D02*
Y272677D01*
X31500Y263130D02*
Y266870D01*
X29630Y265000D02*
X33370D01*
X47366Y260323D02*
X55634D01*
X47366Y275677D02*
X55634D01*
X47366Y260323D02*
Y275677D01*
X55634Y260323D02*
Y275677D01*
X51500Y266130D02*
Y269870D01*
X49630Y268000D02*
X53370D01*
X46366Y273823D02*
X54634D01*
X46366Y289177D02*
X54634D01*
Y273823D02*
Y289177D01*
X46366Y273823D02*
Y289177D01*
X50500Y279630D02*
Y283370D01*
X48630Y281500D02*
X52370D01*
X46366Y290823D02*
X54634D01*
X46366Y306177D02*
X54634D01*
X46366Y290823D02*
Y306177D01*
X54634Y290823D02*
Y306177D01*
X50500Y296630D02*
Y300370D01*
X48630Y298500D02*
X52370D01*
X-134Y371177D02*
X8134D01*
X-134Y355823D02*
X8134D01*
X-134D02*
Y371177D01*
X8134Y355823D02*
Y371177D01*
X4000Y361630D02*
Y365370D01*
X2130Y363500D02*
X5870D01*
X46366Y324177D02*
X54634D01*
X46366Y308823D02*
X54634D01*
X46366D02*
Y324177D01*
X54634Y308823D02*
Y324177D01*
X50500Y314630D02*
Y318370D01*
X48630Y316500D02*
X52370D01*
X866Y319677D02*
X9134D01*
X866Y304323D02*
X9134D01*
X866D02*
Y319677D01*
X9134Y304323D02*
Y319677D01*
X5000Y310130D02*
Y313870D01*
X3130Y312000D02*
X6870D01*
X18866Y279823D02*
X27134D01*
X18866Y295177D02*
X27134D01*
Y279823D02*
Y295177D01*
X18866Y279823D02*
Y295177D01*
X23000Y285630D02*
Y289370D01*
X21130Y287500D02*
X24870D01*
X1866Y24264D02*
X10134D01*
X1866Y44736D02*
X10134D01*
X1866Y24264D02*
Y44736D01*
X10134Y24264D02*
Y44736D01*
X6610Y69063D02*
X20390D01*
X6610Y76937D02*
X20390D01*
Y69063D02*
Y76937D01*
X6610Y69063D02*
Y76937D01*
X26598Y49354D02*
Y68646D01*
X1402Y49354D02*
X26598D01*
X1402D02*
Y68646D01*
X26598D01*
X21130Y272000D02*
X24870D01*
X23000Y270130D02*
Y273870D01*
X27134Y264323D02*
Y279677D01*
X18866Y264323D02*
Y279677D01*
Y264323D02*
X27134D01*
X18866Y279677D02*
X27134D01*
X21130Y256500D02*
X24870D01*
X23000Y254630D02*
Y258370D01*
X27134Y248823D02*
Y264177D01*
X18866Y248823D02*
Y264177D01*
Y248823D02*
X27134D01*
X18866Y264177D02*
X27134D01*
X32630Y241000D02*
X36370D01*
X34500Y239130D02*
Y242870D01*
X38634Y233323D02*
Y248677D01*
X30366Y233323D02*
Y248677D01*
Y233323D02*
X38634D01*
X30366Y248677D02*
X38634D01*
X8000Y231130D02*
Y234870D01*
X6130Y233000D02*
X9870D01*
X323Y237134D02*
X15677D01*
X323Y228866D02*
X15677D01*
Y237134D01*
X323Y228866D02*
Y237134D01*
X12630Y256500D02*
X16370D01*
X14500Y254630D02*
Y258370D01*
X10366Y248823D02*
Y264177D01*
X18634Y248823D02*
Y264177D01*
X10366D02*
X18634D01*
X10366Y248823D02*
X18634D01*
X35000Y251130D02*
Y254870D01*
X33130Y253000D02*
X36870D01*
X27323Y257134D02*
X42677D01*
X27323Y248866D02*
X42677D01*
Y257134D01*
X27323Y248866D02*
Y257134D01*
X5130Y270500D02*
X8870D01*
X7000Y268630D02*
Y272370D01*
X2866Y262823D02*
Y278177D01*
X11134Y262823D02*
Y278177D01*
X2866D02*
X11134D01*
X2866Y262823D02*
X11134D01*
X48630Y282957D02*
X52370D01*
X50500Y281087D02*
Y284827D01*
X46366Y275279D02*
Y290634D01*
X54634Y275279D02*
Y290634D01*
X46366Y275279D02*
X54634D01*
X46366Y290634D02*
X54634D01*
X4130Y248043D02*
X7870D01*
X6000Y246173D02*
Y249913D01*
X10134Y240366D02*
Y255720D01*
X1866Y240366D02*
Y255720D01*
Y240366D02*
X10134D01*
X1866Y255720D02*
X10134D01*
X13063Y24610D02*
Y38390D01*
X20937Y24610D02*
Y38390D01*
X13063Y24610D02*
X20937D01*
X13063Y38390D02*
X20937D01*
X14811Y207264D02*
Y227736D01*
X41189Y207264D02*
Y227736D01*
X14811D02*
X41189D01*
X14811Y207264D02*
X41189D01*
X44866Y44736D02*
X53134D01*
X44866Y24264D02*
X53134D01*
Y44736D01*
X44866Y24264D02*
Y44736D01*
X25354Y23902D02*
X44646D01*
X25354D02*
Y49098D01*
X44646D01*
Y23902D02*
Y49098D01*
X46866Y210823D02*
X55134D01*
X46866Y226177D02*
X55134D01*
Y210823D02*
Y226177D01*
X46866Y210823D02*
Y226177D01*
X51000Y216630D02*
Y220370D01*
X49130Y218500D02*
X52870D01*
X7354Y239516D02*
Y291484D01*
X51646Y239516D02*
Y291484D01*
X7354D02*
X51646D01*
X7354Y239516D02*
X51646D01*
M02*
