G04 Layer_Physical_Order=2*
G04 Layer_Color=16711680*
%FSLAX25Y25*%
%MOIN*%
G70*
G01*
G75*
%ADD10R,0.04331X0.04331*%
%ADD18C,0.00800*%
%ADD19C,0.02000*%
%ADD20C,0.01000*%
%ADD21C,0.05000*%
%ADD22C,0.03000*%
%ADD23C,0.06000*%
%ADD24C,0.11811*%
%ADD25C,0.09842*%
%ADD26R,0.05905X0.05905*%
%ADD27C,0.05905*%
%ADD28C,0.02756*%
%ADD29C,0.02000*%
%ADD30R,0.04331X0.04331*%
G36*
X34200Y309416D02*
X33849Y308958D01*
X33446Y307985D01*
X33308Y306941D01*
X33446Y305897D01*
X33849Y304924D01*
X34490Y304088D01*
X35303Y303464D01*
Y291158D01*
X35459Y290377D01*
X35901Y289716D01*
X37888Y287728D01*
X37852Y287393D01*
X37801Y287222D01*
X37444Y287151D01*
X37114Y286930D01*
X36893Y286599D01*
X36815Y286209D01*
Y281878D01*
X36893Y281488D01*
X37114Y281157D01*
X37444Y280936D01*
X37835Y280858D01*
X40878D01*
X41047Y280642D01*
X40802Y280142D01*
X37835D01*
X37444Y280064D01*
X37114Y279843D01*
X36893Y279512D01*
X36815Y279122D01*
Y277834D01*
X36298Y277317D01*
X35838Y277564D01*
X35925Y278000D01*
X35740Y278928D01*
X35214Y279714D01*
X34685Y280068D01*
Y280579D01*
X34607Y280969D01*
X34386Y281300D01*
X34056Y281521D01*
X33665Y281598D01*
X32500D01*
Y278413D01*
X30500D01*
Y281598D01*
X30139D01*
X29890Y282098D01*
X30054Y282315D01*
X33665D01*
X34056Y282393D01*
X34386Y282614D01*
X34607Y282944D01*
X34685Y283335D01*
Y287665D01*
X34607Y288055D01*
X34386Y288386D01*
X34056Y288607D01*
X33818Y288963D01*
X33924Y289500D01*
X33740Y290428D01*
X33214Y291214D01*
X32428Y291740D01*
X31500Y291925D01*
X30572Y291740D01*
X29786Y291214D01*
X29260Y290428D01*
X29076Y289500D01*
X29182Y288963D01*
X28945Y288607D01*
X28614Y288386D01*
X28393Y288055D01*
X28315Y287665D01*
Y287248D01*
X27815Y286981D01*
X27428Y287240D01*
X26500Y287424D01*
X25572Y287240D01*
X25365Y287102D01*
X25165Y287142D01*
X20835D01*
X20445Y287064D01*
X20114Y286843D01*
X19893Y286512D01*
X19815Y286122D01*
Y281791D01*
X19893Y281401D01*
X20114Y281070D01*
X20445Y280849D01*
X20835Y280772D01*
X21220D01*
X21371Y280272D01*
X21286Y280214D01*
X20760Y279428D01*
X20755Y279402D01*
X20245D01*
X20240Y279428D01*
X19714Y280214D01*
X18928Y280740D01*
X18000Y280925D01*
X17072Y280740D01*
X16955Y280661D01*
X16505Y280962D01*
X16539Y281136D01*
Y286000D01*
X16384Y286780D01*
X15942Y287442D01*
X12539Y290845D01*
Y310169D01*
X12714Y310286D01*
X13240Y311072D01*
X13424Y312000D01*
X13240Y312928D01*
X12714Y313714D01*
X12346Y313961D01*
X12497Y314461D01*
X29155D01*
X34200Y309416D01*
D02*
G37*
G36*
X37114Y274070D02*
X37444Y273849D01*
X37835Y273772D01*
X38573D01*
Y271728D01*
X37835D01*
X37444Y271651D01*
X37114Y271430D01*
X36893Y271099D01*
X36815Y270709D01*
Y266378D01*
X36893Y265988D01*
X37114Y265657D01*
X37444Y265436D01*
X37835Y265358D01*
X42165D01*
X42555Y265436D01*
X42763Y265574D01*
X43619Y264718D01*
X43576Y264500D01*
X43760Y263572D01*
X44286Y262786D01*
X45072Y262260D01*
X46000Y262075D01*
X46928Y262260D01*
X47714Y262786D01*
X48240Y263572D01*
X48425Y264500D01*
X48240Y265428D01*
X47714Y266214D01*
X46928Y266740D01*
X46000Y266925D01*
X45782Y266881D01*
X45195Y267468D01*
Y270079D01*
X45291Y270223D01*
X45407Y270808D01*
Y273727D01*
X45907Y273934D01*
X47614Y272227D01*
X47616Y272220D01*
X48058Y271558D01*
X48720Y271116D01*
X49500Y270961D01*
X49961Y271053D01*
X50461Y270681D01*
Y263713D01*
X45393Y258645D01*
X44951Y257983D01*
X44796Y257203D01*
Y239245D01*
X44295Y239093D01*
X44214Y239214D01*
X43500Y239692D01*
Y237500D01*
Y235308D01*
X44214Y235786D01*
X44295Y235907D01*
X44796Y235755D01*
Y232665D01*
X44951Y231885D01*
X45393Y231223D01*
X48961Y227655D01*
Y225228D01*
X48835D01*
X48445Y225151D01*
X48114Y224930D01*
X47893Y224599D01*
X47815Y224209D01*
Y222600D01*
X47315Y222550D01*
X47240Y222928D01*
X46714Y223714D01*
X45928Y224240D01*
X45000Y224425D01*
X44072Y224240D01*
X43772Y224039D01*
X43000D01*
X43000Y224039D01*
X42220Y223884D01*
X41558Y223442D01*
X41558Y223442D01*
X33058Y214942D01*
X32616Y214280D01*
X32461Y213500D01*
Y205500D01*
X32616Y204720D01*
X33058Y204058D01*
X40961Y196155D01*
Y141715D01*
X29996Y130750D01*
X29777Y130867D01*
X28661Y131206D01*
X27500Y131320D01*
X26339Y131206D01*
X25223Y130867D01*
X24194Y130317D01*
X23293Y129577D01*
X22553Y128676D01*
X22003Y127647D01*
X21664Y126531D01*
X21550Y125370D01*
X21664Y124209D01*
X22003Y123093D01*
X22553Y122064D01*
X23293Y121163D01*
X24194Y120423D01*
X25223Y119873D01*
X26339Y119535D01*
X27500Y119420D01*
X28661Y119535D01*
X29777Y119873D01*
X30806Y120423D01*
X31707Y121163D01*
X32334Y121926D01*
X50500D01*
X51414Y122047D01*
X51957Y122272D01*
X52665D01*
X53056Y122349D01*
X53175Y122429D01*
X53675Y122170D01*
Y1326D01*
X1326D01*
Y175066D01*
X1825Y175236D01*
X2004Y175004D01*
X12504Y164504D01*
X13235Y163943D01*
X14086Y163590D01*
X15000Y163470D01*
X15914Y163590D01*
X16765Y163943D01*
X17496Y164504D01*
X18057Y165235D01*
X18410Y166086D01*
X18530Y167000D01*
X18410Y167914D01*
X18057Y168765D01*
X17496Y169496D01*
X8030Y178962D01*
Y200500D01*
X7910Y201414D01*
X7557Y202265D01*
X6996Y202996D01*
X6265Y203557D01*
X5414Y203910D01*
X4500Y204030D01*
X3586Y203910D01*
X2735Y203557D01*
X2004Y202996D01*
X1825Y202764D01*
X1326Y202934D01*
Y209670D01*
X1825Y209929D01*
X1945Y209849D01*
X2335Y209772D01*
X4080D01*
X21284Y192568D01*
X22008Y192084D01*
X22553Y191065D01*
X23293Y190163D01*
X24194Y189423D01*
X25223Y188873D01*
X26339Y188534D01*
X27500Y188420D01*
X28661Y188534D01*
X29777Y188873D01*
X30806Y189423D01*
X31707Y190163D01*
X32447Y191065D01*
X32997Y192093D01*
X33336Y193209D01*
X33450Y194370D01*
X33336Y195531D01*
X32997Y196647D01*
X32447Y197676D01*
X31707Y198577D01*
X30806Y199317D01*
X29777Y199867D01*
X28661Y200206D01*
X27500Y200320D01*
X26339Y200206D01*
X25223Y199867D01*
X24194Y199317D01*
X23293Y198577D01*
X23165Y198421D01*
X22665Y198396D01*
X7685Y213376D01*
Y215122D01*
X7607Y215512D01*
X7386Y215843D01*
X7056Y216064D01*
X6665Y216142D01*
X2335D01*
X1945Y216064D01*
X1825Y215985D01*
X1326Y216243D01*
Y216757D01*
X1825Y217016D01*
X1945Y216936D01*
X2335Y216858D01*
X6665D01*
X7056Y216936D01*
X7386Y217157D01*
X7607Y217488D01*
X7685Y217878D01*
Y217961D01*
X9772D01*
X10072Y217760D01*
X11000Y217576D01*
X11928Y217760D01*
X12714Y218286D01*
X13240Y219072D01*
X13424Y220000D01*
X13240Y220928D01*
X12714Y221714D01*
X11928Y222240D01*
X11000Y222425D01*
X10072Y222240D01*
X9772Y222039D01*
X7685D01*
Y222209D01*
X7607Y222599D01*
X7386Y222930D01*
X7056Y223151D01*
X6665Y223228D01*
X2335D01*
X1945Y223151D01*
X1825Y223071D01*
X1326Y223330D01*
Y229676D01*
X1825Y229943D01*
X1901Y229893D01*
X2291Y229815D01*
X3457D01*
Y233000D01*
Y236185D01*
X2291D01*
X1901Y236107D01*
X1825Y236057D01*
X1326Y236324D01*
Y245703D01*
X1787Y245894D01*
X2181Y245500D01*
X6000D01*
Y244500D01*
X7000D01*
Y245500D01*
X9192D01*
X9185Y245510D01*
Y246441D01*
X9283Y246556D01*
X9586Y246771D01*
X9669Y246793D01*
X10291Y246670D01*
X17583D01*
X20961Y243291D01*
Y234414D01*
X20520Y234178D01*
X20428Y234240D01*
X20023Y234320D01*
X19942Y234442D01*
X19280Y234884D01*
X18500Y235039D01*
X14728D01*
Y235165D01*
X14651Y235556D01*
X14430Y235886D01*
X14099Y236107D01*
X13709Y236185D01*
X9378D01*
X8988Y236107D01*
X8657Y235886D01*
X8436Y235556D01*
X8358Y235165D01*
Y230835D01*
X8436Y230445D01*
X8657Y230114D01*
X8988Y229893D01*
X9378Y229815D01*
X13709D01*
X14099Y229893D01*
X14430Y230114D01*
X14651Y230445D01*
X14728Y230835D01*
Y230961D01*
X17334D01*
X17786Y230286D01*
X18572Y229760D01*
X19500Y229575D01*
X20428Y229760D01*
X20520Y229821D01*
X20961Y229586D01*
Y215500D01*
X21116Y214720D01*
X21558Y214058D01*
X24190Y211427D01*
X24260Y211072D01*
X24786Y210286D01*
X25572Y209760D01*
X26500Y209576D01*
X27428Y209760D01*
X28214Y210286D01*
X28740Y211072D01*
X28925Y212000D01*
X28740Y212928D01*
X28214Y213714D01*
X27428Y214240D01*
X27073Y214311D01*
X25039Y216345D01*
Y230503D01*
X25539Y230654D01*
X25786Y230286D01*
X26572Y229760D01*
X27500Y229575D01*
X28428Y229760D01*
X29214Y230286D01*
X29740Y231072D01*
X29924Y232000D01*
X29740Y232928D01*
X29539Y233228D01*
Y243772D01*
X29740Y244072D01*
X29853Y244639D01*
X30408Y244869D01*
X30572Y244760D01*
X31315Y244612D01*
Y242378D01*
X31393Y241988D01*
X31614Y241657D01*
X31945Y241436D01*
X32335Y241358D01*
X36665D01*
X37056Y241436D01*
X37386Y241657D01*
X37607Y241988D01*
X37685Y242378D01*
Y246709D01*
X37607Y247099D01*
X37386Y247430D01*
X37056Y247651D01*
X36665Y247728D01*
X33780D01*
X33740Y247928D01*
X33214Y248714D01*
X32428Y249240D01*
X32050Y249315D01*
X32100Y249815D01*
X33622D01*
X34012Y249893D01*
X34082Y249939D01*
X34732Y249865D01*
X34786Y249786D01*
X35572Y249260D01*
X36500Y249076D01*
X37428Y249260D01*
X38214Y249786D01*
X38234Y249815D01*
X40709D01*
X41099Y249893D01*
X41430Y250114D01*
X41651Y250445D01*
X41728Y250835D01*
Y255165D01*
X41651Y255556D01*
X41430Y255886D01*
X41099Y256107D01*
X40709Y256185D01*
X39971D01*
Y258272D01*
X42165D01*
X42555Y258349D01*
X42886Y258570D01*
X43107Y258901D01*
X43185Y259291D01*
Y263622D01*
X43107Y264012D01*
X42886Y264343D01*
X42555Y264564D01*
X42165Y264642D01*
X37835D01*
X37444Y264564D01*
X37114Y264343D01*
X36893Y264012D01*
X36815Y263622D01*
Y262884D01*
X34685D01*
Y263622D01*
X34607Y264012D01*
X34386Y264343D01*
X34056Y264564D01*
X33665Y264642D01*
X29489D01*
X29311Y264880D01*
X29425Y265171D01*
X29601Y265358D01*
X33665D01*
X34056Y265436D01*
X34386Y265657D01*
X34607Y265988D01*
X34685Y266378D01*
Y270709D01*
X34607Y271099D01*
X34386Y271430D01*
X34172Y271573D01*
X34302Y272073D01*
X34500D01*
X34500Y272073D01*
X35046Y272181D01*
X35509Y272491D01*
X37091Y274073D01*
X37114Y274070D01*
D02*
G37*
G36*
X7689Y282427D02*
X7760Y282072D01*
X8286Y281286D01*
X9072Y280760D01*
X10000Y280575D01*
X10928Y280760D01*
X11714Y281286D01*
X11767Y281365D01*
X12239Y281170D01*
X12175Y280850D01*
Y278286D01*
X12330Y277506D01*
X12772Y276844D01*
X13434Y276402D01*
X14214Y276247D01*
X14994Y276402D01*
X15082Y276461D01*
X16772D01*
X17072Y276260D01*
X18000Y276076D01*
X18928Y276260D01*
X19315Y276519D01*
X19815Y276252D01*
Y273378D01*
X19893Y272988D01*
X20114Y272657D01*
X20445Y272436D01*
X20835Y272358D01*
X22000D01*
Y275543D01*
X24000D01*
Y272358D01*
X25165D01*
X25556Y272436D01*
X25948Y272097D01*
X25991Y272034D01*
X28315Y269709D01*
Y266378D01*
X28325Y266327D01*
X27885Y266020D01*
X26957Y266205D01*
X26621Y266138D01*
X26185Y266561D01*
Y270622D01*
X26107Y271012D01*
X25886Y271343D01*
X25556Y271564D01*
X25165Y271642D01*
X20835D01*
X20445Y271564D01*
X20114Y271343D01*
X19893Y271012D01*
X19815Y270622D01*
Y266291D01*
X19893Y265901D01*
X20114Y265570D01*
X20445Y265349D01*
X20835Y265272D01*
X20961D01*
Y263228D01*
X20835D01*
X20445Y263151D01*
X20114Y262930D01*
X19893Y262599D01*
X19815Y262209D01*
Y257878D01*
X19893Y257488D01*
X20114Y257157D01*
X20445Y256936D01*
X20835Y256858D01*
X25165D01*
X25556Y256936D01*
X25899Y256564D01*
X25947Y256491D01*
X28272Y254166D01*
Y250835D01*
X28349Y250445D01*
X28570Y250114D01*
X28901Y249893D01*
X29291Y249815D01*
X30900D01*
X30950Y249315D01*
X30572Y249240D01*
X29786Y248714D01*
X29260Y247928D01*
X29147Y247361D01*
X28592Y247130D01*
X28428Y247240D01*
X27500Y247425D01*
X26818Y247289D01*
X26517Y247739D01*
X26740Y248072D01*
X26924Y249000D01*
X26740Y249928D01*
X26214Y250714D01*
X26175Y250741D01*
X26185Y250791D01*
Y255122D01*
X26107Y255512D01*
X25886Y255843D01*
X25556Y256064D01*
X25165Y256142D01*
X20835D01*
X20445Y256064D01*
X20114Y255843D01*
X19893Y255512D01*
X19815Y255122D01*
Y250791D01*
X19816Y250788D01*
X19366Y250487D01*
X19208Y250593D01*
X18427Y250748D01*
X17721D01*
X17685Y250791D01*
Y251957D01*
X14500D01*
Y252957D01*
X13500D01*
Y256142D01*
X12335D01*
X12331Y256145D01*
Y256855D01*
X12335Y256858D01*
X16665D01*
X17055Y256936D01*
X17386Y257157D01*
X17607Y257488D01*
X17685Y257878D01*
Y262209D01*
X17607Y262599D01*
X17386Y262930D01*
X17055Y263151D01*
X16665Y263228D01*
X13039D01*
Y266500D01*
X13039Y266500D01*
X12884Y267280D01*
X12862Y267313D01*
X12740Y267928D01*
X12214Y268714D01*
X11428Y269240D01*
X10500Y269425D01*
X10299Y269385D01*
X10107Y269512D01*
X9886Y269843D01*
X9556Y270064D01*
X9165Y270142D01*
X4835D01*
X4445Y270064D01*
X4114Y269843D01*
X3893Y269512D01*
X3815Y269122D01*
Y264791D01*
X3893Y264401D01*
X4114Y264070D01*
X4445Y263849D01*
X4835Y263772D01*
X8961D01*
Y260345D01*
X8849Y260233D01*
X8407Y259572D01*
X8252Y258791D01*
Y255309D01*
X7752Y255069D01*
X7280Y255384D01*
X6500Y255539D01*
X5720Y255384D01*
X5058Y254942D01*
X4944Y254771D01*
X3835D01*
X3627Y254730D01*
X3127Y255038D01*
Y286391D01*
X3627Y286489D01*
X7689Y282427D01*
D02*
G37*
G36*
X53675Y399635D02*
X53175Y399487D01*
X52221Y400270D01*
X51022Y400911D01*
X49720Y401306D01*
X48366Y401439D01*
X47012Y401306D01*
X45711Y400911D01*
X44511Y400270D01*
X43460Y399407D01*
X42597Y398355D01*
X41955Y397155D01*
X41561Y395854D01*
X41427Y394500D01*
X41561Y393146D01*
X41955Y391845D01*
X42597Y390645D01*
X43460Y389593D01*
X44511Y388731D01*
X45711Y388089D01*
X47012Y387694D01*
X48366Y387561D01*
X49720Y387694D01*
X51022Y388089D01*
X52221Y388731D01*
X53175Y389513D01*
X53675Y389365D01*
Y339635D01*
X53175Y339487D01*
X52221Y340269D01*
X51022Y340911D01*
X49720Y341306D01*
X48366Y341439D01*
X47012Y341306D01*
X45711Y340911D01*
X44511Y340269D01*
X43460Y339407D01*
X42597Y338355D01*
X41955Y337155D01*
X41561Y335854D01*
X41427Y334500D01*
X41561Y333146D01*
X41955Y331845D01*
X42597Y330645D01*
X43460Y329593D01*
X44511Y328731D01*
X45711Y328089D01*
X47012Y327694D01*
X48366Y327561D01*
X49720Y327694D01*
X51022Y328089D01*
X52221Y328731D01*
X53175Y329513D01*
X53675Y329365D01*
Y323330D01*
X53175Y323071D01*
X53056Y323151D01*
X52665Y323228D01*
X48335D01*
X47945Y323151D01*
X47614Y322930D01*
X47393Y322599D01*
X47331Y322289D01*
X41978D01*
X41678Y322490D01*
X40750Y322674D01*
X39822Y322490D01*
X39036Y321964D01*
X38510Y321178D01*
X38326Y320250D01*
X38510Y319322D01*
X39036Y318536D01*
X39822Y318010D01*
X40750Y317826D01*
X41678Y318010D01*
X41978Y318211D01*
X47315D01*
Y317878D01*
X47393Y317488D01*
X47614Y317157D01*
X47945Y316936D01*
X48335Y316858D01*
X52665D01*
X53056Y316936D01*
X53175Y317016D01*
X53675Y316757D01*
Y316243D01*
X53175Y315985D01*
X53056Y316064D01*
X52665Y316142D01*
X48335D01*
X47945Y316064D01*
X47614Y315843D01*
X47393Y315512D01*
X47315Y315122D01*
Y314996D01*
X44772D01*
X44471Y315197D01*
X43543Y315381D01*
X42616Y315197D01*
X42315Y314996D01*
X41388D01*
X36539Y319845D01*
Y327155D01*
X38784Y329401D01*
X39226Y330062D01*
X39382Y330842D01*
Y363464D01*
X40195Y364088D01*
X40837Y364924D01*
X41240Y365897D01*
X41377Y366941D01*
X41240Y367985D01*
X40837Y368958D01*
X40195Y369794D01*
X39360Y370435D01*
X38387Y370838D01*
X37343Y370975D01*
X36298Y370838D01*
X35325Y370435D01*
X34490Y369794D01*
X33849Y368958D01*
X33446Y367985D01*
X33308Y366941D01*
X33446Y365897D01*
X33849Y364924D01*
X34490Y364088D01*
X35303Y363464D01*
Y331687D01*
X33058Y329442D01*
X32616Y328780D01*
X32461Y328000D01*
Y319000D01*
X32616Y318220D01*
X33058Y317558D01*
X39101Y311515D01*
X39763Y311073D01*
X40461Y310934D01*
Y310220D01*
X39961Y309974D01*
X39360Y310435D01*
X38658Y310725D01*
X31442Y317942D01*
X30780Y318384D01*
X30000Y318539D01*
X7722D01*
X7555Y318651D01*
X7165Y318728D01*
X2835D01*
X2444Y318651D01*
X2114Y318430D01*
X1893Y318099D01*
X1825Y317761D01*
X1326Y317810D01*
Y329365D01*
X1825Y329513D01*
X2779Y328731D01*
X3979Y328089D01*
X5280Y327694D01*
X6634Y327561D01*
X7988Y327694D01*
X9289Y328089D01*
X10489Y328731D01*
X11540Y329593D01*
X12403Y330645D01*
X13045Y331845D01*
X13439Y333146D01*
X13573Y334500D01*
X13439Y335854D01*
X13045Y337155D01*
X12403Y338355D01*
X11540Y339407D01*
X10489Y340269D01*
X9289Y340911D01*
X7988Y341306D01*
X6634Y341439D01*
X5280Y341306D01*
X3979Y340911D01*
X2779Y340269D01*
X1825Y339487D01*
X1326Y339635D01*
Y356373D01*
X1825Y356774D01*
X1835Y356772D01*
X4301D01*
X7200Y353873D01*
X7260Y353572D01*
X7786Y352786D01*
X8572Y352260D01*
X9500Y352076D01*
X10428Y352260D01*
X11214Y352786D01*
X11740Y353572D01*
X11925Y354500D01*
X11740Y355428D01*
X11214Y356214D01*
X10428Y356740D01*
X10019Y356821D01*
X7185Y359656D01*
Y362122D01*
X7107Y362512D01*
X6886Y362843D01*
X6555Y363064D01*
X6165Y363142D01*
X1835D01*
X1733Y363462D01*
X2143Y363858D01*
X6165D01*
X6555Y363936D01*
X6886Y364157D01*
X7107Y364488D01*
X7185Y364878D01*
Y365004D01*
X14130D01*
X14164Y364924D01*
X14805Y364088D01*
X15640Y363447D01*
X16613Y363044D01*
X17658Y362906D01*
X18702Y363044D01*
X19675Y363447D01*
X20510Y364088D01*
X21135Y364902D01*
X24023D01*
X24647Y364088D01*
X25483Y363447D01*
X26456Y363044D01*
X27500Y362906D01*
X28544Y363044D01*
X29517Y363447D01*
X30353Y364088D01*
X30994Y364924D01*
X31397Y365897D01*
X31534Y366941D01*
X31397Y367985D01*
X30994Y368958D01*
X30353Y369794D01*
X29517Y370435D01*
X28544Y370838D01*
X27500Y370975D01*
X26456Y370838D01*
X25483Y370435D01*
X24647Y369794D01*
X24023Y368980D01*
X21135D01*
X20510Y369794D01*
X19675Y370435D01*
X18702Y370838D01*
X17658Y370975D01*
X16613Y370838D01*
X15640Y370435D01*
X14805Y369794D01*
X14259Y369082D01*
X7185D01*
Y369209D01*
X7107Y369599D01*
X6886Y369930D01*
X6555Y370151D01*
X6165Y370228D01*
X1835D01*
X1825Y370226D01*
X1326Y370627D01*
Y389365D01*
X1825Y389513D01*
X2779Y388731D01*
X3979Y388089D01*
X5280Y387694D01*
X6634Y387561D01*
X7988Y387694D01*
X9289Y388089D01*
X10489Y388731D01*
X11540Y389593D01*
X12403Y390645D01*
X13045Y391845D01*
X13439Y393146D01*
X13573Y394500D01*
X13439Y395854D01*
X13045Y397155D01*
X12403Y398355D01*
X11540Y399407D01*
X10489Y400270D01*
X9289Y400911D01*
X7988Y401306D01*
X6634Y401439D01*
X5280Y401306D01*
X3979Y400911D01*
X2779Y400270D01*
X1825Y399487D01*
X1326Y399635D01*
Y431674D01*
X53675D01*
Y399635D01*
D02*
G37*
G36*
X47893Y212401D02*
X48114Y212070D01*
X48445Y211849D01*
X48835Y211772D01*
X53165D01*
X53175Y211774D01*
X53675Y211373D01*
Y135830D01*
X53175Y135571D01*
X53056Y135651D01*
X52665Y135728D01*
X52539D01*
Y197500D01*
X52384Y198280D01*
X51942Y198942D01*
X47039Y203845D01*
Y212494D01*
X47874D01*
X47893Y212401D01*
D02*
G37*
G36*
X47315Y310791D02*
X47393Y310401D01*
X47614Y310070D01*
X47945Y309849D01*
X48335Y309772D01*
X52665D01*
X53056Y309849D01*
X53175Y309929D01*
X53675Y309670D01*
Y288330D01*
X53175Y288071D01*
X53056Y288151D01*
X52665Y288228D01*
X51156D01*
X44539Y294845D01*
Y310762D01*
X44772Y310917D01*
X47315D01*
Y310791D01*
D02*
G37*
G36*
X40461Y303661D02*
Y294000D01*
X40616Y293220D01*
X41058Y292558D01*
X47315Y286301D01*
Y284265D01*
X45753Y282703D01*
X45422Y282207D01*
X45305Y281622D01*
Y281608D01*
X44805Y281401D01*
X43185Y283021D01*
Y286209D01*
X43107Y286599D01*
X42886Y286930D01*
X42555Y287151D01*
X42165Y287228D01*
X42039D01*
Y288500D01*
X41884Y289280D01*
X41442Y289942D01*
X39382Y292002D01*
Y303464D01*
X39961Y303908D01*
X40461Y303661D01*
D02*
G37*
G36*
X47815Y221400D02*
Y219878D01*
X47893Y219488D01*
X48114Y219157D01*
X48445Y218936D01*
X48835Y218858D01*
X53165D01*
X53267Y218538D01*
X52857Y218142D01*
X48835D01*
X48445Y218064D01*
X48114Y217843D01*
X47946Y217592D01*
X45043D01*
X44068Y217398D01*
X43241Y216846D01*
X43198Y216802D01*
X42645Y215975D01*
X42451Y215000D01*
X42645Y214024D01*
X42961Y213552D01*
Y203000D01*
X43116Y202220D01*
X43558Y201558D01*
X48461Y196655D01*
Y135728D01*
X48335D01*
X47945Y135651D01*
X47614Y135430D01*
X47393Y135099D01*
X47315Y134709D01*
Y130378D01*
X47393Y129988D01*
X47614Y129657D01*
X47868Y129487D01*
X47846Y129158D01*
X47785Y128987D01*
X34654D01*
X34463Y129449D01*
X44442Y139428D01*
X44884Y140090D01*
X45039Y140870D01*
Y197000D01*
X45039Y197000D01*
X44884Y197780D01*
X44442Y198442D01*
X44442Y198442D01*
X36539Y206345D01*
Y212655D01*
X43815Y219932D01*
X44072Y219760D01*
X45000Y219576D01*
X45928Y219760D01*
X46714Y220286D01*
X47240Y221072D01*
X47315Y221450D01*
X47815Y221400D01*
D02*
G37*
G36*
X52000Y242272D02*
X53165D01*
X53175Y242274D01*
X53675Y241873D01*
Y240271D01*
X53234Y240036D01*
X53000Y240192D01*
Y238000D01*
Y235808D01*
X53234Y235964D01*
X53675Y235729D01*
Y226008D01*
X53175Y225694D01*
X53039Y225759D01*
Y228500D01*
X52884Y229280D01*
X52442Y229942D01*
X48874Y233510D01*
Y242272D01*
X50000D01*
Y245457D01*
X52000D01*
Y242272D01*
D02*
G37*
%LPC*%
G36*
X21000Y300000D02*
X19808D01*
X20286Y299286D01*
X21000Y298808D01*
Y300000D01*
D02*
G37*
G36*
X17000Y295425D02*
X16072Y295240D01*
X15286Y294714D01*
X14760Y293928D01*
X14575Y293000D01*
X14760Y292072D01*
X15286Y291286D01*
X16072Y290760D01*
X17000Y290576D01*
X17928Y290760D01*
X18228Y290961D01*
X19815D01*
Y288878D01*
X19893Y288488D01*
X20114Y288157D01*
X20445Y287936D01*
X20835Y287858D01*
X25165D01*
X25556Y287936D01*
X25886Y288157D01*
X26107Y288488D01*
X26185Y288878D01*
Y293209D01*
X26107Y293599D01*
X25886Y293930D01*
X25556Y294151D01*
X25165Y294228D01*
X22699D01*
X22485Y294442D01*
X21824Y294884D01*
X21043Y295039D01*
X18228D01*
X17928Y295240D01*
X17000Y295425D01*
D02*
G37*
G36*
X24192Y300000D02*
X23000D01*
Y298808D01*
X23714Y299286D01*
X24192Y300000D01*
D02*
G37*
G36*
X23000Y303192D02*
Y302000D01*
X24192D01*
X23714Y302714D01*
X23000Y303192D01*
D02*
G37*
G36*
X21000D02*
X20286Y302714D01*
X19808Y302000D01*
X21000D01*
Y303192D01*
D02*
G37*
G36*
X27500Y310976D02*
X26456Y310838D01*
X25483Y310435D01*
X24647Y309794D01*
X24023Y308980D01*
X21135D01*
X20510Y309794D01*
X19675Y310435D01*
X18702Y310838D01*
X17658Y310976D01*
X16613Y310838D01*
X15640Y310435D01*
X14805Y309794D01*
X14164Y308958D01*
X13760Y307985D01*
X13623Y306941D01*
X13760Y305897D01*
X14164Y304924D01*
X14805Y304088D01*
X15640Y303447D01*
X16613Y303044D01*
X17658Y302906D01*
X18702Y303044D01*
X19675Y303447D01*
X20510Y304088D01*
X21135Y304902D01*
X24023D01*
X24647Y304088D01*
X25483Y303447D01*
X26456Y303044D01*
X27500Y302906D01*
X28544Y303044D01*
X29517Y303447D01*
X30353Y304088D01*
X30994Y304924D01*
X31397Y305897D01*
X31534Y306941D01*
X31397Y307985D01*
X30994Y308958D01*
X30353Y309794D01*
X29517Y310435D01*
X28544Y310838D01*
X27500Y310976D01*
D02*
G37*
G36*
X33351Y79488D02*
X28500D01*
Y74637D01*
X28661Y74653D01*
X29777Y74991D01*
X30806Y75541D01*
X31707Y76281D01*
X32447Y77183D01*
X32997Y78211D01*
X33336Y79327D01*
X33351Y79488D01*
D02*
G37*
G36*
X26500D02*
X21649D01*
X21664Y79327D01*
X22003Y78211D01*
X22553Y77183D01*
X23293Y76281D01*
X24194Y75541D01*
X25223Y74991D01*
X26339Y74653D01*
X26500Y74637D01*
Y79488D01*
D02*
G37*
G36*
X7642Y232000D02*
X5457D01*
Y229815D01*
X6622D01*
X7012Y229893D01*
X7343Y230114D01*
X7564Y230445D01*
X7642Y230835D01*
Y232000D01*
D02*
G37*
G36*
X27500Y112954D02*
X27450Y112944D01*
X27400Y112949D01*
X26242Y112835D01*
X26146Y112806D01*
X26046Y112796D01*
X24933Y112458D01*
X24845Y112411D01*
X24748Y112382D01*
X23723Y111833D01*
X23645Y111769D01*
X23556Y111722D01*
X22657Y110984D01*
X22593Y110907D01*
X22516Y110843D01*
X21778Y109944D01*
X21731Y109855D01*
X21667Y109777D01*
X21118Y108751D01*
X21089Y108655D01*
X21042Y108567D01*
X20704Y107454D01*
X20694Y107354D01*
X20665Y107258D01*
X20551Y106100D01*
X20561Y106000D01*
X20551Y105900D01*
X20665Y104742D01*
X20694Y104646D01*
X20704Y104546D01*
X21042Y103433D01*
X21089Y103345D01*
X21118Y103249D01*
X21667Y102223D01*
X21731Y102145D01*
X21778Y102056D01*
X22516Y101157D01*
X22593Y101093D01*
X22657Y101016D01*
X23556Y100278D01*
X23645Y100231D01*
X23723Y100167D01*
X24748Y99618D01*
X24845Y99589D01*
X24933Y99542D01*
X26046Y99204D01*
X26146Y99194D01*
X26242Y99165D01*
X26973Y99093D01*
Y98591D01*
X26339Y98528D01*
X25223Y98190D01*
X24194Y97640D01*
X23293Y96900D01*
X22553Y95999D01*
X22003Y94970D01*
X21664Y93854D01*
X21550Y92693D01*
X21664Y91532D01*
X22003Y90416D01*
X22553Y89387D01*
X23293Y88486D01*
X24194Y87746D01*
X25223Y87196D01*
X26339Y86857D01*
X26497Y86842D01*
Y86339D01*
X26339Y86324D01*
X25223Y85985D01*
X24194Y85435D01*
X23293Y84695D01*
X22553Y83794D01*
X22003Y82765D01*
X21664Y81649D01*
X21649Y81488D01*
X33351D01*
X33336Y81649D01*
X32997Y82765D01*
X32447Y83794D01*
X31707Y84695D01*
X30806Y85435D01*
X29777Y85985D01*
X28661Y86324D01*
X28503Y86339D01*
Y86842D01*
X28661Y86857D01*
X29777Y87196D01*
X30806Y87746D01*
X31707Y88486D01*
X32447Y89387D01*
X32997Y90416D01*
X33336Y91532D01*
X33450Y92693D01*
X33336Y93854D01*
X32997Y94970D01*
X32447Y95999D01*
X31707Y96900D01*
X30806Y97640D01*
X29777Y98190D01*
X28661Y98528D01*
X28027Y98591D01*
Y99093D01*
X28758Y99165D01*
X28854Y99194D01*
X28954Y99204D01*
X30067Y99542D01*
X30155Y99589D01*
X30252Y99618D01*
X31277Y100167D01*
X31355Y100231D01*
X31444Y100278D01*
X32343Y101016D01*
X32407Y101093D01*
X32484Y101157D01*
X33222Y102056D01*
X33270Y102145D01*
X33333Y102223D01*
X33882Y103249D01*
X33911Y103345D01*
X33958Y103433D01*
X34296Y104546D01*
X34306Y104646D01*
X34335Y104742D01*
X34449Y105900D01*
X34439Y106000D01*
X34449Y106100D01*
X34335Y107258D01*
X34306Y107354D01*
X34296Y107454D01*
X33958Y108567D01*
X33911Y108655D01*
X33882Y108751D01*
X33333Y109777D01*
X33270Y109855D01*
X33222Y109944D01*
X32484Y110843D01*
X32406Y110907D01*
X32343Y110984D01*
X31444Y111722D01*
X31355Y111769D01*
X31277Y111833D01*
X30252Y112382D01*
X30155Y112411D01*
X30067Y112458D01*
X28954Y112796D01*
X28854Y112806D01*
X28758Y112835D01*
X27600Y112949D01*
X27550Y112944D01*
X27500Y112954D01*
D02*
G37*
G36*
X28500Y21355D02*
Y18500D01*
X31355D01*
X31351Y18532D01*
X30953Y19493D01*
X30319Y20319D01*
X29493Y20953D01*
X28532Y21351D01*
X28500Y21355D01*
D02*
G37*
G36*
X36500D02*
X36468Y21351D01*
X35507Y20953D01*
X34681Y20319D01*
X34047Y19493D01*
X33649Y18532D01*
X33645Y18500D01*
X36500D01*
Y21355D01*
D02*
G37*
G36*
X38500D02*
Y18500D01*
X41355D01*
X41351Y18532D01*
X40953Y19493D01*
X40319Y20319D01*
X39493Y20953D01*
X38532Y21351D01*
X38500Y21355D01*
D02*
G37*
G36*
X26500D02*
X26468Y21351D01*
X25507Y20953D01*
X24681Y20319D01*
X24047Y19493D01*
X23649Y18532D01*
X23645Y18500D01*
X26500D01*
Y21355D01*
D02*
G37*
G36*
X27500Y181954D02*
X27450Y181944D01*
X27400Y181949D01*
X26242Y181835D01*
X26146Y181806D01*
X26046Y181796D01*
X24933Y181458D01*
X24845Y181411D01*
X24748Y181382D01*
X23723Y180833D01*
X23645Y180770D01*
X23556Y180722D01*
X22657Y179984D01*
X22593Y179906D01*
X22516Y179843D01*
X21778Y178944D01*
X21731Y178855D01*
X21667Y178777D01*
X21118Y177752D01*
X21089Y177655D01*
X21042Y177567D01*
X20704Y176454D01*
X20694Y176354D01*
X20665Y176258D01*
X20551Y175100D01*
X20561Y175000D01*
X20551Y174900D01*
X20665Y173742D01*
X20694Y173646D01*
X20704Y173546D01*
X21042Y172433D01*
X21089Y172345D01*
X21118Y172248D01*
X21667Y171223D01*
X21731Y171145D01*
X21778Y171056D01*
X22516Y170157D01*
X22593Y170093D01*
X22657Y170016D01*
X23556Y169278D01*
X23645Y169230D01*
X23723Y169167D01*
X24748Y168618D01*
X24845Y168589D01*
X24933Y168542D01*
X26046Y168204D01*
X26146Y168194D01*
X26242Y168165D01*
X26973Y168093D01*
Y167591D01*
X26339Y167528D01*
X25223Y167190D01*
X24194Y166640D01*
X23293Y165900D01*
X22553Y164998D01*
X22003Y163970D01*
X21664Y162854D01*
X21550Y161693D01*
X21664Y160532D01*
X22003Y159416D01*
X22553Y158387D01*
X23293Y157486D01*
X24194Y156746D01*
X25223Y156196D01*
X26339Y155857D01*
X26497Y155842D01*
Y155339D01*
X26339Y155324D01*
X25223Y154985D01*
X24194Y154435D01*
X23293Y153695D01*
X22553Y152794D01*
X22003Y151765D01*
X21664Y150649D01*
X21649Y150488D01*
X33351D01*
X33336Y150649D01*
X32997Y151765D01*
X32447Y152794D01*
X31707Y153695D01*
X30806Y154435D01*
X29777Y154985D01*
X28661Y155324D01*
X28503Y155339D01*
Y155842D01*
X28661Y155857D01*
X29777Y156196D01*
X30806Y156746D01*
X31707Y157486D01*
X32447Y158387D01*
X32997Y159416D01*
X33336Y160532D01*
X33450Y161693D01*
X33336Y162854D01*
X32997Y163970D01*
X32447Y164998D01*
X31707Y165900D01*
X30806Y166640D01*
X29777Y167190D01*
X28661Y167528D01*
X28027Y167591D01*
Y168093D01*
X28758Y168165D01*
X28854Y168194D01*
X28954Y168204D01*
X30067Y168542D01*
X30155Y168589D01*
X30252Y168618D01*
X31277Y169167D01*
X31355Y169230D01*
X31444Y169278D01*
X32343Y170016D01*
X32407Y170094D01*
X32484Y170157D01*
X33222Y171056D01*
X33270Y171145D01*
X33333Y171223D01*
X33882Y172248D01*
X33911Y172345D01*
X33958Y172433D01*
X34296Y173546D01*
X34306Y173646D01*
X34335Y173742D01*
X34449Y174900D01*
X34439Y175000D01*
X34449Y175100D01*
X34335Y176258D01*
X34306Y176354D01*
X34296Y176454D01*
X33958Y177567D01*
X33911Y177655D01*
X33882Y177752D01*
X33333Y178777D01*
X33270Y178855D01*
X33222Y178944D01*
X32484Y179843D01*
X32406Y179907D01*
X32343Y179984D01*
X31444Y180722D01*
X31355Y180770D01*
X31277Y180833D01*
X30252Y181382D01*
X30155Y181411D01*
X30067Y181458D01*
X28954Y181796D01*
X28854Y181806D01*
X28758Y181835D01*
X27600Y181949D01*
X27550Y181944D01*
X27500Y181954D01*
D02*
G37*
G36*
X28500Y221192D02*
X27786Y220714D01*
X27308Y220000D01*
X28500D01*
Y221192D01*
D02*
G37*
G36*
Y218000D02*
X27308D01*
X27786Y217286D01*
X28500Y216808D01*
Y218000D01*
D02*
G37*
G36*
X31692D02*
X30500D01*
Y216808D01*
X31214Y217286D01*
X31692Y218000D01*
D02*
G37*
G36*
X36665Y240642D02*
X32335D01*
X31945Y240564D01*
X31614Y240343D01*
X31393Y240012D01*
X31315Y239622D01*
Y235291D01*
X31393Y234901D01*
X31614Y234570D01*
X31945Y234349D01*
X32335Y234272D01*
X32461D01*
Y231228D01*
X32260Y230928D01*
X32076Y230000D01*
X32260Y229072D01*
X32786Y228286D01*
X33572Y227760D01*
X34500Y227575D01*
X35428Y227760D01*
X36214Y228286D01*
X36740Y229072D01*
X36924Y230000D01*
X36740Y230928D01*
X36539Y231228D01*
Y234272D01*
X36665D01*
X37056Y234349D01*
X37386Y234570D01*
X37607Y234901D01*
X37685Y235291D01*
Y239622D01*
X37607Y240012D01*
X37386Y240343D01*
X37056Y240564D01*
X36665Y240642D01*
D02*
G37*
G36*
X26500Y148488D02*
X21649D01*
X21664Y148327D01*
X22003Y147211D01*
X22553Y146183D01*
X23293Y145281D01*
X24194Y144541D01*
X25223Y143991D01*
X26339Y143653D01*
X26500Y143637D01*
Y148488D01*
D02*
G37*
G36*
X30500Y221192D02*
Y220000D01*
X31692D01*
X31214Y220714D01*
X30500Y221192D01*
D02*
G37*
G36*
X33351Y148488D02*
X28500D01*
Y143637D01*
X28661Y143653D01*
X29777Y143991D01*
X30806Y144541D01*
X31707Y145281D01*
X32447Y146183D01*
X32997Y147211D01*
X33336Y148327D01*
X33351Y148488D01*
D02*
G37*
G36*
X16500Y11355D02*
X16468Y11351D01*
X15507Y10953D01*
X14681Y10319D01*
X14047Y9493D01*
X13649Y8532D01*
X13645Y8500D01*
X16500D01*
Y11355D01*
D02*
G37*
G36*
X41355Y6500D02*
X38500D01*
Y3645D01*
X38532Y3649D01*
X39493Y4047D01*
X40319Y4681D01*
X40953Y5507D01*
X41351Y6468D01*
X41355Y6500D01*
D02*
G37*
G36*
X36500D02*
X33645D01*
X33649Y6468D01*
X34047Y5507D01*
X34681Y4681D01*
X35507Y4047D01*
X36468Y3649D01*
X36500Y3645D01*
Y6500D01*
D02*
G37*
G36*
X28500Y11355D02*
Y8500D01*
X31355D01*
X31351Y8532D01*
X30953Y9493D01*
X30319Y10319D01*
X29493Y10953D01*
X28532Y11351D01*
X28500Y11355D01*
D02*
G37*
G36*
X26500D02*
X26468Y11351D01*
X25507Y10953D01*
X24681Y10319D01*
X24047Y9493D01*
X23649Y8532D01*
X23645Y8500D01*
X26500D01*
Y11355D01*
D02*
G37*
G36*
X18500D02*
Y8500D01*
X21355D01*
X21351Y8532D01*
X20953Y9493D01*
X20319Y10319D01*
X19493Y10953D01*
X18532Y11351D01*
X18500Y11355D01*
D02*
G37*
G36*
X16500Y6500D02*
X13645D01*
X13649Y6468D01*
X14047Y5507D01*
X14681Y4681D01*
X15507Y4047D01*
X16468Y3649D01*
X16500Y3645D01*
Y6500D01*
D02*
G37*
G36*
X47500Y11487D02*
X46468Y11351D01*
X45507Y10953D01*
X44681Y10319D01*
X44047Y9493D01*
X43649Y8532D01*
X43513Y7500D01*
X43649Y6468D01*
X44047Y5507D01*
X44681Y4681D01*
X45507Y4047D01*
X46468Y3649D01*
X47500Y3513D01*
X48532Y3649D01*
X49493Y4047D01*
X50319Y4681D01*
X50953Y5507D01*
X51351Y6468D01*
X51487Y7500D01*
X51351Y8532D01*
X50953Y9493D01*
X50319Y10319D01*
X49493Y10953D01*
X48532Y11351D01*
X47500Y11487D01*
D02*
G37*
G36*
X7500D02*
X6468Y11351D01*
X5507Y10953D01*
X4681Y10319D01*
X4047Y9493D01*
X3649Y8532D01*
X3513Y7500D01*
X3649Y6468D01*
X4047Y5507D01*
X4681Y4681D01*
X5507Y4047D01*
X6468Y3649D01*
X7500Y3513D01*
X8532Y3649D01*
X9493Y4047D01*
X10319Y4681D01*
X10953Y5507D01*
X11351Y6468D01*
X11487Y7500D01*
X11351Y8532D01*
X10953Y9493D01*
X10319Y10319D01*
X9493Y10953D01*
X8532Y11351D01*
X7500Y11487D01*
D02*
G37*
G36*
X31355Y6500D02*
X28500D01*
Y3645D01*
X28532Y3649D01*
X29493Y4047D01*
X30319Y4681D01*
X30953Y5507D01*
X31351Y6468D01*
X31355Y6500D01*
D02*
G37*
G36*
X26500D02*
X23645D01*
X23649Y6468D01*
X24047Y5507D01*
X24681Y4681D01*
X25507Y4047D01*
X26468Y3649D01*
X26500Y3645D01*
Y6500D01*
D02*
G37*
G36*
X21355D02*
X18500D01*
Y3645D01*
X18532Y3649D01*
X19493Y4047D01*
X20319Y4681D01*
X20953Y5507D01*
X21351Y6468D01*
X21355Y6500D01*
D02*
G37*
G36*
X36500Y16500D02*
X33645D01*
X33649Y16468D01*
X34047Y15507D01*
X34681Y14681D01*
X35507Y14047D01*
X36468Y13649D01*
X36500Y13645D01*
Y16500D01*
D02*
G37*
G36*
X31355D02*
X28500D01*
Y13645D01*
X28532Y13649D01*
X29493Y14047D01*
X30319Y14681D01*
X30953Y15507D01*
X31351Y16468D01*
X31355Y16500D01*
D02*
G37*
G36*
X26500D02*
X23645D01*
X23649Y16468D01*
X24047Y15507D01*
X24681Y14681D01*
X25507Y14047D01*
X26468Y13649D01*
X26500Y13645D01*
Y16500D01*
D02*
G37*
G36*
X18500Y21355D02*
Y18500D01*
X21355D01*
X21351Y18532D01*
X20953Y19493D01*
X20319Y20319D01*
X19493Y20953D01*
X18532Y21351D01*
X18500Y21355D01*
D02*
G37*
G36*
X16500D02*
X16468Y21351D01*
X15507Y20953D01*
X14681Y20319D01*
X14047Y19493D01*
X13649Y18532D01*
X13645Y18500D01*
X16500D01*
Y21355D01*
D02*
G37*
G36*
X41355Y16500D02*
X38500D01*
Y13645D01*
X38532Y13649D01*
X39493Y14047D01*
X40319Y14681D01*
X40953Y15507D01*
X41351Y16468D01*
X41355Y16500D01*
D02*
G37*
G36*
X47500Y21487D02*
X46468Y21351D01*
X45507Y20953D01*
X44681Y20319D01*
X44047Y19493D01*
X43649Y18532D01*
X43513Y17500D01*
X43649Y16468D01*
X44047Y15507D01*
X44681Y14681D01*
X45507Y14047D01*
X46468Y13649D01*
X47500Y13513D01*
X48532Y13649D01*
X49493Y14047D01*
X50319Y14681D01*
X50953Y15507D01*
X51351Y16468D01*
X51487Y17500D01*
X51351Y18532D01*
X50953Y19493D01*
X50319Y20319D01*
X49493Y20953D01*
X48532Y21351D01*
X47500Y21487D01*
D02*
G37*
G36*
X38500Y11355D02*
Y8500D01*
X41355D01*
X41351Y8532D01*
X40953Y9493D01*
X40319Y10319D01*
X39493Y10953D01*
X38532Y11351D01*
X38500Y11355D01*
D02*
G37*
G36*
X36500D02*
X36468Y11351D01*
X35507Y10953D01*
X34681Y10319D01*
X34047Y9493D01*
X33649Y8532D01*
X33645Y8500D01*
X36500D01*
Y11355D01*
D02*
G37*
G36*
X21355Y16500D02*
X18500D01*
Y13645D01*
X18532Y13649D01*
X19493Y14047D01*
X20319Y14681D01*
X20953Y15507D01*
X21351Y16468D01*
X21355Y16500D01*
D02*
G37*
G36*
X16500D02*
X13645D01*
X13649Y16468D01*
X14047Y15507D01*
X14681Y14681D01*
X15507Y14047D01*
X16468Y13649D01*
X16500Y13645D01*
Y16500D01*
D02*
G37*
G36*
X10453Y21472D02*
X4547D01*
X4157Y21395D01*
X3826Y21174D01*
X3605Y20843D01*
X3528Y20453D01*
Y14547D01*
X3605Y14157D01*
X3826Y13826D01*
X4157Y13605D01*
X4547Y13528D01*
X10453D01*
X10843Y13605D01*
X11174Y13826D01*
X11395Y14157D01*
X11472Y14547D01*
Y20453D01*
X11395Y20843D01*
X11174Y21174D01*
X10843Y21395D01*
X10453Y21472D01*
D02*
G37*
G36*
X6622Y236185D02*
X5457D01*
Y234000D01*
X7642D01*
Y235165D01*
X7564Y235556D01*
X7343Y235886D01*
X7012Y236107D01*
X6622Y236185D01*
D02*
G37*
G36*
X9192Y243500D02*
X7000D01*
Y241315D01*
X8165D01*
X8556Y241393D01*
X8886Y241614D01*
X9107Y241945D01*
X9185Y242335D01*
Y243490D01*
X9192Y243500D01*
D02*
G37*
G36*
X41500Y236500D02*
X40308D01*
X40786Y235786D01*
X41500Y235308D01*
Y236500D01*
D02*
G37*
G36*
Y239692D02*
X40786Y239214D01*
X40308Y238500D01*
X41500D01*
Y239692D01*
D02*
G37*
G36*
X5000Y243500D02*
X2815D01*
Y242335D01*
X2893Y241945D01*
X3114Y241614D01*
X3444Y241393D01*
X3835Y241315D01*
X5000D01*
Y243500D01*
D02*
G37*
G36*
X16665Y256142D02*
X15500D01*
Y253957D01*
X17685D01*
Y255122D01*
X17607Y255512D01*
X17386Y255843D01*
X17055Y256064D01*
X16665Y256142D01*
D02*
G37*
G36*
X9165Y277228D02*
X4835D01*
X4445Y277151D01*
X4114Y276930D01*
X3893Y276599D01*
X3815Y276209D01*
Y271878D01*
X3893Y271488D01*
X4114Y271157D01*
X4445Y270936D01*
X4835Y270858D01*
X9165D01*
X9556Y270936D01*
X9886Y271157D01*
X9977Y271293D01*
X10714Y271786D01*
X11240Y272572D01*
X11424Y273500D01*
X11240Y274428D01*
X10714Y275214D01*
X10185Y275568D01*
Y276209D01*
X10107Y276599D01*
X9886Y276930D01*
X9556Y277151D01*
X9165Y277228D01*
D02*
G37*
G36*
X32192Y384500D02*
X31000D01*
Y383308D01*
X31714Y383786D01*
X32192Y384500D01*
D02*
G37*
G36*
X29000D02*
X27808D01*
X28286Y383786D01*
X29000Y383308D01*
Y384500D01*
D02*
G37*
G36*
Y387692D02*
X28286Y387214D01*
X27808Y386500D01*
X29000D01*
Y387692D01*
D02*
G37*
G36*
Y413500D02*
X27808D01*
X28286Y412786D01*
X29000Y412308D01*
Y413500D01*
D02*
G37*
G36*
X31000Y387692D02*
Y386500D01*
X32192D01*
X31714Y387214D01*
X31000Y387692D01*
D02*
G37*
G36*
X49500Y351000D02*
X48308D01*
X48786Y350286D01*
X49500Y349808D01*
Y351000D01*
D02*
G37*
G36*
X6000Y349192D02*
Y348000D01*
X7192D01*
X6714Y348714D01*
X6000Y349192D01*
D02*
G37*
G36*
X52692Y351000D02*
X51500D01*
Y349808D01*
X52214Y350286D01*
X52692Y351000D01*
D02*
G37*
G36*
X51500Y354192D02*
Y353000D01*
X52692D01*
X52214Y353714D01*
X51500Y354192D01*
D02*
G37*
G36*
X49500D02*
X48786Y353714D01*
X48308Y353000D01*
X49500D01*
Y354192D01*
D02*
G37*
G36*
X32192Y413500D02*
X31000D01*
Y412308D01*
X31714Y412786D01*
X32192Y413500D01*
D02*
G37*
G36*
X8000Y421692D02*
X7286Y421214D01*
X6808Y420500D01*
X8000D01*
Y421692D01*
D02*
G37*
G36*
X45192Y420000D02*
X44000D01*
Y418808D01*
X44714Y419286D01*
X45192Y420000D01*
D02*
G37*
G36*
X10000Y421692D02*
Y420500D01*
X11192D01*
X10714Y421214D01*
X10000Y421692D01*
D02*
G37*
G36*
X44000Y423192D02*
Y422000D01*
X45192D01*
X44714Y422714D01*
X44000Y423192D01*
D02*
G37*
G36*
X42000D02*
X41286Y422714D01*
X40808Y422000D01*
X42000D01*
Y423192D01*
D02*
G37*
G36*
X31000Y416692D02*
Y415500D01*
X32192D01*
X31714Y416214D01*
X31000Y416692D01*
D02*
G37*
G36*
X29000D02*
X28286Y416214D01*
X27808Y415500D01*
X29000D01*
Y416692D01*
D02*
G37*
G36*
X8000Y418500D02*
X6808D01*
X7286Y417786D01*
X8000Y417308D01*
Y418500D01*
D02*
G37*
G36*
X42000Y420000D02*
X40808D01*
X41286Y419286D01*
X42000Y418808D01*
Y420000D01*
D02*
G37*
G36*
X11192Y418500D02*
X10000D01*
Y417308D01*
X10714Y417786D01*
X11192Y418500D01*
D02*
G37*
G36*
X13000Y328192D02*
Y327000D01*
X14192D01*
X13714Y327714D01*
X13000Y328192D01*
D02*
G37*
G36*
X11000D02*
X10286Y327714D01*
X9808Y327000D01*
X11000D01*
Y328192D01*
D02*
G37*
G36*
X4000Y346000D02*
X2808D01*
X3286Y345286D01*
X4000Y344808D01*
Y346000D01*
D02*
G37*
G36*
Y349192D02*
X3286Y348714D01*
X2808Y348000D01*
X4000D01*
Y349192D01*
D02*
G37*
G36*
X7192Y346000D02*
X6000D01*
Y344808D01*
X6714Y345286D01*
X7192Y346000D01*
D02*
G37*
G36*
X14192Y325000D02*
X13000D01*
Y323808D01*
X13714Y324286D01*
X14192Y325000D01*
D02*
G37*
G36*
X11000D02*
X9808D01*
X10286Y324286D01*
X11000Y323808D01*
Y325000D01*
D02*
G37*
G36*
X51000Y237000D02*
X49808D01*
X50286Y236286D01*
X51000Y235808D01*
Y237000D01*
D02*
G37*
G36*
Y240192D02*
X50286Y239714D01*
X49808Y239000D01*
X51000D01*
Y240192D01*
D02*
G37*
%LPD*%
D10*
X40000Y284043D02*
D03*
Y276957D02*
D03*
X31500Y285500D02*
D03*
Y278413D02*
D03*
X51000Y245457D02*
D03*
Y252543D02*
D03*
X4500Y220043D02*
D03*
Y212957D02*
D03*
X50500Y125457D02*
D03*
Y132543D02*
D03*
X40000Y261457D02*
D03*
Y268543D02*
D03*
X31500Y268543D02*
D03*
Y261457D02*
D03*
X50500Y277957D02*
D03*
Y285043D02*
D03*
X4000Y367043D02*
D03*
Y359957D02*
D03*
X50500Y320043D02*
D03*
Y312957D02*
D03*
X5000Y315543D02*
D03*
Y308457D02*
D03*
X23000Y283957D02*
D03*
Y291043D02*
D03*
X23000Y268457D02*
D03*
Y275543D02*
D03*
Y252957D02*
D03*
Y260043D02*
D03*
X34500Y237457D02*
D03*
Y244543D02*
D03*
X14500Y260043D02*
D03*
Y252957D02*
D03*
X7000Y274043D02*
D03*
Y266957D02*
D03*
X6000Y244500D02*
D03*
Y251587D02*
D03*
X51000Y214957D02*
D03*
Y222043D02*
D03*
D18*
X6000Y244500D02*
X7000D01*
X5200D02*
X6000D01*
X2000Y300500D02*
X3000D01*
X1700Y300200D02*
X2000Y300500D01*
X1700Y248000D02*
Y300200D01*
Y248000D02*
X5200Y244500D01*
X37957Y276957D02*
X40000D01*
X34500Y273500D02*
X37957Y276957D01*
X31000Y285500D02*
X31500D01*
X27000Y281500D02*
X31000Y285500D01*
X27000Y273043D02*
Y281500D01*
Y273043D02*
X31500Y268543D01*
X30500Y273500D02*
X34500D01*
X23000Y283957D02*
X24043Y285000D01*
X26500D01*
X26957Y257500D02*
Y263780D01*
Y257500D02*
X31457Y253000D01*
X31500Y261457D02*
X31500Y261457D01*
X40000D01*
X38543Y260000D02*
X40000Y261457D01*
X38543Y253000D02*
Y260000D01*
X40000Y268543D02*
Y276957D01*
X32043Y247000D02*
X34500Y244543D01*
X31500Y247000D02*
X32043D01*
D19*
X52000Y280457D02*
X52500Y279957D01*
X50500Y277957D02*
X52500Y279957D01*
X52000Y280457D02*
Y280500D01*
X5000Y303277D02*
Y308457D01*
Y303277D02*
X6378Y301899D01*
Y299101D02*
Y301899D01*
X5000Y297723D02*
X6378Y299101D01*
X5000Y288000D02*
Y297723D01*
X10500Y311500D02*
X11000Y312000D01*
X51000Y222043D02*
Y228500D01*
X46835Y232665D02*
X51000Y228500D01*
X46835Y232665D02*
Y257203D01*
X31500Y285500D02*
Y289500D01*
X50500Y277957D02*
X52500Y275957D01*
X46835Y257203D02*
X52500Y262868D01*
Y275957D01*
X4543Y220000D02*
X11000D01*
X50500Y132543D02*
Y197500D01*
X45000Y203000D02*
X50500Y197500D01*
X45000Y203000D02*
Y215000D01*
X43000Y140870D02*
Y197000D01*
X34500Y205500D02*
X43000Y197000D01*
X34500Y205500D02*
Y213500D01*
X27500Y125370D02*
X27587Y125457D01*
X43000Y140870D01*
Y222000D02*
X45000D01*
X34500Y213500D02*
X43000Y222000D01*
X34500Y230000D02*
Y237457D01*
X11543Y260043D02*
X14500D01*
X10291Y248709D02*
Y258791D01*
X23000Y250500D02*
X24500Y249000D01*
X23000Y250500D02*
Y252957D01*
X10291Y248709D02*
X18427D01*
X23000Y260043D02*
Y268457D01*
X11543Y233000D02*
X18500D01*
X37343Y306941D02*
Y309157D01*
X17658Y306941D02*
X27500D01*
X40750Y320250D02*
X50293D01*
X50500Y320043D01*
X43543Y312957D02*
X50500D01*
X42500Y311913D02*
X43543Y312957D01*
X7000Y266957D02*
X10457D01*
X17000Y293000D02*
X21043D01*
X23000Y291043D01*
X5000Y288000D02*
X10000Y283000D01*
X14214Y280850D02*
X14500Y281136D01*
Y286000D01*
X30000Y316500D02*
X37343Y309157D01*
X5000Y315543D02*
X5957Y316500D01*
X30000D01*
X10500Y290000D02*
X14500Y286000D01*
X10500Y290000D02*
Y311500D01*
X9457Y354500D02*
X9500D01*
X4000Y359957D02*
X9457Y354500D01*
X4000Y367043D02*
X17555D01*
X17658Y366941D01*
X27500D01*
X37343Y330842D02*
Y366941D01*
X34500Y328000D02*
X37343Y330842D01*
X34500Y319000D02*
Y328000D01*
Y319000D02*
X40543Y312957D01*
X43543D01*
X50500Y285043D02*
Y286000D01*
X42500Y294000D02*
Y311913D01*
Y294000D02*
X50500Y286000D01*
X40000Y284043D02*
Y288500D01*
X37343Y291158D02*
X40000Y288500D01*
X37343Y291158D02*
Y306941D01*
X7000Y274043D02*
X7543Y273500D01*
X14214Y278286D02*
Y280850D01*
Y278286D02*
X14428Y278500D01*
X18000D01*
X7543Y273500D02*
X9000D01*
X10457Y266957D02*
X10500Y267000D01*
X11000Y259500D02*
Y266500D01*
X10500Y267000D02*
X11000Y266500D01*
X10291Y258791D02*
X11000Y259500D01*
X11543Y260043D01*
X23000Y215500D02*
X26500Y212000D01*
X23000Y215500D02*
Y244136D01*
X18427Y248709D02*
X23000Y244136D01*
X27500Y232000D02*
Y245000D01*
D20*
X43665Y266835D02*
X46000Y264500D01*
X46835Y275170D02*
X49005Y273000D01*
X49500D01*
X43665Y266835D02*
Y270595D01*
X43878Y270808D01*
Y280165D01*
X46835Y275170D02*
Y281622D01*
X50256Y285043D01*
X40000Y284043D02*
X43878Y280165D01*
X50256Y285043D02*
X50500D01*
D21*
X27587Y125457D02*
X50500D01*
X4500Y177500D02*
X15000Y167000D01*
X4500Y177500D02*
Y200500D01*
D22*
X23087Y194370D02*
X27500D01*
X4500Y212957D02*
X23087Y194370D01*
X45043Y215043D02*
X51000D01*
X45000Y215000D02*
X45043Y215043D01*
D23*
X37343Y306941D02*
D03*
X17658D02*
D03*
X27500D02*
D03*
Y175000D02*
D03*
X37343Y366941D02*
D03*
X17658D02*
D03*
X27500D02*
D03*
Y106000D02*
D03*
D24*
X6634Y334500D02*
D03*
X48366D02*
D03*
X6634Y394500D02*
D03*
X48366D02*
D03*
D25*
X27500Y149488D02*
D03*
Y161693D02*
D03*
Y194370D02*
D03*
Y80488D02*
D03*
Y92693D02*
D03*
Y125370D02*
D03*
D26*
X7500Y17500D02*
D03*
D27*
Y7500D02*
D03*
X17500Y17500D02*
D03*
Y7500D02*
D03*
X27500Y17500D02*
D03*
Y7500D02*
D03*
X37500Y17500D02*
D03*
Y7500D02*
D03*
X47500Y17500D02*
D03*
Y7500D02*
D03*
D28*
X52000Y280500D02*
D03*
X22000Y301000D02*
D03*
X3000Y300500D02*
D03*
X11000Y312000D02*
D03*
X30000Y414500D02*
D03*
X43000Y421000D02*
D03*
X9000Y419500D02*
D03*
X30000Y385500D02*
D03*
X5000Y347000D02*
D03*
X50500Y352000D02*
D03*
X12000Y326000D02*
D03*
X42500Y237500D02*
D03*
X29500Y219000D02*
D03*
X52000Y238000D02*
D03*
X7000Y244500D02*
D03*
X23000Y278500D02*
D03*
X33500Y278000D02*
D03*
X30500Y273500D02*
D03*
X26500Y285000D02*
D03*
X51500Y253500D02*
D03*
X26957Y263780D02*
D03*
X36500Y251500D02*
D03*
X46000Y264500D02*
D03*
X31500Y289500D02*
D03*
X15000Y167000D02*
D03*
X4500Y200500D02*
D03*
X45000Y215000D02*
D03*
X11000Y220000D02*
D03*
X45000Y222000D02*
D03*
X34500Y230000D02*
D03*
X26500Y212000D02*
D03*
X24500Y249000D02*
D03*
X19500Y232000D02*
D03*
X40750Y320250D02*
D03*
X43543Y312957D02*
D03*
X17000Y293000D02*
D03*
X10000Y283000D02*
D03*
X9500Y354500D02*
D03*
X18000Y278500D02*
D03*
X31500Y247000D02*
D03*
X9000Y273500D02*
D03*
X10500Y267000D02*
D03*
X27500Y245000D02*
D03*
Y232000D02*
D03*
D29*
X49500Y273000D02*
D03*
X6500Y253500D02*
D03*
D30*
X11543Y233000D02*
D03*
X4457D02*
D03*
X38543Y253000D02*
D03*
X31457D02*
D03*
M02*
