M48
;Layer_Color=9474304
;FILE_FORMAT=2:5
INCH,LZ
;TYPE=PLATED
T1F00S00C0.01000
T2F00S00C0.01181
T3F00S00C0.02800
T4F00S00C0.03000
T5F00S00C0.03543
T6F00S00C0.03937
T7F00S00C0.05906
T8F00S00C0.08661
T9F00S00C0.11811
%
T01
X0010874Y0009811
X004237Y0041307
X0026622Y0060992
X0050244Y0104299
Y0112173
X0038433Y0147606
Y0171228
X0026622Y0202724
X004237Y0237173
X0052165Y0235236
X00055Y0244
X0010874Y0214535
Y019485
X0022685Y0139732
X0014811Y0104299
Y0096425
X00065Y02535
X00245Y02775
X0022685Y030115
Y034052
X0018748Y0352331
Y0368079
X0006937Y0383827
Y0395638
X0014811
X0006937Y0344457
X0003984Y0324772
X0026622Y0328709
X0030559Y034052
X0031496Y0350394
X004237Y0352331
X0050244
Y0368079
X004237
X0030559
X0026622Y0395638
X0038433
X0050244
X0051181Y038189
X0030559Y030115
X00295Y02695
X0046165Y0272
X0049Y02705
X0052213Y0277528
X0034496Y0407449
X0030559Y0423197
X004237
X0018748
X0022685Y0407449
T02
X00265Y0212
X00275Y0232
X00335Y023
X00385Y0231
X0045Y0222
Y0215
X00165Y0208
X0011Y022
X00195Y0232
X00045Y02005
X0015Y0167
X00245Y0249
X00105Y0267
X0009Y02735
X001Y0283
X0018Y02785
X0017Y0293
X0011Y0312
X00095Y03545
X004075Y032025
X0043543Y0312957
X0031Y0294
X0028013Y027275
X00355Y0262
X00365Y0251
X00315Y0247
X00275Y0245
X00505Y025
X0046Y02645
T03
X0050197Y0075787
T04
X00055Y00755
T05
X00225Y0006
Y0016
Y0026
Y0036
Y0046
X00325
Y0036
Y0026
Y0016
Y0006
T06
X0017658Y0306941
Y0382441
X00275
X0037343
Y0306941
X00275
T07
X00275Y0080488
Y0092693
Y012537
Y0149488
Y0161693
Y019437
T08
X0006634Y03345
X0048366
Y041
X0006634
T09
X00275Y0106
Y0175
M30
