G04 Layer_Color=8388736*
%FSLAX25Y25*%
%MOIN*%
G70*
G01*
G75*
%ADD11C,0.01000*%
%ADD12C,0.00600*%
D11*
X61500Y506000D02*
X70000D01*
X61500Y0D02*
X70000D01*
X69000Y268995D02*
Y506000D01*
Y0D02*
Y233805D01*
X67000Y500000D02*
X69000Y506000D01*
X71000Y500000D01*
X69000Y0D02*
X71000Y6000D01*
X67000D02*
X69000Y0D01*
X0Y507500D02*
Y517000D01*
X60000Y507500D02*
Y517000D01*
X0Y516000D02*
X13804D01*
X42996D02*
X60000D01*
X0D02*
X6000Y514000D01*
X0Y516000D02*
X6000Y518000D01*
X54000D02*
X60000Y516000D01*
X54000Y514000D02*
X60000Y516000D01*
D12*
X72599Y235405D02*
Y237404D01*
Y236405D01*
X66601D01*
X67601Y235405D01*
X72599Y244402D02*
Y240404D01*
X68600Y244402D01*
X67601D01*
X66601Y243403D01*
Y241403D01*
X67601Y240404D01*
Y246402D02*
X66601Y247401D01*
Y249401D01*
X67601Y250400D01*
X68600D01*
X69600Y249401D01*
X70600Y250400D01*
X71599D01*
X72599Y249401D01*
Y247401D01*
X71599Y246402D01*
X70600D01*
X69600Y247401D01*
X68600Y246402D01*
X67601D01*
X69600Y247401D02*
Y249401D01*
X72599Y252400D02*
X71599D01*
Y253399D01*
X72599D01*
Y252400D01*
X66601Y261397D02*
Y257398D01*
X69600D01*
X68600Y259397D01*
Y260397D01*
X69600Y261397D01*
X71599D01*
X72599Y260397D01*
Y258398D01*
X71599Y257398D01*
X72599Y267395D02*
Y263396D01*
X68600Y267395D01*
X67601D01*
X66601Y266395D01*
Y264396D01*
X67601Y263396D01*
X15404Y512401D02*
X17404D01*
X16404D01*
Y518399D01*
X15404Y517399D01*
X24401Y518399D02*
X20403D01*
Y515400D01*
X22402Y516400D01*
X23402D01*
X24401Y515400D01*
Y513401D01*
X23402Y512401D01*
X21402D01*
X20403Y513401D01*
X26401Y512401D02*
Y513401D01*
X27400D01*
Y512401D01*
X26401D01*
X35398D02*
X31399D01*
X35398Y516400D01*
Y517399D01*
X34398Y518399D01*
X32399D01*
X31399Y517399D01*
X40396Y512401D02*
Y518399D01*
X37397Y515400D01*
X41396D01*
M02*
