G04 Layer_Physical_Order=2*
G04 Layer_Color=16711680*
%FSLAX25Y25*%
%MOIN*%
G70*
G01*
G75*
%ADD10C,0.00800*%
D10*
X46712Y438500D02*
X60000D01*
X47354Y436500D02*
X60000D01*
X44540Y442500D02*
X60000D01*
X45793Y440500D02*
X60000D01*
X47927Y432500D02*
X60000D01*
X47927Y432000D02*
Y433081D01*
X47753Y434500D02*
X60000D01*
X46000Y440142D02*
Y506000D01*
X44985Y441900D02*
X46066Y440027D01*
X44000Y443204D02*
Y506000D01*
X47037Y437685D02*
X47596Y435595D01*
X47633Y435412D02*
X47915Y433268D01*
X46149Y439860D02*
X46977Y437861D01*
X47927Y430919D02*
Y432000D01*
X47885Y430500D02*
X60000D01*
X47603Y428500D02*
X60000D01*
X47086Y426500D02*
X60000D01*
X46298Y424500D02*
X60000D01*
X45216Y422500D02*
X60000D01*
X47633Y428588D02*
X47915Y430732D01*
X47037Y426315D02*
X47596Y428405D01*
X46149Y424140D02*
X46977Y426139D01*
X44985Y422100D02*
X46066Y423973D01*
X46000Y380142D02*
Y423858D01*
X44000Y383204D02*
Y420796D01*
X35541Y500500D02*
X60000D01*
X37034Y498500D02*
X60000D01*
X32434Y502500D02*
X60000D01*
X37783Y496500D02*
X60000D01*
X38014Y494500D02*
X60000D01*
X37783Y492500D02*
X60000D01*
X37034Y490500D02*
X60000D01*
X35541Y488500D02*
X60000D01*
X32435Y486500D02*
X60000D01*
X40552Y446500D02*
X60000D01*
X40056Y446881D02*
X41772Y445564D01*
X37012Y448500D02*
X60000D01*
X43564Y443772D02*
X44881Y442056D01*
X43564Y420228D02*
X44881Y421945D01*
X42853Y444500D02*
X60000D01*
X43773Y420500D02*
X60000D01*
X41828Y418500D02*
X60000D01*
X39008Y416500D02*
X60000D01*
X42000Y445353D02*
Y506000D01*
X41912Y445441D02*
X43441Y443912D01*
X41912Y418559D02*
X43441Y420088D01*
X40056Y417119D02*
X41772Y418436D01*
X42000Y385353D02*
Y418647D01*
X40000Y386909D02*
Y417092D01*
X46712Y378500D02*
X60000D01*
X47354Y376500D02*
X60000D01*
X44540Y382500D02*
X60000D01*
X45793Y380500D02*
X60000D01*
X47927Y372500D02*
X60000D01*
X47927Y370918D02*
Y372000D01*
X47753Y374500D02*
X60000D01*
X44985Y381900D02*
X46066Y380027D01*
X46149Y379860D02*
X46977Y377861D01*
X43564Y383771D02*
X44881Y382055D01*
X47633Y375412D02*
X47915Y373268D01*
X47927Y372000D02*
Y373081D01*
X47037Y377685D02*
X47596Y375595D01*
X47885Y370500D02*
X60000D01*
X47603Y368500D02*
X60000D01*
X47086Y366500D02*
X60000D01*
X46298Y364500D02*
X60000D01*
X45216Y362500D02*
X60000D01*
X43773Y360500D02*
X60000D01*
X47633Y368588D02*
X47915Y370732D01*
X47037Y366315D02*
X47596Y368405D01*
X46149Y364140D02*
X46977Y366139D01*
X44985Y362100D02*
X46066Y363973D01*
X43564Y360228D02*
X44881Y361945D01*
X43288Y214500D02*
X60000D01*
X40552Y386500D02*
X60000D01*
X42853Y384500D02*
X60000D01*
X37012Y388500D02*
X60000D01*
X41828Y358500D02*
X60000D01*
X36086Y224500D02*
X60000D01*
X33955Y354500D02*
X60000D01*
X40056Y386881D02*
X41772Y385564D01*
X41912Y385441D02*
X43441Y383912D01*
X33955Y414500D02*
X60000D01*
X41912Y358559D02*
X43441Y360088D01*
X40056Y357119D02*
X41772Y358436D01*
X39008Y356500D02*
X60000D01*
X40796Y220500D02*
X60000D01*
X42041Y218500D02*
X60000D01*
X39000Y222500D02*
X60000D01*
X42838Y216500D02*
X60000D01*
X43218Y215034D02*
X43423Y213473D01*
X42774Y216738D02*
X43181Y215217D01*
X40000Y221500D02*
Y357091D01*
X42000Y218586D02*
Y358647D01*
X38944Y222557D02*
X40057Y221444D01*
X41242Y219899D02*
X42029Y218536D01*
X42111Y218369D02*
X42714Y216914D01*
X40180Y221303D02*
X41138Y220055D01*
X37714Y496846D02*
X37987Y495476D01*
X38000Y495268D02*
Y506000D01*
X36191Y499811D02*
X36967Y498650D01*
X37099Y498403D02*
X37633Y497113D01*
X38014Y494500D02*
Y495198D01*
Y493802D02*
Y494500D01*
X38000Y493731D02*
Y495268D01*
X34000Y501733D02*
Y506000D01*
X36000Y500041D02*
Y506000D01*
X32000Y502656D02*
Y506000D01*
X33650Y501967D02*
X34811Y501191D01*
X35027Y501014D02*
X36014Y500027D01*
X32113Y502633D02*
X33403Y502099D01*
X38000Y448076D02*
Y493731D01*
X40000Y446909D02*
Y506000D01*
X37714Y492154D02*
X37987Y493524D01*
X37099Y490597D02*
X37633Y491887D01*
X36191Y489189D02*
X36967Y490350D01*
X35027Y487986D02*
X36014Y488973D01*
X34000Y449488D02*
Y487267D01*
X36000Y448919D02*
Y488959D01*
X33650Y487033D02*
X34811Y487809D01*
X32113Y486367D02*
X33403Y486901D01*
X33595Y449597D02*
X35685Y449037D01*
X32000Y449819D02*
Y486344D01*
X28802Y503014D02*
X30198D01*
X30000D02*
Y506000D01*
X28000Y502882D02*
Y506000D01*
X27154Y502714D02*
X28523Y502987D01*
X30476D02*
X31846Y502714D01*
X25597Y502099D02*
X26887Y502633D01*
X26000Y502266D02*
Y506000D01*
X24190Y501191D02*
X25350Y501967D01*
X24000Y501032D02*
Y506000D01*
X22986Y488973D02*
X23973Y487986D01*
X24190Y487809D02*
X25350Y487033D01*
X22986Y500027D02*
X23973Y501014D01*
X30476Y486013D02*
X31846Y486286D01*
X30000Y449927D02*
Y485986D01*
X28802D02*
X30198D01*
X28918Y449927D02*
X31082D01*
X31268Y449915D02*
X33412Y449633D01*
X26588D02*
X28732Y449915D01*
X25597Y486901D02*
X26887Y486367D01*
X26000Y449488D02*
Y486734D01*
X24000Y448919D02*
Y487968D01*
X27154Y486286D02*
X28524Y486013D01*
X28000Y449819D02*
Y486118D01*
X24315Y449037D02*
X26405Y449597D01*
X38027Y448066D02*
X39900Y446985D01*
X38027Y415934D02*
X39900Y417015D01*
X35861Y448977D02*
X37860Y448149D01*
X38000Y388076D02*
Y415924D01*
X35861Y415023D02*
X37860Y415851D01*
X38027Y388066D02*
X39900Y386985D01*
X35861Y388977D02*
X37860Y388149D01*
X34000Y389488D02*
Y414512D01*
X36000Y388919D02*
Y415081D01*
X33595Y414403D02*
X35685Y414963D01*
X32000Y389819D02*
Y414181D01*
X33595Y389597D02*
X35685Y389037D01*
X31268Y389915D02*
X33412Y389633D01*
X38027Y355934D02*
X39900Y357015D01*
X38000Y223296D02*
Y355924D01*
X35861Y355023D02*
X37860Y355851D01*
X36036Y224529D02*
X37399Y223742D01*
X37554Y223638D02*
X38803Y222680D01*
X36000Y224541D02*
Y355081D01*
X33595Y354403D02*
X35685Y354963D01*
X34000Y225338D02*
Y354512D01*
X31268Y354085D02*
X33412Y354367D01*
X32717Y225681D02*
X34238Y225274D01*
X34414Y225214D02*
X35869Y224611D01*
X32000Y225788D02*
Y354181D01*
X31268Y414085D02*
X33412Y414367D01*
X28918Y414073D02*
X31082D01*
X26588Y414367D02*
X28732Y414085D01*
X28918Y389927D02*
X31082D01*
X30000D02*
Y414073D01*
X26588Y389633D02*
X28732Y389915D01*
X24315Y414963D02*
X26405Y414403D01*
X26000Y389488D02*
Y414512D01*
X24000Y388919D02*
Y415081D01*
X28000Y389819D02*
Y414181D01*
X24315Y389037D02*
X26405Y389597D01*
X24315Y354963D02*
X26405Y354403D01*
X28918Y354073D02*
X31082D01*
X30000Y225935D02*
Y354073D01*
X26588Y354367D02*
X28732Y354085D01*
X29213Y225935D02*
X30787D01*
X30973Y225923D02*
X32534Y225718D01*
X27466D02*
X29027Y225923D01*
X28000Y225788D02*
Y354181D01*
X26000Y225338D02*
Y354512D01*
X24000Y224541D02*
Y355081D01*
X25763Y225274D02*
X27283Y225681D01*
X24131Y224611D02*
X25586Y225214D01*
X22601Y223742D02*
X23964Y224529D01*
X43435Y212500D02*
X60000D01*
X43435Y211713D02*
Y212500D01*
X43288Y210500D02*
X60000D01*
X42838Y208500D02*
X60000D01*
X43420Y144500D02*
X60000D01*
X43435Y142713D02*
Y143500D01*
X43105Y146500D02*
X60000D01*
X43435Y212500D02*
Y213287D01*
X43218Y209966D02*
X43423Y211527D01*
X42774Y208262D02*
X43181Y209783D01*
X43218Y146034D02*
X43423Y144473D01*
X43435Y143500D02*
Y144287D01*
X42774Y147738D02*
X43181Y146217D01*
X58000Y0D02*
Y506000D01*
X60000Y0D02*
Y506000D01*
X56000Y0D02*
Y506000D01*
X52000Y0D02*
Y506000D01*
X54000Y0D02*
Y506000D01*
X43420Y142500D02*
X60000D01*
X48000Y0D02*
Y506000D01*
X50000Y0D02*
Y506000D01*
X46000Y0D02*
Y363858D01*
X43218Y140966D02*
X43423Y142527D01*
X44000Y0D02*
Y360796D01*
X42774Y139262D02*
X43181Y140783D01*
X42111Y206631D02*
X42714Y208086D01*
X42041Y206500D02*
X60000D01*
X40796Y204500D02*
X60000D01*
X39000Y202500D02*
X60000D01*
X36086Y200500D02*
X60000D01*
X33393Y156500D02*
X60000D01*
X41242Y205101D02*
X42029Y206464D01*
X40180Y203697D02*
X41138Y204945D01*
X38944Y202443D02*
X40057Y203556D01*
X37554Y201362D02*
X38803Y202320D01*
X36036Y155529D02*
X37399Y154742D01*
X36036Y200471D02*
X37399Y201258D01*
X40000Y152500D02*
X60000D01*
X41242Y150899D02*
X42029Y149536D01*
X37734Y154500D02*
X60000D01*
X42471Y148500D02*
X60000D01*
X42111Y149369D02*
X42714Y147914D01*
X41472Y150500D02*
X60000D01*
X40000Y152500D02*
Y203500D01*
X42000Y149586D02*
Y206414D01*
X38000Y154296D02*
Y201704D01*
X38944Y153557D02*
X40057Y152444D01*
X40180Y152303D02*
X41138Y151055D01*
X37554Y154638D02*
X38803Y153680D01*
X43105Y140500D02*
X60000D01*
X42471Y138500D02*
X60000D01*
X42111Y137631D02*
X42714Y139086D01*
X41472Y136500D02*
X60000D01*
X40000Y134500D02*
X60000D01*
X38042Y12500D02*
X60000D01*
X37811Y14500D02*
X60000D01*
X41242Y136101D02*
X42029Y137464D01*
X40180Y134697D02*
X41138Y135945D01*
X38944Y133443D02*
X40057Y134556D01*
X38000Y13548D02*
Y132704D01*
X37742Y14846D02*
X38014Y13476D01*
X37742Y14846D02*
X38014Y13476D01*
X40000Y0D02*
Y134500D01*
X42000Y0D02*
Y137414D01*
X38042Y12500D02*
Y13198D01*
Y12500D02*
Y13198D01*
Y11802D02*
Y12500D01*
X37811Y10500D02*
X60000D01*
X38042Y11802D02*
Y12500D01*
Y11802D02*
Y12500D01*
Y13198D01*
X37742Y10154D02*
X38014Y11524D01*
X38000Y0D02*
Y11452D01*
X37742Y10154D02*
X38014Y11524D01*
X37734Y132500D02*
X60000D01*
X37554Y132362D02*
X38803Y133320D01*
X33393Y130500D02*
X60000D01*
X35568Y18500D02*
X60000D01*
X37062Y16500D02*
X60000D01*
X32462Y20500D02*
X60000D01*
X36219Y17810D02*
X36994Y16650D01*
X36219Y17810D02*
X36994Y16650D01*
X36036Y131471D02*
X37399Y132258D01*
X37126Y16403D02*
X37661Y15113D01*
X37126Y16403D02*
X37661Y15113D01*
X36219Y17810D02*
X36994Y16650D01*
X37742Y14846D02*
X38014Y13476D01*
X37742Y10154D02*
X38014Y11524D01*
X37126Y16403D02*
X37661Y15113D01*
X37062Y8500D02*
X60000D01*
X35568Y6500D02*
X60000D01*
X32462Y4500D02*
X60000D01*
X37126Y8597D02*
X37661Y9887D01*
X37126Y8597D02*
X37661Y9887D01*
X37126Y8597D02*
X37661Y9887D01*
X36219Y7190D02*
X36994Y8350D01*
X36219Y7190D02*
X36994Y8350D01*
X36219Y7190D02*
X36994Y8350D01*
X34414Y199786D02*
X35869Y200389D01*
X36000Y155541D02*
Y200459D01*
X32717Y199319D02*
X34238Y199726D01*
X34000Y156337D02*
Y199662D01*
X34414Y156214D02*
X35869Y155611D01*
X34414Y130786D02*
X35869Y131389D01*
X32717Y156681D02*
X34238Y156274D01*
X30973Y199077D02*
X32534Y199282D01*
X32000Y156788D02*
Y199212D01*
X30000Y156935D02*
Y199065D01*
X29213Y156935D02*
X30787D01*
X30973Y156923D02*
X32534Y156718D01*
X29213Y199065D02*
X30787D01*
X34000Y19751D02*
Y130663D01*
X36000Y18068D02*
Y131459D01*
X32717Y130319D02*
X34238Y130726D01*
X30973Y130077D02*
X32534Y130282D01*
X32000Y20662D02*
Y130212D01*
X30504Y20987D02*
X31873Y20714D01*
X29213Y130065D02*
X30787D01*
X30000Y21014D02*
Y130065D01*
X28830Y21014D02*
X30226D01*
X30504Y20987D02*
X31873Y20714D01*
X30504Y20987D02*
X31873Y20714D01*
X28830Y21014D02*
X30226D01*
X27466Y199282D02*
X29027Y199077D01*
X26000Y156337D02*
Y199662D01*
X25762Y199726D02*
X27283Y199319D01*
X28000Y156788D02*
Y199212D01*
X27466Y156718D02*
X29027Y156923D01*
X25763Y156274D02*
X27283Y156681D01*
X24131Y200389D02*
X25586Y199786D01*
X24000Y155541D02*
Y200459D01*
X22601Y201258D02*
X23964Y200471D01*
X24131Y155611D02*
X25586Y156214D01*
X24131Y131389D02*
X25586Y130786D01*
X22601Y154742D02*
X23964Y155529D01*
X28830Y21014D02*
X30226D01*
X28000Y20877D02*
Y130212D01*
X27466Y130282D02*
X29027Y130077D01*
X27182Y20714D02*
X28551Y20987D01*
X27182Y20714D02*
X28551Y20987D01*
X27182Y20714D02*
X28551Y20987D01*
X25762Y130726D02*
X27283Y130319D01*
X26000Y20254D02*
Y130663D01*
X24000Y19013D02*
Y131459D01*
X25624Y20099D02*
X26914Y20633D01*
X25624Y20099D02*
X26914Y20633D01*
X25624Y20099D02*
X26914Y20633D01*
X35054Y19014D02*
X36041Y18027D01*
X35054Y19014D02*
X36041Y18027D01*
X33677Y19967D02*
X34838Y19191D01*
X35054Y19014D02*
X36041Y18027D01*
X35054Y5986D02*
X36041Y6973D01*
X35054Y5986D02*
X36041Y6973D01*
X35054Y5986D02*
X36041Y6973D01*
X32141Y20633D02*
X33431Y20099D01*
X32141Y20633D02*
X33431Y20099D01*
X32141Y20633D02*
X33431Y20099D01*
X33677Y19967D02*
X34838Y19191D01*
X33677Y5033D02*
X34838Y5809D01*
X33677Y19967D02*
X34838Y19191D01*
X33677Y5033D02*
X34838Y5809D01*
X36000Y0D02*
Y6932D01*
X33677Y5033D02*
X34838Y5809D01*
X32141Y4367D02*
X33431Y4901D01*
X34000Y0D02*
Y5249D01*
X32141Y4367D02*
X33431Y4901D01*
X32141Y4367D02*
X33431Y4901D01*
X32000Y0D02*
Y4338D01*
X30504Y4013D02*
X31873Y4286D01*
X30504Y4013D02*
X31873Y4286D01*
X30504Y4013D02*
X31873Y4286D01*
X30000Y0D02*
Y3986D01*
X24217Y19191D02*
X25378Y19967D01*
X24217Y19191D02*
X25378Y19967D01*
X24217Y19191D02*
X25378Y19967D01*
X24217Y5809D02*
X25378Y5033D01*
X24217Y5809D02*
X25378Y5033D01*
X24217Y5809D02*
X25378Y5033D01*
X23014Y18027D02*
X24001Y19014D01*
X23014Y18027D02*
X24001Y19014D01*
X23014Y18027D02*
X24001Y19014D01*
X23014Y6973D02*
X24001Y5986D01*
X23014Y6973D02*
X24001Y5986D01*
X23014Y6973D02*
X24001Y5986D01*
X27182Y4286D02*
X28551Y4013D01*
X27182Y4286D02*
X28551Y4013D01*
X27182Y4286D02*
X28551Y4013D01*
X28830Y3986D02*
X30226D01*
X28830D02*
X30226D01*
X28830D02*
X30226D01*
X25624Y4901D02*
X26914Y4367D01*
X25624Y4901D02*
X26914Y4367D01*
X24000Y0D02*
Y5987D01*
X26000Y0D02*
Y4746D01*
X28000Y0D02*
Y4123D01*
X25624Y4901D02*
X26914Y4367D01*
X0Y484500D02*
X60000D01*
X0Y482500D02*
X60000D01*
X0Y506000D02*
X60000D01*
X0Y504500D02*
X60000D01*
X0Y478500D02*
X60000D01*
X0Y468500D02*
X60000D01*
X0Y480500D02*
X60000D01*
X0Y486500D02*
X26565D01*
X0Y476500D02*
X60000D01*
X0Y502500D02*
X26565D01*
X0Y472500D02*
X60000D01*
X0Y470500D02*
X60000D01*
X0Y474500D02*
X60000D01*
X0Y464500D02*
X60000D01*
X0Y462500D02*
X60000D01*
X0Y466500D02*
X60000D01*
X0Y458500D02*
X60000D01*
X0Y456500D02*
X60000D01*
X0Y460500D02*
X60000D01*
X0Y452500D02*
X60000D01*
X0Y450500D02*
X60000D01*
X0Y454500D02*
X60000D01*
X22140Y415851D02*
X24139Y415023D01*
X22140Y355851D02*
X24139Y355023D01*
X0Y414500D02*
X26045D01*
X0Y398500D02*
X60000D01*
X0Y396500D02*
X60000D01*
X0Y400500D02*
X60000D01*
X0Y392500D02*
X60000D01*
X0Y390500D02*
X60000D01*
X0Y394500D02*
X60000D01*
X0Y410500D02*
X60000D01*
X0Y408500D02*
X60000D01*
X0Y412500D02*
X60000D01*
X0Y404500D02*
X60000D01*
X0Y402500D02*
X60000D01*
X0Y406500D02*
X60000D01*
X0Y340500D02*
X60000D01*
X0Y338500D02*
X60000D01*
X0Y342500D02*
X60000D01*
X0Y334500D02*
X60000D01*
X0Y332500D02*
X60000D01*
X0Y336500D02*
X60000D01*
X0Y352500D02*
X60000D01*
X0Y350500D02*
X60000D01*
X0Y354500D02*
X26045D01*
X0Y346500D02*
X60000D01*
X0Y344500D02*
X60000D01*
X0Y348500D02*
X60000D01*
X0Y266500D02*
X60000D01*
X0Y264500D02*
X60000D01*
X0Y270500D02*
X60000D01*
X0Y268500D02*
X60000D01*
X0Y260500D02*
X60000D01*
X0Y258500D02*
X60000D01*
X0Y262500D02*
X60000D01*
X0Y280500D02*
X60000D01*
X0Y278500D02*
X60000D01*
X0Y282500D02*
X60000D01*
X0Y274500D02*
X60000D01*
X0Y272500D02*
X60000D01*
X0Y276500D02*
X60000D01*
X0Y242500D02*
X60000D01*
X0Y240500D02*
X60000D01*
X0Y244500D02*
X60000D01*
X0Y236500D02*
X60000D01*
X0Y234500D02*
X60000D01*
X0Y238500D02*
X60000D01*
X0Y254500D02*
X60000D01*
X0Y252500D02*
X60000D01*
X0Y256500D02*
X60000D01*
X0Y248500D02*
X60000D01*
X0Y246500D02*
X60000D01*
X0Y250500D02*
X60000D01*
X0Y316500D02*
X60000D01*
X0Y314500D02*
X60000D01*
X0Y318500D02*
X60000D01*
X0Y310500D02*
X60000D01*
X0Y308500D02*
X60000D01*
X0Y312500D02*
X60000D01*
X0Y328500D02*
X60000D01*
X0Y326500D02*
X60000D01*
X0Y330500D02*
X60000D01*
X0Y322500D02*
X60000D01*
X0Y320500D02*
X60000D01*
X0Y324500D02*
X60000D01*
X0Y292500D02*
X60000D01*
X0Y290500D02*
X60000D01*
X0Y294500D02*
X60000D01*
X0Y286500D02*
X60000D01*
X0Y284500D02*
X60000D01*
X0Y288500D02*
X60000D01*
X0Y304500D02*
X60000D01*
X0Y302500D02*
X60000D01*
X0Y306500D02*
X60000D01*
X0Y298500D02*
X60000D01*
X0Y296500D02*
X60000D01*
X0Y300500D02*
X60000D01*
X22033Y498650D02*
X22809Y499811D01*
X22000Y498570D02*
Y506000D01*
X21367Y497113D02*
X21901Y498403D01*
X22000Y448076D02*
Y490430D01*
X22033Y490350D02*
X22809Y489189D01*
X22140Y448149D02*
X24139Y448977D01*
X20100Y446985D02*
X21973Y448066D01*
X21013Y495476D02*
X21286Y496846D01*
X20986Y494500D02*
Y495198D01*
X20000Y446909D02*
Y506000D01*
X21013Y493524D02*
X21286Y492154D01*
X21367Y491887D02*
X21901Y490597D01*
X20986Y493802D02*
Y494500D01*
X18228Y445564D02*
X19944Y446881D01*
X18000Y445353D02*
Y506000D01*
X16000Y443204D02*
Y506000D01*
X16559Y443912D02*
X18088Y445441D01*
X15119Y442056D02*
X16436Y443772D01*
X13934Y423973D02*
X15015Y422100D01*
X14000Y440142D02*
Y506000D01*
X13934Y440027D02*
X15015Y441900D01*
X13023Y437861D02*
X13851Y439860D01*
X12404Y428405D02*
X12963Y426315D01*
X13023Y426139D02*
X13851Y424140D01*
X12404Y435595D02*
X12963Y437685D01*
X0Y498500D02*
X21966D01*
X0Y496500D02*
X21217D01*
X0Y500500D02*
X23459D01*
X0Y488500D02*
X23459D01*
X0Y448500D02*
X22988D01*
X0Y490500D02*
X21966D01*
X0Y492500D02*
X21217D01*
X0Y446500D02*
X19448D01*
X0Y494500D02*
X20986D01*
X0Y442500D02*
X15460D01*
X0Y440500D02*
X14207D01*
X0Y444500D02*
X17147D01*
X0Y436500D02*
X12646D01*
X12085Y430732D02*
X12367Y428588D01*
X0Y438500D02*
X13288D01*
X0Y426500D02*
X12914D01*
X0Y424500D02*
X13702D01*
X0Y428500D02*
X12397D01*
X12085Y433268D02*
X12367Y435412D01*
X12073Y432000D02*
Y433081D01*
X0Y434500D02*
X12247D01*
X0Y432500D02*
X12073D01*
Y430919D02*
Y432000D01*
X0Y430500D02*
X12115D01*
X20100Y417015D02*
X21973Y415934D01*
X22000Y388076D02*
Y415924D01*
X18228Y418436D02*
X19944Y417119D01*
X20000Y386909D02*
Y417092D01*
X22140Y388149D02*
X24139Y388977D01*
X20100Y386985D02*
X21973Y388066D01*
X18228Y385564D02*
X19944Y386881D01*
X16559Y420088D02*
X18088Y418559D01*
X16000Y383204D02*
Y420796D01*
X15119Y421944D02*
X16436Y420228D01*
X18000Y385353D02*
Y418647D01*
X16559Y383912D02*
X18088Y385441D01*
X15119Y382055D02*
X16436Y383771D01*
X13934Y363973D02*
X15015Y362100D01*
X15119Y361945D02*
X16436Y360228D01*
X13934Y380027D02*
X15015Y381900D01*
X18228Y358436D02*
X19944Y357119D01*
X20100Y357015D02*
X21973Y355934D01*
X16559Y360088D02*
X18088Y358559D01*
X14000Y380142D02*
Y423858D01*
X13023Y377861D02*
X13851Y379860D01*
X12404Y375595D02*
X12963Y377685D01*
X12404Y368405D02*
X12963Y366315D01*
X13023Y366139D02*
X13851Y364140D01*
X12085Y370732D02*
X12367Y368588D01*
X0Y418500D02*
X18172D01*
X0Y416500D02*
X20992D01*
X0Y420500D02*
X16227D01*
X0Y386500D02*
X19448D01*
X0Y384500D02*
X17147D01*
X0Y388500D02*
X22988D01*
X0Y382500D02*
X15460D01*
X0Y380500D02*
X14207D01*
X0Y422500D02*
X14784D01*
X0Y376500D02*
X12646D01*
X0Y374500D02*
X12247D01*
X0Y378500D02*
X13288D01*
X0Y364500D02*
X13702D01*
X0Y362500D02*
X14784D01*
X0Y366500D02*
X12914D01*
X0Y358500D02*
X18172D01*
X0Y356500D02*
X20992D01*
X0Y360500D02*
X16227D01*
X12085Y373268D02*
X12367Y375412D01*
X12073Y372000D02*
Y373081D01*
X0Y372500D02*
X12073D01*
Y370918D02*
Y372000D01*
X0Y370500D02*
X12115D01*
X0Y368500D02*
X12397D01*
X0Y228500D02*
X60000D01*
X0Y226500D02*
X60000D01*
X0Y232500D02*
X60000D01*
X0Y230500D02*
X60000D01*
X0Y190500D02*
X60000D01*
X0Y188500D02*
X60000D01*
X0Y198500D02*
X60000D01*
X0Y224500D02*
X23914D01*
X21197Y222680D02*
X22445Y223638D01*
X0Y200500D02*
X23914D01*
X0Y194500D02*
X60000D01*
X0Y192500D02*
X60000D01*
X0Y196500D02*
X60000D01*
X0Y184500D02*
X60000D01*
X0Y182500D02*
X60000D01*
X0Y186500D02*
X60000D01*
X0Y178500D02*
X60000D01*
X0Y176500D02*
X60000D01*
X0Y180500D02*
X60000D01*
X0Y172500D02*
X60000D01*
X0Y170500D02*
X60000D01*
X0Y174500D02*
X60000D01*
X0Y166500D02*
X60000D01*
X22601Y132258D02*
X23964Y131471D01*
X0Y168500D02*
X60000D01*
X0Y162500D02*
X60000D01*
X0Y160500D02*
X60000D01*
X0Y164500D02*
X60000D01*
X0Y128500D02*
X60000D01*
X0Y122500D02*
X60000D01*
X0Y158500D02*
X60000D01*
X0Y130500D02*
X26607D01*
X0Y126500D02*
X60000D01*
X0Y156500D02*
X26607D01*
X0Y120500D02*
X60000D01*
X0Y118500D02*
X60000D01*
X0Y124500D02*
X60000D01*
X0Y102500D02*
X60000D01*
X0Y100500D02*
X60000D01*
X0Y104500D02*
X60000D01*
X0Y96500D02*
X60000D01*
X0Y94500D02*
X60000D01*
X0Y98500D02*
X60000D01*
X0Y114500D02*
X60000D01*
X0Y112500D02*
X60000D01*
X0Y116500D02*
X60000D01*
X0Y108500D02*
X60000D01*
X0Y106500D02*
X60000D01*
X0Y110500D02*
X60000D01*
X0Y72500D02*
X60000D01*
X0Y70500D02*
X60000D01*
X0Y76500D02*
X60000D01*
X0Y74500D02*
X60000D01*
X0Y66500D02*
X60000D01*
X0Y64500D02*
X60000D01*
X0Y68500D02*
X60000D01*
X0Y90500D02*
X60000D01*
X0Y88500D02*
X60000D01*
X0Y92500D02*
X60000D01*
X0Y84500D02*
X60000D01*
X0Y78500D02*
X60000D01*
X0Y86500D02*
X60000D01*
X0Y60500D02*
X60000D01*
X0Y58500D02*
X60000D01*
X0Y62500D02*
X60000D01*
X0Y54500D02*
X60000D01*
X0Y52500D02*
X60000D01*
X0Y56500D02*
X60000D01*
X22061Y16650D02*
X22836Y17810D01*
X22061Y16650D02*
X22836Y17810D01*
X22061Y16650D02*
X22836Y17810D01*
X22061Y8350D02*
X22836Y7190D01*
X22061Y8350D02*
X22836Y7190D01*
X22061Y8350D02*
X22836Y7190D01*
X0Y40500D02*
X60000D01*
X0Y38500D02*
X60000D01*
X0Y42500D02*
X60000D01*
X0Y34500D02*
X60000D01*
X0Y32500D02*
X60000D01*
X0Y36500D02*
X60000D01*
X0Y80500D02*
X60000D01*
X0Y50500D02*
X60000D01*
X0Y82500D02*
X60000D01*
X0Y46500D02*
X60000D01*
X0Y44500D02*
X60000D01*
X0Y48500D02*
X60000D01*
X0Y26500D02*
X60000D01*
X0Y24500D02*
X60000D01*
X0Y28500D02*
X60000D01*
X0Y500D02*
X60000D01*
X0Y0D02*
X60000D01*
X0Y22500D02*
X60000D01*
X0Y20500D02*
X26593D01*
X0Y18500D02*
X23487D01*
X0Y30500D02*
X60000D01*
X0Y4500D02*
X26593D01*
X0Y2500D02*
X60000D01*
X0Y6500D02*
X23487D01*
X22000Y223296D02*
Y355924D01*
X20000Y221500D02*
Y357091D01*
X19943Y221444D02*
X21056Y222557D01*
X18000Y218586D02*
Y358647D01*
X18862Y220055D02*
X19820Y221303D01*
X17971Y218536D02*
X18758Y219899D01*
X17286Y216914D02*
X17889Y218369D01*
X16819Y215217D02*
X17226Y216738D01*
X16577Y213473D02*
X16782Y215034D01*
X16565Y212500D02*
Y213287D01*
X16577Y211527D02*
X16782Y209966D01*
X16819Y209783D02*
X17226Y208262D01*
X16565Y211713D02*
Y212500D01*
X21197Y202320D02*
X22445Y201362D01*
X20000Y152500D02*
Y203500D01*
X19943Y203556D02*
X21056Y202443D01*
X22000Y154296D02*
Y201704D01*
X21197Y153680D02*
X22445Y154638D01*
X19943Y152444D02*
X21056Y153557D01*
X17971Y206464D02*
X18758Y205101D01*
X18000Y149586D02*
Y206414D01*
X17286Y208086D02*
X17889Y206631D01*
X18862Y204945D02*
X19820Y203697D01*
X18862Y151055D02*
X19820Y152303D01*
X17971Y149536D02*
X18758Y150899D01*
X0Y220500D02*
X19204D01*
X0Y206500D02*
X17959D01*
X0Y222500D02*
X21000D01*
X0Y202500D02*
X21000D01*
X0Y154500D02*
X22265D01*
X0Y204500D02*
X19204D01*
X0Y216500D02*
X17163D01*
X0Y214500D02*
X16712D01*
X0Y218500D02*
X17959D01*
X0Y210500D02*
X16712D01*
X0Y208500D02*
X17163D01*
X0Y212500D02*
X16565D01*
X12000Y0D02*
Y506000D01*
X14000Y0D02*
Y363858D01*
X10000Y0D02*
Y506000D01*
X0Y152500D02*
X20000D01*
X16000Y0D02*
Y360796D01*
X0Y150500D02*
X18528D01*
X0Y0D02*
Y506000D01*
X2000Y0D02*
Y506000D01*
X0Y0D02*
Y506000D01*
X6000Y0D02*
Y506000D01*
X8000Y0D02*
Y506000D01*
X4000Y0D02*
Y506000D01*
X22000Y16510D02*
Y132704D01*
X21395Y15113D02*
X21929Y16403D01*
X21197Y133320D02*
X22445Y132362D01*
X21395Y15113D02*
X21929Y16403D01*
X21395Y15113D02*
X21929Y16403D01*
X21041Y13476D02*
X21313Y14846D01*
X19943Y134556D02*
X21056Y133443D01*
X21041Y13476D02*
X21313Y14846D01*
X18862Y135945D02*
X19820Y134697D01*
X21041Y13476D02*
X21313Y14846D01*
X21013Y12500D02*
Y13198D01*
Y12500D02*
Y13198D01*
X21041Y11524D02*
X21313Y10154D01*
X21395Y9887D02*
X21929Y8597D01*
X21041Y11524D02*
X21313Y10154D01*
X21395Y9887D02*
X21929Y8597D01*
X22000Y0D02*
Y8490D01*
X21395Y9887D02*
X21929Y8597D01*
X21013Y12500D02*
Y13198D01*
Y11802D02*
Y12500D01*
X20000Y0D02*
Y134500D01*
X21013Y11802D02*
Y12500D01*
X21041Y11524D02*
X21313Y10154D01*
X21013Y11802D02*
Y12500D01*
X17286Y147914D02*
X17889Y149369D01*
X16819Y146217D02*
X17226Y147738D01*
X0Y148500D02*
X17529D01*
X0Y146500D02*
X16895D01*
X16819Y140783D02*
X17226Y139262D01*
X0Y140500D02*
X16895D01*
X16577Y144473D02*
X16782Y146034D01*
X16565Y143500D02*
Y144287D01*
X0Y144500D02*
X16580D01*
X16565Y142713D02*
Y143500D01*
X16577Y142527D02*
X16782Y140966D01*
X0Y142500D02*
X16580D01*
X0Y16500D02*
X21993D01*
X0Y14500D02*
X21245D01*
X0Y132500D02*
X22265D01*
X0Y10500D02*
X21245D01*
X0Y8500D02*
X21993D01*
X0Y12500D02*
X21013D01*
X17286Y139086D02*
X17889Y137631D01*
X17971Y137464D02*
X18758Y136101D01*
X0Y138500D02*
X17529D01*
X0Y136500D02*
X18528D01*
X18000Y0D02*
Y137414D01*
X0Y134500D02*
X20000D01*
M02*
