G04 Layer_Color=8388736*
%FSLAX25Y25*%
%MOIN*%
G70*
G01*
G75*
G36*
X25349Y336789D02*
X24983D01*
X24908Y336780D01*
X24808Y336772D01*
X24708Y336755D01*
X24616Y336730D01*
X24533Y336697D01*
X24475Y336647D01*
X24466Y336639D01*
X24458Y336622D01*
X24441Y336580D01*
X24425Y336522D01*
X24400Y336447D01*
X24383Y336347D01*
X24375Y336230D01*
X24366Y336081D01*
Y328892D01*
X23933D01*
X19069Y336089D01*
Y330174D01*
Y330166D01*
Y330150D01*
Y330124D01*
Y330091D01*
X19077Y330008D01*
X19085Y329908D01*
X19094Y329800D01*
X19110Y329691D01*
X19135Y329600D01*
X19152Y329566D01*
X19169Y329533D01*
X19177Y329525D01*
X19194Y329517D01*
X19227Y329491D01*
X19285Y329467D01*
X19360Y329441D01*
X19460Y329425D01*
X19585Y329408D01*
X19660Y329400D01*
X20226D01*
Y329000D01*
X17627D01*
Y329400D01*
X18027D01*
X18111Y329408D01*
X18211Y329416D01*
X18311Y329441D01*
X18410Y329467D01*
X18485Y329508D01*
X18519Y329533D01*
X18544Y329558D01*
X18552Y329566D01*
X18560Y329591D01*
X18577Y329650D01*
X18594Y329733D01*
X18602Y329783D01*
X18610Y329841D01*
X18619Y329916D01*
X18627Y330000D01*
X18635Y330091D01*
X18644Y330191D01*
Y330308D01*
Y330433D01*
Y336081D01*
Y336089D01*
Y336097D01*
Y336122D01*
Y336156D01*
X18635Y336230D01*
Y336330D01*
X18619Y336430D01*
X18602Y336522D01*
X18585Y336605D01*
X18552Y336664D01*
X18544Y336672D01*
X18535Y336680D01*
X18502Y336705D01*
X18452Y336730D01*
X18385Y336747D01*
X18294Y336772D01*
X18177Y336780D01*
X18036Y336789D01*
X17594D01*
Y337188D01*
X20676D01*
X23942Y332374D01*
Y335889D01*
Y335897D01*
Y335914D01*
Y335939D01*
Y335981D01*
X23933Y336072D01*
X23925Y336189D01*
X23917Y336314D01*
X23892Y336430D01*
X23867Y336539D01*
X23842Y336580D01*
X23825Y336614D01*
X23817Y336622D01*
X23800Y336639D01*
X23767Y336672D01*
X23717Y336705D01*
X23633Y336730D01*
X23533Y336764D01*
X23408Y336780D01*
X23334Y336789D01*
X22867D01*
Y337188D01*
X25349D01*
Y336789D01*
D02*
G37*
G36*
X49780Y173689D02*
X49156D01*
Y173702D01*
X49142Y173730D01*
Y173786D01*
X49114Y173855D01*
X49100Y173938D01*
X49073Y174036D01*
X49045Y174161D01*
X49003Y174285D01*
X48906Y174563D01*
X48795Y174882D01*
X48642Y175229D01*
X48476Y175590D01*
X48281Y175937D01*
X48059Y176284D01*
X47809Y176603D01*
X47518Y176881D01*
X47365Y177020D01*
X47199Y177131D01*
X47032Y177228D01*
X46852Y177311D01*
X46657Y177381D01*
X46463Y177436D01*
X46255Y177464D01*
X46033Y177478D01*
X45727D01*
Y165166D01*
X47796D01*
Y164500D01*
X40342D01*
Y165166D01*
X42396D01*
Y177478D01*
X42063D01*
X41994Y177464D01*
X41869Y177450D01*
X41702Y177422D01*
X41522Y177367D01*
X41300Y177284D01*
X41064Y177159D01*
X40814Y177006D01*
X40550Y176798D01*
X40411Y176687D01*
X40286Y176548D01*
X40148Y176409D01*
X40023Y176242D01*
X39898Y176076D01*
X39773Y175882D01*
X39648Y175673D01*
X39537Y175451D01*
X39426Y175201D01*
X39315Y174938D01*
X39218Y174660D01*
X39121Y174355D01*
X39037Y174036D01*
X38968Y173689D01*
X38343D01*
X38427Y178144D01*
X49697D01*
X49780Y173689D01*
D02*
G37*
G36*
X24725Y473797D02*
X24825Y473788D01*
X24942Y473772D01*
X25092Y473747D01*
X25250Y473713D01*
X25425Y473672D01*
X25617Y473613D01*
X25817Y473538D01*
X26025Y473447D01*
X26241Y473339D01*
X26458Y473214D01*
X26683Y473072D01*
X26899Y472897D01*
X27108Y472706D01*
X27124Y472689D01*
X27158Y472655D01*
X27208Y472589D01*
X27283Y472506D01*
X27366Y472389D01*
X27457Y472247D01*
X27566Y472089D01*
X27666Y471906D01*
X27774Y471689D01*
X27874Y471456D01*
X27966Y471198D01*
X28049Y470923D01*
X28124Y470615D01*
X28174Y470290D01*
X28216Y469940D01*
X28224Y469573D01*
Y469565D01*
Y469548D01*
Y469523D01*
Y469490D01*
Y469448D01*
X28216Y469390D01*
X28207Y469257D01*
X28190Y469099D01*
X28166Y468915D01*
X28132Y468707D01*
X28091Y468482D01*
X28032Y468241D01*
X27966Y467999D01*
X27882Y467741D01*
X27774Y467491D01*
X27657Y467241D01*
X27516Y466991D01*
X27349Y466758D01*
X27166Y466533D01*
X27158Y466516D01*
X27116Y466483D01*
X27058Y466425D01*
X26974Y466358D01*
X26874Y466266D01*
X26758Y466175D01*
X26608Y466066D01*
X26449Y465967D01*
X26275Y465858D01*
X26075Y465750D01*
X25866Y465658D01*
X25642Y465567D01*
X25400Y465500D01*
X25142Y465442D01*
X24875Y465408D01*
X24592Y465392D01*
X24517D01*
X24434Y465400D01*
X24317Y465408D01*
X24184Y465425D01*
X24017Y465458D01*
X23842Y465492D01*
X23642Y465542D01*
X23434Y465608D01*
X23217Y465683D01*
X22993Y465783D01*
X22776Y465900D01*
X22551Y466041D01*
X22326Y466200D01*
X22118Y466391D01*
X21918Y466600D01*
X21910Y466616D01*
X21876Y466658D01*
X21826Y466724D01*
X21760Y466816D01*
X21685Y466941D01*
X21593Y467083D01*
X21501Y467249D01*
X21410Y467433D01*
X21310Y467641D01*
X21218Y467874D01*
X21135Y468124D01*
X21052Y468391D01*
X20985Y468674D01*
X20935Y468974D01*
X20902Y469290D01*
X20893Y469623D01*
Y469632D01*
Y469648D01*
Y469673D01*
Y469707D01*
X20902Y469748D01*
Y469798D01*
X20910Y469932D01*
X20927Y470090D01*
X20952Y470265D01*
X20985Y470473D01*
X21027Y470690D01*
X21085Y470923D01*
X21160Y471164D01*
X21243Y471414D01*
X21352Y471672D01*
X21476Y471922D01*
X21618Y472164D01*
X21785Y472406D01*
X21976Y472631D01*
X21993Y472647D01*
X22026Y472681D01*
X22085Y472739D01*
X22168Y472814D01*
X22276Y472905D01*
X22401Y473005D01*
X22543Y473105D01*
X22709Y473222D01*
X22893Y473330D01*
X23093Y473430D01*
X23301Y473530D01*
X23534Y473622D01*
X23776Y473697D01*
X24034Y473755D01*
X24300Y473788D01*
X24584Y473805D01*
X24650D01*
X24725Y473797D01*
D02*
G37*
G36*
X49648Y336789D02*
X49182D01*
X49106Y336780D01*
X49015Y336772D01*
X48923Y336764D01*
X48832Y336747D01*
X48748Y336714D01*
X48723Y336697D01*
X48698Y336680D01*
Y336672D01*
X48682Y336655D01*
X48665Y336622D01*
X48648Y336564D01*
X48632Y336489D01*
X48615Y336389D01*
X48607Y336255D01*
X48598Y336180D01*
Y336097D01*
Y331857D01*
Y331849D01*
Y331824D01*
Y331782D01*
Y331724D01*
X48590Y331657D01*
Y331574D01*
X48582Y331482D01*
Y331382D01*
X48557Y331166D01*
X48532Y330924D01*
X48490Y330683D01*
X48440Y330449D01*
Y330441D01*
X48432Y330424D01*
X48423Y330391D01*
X48407Y330349D01*
X48382Y330291D01*
X48357Y330233D01*
X48282Y330083D01*
X48232Y330008D01*
X48174Y329916D01*
X48099Y329825D01*
X48024Y329733D01*
X47940Y329641D01*
X47840Y329550D01*
X47732Y329458D01*
X47616Y329366D01*
X47607Y329358D01*
X47582Y329350D01*
X47549Y329325D01*
X47491Y329292D01*
X47416Y329258D01*
X47332Y329217D01*
X47232Y329175D01*
X47107Y329133D01*
X46974Y329083D01*
X46824Y329042D01*
X46649Y329000D01*
X46466Y328967D01*
X46266Y328933D01*
X46049Y328908D01*
X45808Y328900D01*
X45558Y328892D01*
X45433D01*
X45366Y328900D01*
X45291D01*
X45200Y328908D01*
X45108Y328917D01*
X44883Y328933D01*
X44642Y328958D01*
X44392Y329000D01*
X44125Y329058D01*
X44117D01*
X44092Y329067D01*
X44059Y329075D01*
X44009Y329092D01*
X43950Y329108D01*
X43884Y329133D01*
X43725Y329192D01*
X43542Y329275D01*
X43359Y329375D01*
X43167Y329500D01*
X42992Y329650D01*
X42984Y329658D01*
X42976Y329666D01*
X42951Y329691D01*
X42926Y329725D01*
X42851Y329808D01*
X42759Y329916D01*
X42667Y330050D01*
X42576Y330200D01*
X42501Y330358D01*
X42443Y330524D01*
Y330533D01*
X42434Y330541D01*
Y330566D01*
X42426Y330608D01*
X42418Y330649D01*
X42409Y330699D01*
X42393Y330824D01*
X42368Y330982D01*
X42351Y331157D01*
X42343Y331357D01*
X42334Y331574D01*
Y336789D01*
X41260D01*
Y337188D01*
X45458D01*
Y336789D01*
X44333D01*
Y331499D01*
Y331482D01*
Y331441D01*
Y331382D01*
X44342Y331291D01*
X44350Y331191D01*
X44358Y331074D01*
X44375Y330949D01*
X44392Y330816D01*
X44442Y330524D01*
X44525Y330250D01*
X44583Y330116D01*
X44642Y330000D01*
X44708Y329891D01*
X44792Y329800D01*
X44800Y329791D01*
X44817Y329783D01*
X44842Y329758D01*
X44875Y329733D01*
X44925Y329700D01*
X44983Y329666D01*
X45050Y329625D01*
X45125Y329591D01*
X45208Y329550D01*
X45308Y329508D01*
X45408Y329475D01*
X45525Y329441D01*
X45641Y329416D01*
X45774Y329392D01*
X45916Y329383D01*
X46058Y329375D01*
X46158D01*
X46208Y329383D01*
X46274D01*
X46416Y329400D01*
X46583Y329433D01*
X46758Y329467D01*
X46949Y329525D01*
X47132Y329600D01*
X47141D01*
X47157Y329608D01*
X47182Y329625D01*
X47216Y329641D01*
X47299Y329691D01*
X47407Y329766D01*
X47532Y329866D01*
X47657Y329983D01*
X47782Y330116D01*
X47890Y330275D01*
Y330283D01*
X47899Y330299D01*
X47915Y330325D01*
X47932Y330366D01*
X47957Y330416D01*
X47982Y330474D01*
X48007Y330549D01*
X48032Y330641D01*
X48057Y330741D01*
X48082Y330858D01*
X48107Y330982D01*
X48132Y331124D01*
X48149Y331274D01*
X48165Y331441D01*
X48174Y331624D01*
Y331824D01*
Y336147D01*
Y336156D01*
Y336164D01*
Y336214D01*
Y336289D01*
X48165Y336372D01*
X48157Y336455D01*
X48149Y336547D01*
X48132Y336622D01*
X48115Y336672D01*
Y336680D01*
X48099Y336689D01*
X48074Y336705D01*
X48032Y336730D01*
X47965Y336755D01*
X47874Y336772D01*
X47815Y336780D01*
X47749D01*
X47682Y336789D01*
X47041D01*
Y337188D01*
X49648D01*
Y336789D01*
D02*
G37*
G36*
X32663Y334514D02*
X32288D01*
Y334523D01*
X32280Y334539D01*
Y334573D01*
X32263Y334614D01*
X32255Y334664D01*
X32238Y334723D01*
X32222Y334798D01*
X32197Y334873D01*
X32138Y335039D01*
X32072Y335231D01*
X31980Y335439D01*
X31880Y335656D01*
X31763Y335864D01*
X31630Y336072D01*
X31480Y336264D01*
X31305Y336430D01*
X31214Y336514D01*
X31114Y336580D01*
X31014Y336639D01*
X30906Y336689D01*
X30789Y336730D01*
X30672Y336764D01*
X30547Y336780D01*
X30414Y336789D01*
X30231D01*
Y329400D01*
X31472D01*
Y329000D01*
X26999D01*
Y329400D01*
X28232D01*
Y336789D01*
X28032D01*
X27990Y336780D01*
X27915Y336772D01*
X27815Y336755D01*
X27707Y336722D01*
X27573Y336672D01*
X27432Y336597D01*
X27282Y336505D01*
X27124Y336380D01*
X27040Y336314D01*
X26965Y336230D01*
X26882Y336147D01*
X26807Y336047D01*
X26732Y335947D01*
X26657Y335831D01*
X26582Y335706D01*
X26516Y335572D01*
X26449Y335422D01*
X26382Y335264D01*
X26324Y335098D01*
X26266Y334914D01*
X26216Y334723D01*
X26174Y334514D01*
X25799D01*
X25849Y337188D01*
X32613D01*
X32663Y334514D01*
D02*
G37*
G36*
X44389Y37925D02*
X44527Y37911D01*
X44680Y37883D01*
X44861Y37856D01*
X45041Y37814D01*
X45249Y37773D01*
X45457Y37703D01*
X45679Y37620D01*
X45902Y37536D01*
X46124Y37412D01*
X46360Y37287D01*
X46582Y37134D01*
X46790Y36967D01*
X46804Y36954D01*
X46845Y36926D01*
X46901Y36870D01*
X46970Y36787D01*
X47054Y36690D01*
X47165Y36565D01*
X47276Y36412D01*
X47387Y36246D01*
X47498Y36051D01*
X47623Y35843D01*
X47734Y35607D01*
X47831Y35344D01*
X47928Y35052D01*
X48011Y34747D01*
X48081Y34413D01*
X48122Y34067D01*
X43112D01*
Y32734D01*
Y32720D01*
Y32665D01*
Y32581D01*
Y32484D01*
X43126Y32359D01*
Y32207D01*
X43139Y32054D01*
X43153Y31887D01*
X43181Y31526D01*
X43223Y31166D01*
X43264Y30999D01*
X43292Y30846D01*
X43348Y30708D01*
X43389Y30583D01*
X43403Y30555D01*
X43445Y30485D01*
X43528Y30402D01*
X43653Y30291D01*
X43833Y30180D01*
X43931Y30138D01*
X44055Y30097D01*
X44180Y30055D01*
X44333Y30027D01*
X44500Y30014D01*
X44680Y30000D01*
X44763D01*
X44833Y30014D01*
X44902D01*
X44999Y30027D01*
X45208Y30069D01*
X45471Y30138D01*
X45735Y30236D01*
X46026Y30374D01*
X46318Y30555D01*
X46332Y30569D01*
X46346Y30583D01*
X46387Y30610D01*
X46443Y30666D01*
X46512Y30721D01*
X46582Y30805D01*
X46665Y30888D01*
X46762Y30985D01*
X46859Y31110D01*
X46956Y31235D01*
X47054Y31388D01*
X47151Y31540D01*
X47248Y31721D01*
X47345Y31915D01*
X47428Y32109D01*
X47512Y32331D01*
X48122D01*
Y32318D01*
X48108Y32262D01*
X48081Y32179D01*
X48053Y32082D01*
X47997Y31957D01*
X47942Y31804D01*
X47886Y31637D01*
X47803Y31471D01*
X47609Y31082D01*
X47373Y30708D01*
X47220Y30513D01*
X47067Y30333D01*
X46901Y30166D01*
X46720Y30014D01*
X46707Y30000D01*
X46679Y29986D01*
X46623Y29944D01*
X46540Y29889D01*
X46443Y29833D01*
X46332Y29778D01*
X46193Y29708D01*
X46040Y29639D01*
X45860Y29555D01*
X45679Y29486D01*
X45471Y29431D01*
X45263Y29375D01*
X44791Y29278D01*
X44541Y29264D01*
X44278Y29250D01*
X44194D01*
X44097Y29264D01*
X43958Y29278D01*
X43792Y29292D01*
X43597Y29320D01*
X43389Y29361D01*
X43167Y29417D01*
X42917Y29486D01*
X42667Y29569D01*
X42404Y29680D01*
X42140Y29819D01*
X41890Y29972D01*
X41640Y30138D01*
X41390Y30347D01*
X41168Y30583D01*
X41155Y30597D01*
X41113Y30638D01*
X41057Y30721D01*
X40988Y30819D01*
X40905Y30944D01*
X40794Y31096D01*
X40696Y31277D01*
X40585Y31471D01*
X40474Y31679D01*
X40377Y31915D01*
X40280Y32165D01*
X40183Y32443D01*
X40113Y32720D01*
X40058Y33026D01*
X40016Y33331D01*
X40003Y33650D01*
Y33664D01*
Y33720D01*
X40016Y33817D01*
Y33928D01*
X40044Y34080D01*
X40072Y34247D01*
X40100Y34441D01*
X40155Y34650D01*
X40211Y34872D01*
X40294Y35107D01*
X40391Y35357D01*
X40502Y35607D01*
X40641Y35857D01*
X40794Y36121D01*
X40974Y36371D01*
X41182Y36620D01*
X41196Y36634D01*
X41238Y36676D01*
X41307Y36745D01*
X41390Y36829D01*
X41515Y36926D01*
X41654Y37037D01*
X41807Y37162D01*
X42001Y37287D01*
X42195Y37398D01*
X42418Y37523D01*
X42667Y37634D01*
X42931Y37731D01*
X43209Y37814D01*
X43500Y37883D01*
X43819Y37925D01*
X44139Y37939D01*
X44291D01*
X44389Y37925D01*
D02*
G37*
G36*
X19960Y30097D02*
X21126D01*
Y29500D01*
X18724D01*
X18433Y29486D01*
X18169Y29472D01*
X18044D01*
X17919Y29458D01*
X17822D01*
X17739Y29445D01*
X17725D01*
X17683Y29431D01*
X17614Y29417D01*
X17531Y29403D01*
X17350Y29375D01*
X17253D01*
X17184Y29361D01*
Y31027D01*
X17142D01*
Y31013D01*
X17128Y30999D01*
X17100Y30957D01*
X17059Y30902D01*
X16962Y30763D01*
X16837Y30583D01*
X16656Y30388D01*
X16448Y30180D01*
X16198Y29986D01*
X15907Y29805D01*
X15893D01*
X15865Y29792D01*
X15823Y29764D01*
X15768Y29736D01*
X15685Y29708D01*
X15601Y29667D01*
X15379Y29583D01*
X15116Y29500D01*
X14810Y29431D01*
X14477Y29375D01*
X14130Y29361D01*
X13977D01*
X13894Y29375D01*
X13811D01*
X13589Y29403D01*
X13339Y29445D01*
X13089Y29514D01*
X12812Y29597D01*
X12562Y29722D01*
X12534Y29736D01*
X12465Y29792D01*
X12353Y29861D01*
X12229Y29958D01*
X12090Y30083D01*
X11951Y30208D01*
X11840Y30361D01*
X11757Y30527D01*
Y30555D01*
X11729Y30610D01*
X11701Y30721D01*
X11673Y30874D01*
X11646Y31068D01*
X11618Y31318D01*
X11604Y31610D01*
X11590Y31943D01*
Y37065D01*
X10424D01*
Y37689D01*
X14366D01*
Y32262D01*
Y32248D01*
Y32207D01*
Y32151D01*
Y32068D01*
Y31971D01*
Y31846D01*
X14380Y31596D01*
X14394Y31318D01*
X14408Y31055D01*
X14435Y30805D01*
X14449Y30708D01*
X14463Y30624D01*
Y30610D01*
X14491Y30569D01*
X14519Y30499D01*
X14574Y30430D01*
X14644Y30361D01*
X14755Y30291D01*
X14880Y30250D01*
X15046Y30236D01*
X15074D01*
X15130Y30250D01*
X15241Y30263D01*
X15379Y30291D01*
X15546Y30347D01*
X15726Y30416D01*
X15948Y30527D01*
X16171Y30666D01*
X16184D01*
X16198Y30680D01*
X16268Y30749D01*
X16379Y30832D01*
X16504Y30957D01*
X16642Y31110D01*
X16781Y31277D01*
X16892Y31457D01*
X16989Y31665D01*
X17003Y31693D01*
X17017Y31762D01*
X17045Y31901D01*
X17087Y32068D01*
X17128Y32290D01*
X17156Y32568D01*
X17170Y32873D01*
X17184Y33234D01*
Y37065D01*
X15837D01*
Y37689D01*
X19960D01*
Y30097D01*
D02*
G37*
G36*
X6615Y337297D02*
X6690Y337288D01*
X6782Y337272D01*
X6882Y337255D01*
X6998Y337230D01*
X7115Y337197D01*
X7240Y337155D01*
X7373Y337113D01*
X7515Y337055D01*
X7648Y336980D01*
X7790Y336905D01*
X7931Y336813D01*
X8065Y336705D01*
X8073Y336714D01*
X8115Y336739D01*
X8165Y336780D01*
X8223Y336822D01*
X8298Y336880D01*
X8373Y336947D01*
X8448Y337014D01*
X8523Y337088D01*
X8873D01*
X8923Y334806D01*
X8523D01*
Y334814D01*
X8514Y334831D01*
X8506Y334856D01*
X8498Y334898D01*
X8481Y334948D01*
X8465Y334998D01*
X8415Y335131D01*
X8348Y335289D01*
X8273Y335472D01*
X8173Y335664D01*
X8065Y335856D01*
X7931Y336055D01*
X7790Y336239D01*
X7623Y336422D01*
X7440Y336580D01*
X7232Y336714D01*
X7123Y336764D01*
X7015Y336813D01*
X6890Y336855D01*
X6774Y336880D01*
X6640Y336897D01*
X6507Y336905D01*
X6440D01*
X6399Y336897D01*
X6340Y336889D01*
X6282Y336872D01*
X6140Y336830D01*
X6065Y336805D01*
X5982Y336764D01*
X5907Y336714D01*
X5824Y336664D01*
X5749Y336589D01*
X5682Y336514D01*
X5616Y336422D01*
X5557Y336322D01*
Y336314D01*
X5549Y336297D01*
X5532Y336255D01*
X5516Y336206D01*
X5491Y336130D01*
X5466Y336047D01*
X5441Y335939D01*
X5416Y335806D01*
X5391Y335664D01*
X5366Y335489D01*
X5341Y335297D01*
X5316Y335081D01*
X5299Y334839D01*
X5282Y334573D01*
X5274Y334281D01*
Y333965D01*
Y333956D01*
Y333931D01*
Y333881D01*
Y333823D01*
Y333748D01*
Y333657D01*
Y333557D01*
Y333440D01*
X5282Y333315D01*
Y333182D01*
Y333032D01*
Y332882D01*
X5291Y332565D01*
X5299Y332232D01*
X5307Y331882D01*
X5324Y331541D01*
X5341Y331207D01*
X5357Y330891D01*
X5366Y330749D01*
X5382Y330608D01*
X5391Y330474D01*
X5407Y330349D01*
X5424Y330241D01*
X5441Y330150D01*
X5457Y330058D01*
X5474Y329991D01*
Y329983D01*
X5482Y329966D01*
X5499Y329933D01*
X5516Y329891D01*
X5582Y329783D01*
X5624Y329716D01*
X5674Y329658D01*
X5732Y329600D01*
X5799Y329533D01*
X5874Y329483D01*
X5965Y329433D01*
X6057Y329383D01*
X6174Y329350D01*
X6290Y329333D01*
X6424Y329325D01*
X6440D01*
X6490Y329333D01*
X6565Y329342D01*
X6673Y329358D01*
X6798Y329392D01*
X6940Y329441D01*
X7098Y329508D01*
X7273Y329600D01*
X7448Y329708D01*
X7632Y329858D01*
X7723Y329941D01*
X7815Y330033D01*
X7915Y330133D01*
X7998Y330241D01*
X8090Y330358D01*
X8181Y330483D01*
X8265Y330624D01*
X8348Y330774D01*
X8431Y330941D01*
X8506Y331107D01*
X8581Y331291D01*
X8648Y331491D01*
X9048D01*
X8923Y328967D01*
X8523D01*
X8514Y328975D01*
X8489Y329008D01*
X8448Y329058D01*
X8398Y329125D01*
X8331Y329208D01*
X8256Y329308D01*
X8165Y329408D01*
X8065Y329525D01*
X8056Y329517D01*
X8031Y329500D01*
X7981Y329467D01*
X7923Y329425D01*
X7848Y329375D01*
X7756Y329325D01*
X7656Y329267D01*
X7540Y329208D01*
X7415Y329150D01*
X7282Y329092D01*
X7132Y329042D01*
X6973Y328992D01*
X6815Y328950D01*
X6640Y328917D01*
X6465Y328900D01*
X6282Y328892D01*
X6224D01*
X6157Y328900D01*
X6065Y328908D01*
X5957Y328925D01*
X5824Y328950D01*
X5674Y328983D01*
X5516Y329033D01*
X5341Y329092D01*
X5158Y329158D01*
X4974Y329250D01*
X4774Y329358D01*
X4583Y329483D01*
X4383Y329625D01*
X4191Y329800D01*
X4000Y329991D01*
X3991Y330008D01*
X3958Y330041D01*
X3908Y330108D01*
X3841Y330191D01*
X3766Y330308D01*
X3683Y330441D01*
X3591Y330599D01*
X3500Y330783D01*
X3408Y330991D01*
X3317Y331216D01*
X3233Y331466D01*
X3158Y331741D01*
X3092Y332032D01*
X3042Y332340D01*
X3008Y332674D01*
X3000Y333023D01*
Y333032D01*
Y333048D01*
Y333073D01*
Y333107D01*
Y333157D01*
X3008Y333207D01*
X3017Y333340D01*
X3033Y333498D01*
X3050Y333690D01*
X3083Y333898D01*
X3125Y334123D01*
X3175Y334365D01*
X3242Y334614D01*
X3325Y334873D01*
X3416Y335131D01*
X3533Y335389D01*
X3666Y335639D01*
X3816Y335881D01*
X3991Y336114D01*
X4000Y336130D01*
X4041Y336164D01*
X4091Y336222D01*
X4174Y336297D01*
X4266Y336389D01*
X4383Y336489D01*
X4524Y336597D01*
X4674Y336714D01*
X4849Y336822D01*
X5032Y336930D01*
X5241Y337030D01*
X5457Y337122D01*
X5691Y337197D01*
X5932Y337255D01*
X6199Y337288D01*
X6465Y337305D01*
X6549D01*
X6615Y337297D01*
D02*
G37*
G36*
X5400Y37925D02*
X5538D01*
X5705Y37911D01*
X5872Y37897D01*
X6260Y37842D01*
X6677Y37786D01*
X7079Y37689D01*
X7468Y37564D01*
X7482D01*
X7509Y37550D01*
X7565Y37523D01*
X7620Y37495D01*
X7773Y37384D01*
X7870Y37314D01*
X7967Y37217D01*
X8051Y37120D01*
X8148Y37009D01*
X8231Y36870D01*
X8301Y36718D01*
X8356Y36551D01*
X8412Y36357D01*
X8439Y36149D01*
X8453Y35913D01*
Y31624D01*
Y31610D01*
Y31582D01*
Y31526D01*
X8467Y31457D01*
X8481Y31277D01*
X8536Y31082D01*
X8606Y30874D01*
X8717Y30694D01*
X8786Y30624D01*
X8870Y30569D01*
X8953Y30541D01*
X9064Y30527D01*
X9092D01*
X9133Y30541D01*
X9189Y30555D01*
X9258Y30569D01*
X9342Y30610D01*
X9439Y30652D01*
X9550Y30721D01*
X9827Y30250D01*
X9814Y30236D01*
X9786Y30208D01*
X9744Y30152D01*
X9675Y30097D01*
X9591Y30014D01*
X9494Y29930D01*
X9383Y29847D01*
X9244Y29750D01*
X8953Y29569D01*
X8606Y29403D01*
X8426Y29347D01*
X8231Y29292D01*
X8023Y29264D01*
X7815Y29250D01*
X7759D01*
X7704Y29264D01*
X7620D01*
X7509Y29292D01*
X7398Y29320D01*
X7260Y29347D01*
X7121Y29403D01*
X6968Y29472D01*
X6802Y29555D01*
X6635Y29653D01*
X6468Y29764D01*
X6302Y29902D01*
X6135Y30069D01*
X5969Y30263D01*
X5816Y30472D01*
X5802Y30458D01*
X5760Y30416D01*
X5677Y30361D01*
X5580Y30277D01*
X5455Y30194D01*
X5302Y30083D01*
X5136Y29972D01*
X4942Y29861D01*
X4733Y29750D01*
X4511Y29639D01*
X4262Y29528D01*
X4012Y29445D01*
X3734Y29361D01*
X3456Y29306D01*
X3165Y29264D01*
X2860Y29250D01*
X2749D01*
X2679Y29264D01*
X2582D01*
X2485Y29278D01*
X2235Y29320D01*
X1957Y29389D01*
X1666Y29486D01*
X1388Y29625D01*
X1125Y29819D01*
Y29833D01*
X1097Y29847D01*
X1027Y29916D01*
X930Y30041D01*
X819Y30208D01*
X694Y30416D01*
X597Y30666D01*
X528Y30944D01*
X514Y31096D01*
X500Y31249D01*
Y31263D01*
Y31277D01*
Y31318D01*
X514Y31360D01*
X528Y31499D01*
X583Y31679D01*
X653Y31887D01*
X778Y32123D01*
X930Y32373D01*
X1027Y32498D01*
X1152Y32637D01*
X1277Y32762D01*
X1416Y32901D01*
X1583Y33026D01*
X1763Y33164D01*
X1957Y33289D01*
X2180Y33400D01*
X2429Y33525D01*
X2679Y33636D01*
X2971Y33733D01*
X3276Y33831D01*
X3609Y33914D01*
X3970Y33997D01*
X4359Y34053D01*
X4761Y34108D01*
X5205Y34150D01*
X5677Y34178D01*
Y35996D01*
Y36010D01*
Y36024D01*
Y36065D01*
Y36121D01*
X5663Y36246D01*
X5649Y36412D01*
X5636Y36579D01*
X5594Y36759D01*
X5552Y36912D01*
X5483Y37051D01*
X5469Y37065D01*
X5441Y37092D01*
X5386Y37148D01*
X5302Y37203D01*
X5178Y37259D01*
X5011Y37314D01*
X4803Y37342D01*
X4553Y37356D01*
X4456D01*
X4345Y37342D01*
X4206Y37328D01*
X4053Y37314D01*
X3901Y37287D01*
X3748Y37231D01*
X3609Y37176D01*
X3595Y37162D01*
X3554Y37148D01*
X3498Y37106D01*
X3443Y37065D01*
X3387Y37009D01*
X3331Y36954D01*
X3290Y36884D01*
X3276Y36815D01*
Y36787D01*
X3304Y36718D01*
X3331Y36662D01*
X3373Y36607D01*
X3429Y36523D01*
X3512Y36440D01*
X3526Y36426D01*
X3554Y36398D01*
X3581Y36343D01*
X3637Y36273D01*
X3678Y36190D01*
X3706Y36079D01*
X3734Y35968D01*
X3748Y35829D01*
Y35802D01*
Y35746D01*
X3734Y35649D01*
X3692Y35524D01*
X3651Y35371D01*
X3581Y35232D01*
X3484Y35080D01*
X3345Y34927D01*
X3331Y34913D01*
X3276Y34872D01*
X3193Y34802D01*
X3068Y34747D01*
X2929Y34677D01*
X2749Y34608D01*
X2554Y34566D01*
X2346Y34552D01*
X2249D01*
X2152Y34566D01*
X2027Y34594D01*
X1874Y34636D01*
X1721Y34705D01*
X1555Y34788D01*
X1402Y34913D01*
X1388Y34927D01*
X1347Y34983D01*
X1277Y35052D01*
X1208Y35163D01*
X1139Y35288D01*
X1069Y35441D01*
X1027Y35607D01*
X1014Y35788D01*
Y35802D01*
Y35829D01*
X1027Y35871D01*
Y35940D01*
X1041Y36010D01*
X1069Y36107D01*
X1152Y36315D01*
X1208Y36426D01*
X1277Y36551D01*
X1361Y36676D01*
X1458Y36801D01*
X1583Y36926D01*
X1721Y37051D01*
X1888Y37176D01*
X2068Y37301D01*
X2082Y37314D01*
X2124Y37328D01*
X2180Y37356D01*
X2263Y37398D01*
X2374Y37453D01*
X2513Y37509D01*
X2665Y37564D01*
X2846Y37620D01*
X3040Y37675D01*
X3262Y37731D01*
X3498Y37786D01*
X3762Y37842D01*
X4053Y37883D01*
X4359Y37911D01*
X4678Y37939D01*
X5275D01*
X5400Y37925D01*
D02*
G37*
G36*
X42685Y471406D02*
X42285D01*
X42276Y471423D01*
X42268Y471456D01*
X42243Y471514D01*
X42218Y471589D01*
X42177Y471681D01*
X42135Y471789D01*
X42077Y471906D01*
X42018Y472031D01*
X41877Y472281D01*
X41710Y472531D01*
X41618Y472647D01*
X41527Y472755D01*
X41427Y472847D01*
X41319Y472922D01*
X41310Y472930D01*
X41294Y472939D01*
X41260Y472955D01*
X41219Y472980D01*
X41160Y473005D01*
X41094Y473039D01*
X41010Y473072D01*
X40919Y473105D01*
X40819Y473139D01*
X40702Y473172D01*
X40577Y473205D01*
X40444Y473230D01*
X40302Y473255D01*
X40144Y473272D01*
X39986Y473289D01*
X38753D01*
Y469832D01*
X39070D01*
X39128Y469840D01*
X39211Y469857D01*
X39311Y469873D01*
X39428Y469907D01*
X39544Y469956D01*
X39678Y470015D01*
X39803Y470090D01*
X39936Y470190D01*
X40061Y470306D01*
X40177Y470440D01*
X40277Y470606D01*
X40369Y470806D01*
X40444Y471023D01*
X40469Y471148D01*
X40494Y471281D01*
X40894D01*
Y467932D01*
X40494D01*
Y467941D01*
Y467949D01*
X40486Y467999D01*
X40477Y468074D01*
X40452Y468166D01*
X40427Y468282D01*
X40386Y468407D01*
X40336Y468540D01*
X40269Y468682D01*
X40186Y468824D01*
X40086Y468957D01*
X39961Y469082D01*
X39819Y469199D01*
X39661Y469290D01*
X39469Y469365D01*
X39253Y469415D01*
X39136Y469432D01*
X38753D01*
Y465900D01*
X40194D01*
X40227Y465908D01*
X40269D01*
X40319Y465916D01*
X40444Y465933D01*
X40594Y465967D01*
X40760Y466016D01*
X40944Y466091D01*
X41144Y466183D01*
X41344Y466308D01*
X41443Y466375D01*
X41552Y466458D01*
X41652Y466541D01*
X41752Y466641D01*
X41852Y466749D01*
X41943Y466866D01*
X42043Y466991D01*
X42135Y467124D01*
X42218Y467274D01*
X42301Y467433D01*
X42377Y467599D01*
X42443Y467782D01*
X42510Y467974D01*
X42568Y468182D01*
X42993D01*
X42818Y465500D01*
X35713D01*
Y465900D01*
X36754D01*
Y473289D01*
X35713D01*
Y473688D01*
X42576D01*
X42685Y471406D01*
D02*
G37*
G36*
X46342Y473797D02*
X46417Y473788D01*
X46492Y473780D01*
X46583Y473763D01*
X46683Y473738D01*
X46791Y473713D01*
X46908Y473680D01*
X47033Y473638D01*
X47166Y473580D01*
X47291Y473522D01*
X47433Y473455D01*
X47566Y473372D01*
X47708Y473280D01*
X47716Y473289D01*
X47749Y473305D01*
X47799Y473339D01*
X47866Y473380D01*
X47941Y473430D01*
X48024Y473489D01*
X48124Y473563D01*
X48224Y473647D01*
X48624D01*
X48724Y471456D01*
X48232D01*
X48224Y471473D01*
X48216Y471506D01*
X48191Y471556D01*
X48166Y471631D01*
X48124Y471723D01*
X48083Y471823D01*
X48033Y471931D01*
X47974Y472056D01*
X47841Y472306D01*
X47691Y472555D01*
X47616Y472672D01*
X47533Y472780D01*
X47441Y472880D01*
X47350Y472972D01*
X47341Y472980D01*
X47324Y472989D01*
X47300Y473014D01*
X47266Y473039D01*
X47216Y473072D01*
X47158Y473105D01*
X47091Y473147D01*
X47016Y473189D01*
X46841Y473272D01*
X46641Y473339D01*
X46417Y473388D01*
X46292Y473397D01*
X46167Y473405D01*
X46108D01*
X46067Y473397D01*
X46017D01*
X45958Y473388D01*
X45825Y473355D01*
X45667Y473314D01*
X45509Y473247D01*
X45342Y473155D01*
X45267Y473097D01*
X45192Y473030D01*
X45175Y473014D01*
X45134Y472964D01*
X45067Y472889D01*
X45000Y472780D01*
X44934Y472655D01*
X44867Y472506D01*
X44826Y472339D01*
X44817Y472256D01*
X44809Y472164D01*
Y472156D01*
Y472139D01*
Y472106D01*
X44817Y472064D01*
Y472014D01*
X44834Y471964D01*
X44859Y471839D01*
X44909Y471698D01*
X44976Y471556D01*
X45075Y471431D01*
X45142Y471381D01*
X45209Y471331D01*
X45217D01*
X45225Y471323D01*
X45250Y471306D01*
X45284Y471289D01*
X45334Y471273D01*
X45384Y471248D01*
X45450Y471223D01*
X45534Y471189D01*
X45625Y471164D01*
X45725Y471123D01*
X45834Y471089D01*
X45958Y471056D01*
X46100Y471014D01*
X46250Y470973D01*
X46417Y470939D01*
X46591Y470898D01*
X46608D01*
X46658Y470881D01*
X46733Y470864D01*
X46833Y470840D01*
X46958Y470806D01*
X47100Y470765D01*
X47250Y470715D01*
X47408Y470656D01*
X47749Y470515D01*
X47916Y470440D01*
X48083Y470348D01*
X48241Y470256D01*
X48382Y470148D01*
X48507Y470040D01*
X48616Y469923D01*
X48624Y469915D01*
X48641Y469890D01*
X48666Y469857D01*
X48699Y469807D01*
X48741Y469740D01*
X48782Y469665D01*
X48832Y469573D01*
X48882Y469473D01*
X48924Y469357D01*
X48974Y469232D01*
X49016Y469099D01*
X49057Y468957D01*
X49090Y468799D01*
X49115Y468632D01*
X49132Y468457D01*
X49141Y468274D01*
Y468257D01*
Y468224D01*
X49132Y468157D01*
Y468074D01*
X49124Y467974D01*
X49107Y467857D01*
X49082Y467724D01*
X49057Y467583D01*
X49016Y467424D01*
X48974Y467258D01*
X48916Y467091D01*
X48849Y466924D01*
X48774Y466749D01*
X48682Y466575D01*
X48574Y466408D01*
X48457Y466241D01*
X48449Y466233D01*
X48424Y466208D01*
X48382Y466166D01*
X48333Y466108D01*
X48257Y466041D01*
X48174Y465975D01*
X48074Y465900D01*
X47966Y465816D01*
X47833Y465742D01*
X47691Y465658D01*
X47533Y465592D01*
X47358Y465525D01*
X47175Y465467D01*
X46975Y465425D01*
X46766Y465400D01*
X46542Y465392D01*
X46458D01*
X46392Y465400D01*
X46317Y465408D01*
X46225Y465425D01*
X46125Y465442D01*
X46017Y465458D01*
X45775Y465525D01*
X45642Y465567D01*
X45509Y465625D01*
X45375Y465683D01*
X45234Y465758D01*
X45100Y465841D01*
X44967Y465941D01*
X44951Y465933D01*
X44909Y465892D01*
X44842Y465841D01*
X44759Y465775D01*
X44667Y465692D01*
X44567Y465608D01*
X44351Y465417D01*
X43942D01*
Y467807D01*
X44417D01*
Y467799D01*
X44426Y467782D01*
X44434Y467757D01*
X44442Y467724D01*
X44459Y467674D01*
X44476Y467624D01*
X44526Y467491D01*
X44592Y467341D01*
X44667Y467166D01*
X44767Y466991D01*
X44875Y466799D01*
X45009Y466608D01*
X45159Y466433D01*
X45334Y466258D01*
X45525Y466108D01*
X45733Y465975D01*
X45850Y465925D01*
X45975Y465875D01*
X46100Y465841D01*
X46225Y465816D01*
X46367Y465800D01*
X46508Y465792D01*
X46591D01*
X46641Y465800D01*
X46716Y465808D01*
X46791Y465816D01*
X46883Y465833D01*
X46975Y465850D01*
X47183Y465908D01*
X47283Y465950D01*
X47391Y465991D01*
X47491Y466050D01*
X47591Y466108D01*
X47691Y466183D01*
X47774Y466266D01*
X47783Y466275D01*
X47791Y466291D01*
X47816Y466316D01*
X47841Y466350D01*
X47874Y466400D01*
X47916Y466450D01*
X47999Y466583D01*
X48074Y466741D01*
X48149Y466924D01*
X48199Y467133D01*
X48208Y467241D01*
X48216Y467349D01*
Y467366D01*
Y467408D01*
X48208Y467466D01*
X48191Y467549D01*
X48166Y467641D01*
X48133Y467741D01*
X48083Y467849D01*
X48016Y467949D01*
X48008Y467957D01*
X47983Y467991D01*
X47941Y468041D01*
X47891Y468107D01*
X47824Y468174D01*
X47749Y468249D01*
X47658Y468316D01*
X47566Y468382D01*
X47549Y468391D01*
X47533Y468399D01*
X47508Y468407D01*
X47475Y468424D01*
X47425Y468449D01*
X47366Y468466D01*
X47291Y468491D01*
X47208Y468515D01*
X47108Y468549D01*
X46991Y468582D01*
X46858Y468615D01*
X46708Y468649D01*
X46542Y468690D01*
X46350Y468732D01*
X46142Y468774D01*
X46125D01*
X46092Y468782D01*
X46033Y468799D01*
X45950Y468824D01*
X45858Y468849D01*
X45750Y468882D01*
X45625Y468924D01*
X45492Y468974D01*
X45217Y469099D01*
X45075Y469173D01*
X44934Y469248D01*
X44800Y469340D01*
X44667Y469440D01*
X44551Y469548D01*
X44442Y469665D01*
X44434Y469673D01*
X44417Y469698D01*
X44392Y469732D01*
X44359Y469782D01*
X44317Y469848D01*
X44276Y469923D01*
X44226Y470015D01*
X44176Y470115D01*
X44126Y470231D01*
X44076Y470356D01*
X44034Y470490D01*
X43992Y470631D01*
X43959Y470781D01*
X43934Y470948D01*
X43918Y471123D01*
X43909Y471298D01*
Y471306D01*
Y471348D01*
X43918Y471398D01*
Y471473D01*
X43926Y471564D01*
X43942Y471664D01*
X43968Y471789D01*
X43992Y471914D01*
X44026Y472047D01*
X44067Y472189D01*
X44126Y472339D01*
X44184Y472489D01*
X44259Y472639D01*
X44351Y472789D01*
X44451Y472930D01*
X44567Y473072D01*
X44576Y473080D01*
X44601Y473105D01*
X44634Y473139D01*
X44684Y473189D01*
X44751Y473239D01*
X44826Y473305D01*
X44917Y473372D01*
X45017Y473439D01*
X45134Y473505D01*
X45259Y473572D01*
X45392Y473638D01*
X45542Y473688D01*
X45700Y473738D01*
X45858Y473772D01*
X46033Y473797D01*
X46217Y473805D01*
X46292D01*
X46342Y473797D01*
D02*
G37*
G36*
X8657Y473680D02*
X8798Y473672D01*
X8957Y473655D01*
X9140Y473630D01*
X9331Y473605D01*
X9531Y473572D01*
X9740Y473530D01*
X9939Y473480D01*
X10148Y473414D01*
X10339Y473339D01*
X10523Y473255D01*
X10689Y473155D01*
X10839Y473039D01*
X10847Y473030D01*
X10872Y473005D01*
X10906Y472972D01*
X10956Y472922D01*
X11006Y472864D01*
X11072Y472789D01*
X11139Y472706D01*
X11206Y472606D01*
X11272Y472497D01*
X11339Y472381D01*
X11406Y472256D01*
X11456Y472122D01*
X11506Y471981D01*
X11539Y471839D01*
X11564Y471681D01*
X11572Y471523D01*
Y471514D01*
Y471481D01*
X11564Y471439D01*
Y471373D01*
X11547Y471298D01*
X11530Y471214D01*
X11506Y471114D01*
X11472Y471006D01*
X11431Y470890D01*
X11372Y470765D01*
X11306Y470640D01*
X11231Y470506D01*
X11131Y470373D01*
X11022Y470248D01*
X10897Y470115D01*
X10756Y469990D01*
X10747Y469981D01*
X10714Y469965D01*
X10664Y469932D01*
X10598Y469890D01*
X10506Y469840D01*
X10389Y469782D01*
X10248Y469723D01*
X10089Y469665D01*
X9906Y469598D01*
X9698Y469540D01*
X9456Y469482D01*
X9198Y469432D01*
X8915Y469390D01*
X8598Y469357D01*
X8257Y469340D01*
X7882Y469332D01*
X7515D01*
Y465900D01*
X8690D01*
Y465500D01*
X4500D01*
Y465900D01*
X5516D01*
Y473289D01*
X4500D01*
Y473688D01*
X8540D01*
X8657Y473680D01*
D02*
G37*
G36*
X32630Y473797D02*
X32705Y473788D01*
X32797Y473772D01*
X32897Y473755D01*
X33014Y473730D01*
X33130Y473697D01*
X33255Y473655D01*
X33388Y473613D01*
X33530Y473555D01*
X33663Y473480D01*
X33805Y473405D01*
X33947Y473314D01*
X34080Y473205D01*
X34088Y473214D01*
X34130Y473239D01*
X34180Y473280D01*
X34238Y473322D01*
X34313Y473380D01*
X34388Y473447D01*
X34463Y473514D01*
X34538Y473588D01*
X34888D01*
X34938Y471306D01*
X34538D01*
Y471314D01*
X34530Y471331D01*
X34521Y471356D01*
X34513Y471398D01*
X34496Y471448D01*
X34480Y471498D01*
X34430Y471631D01*
X34363Y471789D01*
X34288Y471972D01*
X34188Y472164D01*
X34080Y472356D01*
X33947Y472555D01*
X33805Y472739D01*
X33638Y472922D01*
X33455Y473080D01*
X33247Y473214D01*
X33138Y473264D01*
X33030Y473314D01*
X32905Y473355D01*
X32789Y473380D01*
X32655Y473397D01*
X32522Y473405D01*
X32456D01*
X32414Y473397D01*
X32355Y473388D01*
X32297Y473372D01*
X32156Y473330D01*
X32081Y473305D01*
X31997Y473264D01*
X31922Y473214D01*
X31839Y473164D01*
X31764Y473089D01*
X31697Y473014D01*
X31631Y472922D01*
X31572Y472822D01*
Y472814D01*
X31564Y472797D01*
X31547Y472755D01*
X31531Y472706D01*
X31506Y472631D01*
X31481Y472547D01*
X31456Y472439D01*
X31431Y472306D01*
X31406Y472164D01*
X31381Y471989D01*
X31356Y471798D01*
X31331Y471581D01*
X31314Y471339D01*
X31298Y471073D01*
X31289Y470781D01*
Y470465D01*
Y470456D01*
Y470431D01*
Y470381D01*
Y470323D01*
Y470248D01*
Y470156D01*
Y470056D01*
Y469940D01*
X31298Y469815D01*
Y469682D01*
Y469532D01*
Y469382D01*
X31306Y469065D01*
X31314Y468732D01*
X31323Y468382D01*
X31339Y468041D01*
X31356Y467707D01*
X31373Y467391D01*
X31381Y467249D01*
X31398Y467108D01*
X31406Y466974D01*
X31423Y466850D01*
X31439Y466741D01*
X31456Y466649D01*
X31473Y466558D01*
X31489Y466491D01*
Y466483D01*
X31497Y466466D01*
X31514Y466433D01*
X31531Y466391D01*
X31598Y466283D01*
X31639Y466216D01*
X31689Y466158D01*
X31747Y466100D01*
X31814Y466033D01*
X31889Y465983D01*
X31981Y465933D01*
X32072Y465883D01*
X32189Y465850D01*
X32305Y465833D01*
X32439Y465825D01*
X32456D01*
X32506Y465833D01*
X32580Y465841D01*
X32689Y465858D01*
X32814Y465892D01*
X32955Y465941D01*
X33114Y466008D01*
X33288Y466100D01*
X33463Y466208D01*
X33647Y466358D01*
X33738Y466441D01*
X33830Y466533D01*
X33930Y466633D01*
X34013Y466741D01*
X34105Y466858D01*
X34196Y466983D01*
X34280Y467124D01*
X34363Y467274D01*
X34446Y467441D01*
X34521Y467607D01*
X34596Y467791D01*
X34663Y467991D01*
X35063D01*
X34938Y465467D01*
X34538D01*
X34530Y465475D01*
X34505Y465508D01*
X34463Y465558D01*
X34413Y465625D01*
X34346Y465708D01*
X34271Y465808D01*
X34180Y465908D01*
X34080Y466025D01*
X34071Y466016D01*
X34047Y466000D01*
X33996Y465967D01*
X33938Y465925D01*
X33863Y465875D01*
X33772Y465825D01*
X33672Y465767D01*
X33555Y465708D01*
X33430Y465650D01*
X33297Y465592D01*
X33147Y465542D01*
X32989Y465492D01*
X32830Y465450D01*
X32655Y465417D01*
X32480Y465400D01*
X32297Y465392D01*
X32239D01*
X32172Y465400D01*
X32081Y465408D01*
X31972Y465425D01*
X31839Y465450D01*
X31689Y465483D01*
X31531Y465533D01*
X31356Y465592D01*
X31173Y465658D01*
X30989Y465750D01*
X30790Y465858D01*
X30598Y465983D01*
X30398Y466125D01*
X30206Y466300D01*
X30015Y466491D01*
X30007Y466508D01*
X29973Y466541D01*
X29923Y466608D01*
X29857Y466691D01*
X29781Y466808D01*
X29698Y466941D01*
X29607Y467099D01*
X29515Y467283D01*
X29423Y467491D01*
X29332Y467716D01*
X29248Y467966D01*
X29173Y468241D01*
X29107Y468532D01*
X29057Y468840D01*
X29024Y469173D01*
X29015Y469523D01*
Y469532D01*
Y469548D01*
Y469573D01*
Y469607D01*
Y469657D01*
X29024Y469707D01*
X29032Y469840D01*
X29048Y469998D01*
X29065Y470190D01*
X29098Y470398D01*
X29140Y470623D01*
X29190Y470864D01*
X29257Y471114D01*
X29340Y471373D01*
X29432Y471631D01*
X29548Y471889D01*
X29682Y472139D01*
X29831Y472381D01*
X30007Y472614D01*
X30015Y472631D01*
X30056Y472664D01*
X30106Y472722D01*
X30190Y472797D01*
X30281Y472889D01*
X30398Y472989D01*
X30540Y473097D01*
X30689Y473214D01*
X30864Y473322D01*
X31048Y473430D01*
X31256Y473530D01*
X31473Y473622D01*
X31706Y473697D01*
X31947Y473755D01*
X32214Y473788D01*
X32480Y473805D01*
X32564D01*
X32630Y473797D01*
D02*
G37*
G36*
X52473D02*
X52547Y473788D01*
X52622Y473780D01*
X52714Y473763D01*
X52814Y473738D01*
X52922Y473713D01*
X53039Y473680D01*
X53164Y473638D01*
X53297Y473580D01*
X53422Y473522D01*
X53564Y473455D01*
X53697Y473372D01*
X53839Y473280D01*
X53847Y473289D01*
X53880Y473305D01*
X53930Y473339D01*
X53997Y473380D01*
X54072Y473430D01*
X54155Y473489D01*
X54255Y473563D01*
X54355Y473647D01*
X54755D01*
X54855Y471456D01*
X54363D01*
X54355Y471473D01*
X54347Y471506D01*
X54322Y471556D01*
X54297Y471631D01*
X54255Y471723D01*
X54213Y471823D01*
X54163Y471931D01*
X54105Y472056D01*
X53972Y472306D01*
X53822Y472555D01*
X53747Y472672D01*
X53664Y472780D01*
X53572Y472880D01*
X53480Y472972D01*
X53472Y472980D01*
X53455Y472989D01*
X53430Y473014D01*
X53397Y473039D01*
X53347Y473072D01*
X53289Y473105D01*
X53222Y473147D01*
X53147Y473189D01*
X52972Y473272D01*
X52772Y473339D01*
X52547Y473388D01*
X52422Y473397D01*
X52298Y473405D01*
X52239D01*
X52198Y473397D01*
X52148D01*
X52089Y473388D01*
X51956Y473355D01*
X51798Y473314D01*
X51639Y473247D01*
X51473Y473155D01*
X51398Y473097D01*
X51323Y473030D01*
X51306Y473014D01*
X51265Y472964D01*
X51198Y472889D01*
X51131Y472780D01*
X51065Y472655D01*
X50998Y472506D01*
X50956Y472339D01*
X50948Y472256D01*
X50940Y472164D01*
Y472156D01*
Y472139D01*
Y472106D01*
X50948Y472064D01*
Y472014D01*
X50965Y471964D01*
X50990Y471839D01*
X51040Y471698D01*
X51106Y471556D01*
X51206Y471431D01*
X51273Y471381D01*
X51340Y471331D01*
X51348D01*
X51356Y471323D01*
X51381Y471306D01*
X51415Y471289D01*
X51464Y471273D01*
X51515Y471248D01*
X51581Y471223D01*
X51665Y471189D01*
X51756Y471164D01*
X51856Y471123D01*
X51964Y471089D01*
X52089Y471056D01*
X52231Y471014D01*
X52381Y470973D01*
X52547Y470939D01*
X52722Y470898D01*
X52739D01*
X52789Y470881D01*
X52864Y470864D01*
X52964Y470840D01*
X53089Y470806D01*
X53231Y470765D01*
X53380Y470715D01*
X53539Y470656D01*
X53880Y470515D01*
X54047Y470440D01*
X54213Y470348D01*
X54372Y470256D01*
X54513Y470148D01*
X54638Y470040D01*
X54747Y469923D01*
X54755Y469915D01*
X54772Y469890D01*
X54796Y469857D01*
X54830Y469807D01*
X54871Y469740D01*
X54913Y469665D01*
X54963Y469573D01*
X55013Y469473D01*
X55055Y469357D01*
X55105Y469232D01*
X55146Y469099D01*
X55188Y468957D01*
X55221Y468799D01*
X55246Y468632D01*
X55263Y468457D01*
X55271Y468274D01*
Y468257D01*
Y468224D01*
X55263Y468157D01*
Y468074D01*
X55255Y467974D01*
X55238Y467857D01*
X55213Y467724D01*
X55188Y467583D01*
X55146Y467424D01*
X55105Y467258D01*
X55046Y467091D01*
X54980Y466924D01*
X54905Y466749D01*
X54813Y466575D01*
X54705Y466408D01*
X54588Y466241D01*
X54580Y466233D01*
X54555Y466208D01*
X54513Y466166D01*
X54463Y466108D01*
X54388Y466041D01*
X54305Y465975D01*
X54205Y465900D01*
X54097Y465816D01*
X53964Y465742D01*
X53822Y465658D01*
X53664Y465592D01*
X53489Y465525D01*
X53306Y465467D01*
X53106Y465425D01*
X52897Y465400D01*
X52672Y465392D01*
X52589D01*
X52522Y465400D01*
X52447Y465408D01*
X52356Y465425D01*
X52256Y465442D01*
X52148Y465458D01*
X51906Y465525D01*
X51773Y465567D01*
X51639Y465625D01*
X51506Y465683D01*
X51365Y465758D01*
X51231Y465841D01*
X51098Y465941D01*
X51081Y465933D01*
X51040Y465892D01*
X50973Y465841D01*
X50890Y465775D01*
X50798Y465692D01*
X50698Y465608D01*
X50482Y465417D01*
X50073D01*
Y467807D01*
X50548D01*
Y467799D01*
X50557Y467782D01*
X50565Y467757D01*
X50573Y467724D01*
X50590Y467674D01*
X50607Y467624D01*
X50656Y467491D01*
X50723Y467341D01*
X50798Y467166D01*
X50898Y466991D01*
X51006Y466799D01*
X51140Y466608D01*
X51290Y466433D01*
X51464Y466258D01*
X51656Y466108D01*
X51864Y465975D01*
X51981Y465925D01*
X52106Y465875D01*
X52231Y465841D01*
X52356Y465816D01*
X52498Y465800D01*
X52639Y465792D01*
X52722D01*
X52772Y465800D01*
X52847Y465808D01*
X52922Y465816D01*
X53014Y465833D01*
X53106Y465850D01*
X53314Y465908D01*
X53414Y465950D01*
X53522Y465991D01*
X53622Y466050D01*
X53722Y466108D01*
X53822Y466183D01*
X53905Y466266D01*
X53914Y466275D01*
X53922Y466291D01*
X53947Y466316D01*
X53972Y466350D01*
X54005Y466400D01*
X54047Y466450D01*
X54130Y466583D01*
X54205Y466741D01*
X54280Y466924D01*
X54330Y467133D01*
X54338Y467241D01*
X54347Y467349D01*
Y467366D01*
Y467408D01*
X54338Y467466D01*
X54322Y467549D01*
X54297Y467641D01*
X54263Y467741D01*
X54213Y467849D01*
X54147Y467949D01*
X54138Y467957D01*
X54114Y467991D01*
X54072Y468041D01*
X54022Y468107D01*
X53955Y468174D01*
X53880Y468249D01*
X53789Y468316D01*
X53697Y468382D01*
X53680Y468391D01*
X53664Y468399D01*
X53639Y468407D01*
X53605Y468424D01*
X53555Y468449D01*
X53497Y468466D01*
X53422Y468491D01*
X53339Y468515D01*
X53239Y468549D01*
X53122Y468582D01*
X52989Y468615D01*
X52839Y468649D01*
X52672Y468690D01*
X52481Y468732D01*
X52273Y468774D01*
X52256D01*
X52223Y468782D01*
X52164Y468799D01*
X52081Y468824D01*
X51989Y468849D01*
X51881Y468882D01*
X51756Y468924D01*
X51623Y468974D01*
X51348Y469099D01*
X51206Y469173D01*
X51065Y469248D01*
X50931Y469340D01*
X50798Y469440D01*
X50682Y469548D01*
X50573Y469665D01*
X50565Y469673D01*
X50548Y469698D01*
X50523Y469732D01*
X50490Y469782D01*
X50448Y469848D01*
X50407Y469923D01*
X50357Y470015D01*
X50307Y470115D01*
X50257Y470231D01*
X50207Y470356D01*
X50165Y470490D01*
X50123Y470631D01*
X50090Y470781D01*
X50065Y470948D01*
X50048Y471123D01*
X50040Y471298D01*
Y471306D01*
Y471348D01*
X50048Y471398D01*
Y471473D01*
X50057Y471564D01*
X50073Y471664D01*
X50098Y471789D01*
X50123Y471914D01*
X50157Y472047D01*
X50198Y472189D01*
X50257Y472339D01*
X50315Y472489D01*
X50390Y472639D01*
X50482Y472789D01*
X50582Y472930D01*
X50698Y473072D01*
X50706Y473080D01*
X50731Y473105D01*
X50765Y473139D01*
X50815Y473189D01*
X50881Y473239D01*
X50956Y473305D01*
X51048Y473372D01*
X51148Y473439D01*
X51265Y473505D01*
X51390Y473572D01*
X51523Y473638D01*
X51673Y473688D01*
X51831Y473738D01*
X51989Y473772D01*
X52164Y473797D01*
X52347Y473805D01*
X52422D01*
X52473Y473797D01*
D02*
G37*
G36*
X54388Y337180D02*
X54554Y337172D01*
X54738Y337155D01*
X54937Y337138D01*
X55146Y337113D01*
X55371Y337080D01*
X55596Y337038D01*
X55821Y336988D01*
X56045Y336930D01*
X56254Y336863D01*
X56445Y336780D01*
X56620Y336689D01*
X56770Y336580D01*
X56779Y336572D01*
X56804Y336555D01*
X56837Y336522D01*
X56887Y336472D01*
X56937Y336422D01*
X57003Y336355D01*
X57062Y336272D01*
X57137Y336189D01*
X57270Y335997D01*
X57328Y335889D01*
X57378Y335772D01*
X57428Y335656D01*
X57462Y335539D01*
X57486Y335406D01*
X57495Y335281D01*
Y335273D01*
Y335247D01*
Y335206D01*
X57486Y335156D01*
X57478Y335098D01*
X57462Y335023D01*
X57437Y334939D01*
X57412Y334848D01*
X57378Y334756D01*
X57337Y334648D01*
X57278Y334548D01*
X57212Y334439D01*
X57137Y334331D01*
X57045Y334231D01*
X56945Y334123D01*
X56828Y334023D01*
X56820Y334015D01*
X56795Y333998D01*
X56762Y333973D01*
X56704Y333940D01*
X56637Y333898D01*
X56554Y333848D01*
X56454Y333798D01*
X56337Y333748D01*
X56204Y333690D01*
X56054Y333631D01*
X55896Y333573D01*
X55721Y333523D01*
X55529Y333473D01*
X55321Y333423D01*
X55096Y333382D01*
X54854Y333348D01*
Y333323D01*
X54863D01*
X54896Y333315D01*
X54946Y333298D01*
X55021Y333282D01*
X55104Y333257D01*
X55196Y333223D01*
X55304Y333190D01*
X55412Y333148D01*
X55654Y333048D01*
X55904Y332940D01*
X56137Y332807D01*
X56237Y332732D01*
X56337Y332657D01*
X56345Y332648D01*
X56362Y332640D01*
X56387Y332615D01*
X56412Y332582D01*
X56495Y332499D01*
X56595Y332390D01*
X56704Y332257D01*
X56804Y332099D01*
X56895Y331932D01*
X56928Y331840D01*
X56953Y331749D01*
Y331741D01*
X56962Y331724D01*
X56970Y331699D01*
X56978Y331657D01*
X56987Y331616D01*
X56995Y331557D01*
X57012Y331491D01*
X57020Y331416D01*
X57045Y331241D01*
X57070Y331032D01*
X57087Y330808D01*
X57095Y330558D01*
Y330549D01*
Y330524D01*
Y330491D01*
Y330449D01*
X57103Y330391D01*
Y330333D01*
X57112Y330191D01*
X57128Y330041D01*
X57145Y329908D01*
X57153Y329841D01*
X57170Y329783D01*
X57187Y329733D01*
X57203Y329700D01*
X57212Y329691D01*
X57228Y329675D01*
X57253Y329650D01*
X57295Y329625D01*
X57345Y329591D01*
X57420Y329566D01*
X57503Y329550D01*
X57603Y329541D01*
X57661D01*
X57720Y329550D01*
X57811Y329566D01*
X57911Y329591D01*
X58028Y329625D01*
X58161Y329675D01*
X58294Y329741D01*
Y329275D01*
X58286D01*
X58270Y329258D01*
X58236Y329250D01*
X58186Y329225D01*
X58136Y329200D01*
X58070Y329175D01*
X57986Y329150D01*
X57903Y329125D01*
X57811Y329092D01*
X57703Y329067D01*
X57478Y329017D01*
X57228Y328983D01*
X56962Y328967D01*
X56870D01*
X56804Y328975D01*
X56720Y328983D01*
X56629Y328992D01*
X56529Y329008D01*
X56412Y329025D01*
X56170Y329083D01*
X55920Y329167D01*
X55796Y329217D01*
X55671Y329283D01*
X55546Y329350D01*
X55437Y329433D01*
X55429Y329441D01*
X55412Y329458D01*
X55387Y329483D01*
X55346Y329525D01*
X55304Y329583D01*
X55254Y329650D01*
X55204Y329733D01*
X55146Y329825D01*
X55088Y329941D01*
X55037Y330066D01*
X54979Y330208D01*
X54937Y330358D01*
X54896Y330533D01*
X54863Y330724D01*
X54838Y330933D01*
X54821Y331157D01*
Y331174D01*
Y331216D01*
X54813Y331274D01*
Y331357D01*
X54804Y331457D01*
X54796Y331574D01*
X54779Y331699D01*
X54771Y331832D01*
X54729Y332107D01*
X54671Y332374D01*
X54638Y332499D01*
X54596Y332615D01*
X54546Y332707D01*
X54496Y332790D01*
Y332799D01*
X54479Y332807D01*
X54438Y332849D01*
X54404Y332882D01*
X54363Y332915D01*
X54313Y332948D01*
X54263Y332982D01*
X54188Y333015D01*
X54113Y333048D01*
X54030Y333082D01*
X53938Y333115D01*
X53830Y333140D01*
X53713Y333157D01*
X53588Y333173D01*
X53013D01*
Y329400D01*
X54080D01*
Y329000D01*
X49973D01*
Y329400D01*
X51014D01*
Y336789D01*
X49973D01*
Y337188D01*
X54255D01*
X54388Y337180D01*
D02*
G37*
G36*
X16412Y473680D02*
X16578Y473672D01*
X16762Y473655D01*
X16962Y473638D01*
X17170Y473613D01*
X17395Y473580D01*
X17620Y473538D01*
X17845Y473489D01*
X18070Y473430D01*
X18278Y473363D01*
X18469Y473280D01*
X18644Y473189D01*
X18794Y473080D01*
X18803Y473072D01*
X18828Y473055D01*
X18861Y473022D01*
X18911Y472972D01*
X18961Y472922D01*
X19027Y472855D01*
X19086Y472772D01*
X19161Y472689D01*
X19294Y472497D01*
X19352Y472389D01*
X19402Y472272D01*
X19452Y472156D01*
X19486Y472039D01*
X19511Y471906D01*
X19519Y471781D01*
Y471772D01*
Y471747D01*
Y471706D01*
X19511Y471656D01*
X19502Y471598D01*
X19486Y471523D01*
X19461Y471439D01*
X19436Y471348D01*
X19402Y471256D01*
X19361Y471148D01*
X19302Y471048D01*
X19236Y470939D01*
X19161Y470831D01*
X19069Y470731D01*
X18969Y470623D01*
X18853Y470523D01*
X18844Y470515D01*
X18819Y470498D01*
X18786Y470473D01*
X18728Y470440D01*
X18661Y470398D01*
X18578Y470348D01*
X18478Y470298D01*
X18361Y470248D01*
X18228Y470190D01*
X18078Y470131D01*
X17920Y470073D01*
X17745Y470023D01*
X17553Y469973D01*
X17345Y469923D01*
X17120Y469882D01*
X16878Y469848D01*
Y469823D01*
X16887D01*
X16920Y469815D01*
X16970Y469798D01*
X17045Y469782D01*
X17128Y469757D01*
X17220Y469723D01*
X17328Y469690D01*
X17436Y469648D01*
X17678Y469548D01*
X17928Y469440D01*
X18161Y469307D01*
X18261Y469232D01*
X18361Y469157D01*
X18370Y469148D01*
X18386Y469140D01*
X18411Y469115D01*
X18436Y469082D01*
X18519Y468999D01*
X18619Y468890D01*
X18728Y468757D01*
X18828Y468599D01*
X18919Y468432D01*
X18952Y468340D01*
X18978Y468249D01*
Y468241D01*
X18986Y468224D01*
X18994Y468199D01*
X19003Y468157D01*
X19011Y468116D01*
X19019Y468057D01*
X19036Y467991D01*
X19044Y467916D01*
X19069Y467741D01*
X19094Y467532D01*
X19111Y467308D01*
X19119Y467058D01*
Y467049D01*
Y467024D01*
Y466991D01*
Y466949D01*
X19128Y466891D01*
Y466833D01*
X19136Y466691D01*
X19152Y466541D01*
X19169Y466408D01*
X19177Y466341D01*
X19194Y466283D01*
X19211Y466233D01*
X19227Y466200D01*
X19236Y466191D01*
X19252Y466175D01*
X19277Y466150D01*
X19319Y466125D01*
X19369Y466091D01*
X19444Y466066D01*
X19527Y466050D01*
X19627Y466041D01*
X19686D01*
X19744Y466050D01*
X19836Y466066D01*
X19936Y466091D01*
X20052Y466125D01*
X20185Y466175D01*
X20319Y466241D01*
Y465775D01*
X20310D01*
X20294Y465758D01*
X20260Y465750D01*
X20210Y465725D01*
X20160Y465700D01*
X20094Y465675D01*
X20010Y465650D01*
X19927Y465625D01*
X19836Y465592D01*
X19727Y465567D01*
X19502Y465517D01*
X19252Y465483D01*
X18986Y465467D01*
X18894D01*
X18828Y465475D01*
X18744Y465483D01*
X18653Y465492D01*
X18553Y465508D01*
X18436Y465525D01*
X18194Y465583D01*
X17945Y465667D01*
X17820Y465717D01*
X17695Y465783D01*
X17570Y465850D01*
X17461Y465933D01*
X17453Y465941D01*
X17436Y465958D01*
X17412Y465983D01*
X17370Y466025D01*
X17328Y466083D01*
X17278Y466150D01*
X17228Y466233D01*
X17170Y466325D01*
X17112Y466441D01*
X17062Y466566D01*
X17003Y466708D01*
X16962Y466858D01*
X16920Y467033D01*
X16887Y467224D01*
X16862Y467433D01*
X16845Y467658D01*
Y467674D01*
Y467716D01*
X16837Y467774D01*
Y467857D01*
X16828Y467957D01*
X16820Y468074D01*
X16803Y468199D01*
X16795Y468332D01*
X16753Y468607D01*
X16695Y468874D01*
X16662Y468999D01*
X16620Y469115D01*
X16570Y469207D01*
X16520Y469290D01*
Y469299D01*
X16503Y469307D01*
X16462Y469348D01*
X16429Y469382D01*
X16387Y469415D01*
X16337Y469448D01*
X16287Y469482D01*
X16212Y469515D01*
X16137Y469548D01*
X16054Y469582D01*
X15962Y469615D01*
X15854Y469640D01*
X15737Y469657D01*
X15612Y469673D01*
X15037D01*
Y465900D01*
X16104D01*
Y465500D01*
X11997D01*
Y465900D01*
X13038D01*
Y473289D01*
X11997D01*
Y473688D01*
X16279D01*
X16412Y473680D01*
D02*
G37*
G36*
X13571Y337297D02*
X13671Y337288D01*
X13787Y337272D01*
X13937Y337247D01*
X14096Y337213D01*
X14270Y337172D01*
X14462Y337113D01*
X14662Y337038D01*
X14870Y336947D01*
X15087Y336839D01*
X15303Y336714D01*
X15528Y336572D01*
X15745Y336397D01*
X15953Y336206D01*
X15970Y336189D01*
X16003Y336156D01*
X16053Y336089D01*
X16128Y336005D01*
X16211Y335889D01*
X16303Y335747D01*
X16411Y335589D01*
X16511Y335406D01*
X16620Y335189D01*
X16720Y334956D01*
X16811Y334698D01*
X16894Y334423D01*
X16969Y334115D01*
X17019Y333790D01*
X17061Y333440D01*
X17069Y333073D01*
Y333065D01*
Y333048D01*
Y333023D01*
Y332990D01*
Y332948D01*
X17061Y332890D01*
X17053Y332757D01*
X17036Y332599D01*
X17011Y332415D01*
X16978Y332207D01*
X16936Y331982D01*
X16878Y331741D01*
X16811Y331499D01*
X16728Y331241D01*
X16620Y330991D01*
X16503Y330741D01*
X16361Y330491D01*
X16195Y330258D01*
X16012Y330033D01*
X16003Y330016D01*
X15961Y329983D01*
X15903Y329925D01*
X15820Y329858D01*
X15720Y329766D01*
X15603Y329675D01*
X15453Y329566D01*
X15295Y329467D01*
X15120Y329358D01*
X14920Y329250D01*
X14712Y329158D01*
X14487Y329067D01*
X14245Y329000D01*
X13987Y328942D01*
X13721Y328908D01*
X13438Y328892D01*
X13363D01*
X13279Y328900D01*
X13163Y328908D01*
X13029Y328925D01*
X12863Y328958D01*
X12688Y328992D01*
X12488Y329042D01*
X12280Y329108D01*
X12063Y329183D01*
X11838Y329283D01*
X11622Y329400D01*
X11397Y329541D01*
X11172Y329700D01*
X10964Y329891D01*
X10764Y330100D01*
X10755Y330116D01*
X10722Y330158D01*
X10672Y330224D01*
X10605Y330316D01*
X10530Y330441D01*
X10439Y330583D01*
X10347Y330749D01*
X10255Y330933D01*
X10155Y331141D01*
X10064Y331374D01*
X9980Y331624D01*
X9897Y331891D01*
X9831Y332174D01*
X9781Y332474D01*
X9747Y332790D01*
X9739Y333123D01*
Y333132D01*
Y333148D01*
Y333173D01*
Y333207D01*
X9747Y333248D01*
Y333298D01*
X9756Y333432D01*
X9772Y333590D01*
X9797Y333765D01*
X9831Y333973D01*
X9872Y334190D01*
X9931Y334423D01*
X10006Y334664D01*
X10089Y334914D01*
X10197Y335173D01*
X10322Y335422D01*
X10464Y335664D01*
X10630Y335906D01*
X10822Y336130D01*
X10838Y336147D01*
X10872Y336180D01*
X10930Y336239D01*
X11013Y336314D01*
X11122Y336405D01*
X11247Y336505D01*
X11388Y336605D01*
X11555Y336722D01*
X11738Y336830D01*
X11938Y336930D01*
X12146Y337030D01*
X12380Y337122D01*
X12621Y337197D01*
X12879Y337255D01*
X13146Y337288D01*
X13429Y337305D01*
X13496D01*
X13571Y337297D01*
D02*
G37*
G36*
X37161D02*
X37261Y337288D01*
X37378Y337272D01*
X37528Y337247D01*
X37686Y337213D01*
X37861Y337172D01*
X38053Y337113D01*
X38253Y337038D01*
X38461Y336947D01*
X38677Y336839D01*
X38894Y336714D01*
X39119Y336572D01*
X39336Y336397D01*
X39544Y336206D01*
X39560Y336189D01*
X39594Y336156D01*
X39644Y336089D01*
X39719Y336005D01*
X39802Y335889D01*
X39894Y335747D01*
X40002Y335589D01*
X40102Y335406D01*
X40210Y335189D01*
X40310Y334956D01*
X40402Y334698D01*
X40485Y334423D01*
X40560Y334115D01*
X40610Y333790D01*
X40652Y333440D01*
X40660Y333073D01*
Y333065D01*
Y333048D01*
Y333023D01*
Y332990D01*
Y332948D01*
X40652Y332890D01*
X40643Y332757D01*
X40627Y332599D01*
X40602Y332415D01*
X40568Y332207D01*
X40527Y331982D01*
X40468Y331741D01*
X40402Y331499D01*
X40318Y331241D01*
X40210Y330991D01*
X40093Y330741D01*
X39952Y330491D01*
X39785Y330258D01*
X39602Y330033D01*
X39594Y330016D01*
X39552Y329983D01*
X39494Y329925D01*
X39410Y329858D01*
X39311Y329766D01*
X39194Y329675D01*
X39044Y329566D01*
X38886Y329467D01*
X38711Y329358D01*
X38511Y329250D01*
X38302Y329158D01*
X38078Y329067D01*
X37836Y329000D01*
X37578Y328942D01*
X37311Y328908D01*
X37028Y328892D01*
X36953D01*
X36870Y328900D01*
X36753Y328908D01*
X36620Y328925D01*
X36453Y328958D01*
X36278Y328992D01*
X36078Y329042D01*
X35870Y329108D01*
X35654Y329183D01*
X35429Y329283D01*
X35212Y329400D01*
X34987Y329541D01*
X34762Y329700D01*
X34554Y329891D01*
X34354Y330100D01*
X34346Y330116D01*
X34312Y330158D01*
X34262Y330224D01*
X34196Y330316D01*
X34121Y330441D01*
X34029Y330583D01*
X33938Y330749D01*
X33846Y330933D01*
X33746Y331141D01*
X33654Y331374D01*
X33571Y331624D01*
X33488Y331891D01*
X33421Y332174D01*
X33371Y332474D01*
X33338Y332790D01*
X33329Y333123D01*
Y333132D01*
Y333148D01*
Y333173D01*
Y333207D01*
X33338Y333248D01*
Y333298D01*
X33346Y333432D01*
X33363Y333590D01*
X33388Y333765D01*
X33421Y333973D01*
X33463Y334190D01*
X33521Y334423D01*
X33596Y334664D01*
X33679Y334914D01*
X33788Y335173D01*
X33913Y335422D01*
X34054Y335664D01*
X34221Y335906D01*
X34412Y336130D01*
X34429Y336147D01*
X34462Y336180D01*
X34521Y336239D01*
X34604Y336314D01*
X34712Y336405D01*
X34837Y336505D01*
X34979Y336605D01*
X35146Y336722D01*
X35329Y336830D01*
X35529Y336930D01*
X35737Y337030D01*
X35970Y337122D01*
X36212Y337197D01*
X36470Y337255D01*
X36737Y337288D01*
X37020Y337305D01*
X37086D01*
X37161Y337297D01*
D02*
G37*
G36*
X49580Y102892D02*
X49713D01*
X49863Y102875D01*
X50230Y102842D01*
X50630Y102792D01*
X51096Y102725D01*
X51579Y102642D01*
X52079Y102525D01*
X52595Y102375D01*
X53128Y102209D01*
X53645Y101992D01*
X54145Y101742D01*
X54611Y101459D01*
X55061Y101126D01*
X55444Y100743D01*
X55461Y100726D01*
X55528Y100643D01*
X55628Y100526D01*
X55744Y100359D01*
X55894Y100143D01*
X56061Y99893D01*
X56244Y99610D01*
X56427Y99277D01*
X56594Y98927D01*
X56777Y98527D01*
X56944Y98094D01*
X57094Y97644D01*
X57210Y97161D01*
X57310Y96644D01*
X57377Y96111D01*
X57393Y95561D01*
Y95545D01*
Y95528D01*
Y95478D01*
Y95411D01*
Y95328D01*
X57377Y95228D01*
X57360Y94995D01*
X57327Y94695D01*
X57277Y94345D01*
X57210Y93962D01*
X57127Y93546D01*
X57010Y93079D01*
X56860Y92612D01*
X56677Y92113D01*
X56477Y91613D01*
X56227Y91097D01*
X55927Y90597D01*
X55594Y90097D01*
X55211Y89614D01*
X55194Y89580D01*
X55111Y89514D01*
X54978Y89381D01*
X54811Y89214D01*
X54578Y89031D01*
X54311Y88814D01*
X53995Y88581D01*
X53628Y88348D01*
X53212Y88114D01*
X52762Y87881D01*
X52262Y87665D01*
X51712Y87481D01*
X51129Y87315D01*
X50496Y87198D01*
X49813Y87115D01*
X49097Y87081D01*
X48364D01*
X48114Y87098D01*
X47481D01*
X47114Y87115D01*
X46714Y87131D01*
X46281D01*
X45815Y87148D01*
X45298Y87165D01*
X44765Y87198D01*
X44199Y87215D01*
Y87231D01*
Y87265D01*
Y87315D01*
Y87381D01*
X44215Y87465D01*
Y87581D01*
Y87698D01*
X44232Y87848D01*
Y88014D01*
Y88198D01*
X44249Y88598D01*
X44265Y89064D01*
X44282Y89597D01*
X44299Y90163D01*
X44315Y90797D01*
X44332Y91463D01*
Y92179D01*
X44349Y92929D01*
X44365Y93729D01*
Y94545D01*
Y95378D01*
Y95395D01*
Y95428D01*
Y95495D01*
Y95578D01*
Y95678D01*
Y95795D01*
Y95944D01*
Y96111D01*
Y96294D01*
Y96478D01*
Y96927D01*
X44349Y97411D01*
Y97944D01*
X44332Y98510D01*
Y99110D01*
X44315Y99726D01*
X44299Y100359D01*
X44249Y101626D01*
X44232Y102242D01*
X44199Y102825D01*
X46681D01*
X46898Y102842D01*
X47481D01*
X47831Y102858D01*
X47931D01*
X47997Y102875D01*
X48180D01*
X48380Y102892D01*
X48614D01*
X48830Y102908D01*
X49463D01*
X49580Y102892D01*
D02*
G37*
G36*
X41070Y249478D02*
X40459D01*
X40334Y249464D01*
X40168Y249450D01*
X40001Y249422D01*
X39849Y249381D01*
X39710Y249325D01*
X39613Y249242D01*
X39599Y249228D01*
X39585Y249200D01*
X39557Y249131D01*
X39529Y249034D01*
X39488Y248909D01*
X39460Y248742D01*
X39446Y248548D01*
X39432Y248298D01*
Y236320D01*
X38711D01*
X30605Y248312D01*
Y238457D01*
Y238443D01*
Y238415D01*
Y238374D01*
Y238318D01*
X30619Y238179D01*
X30632Y238013D01*
X30646Y237832D01*
X30674Y237652D01*
X30716Y237499D01*
X30743Y237444D01*
X30771Y237388D01*
X30785Y237374D01*
X30813Y237361D01*
X30868Y237319D01*
X30966Y237277D01*
X31090Y237236D01*
X31257Y237208D01*
X31465Y237180D01*
X31590Y237166D01*
X32534D01*
Y236500D01*
X28203D01*
Y237166D01*
X28870D01*
X29008Y237180D01*
X29175Y237194D01*
X29342Y237236D01*
X29508Y237277D01*
X29633Y237347D01*
X29689Y237388D01*
X29730Y237430D01*
X29744Y237444D01*
X29758Y237486D01*
X29786Y237583D01*
X29814Y237721D01*
X29827Y237805D01*
X29841Y237902D01*
X29855Y238027D01*
X29869Y238166D01*
X29883Y238318D01*
X29897Y238485D01*
Y238679D01*
Y238887D01*
Y248298D01*
Y248312D01*
Y248326D01*
Y248367D01*
Y248423D01*
X29883Y248548D01*
Y248714D01*
X29855Y248881D01*
X29827Y249034D01*
X29800Y249172D01*
X29744Y249270D01*
X29730Y249284D01*
X29716Y249297D01*
X29661Y249339D01*
X29577Y249381D01*
X29467Y249408D01*
X29314Y249450D01*
X29120Y249464D01*
X28883Y249478D01*
X28148D01*
Y250144D01*
X33283D01*
X38724Y242121D01*
Y247979D01*
Y247993D01*
Y248020D01*
Y248062D01*
Y248131D01*
X38711Y248284D01*
X38697Y248478D01*
X38683Y248687D01*
X38641Y248881D01*
X38600Y249061D01*
X38558Y249131D01*
X38530Y249186D01*
X38516Y249200D01*
X38489Y249228D01*
X38433Y249284D01*
X38350Y249339D01*
X38211Y249381D01*
X38044Y249436D01*
X37836Y249464D01*
X37711Y249478D01*
X36934D01*
Y250144D01*
X41070D01*
Y249478D01*
D02*
G37*
G36*
X19425Y83709D02*
Y83659D01*
Y83609D01*
X19409Y83443D01*
X19392Y83210D01*
Y82926D01*
X19375Y82577D01*
X19359Y82160D01*
X19342Y81694D01*
X19325Y81194D01*
X19309Y80627D01*
X19292Y80011D01*
Y79344D01*
X19275Y78645D01*
X19259Y77895D01*
Y77112D01*
Y76296D01*
Y76279D01*
Y76246D01*
Y76179D01*
Y76096D01*
Y75979D01*
Y75863D01*
Y75713D01*
Y75529D01*
Y75346D01*
Y75129D01*
X19275Y74680D01*
Y74147D01*
Y73580D01*
X19292Y72964D01*
Y72314D01*
X19309Y71648D01*
X19325Y70948D01*
X19375Y69532D01*
X19392Y68832D01*
X19425Y68132D01*
X16460D01*
Y68166D01*
X16443Y68216D01*
X16410Y68282D01*
X16360Y68382D01*
X16293Y68532D01*
X16177Y68715D01*
X16043Y68965D01*
X15877Y69249D01*
X15660Y69615D01*
X15527Y69815D01*
X15394Y70032D01*
X15244Y70265D01*
X15077Y70515D01*
X14894Y70798D01*
X14694Y71098D01*
X14477Y71414D01*
X14244Y71748D01*
X14011Y72097D01*
X13744Y72481D01*
X13461Y72880D01*
X13161Y73314D01*
X13145Y73330D01*
X13128Y73364D01*
X13078Y73430D01*
X13011Y73530D01*
X12928Y73647D01*
X12845Y73780D01*
X12728Y73947D01*
X12611Y74113D01*
X12478Y74313D01*
X12345Y74513D01*
X12045Y74980D01*
X11712Y75479D01*
X11379Y76029D01*
X11029Y76579D01*
X10679Y77145D01*
X10362Y77712D01*
X10046Y78262D01*
X9779Y78795D01*
X9529Y79278D01*
X9346Y79711D01*
X9279Y79911D01*
X9229Y80094D01*
X9030D01*
Y80061D01*
X9046Y79978D01*
X9063Y79844D01*
X9080Y79661D01*
X9096Y79428D01*
X9129Y79161D01*
X9146Y78845D01*
X9179Y78528D01*
X9213Y78162D01*
X9229Y77779D01*
X9279Y76995D01*
X9313Y76162D01*
X9329Y75346D01*
Y75313D01*
Y75263D01*
Y75213D01*
Y75046D01*
Y74813D01*
Y74530D01*
X9346Y74180D01*
Y73780D01*
Y73330D01*
X9363Y72830D01*
Y72281D01*
X9379Y71681D01*
X9396Y71048D01*
X9413Y70381D01*
X9446Y69665D01*
X9463Y68915D01*
X9496Y68132D01*
X6547D01*
Y68149D01*
Y68182D01*
Y68232D01*
X6564Y68299D01*
Y68399D01*
Y68499D01*
Y68632D01*
X6581Y68782D01*
Y68949D01*
X6597Y69132D01*
X6614Y69548D01*
X6630Y70015D01*
X6647Y70548D01*
X6664Y71131D01*
X6680Y71764D01*
Y72431D01*
X6697Y73147D01*
X6714Y73897D01*
X6730Y74663D01*
Y75479D01*
Y76296D01*
Y76312D01*
Y76346D01*
Y76412D01*
Y76496D01*
Y76596D01*
Y76729D01*
Y76862D01*
Y77029D01*
Y77212D01*
Y77412D01*
X6714Y77845D01*
Y78328D01*
Y78878D01*
X6697Y79444D01*
X6680Y80044D01*
X6664Y80661D01*
X6647Y81294D01*
X6614Y82543D01*
X6581Y83160D01*
X6547Y83743D01*
X10112D01*
Y83709D01*
X10129Y83659D01*
X10162Y83576D01*
X10196Y83460D01*
X10262Y83310D01*
X10362Y83110D01*
X10479Y82876D01*
X10645Y82577D01*
X10829Y82227D01*
X11079Y81810D01*
X11212Y81594D01*
X11362Y81344D01*
X11529Y81077D01*
X11712Y80794D01*
X11895Y80494D01*
X12095Y80161D01*
X12328Y79828D01*
X12561Y79461D01*
X12811Y79078D01*
X13078Y78678D01*
X13095Y78662D01*
X13111Y78628D01*
X13161Y78562D01*
X13211Y78478D01*
X13295Y78362D01*
X13378Y78228D01*
X13478Y78078D01*
X13578Y77912D01*
X13828Y77529D01*
X14094Y77095D01*
X14394Y76612D01*
X14711Y76113D01*
X15027Y75579D01*
X15344Y75046D01*
X15660Y74513D01*
X15943Y73997D01*
X16193Y73497D01*
X16410Y73047D01*
X16593Y72631D01*
X16660Y72447D01*
X16710Y72281D01*
X16876D01*
Y72314D01*
X16860Y72397D01*
X16843Y72547D01*
X16826Y72730D01*
X16810Y72964D01*
X16793Y73230D01*
X16760Y73547D01*
X16743Y73880D01*
X16710Y74247D01*
X16677Y74630D01*
X16643Y75429D01*
X16610Y76262D01*
X16593Y77079D01*
Y77095D01*
Y77112D01*
Y77162D01*
Y77229D01*
Y77312D01*
Y77395D01*
Y77645D01*
Y77945D01*
Y78295D01*
X16577Y78695D01*
Y79128D01*
X16560Y79611D01*
Y80128D01*
X16543Y80677D01*
X16526Y81260D01*
X16510Y81860D01*
X16477Y82477D01*
X16427Y83743D01*
X19425D01*
Y83709D01*
D02*
G37*
G36*
X37851Y83943D02*
X38001D01*
X38168Y83926D01*
X38368D01*
X38784Y83876D01*
X39267Y83826D01*
X39751Y83743D01*
X40250Y83626D01*
X39834Y80861D01*
X39817D01*
X39767Y80877D01*
X39701Y80911D01*
X39601Y80927D01*
X39467Y80961D01*
X39317Y81011D01*
X39151Y81044D01*
X38967Y81094D01*
X38551Y81160D01*
X38085Y81244D01*
X37601Y81294D01*
X37118Y81310D01*
X37018D01*
X36885Y81294D01*
X36718D01*
X36518Y81260D01*
X36285Y81227D01*
X36035Y81177D01*
X35752Y81111D01*
X35469Y81027D01*
X35169Y80927D01*
X34852Y80811D01*
X34553Y80661D01*
X34269Y80477D01*
X33986Y80278D01*
X33720Y80028D01*
X33486Y79761D01*
X33470Y79744D01*
X33436Y79694D01*
X33370Y79611D01*
X33303Y79495D01*
X33220Y79344D01*
X33120Y79161D01*
X33003Y78945D01*
X32903Y78711D01*
X32787Y78461D01*
X32670Y78178D01*
X32570Y77862D01*
X32487Y77529D01*
X32420Y77179D01*
X32353Y76812D01*
X32320Y76412D01*
X32304Y76012D01*
Y75979D01*
Y75913D01*
X32320Y75796D01*
Y75629D01*
X32353Y75446D01*
X32370Y75213D01*
X32420Y74963D01*
X32487Y74680D01*
X32553Y74380D01*
X32653Y74063D01*
X32753Y73747D01*
X32887Y73414D01*
X33053Y73080D01*
X33237Y72747D01*
X33453Y72414D01*
X33703Y72097D01*
X33720Y72081D01*
X33770Y72031D01*
X33853Y71947D01*
X33970Y71847D01*
X34103Y71714D01*
X34286Y71581D01*
X34486Y71431D01*
X34736Y71281D01*
X35002Y71114D01*
X35286Y70964D01*
X35619Y70831D01*
X35969Y70715D01*
X36352Y70598D01*
X36768Y70515D01*
X37202Y70465D01*
X37668Y70448D01*
X37818D01*
X37935Y70465D01*
X38068D01*
X38234Y70481D01*
X38418Y70498D01*
X38634Y70515D01*
X38868Y70548D01*
X39118Y70581D01*
X39384Y70615D01*
X39651Y70665D01*
X40267Y70798D01*
X40900Y70964D01*
X40700Y68216D01*
X40683D01*
X40617Y68199D01*
X40534Y68182D01*
X40417Y68149D01*
X40250Y68116D01*
X40084Y68082D01*
X39867Y68049D01*
X39651Y68016D01*
X39401Y67982D01*
X39134Y67949D01*
X38568Y67882D01*
X37968Y67832D01*
X37352Y67816D01*
X37168D01*
X37068Y67832D01*
X36818D01*
X36669Y67849D01*
X36335Y67882D01*
X35935Y67932D01*
X35502Y67999D01*
X35019Y68099D01*
X34519Y68216D01*
X34003Y68366D01*
X33486Y68549D01*
X32970Y68765D01*
X32454Y69032D01*
X31970Y69332D01*
X31504Y69682D01*
X31071Y70082D01*
X31054Y70115D01*
X30971Y70182D01*
X30871Y70315D01*
X30738Y70481D01*
X30571Y70715D01*
X30388Y70964D01*
X30204Y71281D01*
X30005Y71614D01*
X29805Y71997D01*
X29605Y72431D01*
X29421Y72880D01*
X29255Y73364D01*
X29122Y73880D01*
X29021Y74430D01*
X28938Y74996D01*
X28922Y75596D01*
Y75613D01*
Y75629D01*
Y75679D01*
Y75746D01*
X28938Y75829D01*
Y75929D01*
X28955Y76162D01*
X28988Y76462D01*
X29038Y76796D01*
X29122Y77179D01*
X29205Y77595D01*
X29321Y78045D01*
X29471Y78512D01*
X29671Y78995D01*
X29888Y79495D01*
X30154Y79994D01*
X30454Y80494D01*
X30804Y80994D01*
X31204Y81460D01*
X31237Y81494D01*
X31304Y81560D01*
X31437Y81694D01*
X31620Y81844D01*
X31854Y82043D01*
X32137Y82243D01*
X32470Y82477D01*
X32837Y82710D01*
X33270Y82943D01*
X33736Y83176D01*
X34253Y83376D01*
X34802Y83576D01*
X35419Y83726D01*
X36052Y83859D01*
X36735Y83926D01*
X37468Y83959D01*
X37718D01*
X37851Y83943D01*
D02*
G37*
G36*
X40750Y102792D02*
Y102742D01*
Y102692D01*
X40734Y102525D01*
X40717Y102292D01*
Y102009D01*
X40700Y101659D01*
X40683Y101242D01*
X40667Y100776D01*
X40650Y100276D01*
X40633Y99710D01*
X40617Y99093D01*
Y98427D01*
X40600Y97727D01*
X40584Y96978D01*
Y96194D01*
Y95378D01*
Y95361D01*
Y95328D01*
Y95262D01*
Y95178D01*
Y95062D01*
Y94945D01*
Y94795D01*
Y94612D01*
Y94428D01*
Y94212D01*
X40600Y93762D01*
Y93229D01*
Y92663D01*
X40617Y92046D01*
Y91396D01*
X40633Y90730D01*
X40650Y90030D01*
X40700Y88614D01*
X40717Y87914D01*
X40750Y87215D01*
X37785D01*
Y87248D01*
X37768Y87298D01*
X37735Y87365D01*
X37685Y87465D01*
X37618Y87615D01*
X37501Y87798D01*
X37368Y88048D01*
X37202Y88331D01*
X36985Y88697D01*
X36852Y88897D01*
X36718Y89114D01*
X36568Y89347D01*
X36402Y89597D01*
X36219Y89880D01*
X36019Y90180D01*
X35802Y90497D01*
X35569Y90830D01*
X35336Y91180D01*
X35069Y91563D01*
X34786Y91963D01*
X34486Y92396D01*
X34469Y92413D01*
X34453Y92446D01*
X34403Y92513D01*
X34336Y92612D01*
X34253Y92729D01*
X34170Y92862D01*
X34053Y93029D01*
X33936Y93196D01*
X33803Y93396D01*
X33670Y93595D01*
X33370Y94062D01*
X33037Y94562D01*
X32703Y95112D01*
X32353Y95661D01*
X32004Y96228D01*
X31687Y96794D01*
X31371Y97344D01*
X31104Y97877D01*
X30854Y98360D01*
X30671Y98793D01*
X30604Y98993D01*
X30554Y99177D01*
X30354D01*
Y99143D01*
X30371Y99060D01*
X30388Y98927D01*
X30404Y98743D01*
X30421Y98510D01*
X30454Y98244D01*
X30471Y97927D01*
X30504Y97610D01*
X30538Y97244D01*
X30554Y96861D01*
X30604Y96078D01*
X30637Y95245D01*
X30654Y94428D01*
Y94395D01*
Y94345D01*
Y94295D01*
Y94129D01*
Y93895D01*
Y93612D01*
X30671Y93262D01*
Y92862D01*
Y92413D01*
X30687Y91913D01*
Y91363D01*
X30704Y90763D01*
X30721Y90130D01*
X30738Y89464D01*
X30771Y88747D01*
X30788Y87998D01*
X30821Y87215D01*
X27872D01*
Y87231D01*
Y87265D01*
Y87315D01*
X27889Y87381D01*
Y87481D01*
Y87581D01*
Y87714D01*
X27905Y87864D01*
Y88031D01*
X27922Y88214D01*
X27939Y88631D01*
X27955Y89097D01*
X27972Y89630D01*
X27989Y90214D01*
X28005Y90847D01*
Y91513D01*
X28022Y92229D01*
X28039Y92979D01*
X28055Y93745D01*
Y94562D01*
Y95378D01*
Y95395D01*
Y95428D01*
Y95495D01*
Y95578D01*
Y95678D01*
Y95811D01*
Y95944D01*
Y96111D01*
Y96294D01*
Y96494D01*
X28039Y96927D01*
Y97411D01*
Y97960D01*
X28022Y98527D01*
X28005Y99127D01*
X27989Y99743D01*
X27972Y100376D01*
X27939Y101626D01*
X27905Y102242D01*
X27872Y102825D01*
X31437D01*
Y102792D01*
X31454Y102742D01*
X31487Y102658D01*
X31521Y102542D01*
X31587Y102392D01*
X31687Y102192D01*
X31804Y101959D01*
X31970Y101659D01*
X32154Y101309D01*
X32403Y100893D01*
X32537Y100676D01*
X32687Y100426D01*
X32853Y100160D01*
X33037Y99876D01*
X33220Y99576D01*
X33420Y99243D01*
X33653Y98910D01*
X33886Y98544D01*
X34136Y98160D01*
X34403Y97760D01*
X34419Y97744D01*
X34436Y97711D01*
X34486Y97644D01*
X34536Y97561D01*
X34619Y97444D01*
X34703Y97311D01*
X34802Y97161D01*
X34903Y96994D01*
X35152Y96611D01*
X35419Y96178D01*
X35719Y95695D01*
X36035Y95195D01*
X36352Y94662D01*
X36669Y94129D01*
X36985Y93595D01*
X37268Y93079D01*
X37518Y92579D01*
X37735Y92129D01*
X37918Y91713D01*
X37985Y91530D01*
X38035Y91363D01*
X38201D01*
Y91396D01*
X38184Y91480D01*
X38168Y91630D01*
X38151Y91813D01*
X38135Y92046D01*
X38118Y92313D01*
X38085Y92629D01*
X38068Y92962D01*
X38035Y93329D01*
X38001Y93712D01*
X37968Y94512D01*
X37935Y95345D01*
X37918Y96161D01*
Y96178D01*
Y96194D01*
Y96244D01*
Y96311D01*
Y96394D01*
Y96478D01*
Y96728D01*
Y97027D01*
Y97377D01*
X37901Y97777D01*
Y98210D01*
X37885Y98693D01*
Y99210D01*
X37868Y99760D01*
X37851Y100343D01*
X37835Y100943D01*
X37801Y101559D01*
X37751Y102825D01*
X40750D01*
Y102792D01*
D02*
G37*
G36*
X27468Y249478D02*
X25622D01*
Y237166D01*
X27468D01*
Y236500D01*
X20500D01*
Y237166D01*
X22290D01*
Y249478D01*
X20500D01*
Y250144D01*
X27468D01*
Y249478D01*
D02*
G37*
G36*
X6331Y122291D02*
X6564D01*
X6830Y122274D01*
X7114Y122257D01*
X7413Y122241D01*
X7730Y122207D01*
X8396Y122141D01*
X9063Y122057D01*
X9379Y121991D01*
X9679Y121924D01*
X9246Y119258D01*
X9229D01*
X9179Y119292D01*
X9080Y119308D01*
X8963Y119359D01*
X8813Y119392D01*
X8630Y119442D01*
X8430Y119492D01*
X8196Y119558D01*
X7947Y119608D01*
X7680Y119658D01*
X7380Y119708D01*
X7080Y119758D01*
X6431Y119825D01*
X5731Y119842D01*
X5614D01*
X5464Y119825D01*
X5298D01*
X5081Y119792D01*
X4848Y119758D01*
X4581Y119708D01*
X4331Y119658D01*
X4065Y119575D01*
X3815Y119475D01*
X3565Y119342D01*
X3348Y119209D01*
X3182Y119025D01*
X3032Y118825D01*
X2949Y118592D01*
X2915Y118326D01*
Y118309D01*
Y118292D01*
X2932Y118192D01*
X2949Y118042D01*
X2999Y117859D01*
X3082Y117659D01*
X3182Y117443D01*
X3348Y117226D01*
X3565Y117026D01*
X3598Y117009D01*
X3632Y116976D01*
X3682Y116943D01*
X3765Y116910D01*
X3848Y116843D01*
X3965Y116793D01*
X4098Y116710D01*
X4248Y116626D01*
X4431Y116543D01*
X4648Y116443D01*
X4881Y116326D01*
X5131Y116210D01*
X5414Y116093D01*
X5731Y115960D01*
X6081Y115810D01*
X6097Y115793D01*
X6164Y115777D01*
X6281Y115727D01*
X6414Y115660D01*
X6581Y115593D01*
X6780Y115493D01*
X6997Y115393D01*
X7230Y115277D01*
X7730Y114994D01*
X8247Y114694D01*
X8730Y114360D01*
X8946Y114177D01*
X9146Y113994D01*
X9163Y113977D01*
X9213Y113927D01*
X9279Y113861D01*
X9363Y113761D01*
X9463Y113628D01*
X9579Y113461D01*
X9696Y113294D01*
X9829Y113078D01*
X9946Y112861D01*
X10062Y112611D01*
X10179Y112328D01*
X10279Y112045D01*
X10379Y111728D01*
X10446Y111395D01*
X10479Y111062D01*
X10496Y110695D01*
Y110679D01*
Y110645D01*
Y110579D01*
X10479Y110495D01*
X10462Y110395D01*
X10446Y110262D01*
X10429Y110129D01*
X10396Y109962D01*
X10296Y109612D01*
X10146Y109213D01*
X10046Y109013D01*
X9929Y108796D01*
X9796Y108580D01*
X9663Y108363D01*
X9479Y108146D01*
X9296Y107930D01*
X9080Y107713D01*
X8846Y107513D01*
X8596Y107313D01*
X8313Y107113D01*
X7997Y106930D01*
X7663Y106764D01*
X7280Y106597D01*
X6880Y106464D01*
X6447Y106330D01*
X5981Y106230D01*
X5481Y106147D01*
X4948Y106080D01*
X4381Y106047D01*
X3765Y106030D01*
X3548D01*
X3382Y106047D01*
X3165D01*
X2932Y106064D01*
X2665Y106080D01*
X2365Y106097D01*
X2049Y106131D01*
X1716Y106164D01*
X999Y106264D01*
X250Y106380D01*
X-500Y106564D01*
X83Y109229D01*
X100D01*
X166Y109196D01*
X283Y109163D01*
X416Y109129D01*
X583Y109079D01*
X800Y109013D01*
X1016Y108963D01*
X1283Y108896D01*
X1549Y108829D01*
X1832Y108779D01*
X2465Y108663D01*
X3115Y108596D01*
X3765Y108563D01*
X4081D01*
X4231Y108580D01*
X4415D01*
X4615Y108596D01*
X4831Y108613D01*
X5281Y108646D01*
X5731Y108713D01*
X6164Y108813D01*
X6347Y108863D01*
X6514Y108929D01*
X6531D01*
X6547Y108946D01*
X6647Y108996D01*
X6780Y109096D01*
X6947Y109229D01*
X7097Y109396D01*
X7230Y109612D01*
X7330Y109879D01*
X7347Y110029D01*
X7363Y110179D01*
Y110196D01*
Y110212D01*
Y110262D01*
X7347Y110329D01*
X7330Y110495D01*
X7264Y110712D01*
X7164Y110962D01*
X7030Y111212D01*
X6830Y111462D01*
X6697Y111595D01*
X6564Y111712D01*
X6531Y111745D01*
X6481Y111778D01*
X6431Y111811D01*
X6347Y111878D01*
X6231Y111945D01*
X6114Y112011D01*
X5964Y112111D01*
X5781Y112211D01*
X5581Y112311D01*
X5364Y112428D01*
X5114Y112561D01*
X4831Y112695D01*
X4515Y112844D01*
X4165Y112994D01*
X3798Y113161D01*
X3782Y113178D01*
X3715Y113194D01*
X3615Y113244D01*
X3482Y113311D01*
X3332Y113378D01*
X3148Y113478D01*
X2949Y113577D01*
X2732Y113694D01*
X2282Y113944D01*
X1816Y114244D01*
X1366Y114577D01*
X1166Y114744D01*
X983Y114927D01*
X966Y114944D01*
X933Y114977D01*
X883Y115044D01*
X800Y115144D01*
X716Y115260D01*
X616Y115410D01*
X516Y115577D01*
X400Y115760D01*
X300Y115960D01*
X183Y116193D01*
X83Y116443D01*
X-0Y116710D01*
X-84Y116993D01*
X-134Y117293D01*
X-167Y117593D01*
X-184Y117926D01*
Y117942D01*
Y118009D01*
X-167Y118126D01*
Y118259D01*
X-134Y118442D01*
X-100Y118642D01*
X-50Y118859D01*
X-0Y119109D01*
X83Y119359D01*
X183Y119625D01*
X316Y119892D01*
X450Y120158D01*
X633Y120425D01*
X833Y120675D01*
X1066Y120908D01*
X1333Y121141D01*
X1349Y121158D01*
X1399Y121191D01*
X1499Y121241D01*
X1616Y121324D01*
X1782Y121408D01*
X1966Y121508D01*
X2199Y121624D01*
X2465Y121724D01*
X2749Y121841D01*
X3082Y121941D01*
X3448Y122041D01*
X3832Y122124D01*
X4265Y122207D01*
X4715Y122257D01*
X5214Y122291D01*
X5731Y122307D01*
X6131D01*
X6331Y122291D01*
D02*
G37*
G36*
X20475Y122407D02*
X20708Y122391D01*
X20975Y122357D01*
X21291Y122307D01*
X21641Y122241D01*
X22024Y122141D01*
X22441Y122024D01*
X22857Y121874D01*
X23307Y121691D01*
X23740Y121491D01*
X24190Y121224D01*
X24640Y120924D01*
X25056Y120591D01*
X25473Y120192D01*
X25490Y120158D01*
X25573Y120091D01*
X25673Y119958D01*
X25806Y119792D01*
X25973Y119575D01*
X26156Y119308D01*
X26356Y119009D01*
X26556Y118659D01*
X26756Y118259D01*
X26939Y117842D01*
X27122Y117376D01*
X27289Y116876D01*
X27422Y116343D01*
X27522Y115777D01*
X27605Y115177D01*
X27622Y114544D01*
Y114527D01*
Y114510D01*
Y114444D01*
Y114377D01*
Y114294D01*
X27605Y114194D01*
X27589Y113927D01*
X27555Y113611D01*
X27505Y113244D01*
X27439Y112844D01*
X27339Y112395D01*
X27222Y111928D01*
X27072Y111445D01*
X26889Y110928D01*
X26673Y110412D01*
X26406Y109912D01*
X26106Y109396D01*
X25756Y108913D01*
X25356Y108446D01*
X25323Y108413D01*
X25256Y108346D01*
X25123Y108230D01*
X24957Y108063D01*
X24740Y107880D01*
X24473Y107680D01*
X24157Y107463D01*
X23824Y107247D01*
X23424Y107013D01*
X23007Y106797D01*
X22541Y106597D01*
X22058Y106414D01*
X21524Y106247D01*
X20975Y106131D01*
X20392Y106064D01*
X19775Y106030D01*
X19642D01*
X19475Y106047D01*
X19242Y106064D01*
X18975Y106097D01*
X18659Y106147D01*
X18309Y106214D01*
X17926Y106314D01*
X17526Y106430D01*
X17093Y106580D01*
X16660Y106747D01*
X16210Y106964D01*
X15760Y107213D01*
X15310Y107513D01*
X14894Y107863D01*
X14477Y108246D01*
X14461Y108280D01*
X14394Y108346D01*
X14277Y108479D01*
X14144Y108646D01*
X13977Y108863D01*
X13811Y109129D01*
X13611Y109429D01*
X13411Y109779D01*
X13211Y110179D01*
X13028Y110595D01*
X12845Y111062D01*
X12678Y111562D01*
X12545Y112095D01*
X12445Y112661D01*
X12361Y113261D01*
X12345Y113894D01*
Y113911D01*
Y113944D01*
Y113994D01*
Y114061D01*
X12361Y114144D01*
Y114244D01*
X12378Y114510D01*
X12411Y114827D01*
X12461Y115193D01*
X12528Y115593D01*
X12628Y116043D01*
X12745Y116510D01*
X12895Y117009D01*
X13078Y117509D01*
X13295Y118026D01*
X13544Y118526D01*
X13844Y119042D01*
X14194Y119525D01*
X14594Y119992D01*
X14627Y120025D01*
X14694Y120091D01*
X14827Y120225D01*
X14994Y120375D01*
X15227Y120558D01*
X15494Y120758D01*
X15793Y120975D01*
X16143Y121208D01*
X16526Y121441D01*
X16960Y121658D01*
X17410Y121858D01*
X17909Y122041D01*
X18426Y122207D01*
X18992Y122324D01*
X19559Y122391D01*
X20175Y122424D01*
X20308D01*
X20475Y122407D01*
D02*
G37*
G36*
X43249Y122041D02*
Y122007D01*
Y121958D01*
Y121874D01*
Y121774D01*
X43233Y121658D01*
Y121524D01*
Y121358D01*
Y121191D01*
X43216Y121008D01*
Y120575D01*
X43199Y120075D01*
Y119542D01*
X43183Y118942D01*
X43166Y118326D01*
Y117659D01*
X43149Y116960D01*
Y116243D01*
X43132Y115493D01*
Y113994D01*
Y113977D01*
Y113911D01*
Y113794D01*
X43116Y113661D01*
Y113478D01*
X43083Y113261D01*
X43066Y113028D01*
X43033Y112761D01*
X42983Y112461D01*
X42933Y112145D01*
X42866Y111828D01*
X42783Y111478D01*
X42699Y111128D01*
X42583Y110762D01*
X42466Y110395D01*
X42316Y110029D01*
X42150Y109646D01*
X41966Y109279D01*
X41766Y108913D01*
X41533Y108563D01*
X41283Y108213D01*
X41017Y107896D01*
X40700Y107580D01*
X40384Y107297D01*
X40017Y107030D01*
X39634Y106780D01*
X39217Y106564D01*
X38751Y106397D01*
X38268Y106247D01*
X37751Y106131D01*
X37202Y106064D01*
X36602Y106047D01*
X36468D01*
X36302Y106064D01*
X36069Y106080D01*
X35802Y106097D01*
X35502Y106147D01*
X35152Y106197D01*
X34786Y106264D01*
X34403Y106364D01*
X34003Y106480D01*
X33603Y106614D01*
X33203Y106780D01*
X32803Y106980D01*
X32437Y107213D01*
X32070Y107497D01*
X31754Y107797D01*
X31737Y107813D01*
X31687Y107880D01*
X31604Y107996D01*
X31504Y108146D01*
X31371Y108346D01*
X31237Y108596D01*
X31087Y108896D01*
X30937Y109246D01*
X30788Y109662D01*
X30637Y110112D01*
X30504Y110629D01*
X30371Y111212D01*
X30271Y111845D01*
X30188Y112545D01*
X30138Y113311D01*
X30121Y114127D01*
Y114144D01*
Y114177D01*
Y114227D01*
Y114311D01*
Y114410D01*
Y114527D01*
Y114660D01*
Y114827D01*
Y114994D01*
Y115177D01*
Y115610D01*
X30104Y116093D01*
Y116626D01*
Y117209D01*
X30088Y117842D01*
Y118492D01*
X30071Y119175D01*
X30054Y119875D01*
X30038Y120591D01*
X30005Y122057D01*
X33403D01*
Y122041D01*
Y122007D01*
Y121958D01*
Y121874D01*
X33386Y121774D01*
Y121658D01*
Y121524D01*
Y121374D01*
X33370Y121191D01*
Y121008D01*
X33353Y120575D01*
X33336Y120091D01*
Y119558D01*
X33320Y118992D01*
X33303Y118376D01*
X33286Y117726D01*
X33270Y117059D01*
Y116360D01*
X33253Y115660D01*
Y114244D01*
Y114227D01*
Y114211D01*
Y114161D01*
Y114094D01*
Y113927D01*
X33270Y113711D01*
X33286Y113444D01*
X33303Y113128D01*
X33320Y112794D01*
X33353Y112445D01*
X33453Y111695D01*
X33520Y111312D01*
X33603Y110945D01*
X33703Y110595D01*
X33820Y110262D01*
X33936Y109962D01*
X34086Y109712D01*
X34103Y109696D01*
X34119Y109662D01*
X34170Y109596D01*
X34253Y109529D01*
X34336Y109429D01*
X34453Y109329D01*
X34586Y109213D01*
X34736Y109113D01*
X34903Y108996D01*
X35102Y108879D01*
X35302Y108779D01*
X35536Y108679D01*
X35802Y108613D01*
X36069Y108546D01*
X36369Y108513D01*
X36685Y108496D01*
X36768D01*
X36868Y108513D01*
X36985D01*
X37135Y108529D01*
X37301Y108563D01*
X37501Y108596D01*
X37701Y108646D01*
X37918Y108713D01*
X38135Y108796D01*
X38351Y108896D01*
X38584Y109013D01*
X38784Y109146D01*
X38984Y109312D01*
X39167Y109496D01*
X39334Y109712D01*
X39351Y109729D01*
X39367Y109779D01*
X39417Y109846D01*
X39467Y109962D01*
X39517Y110096D01*
X39601Y110279D01*
X39667Y110479D01*
X39751Y110745D01*
X39817Y111029D01*
X39900Y111362D01*
X39967Y111728D01*
X40017Y112145D01*
X40084Y112611D01*
X40117Y113111D01*
X40134Y113661D01*
X40150Y114260D01*
Y114277D01*
Y114311D01*
Y114360D01*
Y114427D01*
Y114510D01*
Y114627D01*
Y114760D01*
Y114894D01*
Y115060D01*
Y115243D01*
Y115643D01*
X40134Y116093D01*
Y116610D01*
X40117Y117176D01*
Y117776D01*
X40100Y118426D01*
X40084Y119092D01*
X40067Y119808D01*
X40050Y120541D01*
X40034Y121291D01*
X40001Y122057D01*
X43249D01*
Y122041D01*
D02*
G37*
G36*
X37823Y37925D02*
X37934Y37911D01*
X38087Y37883D01*
X38254Y37814D01*
X38434Y37731D01*
X38614Y37620D01*
X38781Y37453D01*
X38795Y37426D01*
X38850Y37370D01*
X38920Y37273D01*
X39003Y37134D01*
X39072Y36967D01*
X39142Y36759D01*
X39197Y36537D01*
X39211Y36287D01*
Y36260D01*
Y36190D01*
X39197Y36079D01*
X39170Y35954D01*
X39128Y35802D01*
X39072Y35649D01*
X39003Y35482D01*
X38892Y35344D01*
X38878Y35330D01*
X38837Y35288D01*
X38767Y35232D01*
X38684Y35163D01*
X38559Y35094D01*
X38434Y35038D01*
X38295Y34997D01*
X38129Y34983D01*
X38059D01*
X37976Y34997D01*
X37865Y35024D01*
X37754Y35066D01*
X37615Y35121D01*
X37490Y35205D01*
X37365Y35316D01*
X37351Y35330D01*
X37310Y35371D01*
X37268Y35441D01*
X37213Y35538D01*
X37143Y35649D01*
X37102Y35774D01*
X37060Y35913D01*
X37046Y36065D01*
Y36093D01*
Y36149D01*
X37060Y36232D01*
X37074Y36343D01*
X37115Y36579D01*
X37157Y36690D01*
X37213Y36773D01*
X37227Y36787D01*
X37240Y36801D01*
X37310Y36884D01*
X37365Y36967D01*
X37379Y37009D01*
X37393Y37037D01*
Y37051D01*
X37379Y37106D01*
X37324Y37148D01*
X37282Y37162D01*
X37199D01*
X37143Y37148D01*
X37046Y37106D01*
X36921Y37037D01*
X36852Y36981D01*
X36768Y36912D01*
X36685Y36843D01*
X36602Y36745D01*
X36519Y36620D01*
X36435Y36496D01*
X36338Y36343D01*
X36255Y36162D01*
Y36149D01*
X36241Y36121D01*
X36213Y36051D01*
X36186Y35968D01*
X36144Y35857D01*
X36116Y35732D01*
X36074Y35566D01*
X36033Y35385D01*
X35977Y35163D01*
X35936Y34927D01*
X35908Y34663D01*
X35866Y34372D01*
X35838Y34053D01*
X35811Y33706D01*
X35797Y33317D01*
Y32915D01*
Y30125D01*
X37310D01*
Y29500D01*
X31966D01*
Y30125D01*
X33021D01*
Y37065D01*
X31966D01*
Y37689D01*
X33687D01*
X33923Y37703D01*
X34173D01*
X34437Y37717D01*
X34686Y37731D01*
X34895Y37745D01*
X35269Y37814D01*
X35630D01*
Y35566D01*
X35658D01*
Y35579D01*
X35672Y35621D01*
X35686Y35677D01*
X35700Y35760D01*
X35727Y35857D01*
X35769Y35968D01*
X35852Y36232D01*
X35963Y36523D01*
X36102Y36815D01*
X36269Y37092D01*
X36366Y37231D01*
X36463Y37342D01*
X36477Y37356D01*
X36491Y37370D01*
X36560Y37439D01*
X36685Y37536D01*
X36838Y37648D01*
X37018Y37745D01*
X37227Y37842D01*
X37462Y37911D01*
X37587Y37939D01*
X37740D01*
X37823Y37925D01*
D02*
G37*
G36*
X55937D02*
X56020D01*
X56228Y37897D01*
X56478Y37842D01*
X56728Y37786D01*
X56992Y37689D01*
X57241Y37564D01*
X57255D01*
X57269Y37550D01*
X57353Y37509D01*
X57464Y37426D01*
X57588Y37342D01*
X57727Y37217D01*
X57866Y37092D01*
X57991Y36954D01*
X58074Y36815D01*
X58088Y36801D01*
X58102Y36745D01*
X58130Y36662D01*
X58171Y36537D01*
X58199Y36371D01*
X58227Y36176D01*
X58241Y35940D01*
X58255Y35663D01*
Y30125D01*
X59421D01*
Y29500D01*
X54299D01*
Y30125D01*
X55479D01*
Y35815D01*
Y35829D01*
Y35843D01*
Y35885D01*
Y35940D01*
X55465Y36079D01*
X55451Y36232D01*
X55423Y36398D01*
X55382Y36565D01*
X55326Y36718D01*
X55257Y36829D01*
X55243Y36843D01*
X55215Y36870D01*
X55173Y36898D01*
X55104Y36954D01*
X55021Y36995D01*
X54923Y37023D01*
X54812Y37051D01*
X54674Y37065D01*
X54646D01*
X54576Y37051D01*
X54465Y37037D01*
X54327Y36981D01*
X54146Y36912D01*
X53924Y36787D01*
X53674Y36634D01*
X53549Y36523D01*
X53411Y36412D01*
X53397Y36398D01*
X53383Y36384D01*
X53341Y36343D01*
X53299Y36287D01*
X53244Y36218D01*
X53175Y36121D01*
X53105Y36024D01*
X53036Y35899D01*
X52966Y35746D01*
X52897Y35579D01*
X52842Y35399D01*
X52772Y35191D01*
X52730Y34969D01*
X52689Y34719D01*
X52675Y34455D01*
X52661Y34164D01*
Y30125D01*
X53855D01*
Y29500D01*
X48691D01*
Y30125D01*
X49885D01*
Y37065D01*
X48705D01*
Y37689D01*
X49705D01*
X49816Y37703D01*
X50079D01*
X50385Y37717D01*
X50718Y37745D01*
X51079Y37773D01*
X51454Y37814D01*
X52356Y37939D01*
X52661D01*
Y36204D01*
X52689D01*
X52703Y36218D01*
X52744Y36273D01*
X52800Y36371D01*
X52883Y36482D01*
X52994Y36607D01*
X53133Y36759D01*
X53286Y36912D01*
X53480Y37078D01*
X53674Y37231D01*
X53910Y37384D01*
X54146Y37536D01*
X54424Y37675D01*
X54715Y37773D01*
X55021Y37870D01*
X55368Y37925D01*
X55715Y37939D01*
X55867D01*
X55937Y37925D01*
D02*
G37*
G36*
X37691Y177478D02*
X36914D01*
X36789Y177464D01*
X36636Y177450D01*
X36483Y177436D01*
X36331Y177408D01*
X36192Y177353D01*
X36150Y177325D01*
X36109Y177297D01*
Y177284D01*
X36081Y177256D01*
X36053Y177200D01*
X36025Y177103D01*
X35998Y176978D01*
X35970Y176812D01*
X35956Y176590D01*
X35942Y176465D01*
Y176326D01*
Y169261D01*
Y169247D01*
Y169205D01*
Y169136D01*
Y169039D01*
X35928Y168928D01*
Y168789D01*
X35914Y168636D01*
Y168470D01*
X35873Y168109D01*
X35831Y167706D01*
X35762Y167304D01*
X35678Y166915D01*
Y166901D01*
X35664Y166874D01*
X35651Y166818D01*
X35623Y166749D01*
X35581Y166651D01*
X35539Y166554D01*
X35415Y166304D01*
X35331Y166180D01*
X35234Y166027D01*
X35109Y165874D01*
X34984Y165721D01*
X34846Y165569D01*
X34679Y165416D01*
X34499Y165263D01*
X34304Y165111D01*
X34290Y165097D01*
X34249Y165083D01*
X34193Y165041D01*
X34096Y164986D01*
X33971Y164930D01*
X33832Y164861D01*
X33666Y164792D01*
X33457Y164722D01*
X33235Y164639D01*
X32986Y164569D01*
X32694Y164500D01*
X32389Y164444D01*
X32056Y164389D01*
X31695Y164347D01*
X31292Y164333D01*
X30876Y164320D01*
X30668D01*
X30557Y164333D01*
X30432D01*
X30279Y164347D01*
X30126Y164361D01*
X29752Y164389D01*
X29349Y164431D01*
X28933Y164500D01*
X28488Y164597D01*
X28475D01*
X28433Y164611D01*
X28377Y164625D01*
X28294Y164653D01*
X28197Y164680D01*
X28086Y164722D01*
X27822Y164819D01*
X27517Y164958D01*
X27211Y165125D01*
X26892Y165333D01*
X26601Y165583D01*
X26587Y165596D01*
X26573Y165610D01*
X26531Y165652D01*
X26490Y165708D01*
X26365Y165846D01*
X26212Y166027D01*
X26059Y166249D01*
X25907Y166499D01*
X25782Y166762D01*
X25685Y167040D01*
Y167054D01*
X25671Y167068D01*
Y167109D01*
X25657Y167179D01*
X25643Y167248D01*
X25629Y167332D01*
X25601Y167540D01*
X25560Y167803D01*
X25532Y168095D01*
X25518Y168428D01*
X25504Y168789D01*
Y177478D01*
X23714D01*
Y178144D01*
X30709D01*
Y177478D01*
X28835D01*
Y168664D01*
Y168636D01*
Y168567D01*
Y168470D01*
X28849Y168317D01*
X28863Y168150D01*
X28877Y167956D01*
X28905Y167748D01*
X28933Y167526D01*
X29016Y167040D01*
X29155Y166582D01*
X29252Y166360D01*
X29349Y166166D01*
X29460Y165985D01*
X29599Y165832D01*
X29613Y165819D01*
X29640Y165805D01*
X29682Y165763D01*
X29738Y165721D01*
X29821Y165666D01*
X29918Y165610D01*
X30029Y165541D01*
X30154Y165486D01*
X30293Y165416D01*
X30459Y165347D01*
X30626Y165291D01*
X30820Y165236D01*
X31015Y165194D01*
X31237Y165152D01*
X31473Y165138D01*
X31709Y165125D01*
X31875D01*
X31958Y165138D01*
X32070D01*
X32305Y165166D01*
X32583Y165222D01*
X32875Y165277D01*
X33194Y165374D01*
X33499Y165499D01*
X33513D01*
X33541Y165513D01*
X33582Y165541D01*
X33638Y165569D01*
X33777Y165652D01*
X33957Y165777D01*
X34165Y165944D01*
X34374Y166138D01*
X34582Y166360D01*
X34762Y166624D01*
Y166638D01*
X34776Y166665D01*
X34804Y166707D01*
X34832Y166776D01*
X34873Y166860D01*
X34915Y166957D01*
X34957Y167082D01*
X34998Y167234D01*
X35040Y167401D01*
X35081Y167595D01*
X35123Y167803D01*
X35165Y168039D01*
X35192Y168289D01*
X35220Y168567D01*
X35234Y168872D01*
Y169205D01*
Y176409D01*
Y176423D01*
Y176437D01*
Y176520D01*
Y176645D01*
X35220Y176784D01*
X35206Y176923D01*
X35192Y177075D01*
X35165Y177200D01*
X35137Y177284D01*
Y177297D01*
X35109Y177311D01*
X35068Y177339D01*
X34998Y177381D01*
X34887Y177422D01*
X34734Y177450D01*
X34637Y177464D01*
X34526D01*
X34415Y177478D01*
X33347D01*
Y178144D01*
X37691D01*
Y177478D01*
D02*
G37*
G36*
X30953Y37065D02*
X30661D01*
X30467Y37051D01*
X30273Y37037D01*
X30078Y37009D01*
X29898Y36967D01*
X29759Y36926D01*
X29745D01*
X29704Y36898D01*
X29634Y36856D01*
X29537Y36773D01*
X29412Y36676D01*
X29273Y36523D01*
X29093Y36343D01*
X28885Y36107D01*
X27524Y34497D01*
X30509Y30125D01*
X31355D01*
Y29500D01*
X26039D01*
Y30125D01*
X27247D01*
X25734Y32387D01*
X24526Y30971D01*
X24512Y30957D01*
X24471Y30902D01*
X24401Y30819D01*
X24332Y30721D01*
X24249Y30624D01*
X24193Y30527D01*
X24138Y30444D01*
X24124Y30374D01*
Y30361D01*
X24138Y30333D01*
X24151Y30291D01*
X24179Y30250D01*
X24221Y30208D01*
X24304Y30166D01*
X24401Y30138D01*
X24540Y30125D01*
X25026D01*
Y29500D01*
X21917D01*
Y30125D01*
X22389D01*
X22500Y30138D01*
X22736Y30166D01*
X22847Y30194D01*
X22944Y30236D01*
X22958D01*
X22986Y30263D01*
X23041Y30305D01*
X23110Y30361D01*
X23208Y30444D01*
X23319Y30541D01*
X23458Y30680D01*
X23610Y30860D01*
X25359Y32928D01*
X22500Y37065D01*
X21778D01*
Y37689D01*
X26816D01*
Y37065D01*
X25720D01*
X27122Y35024D01*
X28107Y36204D01*
X28121Y36218D01*
X28163Y36273D01*
X28232Y36357D01*
X28302Y36454D01*
X28371Y36551D01*
X28440Y36648D01*
X28482Y36745D01*
X28496Y36815D01*
Y36829D01*
X28482Y36856D01*
X28468Y36898D01*
X28427Y36940D01*
X28371Y36981D01*
X28274Y37023D01*
X28135Y37051D01*
X27955Y37065D01*
X27663D01*
Y37689D01*
X30953D01*
Y37065D01*
D02*
G37*
G36*
X37485Y61995D02*
X37402D01*
X37318Y62011D01*
X37135D01*
X36885Y62028D01*
X36568Y62045D01*
X36185Y62061D01*
X35769Y62078D01*
X35319Y62095D01*
X34836Y62111D01*
X34303Y62128D01*
X33770D01*
X33220Y62145D01*
X32070Y62178D01*
X30954D01*
Y62161D01*
Y62095D01*
X30971Y62011D01*
Y61878D01*
X30987Y61728D01*
X31004Y61528D01*
Y61312D01*
X31021Y61062D01*
X31037Y60795D01*
X31054Y60479D01*
Y60162D01*
X31071Y59812D01*
Y59446D01*
X31087Y59063D01*
Y58663D01*
Y58246D01*
X32037D01*
X32337Y58263D01*
X33070D01*
X33486Y58280D01*
X33936Y58296D01*
X34403D01*
X34886Y58313D01*
X35386Y58330D01*
X36435Y58380D01*
Y55864D01*
X36319D01*
X36169Y55881D01*
X35952D01*
X35702Y55897D01*
X35419D01*
X35086Y55914D01*
X34719Y55931D01*
X34319D01*
X33903Y55947D01*
X33453D01*
X33003Y55964D01*
X32054Y55980D01*
X31087D01*
Y55947D01*
Y55881D01*
Y55747D01*
Y55564D01*
Y55348D01*
Y55098D01*
Y54814D01*
X31104Y54498D01*
Y54165D01*
Y53798D01*
X31121Y53432D01*
Y53032D01*
X31137Y52232D01*
X31171Y51432D01*
X32054D01*
X32403Y51449D01*
X32820D01*
X33286Y51466D01*
X33786D01*
X34336Y51482D01*
X34919Y51499D01*
X35519Y51516D01*
X36152Y51532D01*
X36818Y51566D01*
X37501Y51599D01*
X38184Y51632D01*
X38085Y49000D01*
X27872D01*
Y49017D01*
Y49050D01*
Y49100D01*
Y49167D01*
X27889Y49250D01*
Y49367D01*
Y49483D01*
X27905Y49633D01*
Y49800D01*
Y49983D01*
X27922Y50383D01*
X27939Y50849D01*
X27955Y51382D01*
X27972Y51949D01*
X27989Y52582D01*
X28005Y53248D01*
Y53965D01*
X28022Y54714D01*
X28039Y55514D01*
Y56330D01*
Y57163D01*
Y57180D01*
Y57213D01*
Y57280D01*
Y57363D01*
Y57463D01*
Y57580D01*
Y57730D01*
Y57896D01*
Y58080D01*
Y58263D01*
Y58713D01*
X28022Y59196D01*
Y59729D01*
X28005Y60295D01*
Y60895D01*
X27989Y61512D01*
X27972Y62145D01*
X27922Y63411D01*
X27905Y64027D01*
X27872Y64610D01*
X37618D01*
X37485Y61995D01*
D02*
G37*
G36*
X26273Y83709D02*
Y83659D01*
Y83609D01*
X26256Y83443D01*
Y83210D01*
X26239Y82910D01*
X26223Y82560D01*
X26206Y82143D01*
Y81677D01*
X26189Y81160D01*
X26173Y80594D01*
X26156Y79994D01*
X26139Y79328D01*
Y78628D01*
X26123Y77895D01*
Y77112D01*
Y76296D01*
Y76279D01*
Y76246D01*
Y76179D01*
Y76096D01*
Y75979D01*
Y75846D01*
Y75696D01*
Y75529D01*
Y75346D01*
Y75129D01*
X26139Y74663D01*
Y74147D01*
Y73580D01*
X26156Y72964D01*
Y72314D01*
X26173Y71631D01*
X26189Y70948D01*
X26223Y69532D01*
X26239Y68815D01*
X26273Y68132D01*
X22874D01*
Y68149D01*
Y68182D01*
Y68232D01*
Y68299D01*
X22891Y68399D01*
Y68499D01*
Y68632D01*
X22907Y68782D01*
Y68949D01*
Y69132D01*
X22924Y69548D01*
X22941Y70015D01*
X22957Y70548D01*
X22974Y71131D01*
X22991Y71764D01*
X23007Y72431D01*
Y73147D01*
X23024Y73897D01*
X23041Y74663D01*
Y75479D01*
Y76296D01*
Y76312D01*
Y76346D01*
Y76412D01*
Y76496D01*
Y76596D01*
Y76729D01*
Y76862D01*
Y77029D01*
Y77212D01*
Y77412D01*
Y77845D01*
X23024Y78328D01*
Y78878D01*
X23007Y79444D01*
Y80044D01*
X22991Y80661D01*
X22974Y81294D01*
X22924Y82543D01*
X22907Y83160D01*
X22874Y83743D01*
X26273D01*
Y83709D01*
D02*
G37*
G36*
X46898Y64677D02*
X47048D01*
X47214Y64660D01*
X47398Y64627D01*
X47814Y64577D01*
X48281Y64494D01*
X48780Y64377D01*
X49297Y64227D01*
X49797Y64027D01*
X50296Y63777D01*
X50763Y63461D01*
X51179Y63094D01*
X51363Y62894D01*
X51529Y62661D01*
X51679Y62428D01*
X51812Y62161D01*
X51912Y61878D01*
X51979Y61578D01*
X52029Y61262D01*
X52046Y60912D01*
Y60879D01*
Y60779D01*
X52029Y60629D01*
X51996Y60429D01*
X51946Y60179D01*
X51879Y59912D01*
X51779Y59596D01*
X51646Y59279D01*
X51479Y58929D01*
X51279Y58579D01*
X51029Y58230D01*
X50713Y57896D01*
X50363Y57563D01*
X49930Y57263D01*
X49697Y57130D01*
X49447Y56997D01*
X49180Y56863D01*
X48897Y56747D01*
Y56580D01*
X48914D01*
X48947Y56564D01*
X49014Y56547D01*
X49097Y56497D01*
X49213Y56464D01*
X49330Y56397D01*
X49463Y56314D01*
X49613Y56214D01*
X49780Y56097D01*
X49946Y55964D01*
X50130Y55814D01*
X50296Y55647D01*
X50480Y55431D01*
X50663Y55214D01*
X50846Y54964D01*
X51013Y54681D01*
X51029Y54664D01*
X51063Y54614D01*
X51113Y54514D01*
X51179Y54381D01*
X51279Y54198D01*
X51379Y53981D01*
X51512Y53698D01*
X51662Y53398D01*
X51829Y53032D01*
X52012Y52615D01*
X52212Y52149D01*
X52446Y51632D01*
X52679Y51066D01*
X52929Y50433D01*
X53195Y49750D01*
X53478Y49000D01*
X49930D01*
Y49017D01*
X49913Y49050D01*
X49896Y49100D01*
X49863Y49183D01*
X49830Y49283D01*
X49797Y49400D01*
X49697Y49683D01*
X49580Y50016D01*
X49447Y50399D01*
X49313Y50799D01*
X49147Y51249D01*
X48797Y52132D01*
X48630Y52582D01*
X48447Y52998D01*
X48281Y53382D01*
X48097Y53715D01*
X47947Y54015D01*
X47864Y54131D01*
X47797Y54231D01*
Y54248D01*
X47764Y54281D01*
X47714Y54331D01*
X47647Y54381D01*
X47581Y54465D01*
X47481Y54548D01*
X47348Y54631D01*
X47214Y54731D01*
X47064Y54831D01*
X46881Y54914D01*
X46681Y54998D01*
X46464Y55081D01*
X46231Y55131D01*
X45981Y55181D01*
X45698Y55214D01*
X45398Y55231D01*
X44549D01*
X44065Y55214D01*
Y55198D01*
Y55181D01*
Y55131D01*
Y55081D01*
Y54914D01*
Y54681D01*
Y54398D01*
Y54081D01*
X44082Y53698D01*
Y53282D01*
Y52832D01*
Y52349D01*
X44099Y51832D01*
X44115Y51299D01*
Y50733D01*
X44132Y50166D01*
X44166Y49000D01*
X40834D01*
Y49017D01*
Y49050D01*
Y49100D01*
Y49167D01*
X40850Y49250D01*
Y49367D01*
Y49483D01*
X40867Y49633D01*
Y49800D01*
Y49983D01*
X40883Y50383D01*
X40900Y50849D01*
X40917Y51382D01*
X40933Y51949D01*
X40950Y52582D01*
X40967Y53248D01*
Y53965D01*
X40983Y54714D01*
X41000Y55514D01*
Y56330D01*
Y57163D01*
Y57180D01*
Y57213D01*
Y57280D01*
Y57363D01*
Y57463D01*
Y57580D01*
Y57730D01*
Y57896D01*
Y58080D01*
Y58263D01*
Y58713D01*
X40983Y59196D01*
Y59729D01*
X40967Y60295D01*
Y60895D01*
X40950Y61512D01*
X40933Y62145D01*
X40883Y63411D01*
X40867Y64027D01*
X40834Y64610D01*
X43233D01*
X43432Y64627D01*
X44015D01*
X44215Y64644D01*
X44532D01*
X44615Y64660D01*
X44832D01*
X45115Y64677D01*
X45432D01*
X45798Y64694D01*
X46764D01*
X46898Y64677D01*
D02*
G37*
G36*
X16885Y178324D02*
X17051Y178311D01*
X17246Y178283D01*
X17495Y178241D01*
X17759Y178186D01*
X18051Y178116D01*
X18370Y178019D01*
X18703Y177894D01*
X19050Y177742D01*
X19411Y177561D01*
X19772Y177353D01*
X20147Y177117D01*
X20507Y176825D01*
X20854Y176506D01*
X20882Y176478D01*
X20938Y176423D01*
X21021Y176312D01*
X21146Y176173D01*
X21285Y175979D01*
X21437Y175743D01*
X21618Y175479D01*
X21784Y175174D01*
X21965Y174813D01*
X22131Y174424D01*
X22284Y173994D01*
X22423Y173536D01*
X22548Y173022D01*
X22631Y172481D01*
X22701Y171898D01*
X22714Y171287D01*
Y171273D01*
Y171246D01*
Y171204D01*
Y171149D01*
Y171079D01*
X22701Y170982D01*
X22687Y170760D01*
X22659Y170496D01*
X22617Y170191D01*
X22562Y169844D01*
X22492Y169469D01*
X22395Y169067D01*
X22284Y168664D01*
X22145Y168234D01*
X21965Y167817D01*
X21771Y167401D01*
X21535Y166984D01*
X21257Y166596D01*
X20952Y166221D01*
X20938Y166193D01*
X20868Y166138D01*
X20771Y166041D01*
X20632Y165930D01*
X20466Y165777D01*
X20271Y165624D01*
X20022Y165444D01*
X19758Y165277D01*
X19466Y165097D01*
X19133Y164916D01*
X18786Y164764D01*
X18412Y164611D01*
X18009Y164500D01*
X17579Y164403D01*
X17135Y164347D01*
X16663Y164320D01*
X16538D01*
X16399Y164333D01*
X16205Y164347D01*
X15983Y164375D01*
X15705Y164431D01*
X15414Y164486D01*
X15080Y164569D01*
X14733Y164680D01*
X14372Y164805D01*
X13998Y164972D01*
X13637Y165166D01*
X13262Y165402D01*
X12887Y165666D01*
X12540Y165985D01*
X12207Y166332D01*
X12193Y166360D01*
X12138Y166429D01*
X12055Y166540D01*
X11943Y166693D01*
X11819Y166901D01*
X11666Y167137D01*
X11513Y167415D01*
X11361Y167720D01*
X11194Y168067D01*
X11041Y168456D01*
X10903Y168872D01*
X10764Y169316D01*
X10653Y169788D01*
X10569Y170288D01*
X10514Y170815D01*
X10500Y171371D01*
Y171385D01*
Y171412D01*
Y171454D01*
Y171509D01*
X10514Y171579D01*
Y171662D01*
X10528Y171884D01*
X10555Y172148D01*
X10597Y172439D01*
X10653Y172786D01*
X10722Y173147D01*
X10819Y173536D01*
X10944Y173938D01*
X11083Y174355D01*
X11263Y174785D01*
X11472Y175201D01*
X11708Y175604D01*
X11985Y176006D01*
X12304Y176381D01*
X12332Y176409D01*
X12388Y176465D01*
X12485Y176562D01*
X12624Y176687D01*
X12804Y176839D01*
X13012Y177006D01*
X13248Y177172D01*
X13526Y177367D01*
X13831Y177547D01*
X14164Y177714D01*
X14511Y177880D01*
X14900Y178033D01*
X15303Y178158D01*
X15733Y178255D01*
X16177Y178311D01*
X16649Y178338D01*
X16760D01*
X16885Y178324D01*
D02*
G37*
%LPC*%
G36*
X24684Y473405D02*
X24500D01*
X24467Y473397D01*
X24417D01*
X24359Y473388D01*
X24234Y473372D01*
X24092Y473330D01*
X23942Y473280D01*
X23792Y473205D01*
X23659Y473105D01*
X23642Y473089D01*
X23609Y473047D01*
X23551Y472980D01*
X23484Y472872D01*
X23409Y472739D01*
X23343Y472580D01*
X23284Y472381D01*
X23243Y472156D01*
Y472147D01*
Y472122D01*
X23234Y472081D01*
Y472022D01*
X23226Y471947D01*
X23217Y471847D01*
X23209Y471731D01*
Y471598D01*
X23201Y471431D01*
X23192Y471248D01*
X23184Y471039D01*
X23176Y470806D01*
Y470548D01*
X23167Y470265D01*
Y469948D01*
Y469607D01*
Y469598D01*
Y469582D01*
Y469557D01*
Y469523D01*
Y469482D01*
Y469432D01*
Y469307D01*
Y469148D01*
Y468982D01*
X23176Y468790D01*
Y468590D01*
X23184Y468174D01*
X23192Y467966D01*
Y467766D01*
X23201Y467574D01*
X23209Y467399D01*
X23226Y467241D01*
X23234Y467116D01*
Y467108D01*
Y467091D01*
X23243Y467058D01*
X23251Y467016D01*
X23259Y466966D01*
X23268Y466908D01*
X23309Y466766D01*
X23351Y466616D01*
X23417Y466450D01*
X23501Y466291D01*
X23601Y466150D01*
X23617Y466133D01*
X23659Y466091D01*
X23734Y466033D01*
X23834Y465975D01*
X23967Y465908D01*
X24134Y465850D01*
X24334Y465808D01*
X24442Y465800D01*
X24559Y465792D01*
X24609D01*
X24650Y465800D01*
X24742Y465808D01*
X24867Y465825D01*
X25008Y465858D01*
X25150Y465908D01*
X25300Y465983D01*
X25433Y466075D01*
X25450Y466091D01*
X25492Y466133D01*
X25550Y466200D01*
X25617Y466300D01*
X25692Y466433D01*
X25758Y466591D01*
X25817Y466791D01*
X25842Y466899D01*
X25858Y467016D01*
Y467024D01*
X25866Y467049D01*
Y467091D01*
X25875Y467149D01*
X25883Y467224D01*
X25891Y467324D01*
X25900Y467441D01*
X25908Y467583D01*
X25916Y467749D01*
X25925Y467932D01*
Y468141D01*
X25933Y468382D01*
X25941Y468640D01*
X25950Y468932D01*
Y469248D01*
Y469590D01*
Y469598D01*
Y469615D01*
Y469640D01*
Y469673D01*
Y469715D01*
Y469765D01*
Y469890D01*
Y470048D01*
Y470215D01*
X25941Y470406D01*
Y470606D01*
X25933Y471023D01*
X25925Y471231D01*
X25916Y471431D01*
X25908Y471623D01*
X25900Y471798D01*
X25891Y471947D01*
X25875Y472072D01*
Y472081D01*
Y472097D01*
X25866Y472131D01*
X25858Y472172D01*
X25850Y472222D01*
X25842Y472281D01*
X25808Y472422D01*
X25758Y472572D01*
X25700Y472730D01*
X25617Y472889D01*
X25517Y473039D01*
Y473047D01*
X25500Y473055D01*
X25458Y473097D01*
X25392Y473155D01*
X25292Y473222D01*
X25158Y473289D01*
X24992Y473347D01*
X24892Y473372D01*
X24792Y473388D01*
X24684Y473405D01*
D02*
G37*
G36*
X44180Y37356D02*
X44097D01*
X44014Y37342D01*
X43889Y37314D01*
X43764Y37287D01*
X43639Y37231D01*
X43514Y37148D01*
X43389Y37051D01*
X43375Y37037D01*
X43348Y36981D01*
X43306Y36898D01*
X43278Y36829D01*
X43250Y36759D01*
X43223Y36662D01*
X43195Y36565D01*
X43181Y36440D01*
X43153Y36301D01*
X43139Y36149D01*
X43126Y35968D01*
X43112Y35774D01*
Y35566D01*
Y34733D01*
X45305D01*
Y35579D01*
Y35593D01*
Y35635D01*
Y35691D01*
Y35760D01*
X45291Y35843D01*
Y35954D01*
X45263Y36176D01*
X45235Y36426D01*
X45180Y36662D01*
X45096Y36870D01*
X45055Y36954D01*
X44999Y37023D01*
X44985Y37037D01*
X44944Y37078D01*
X44874Y37134D01*
X44777Y37189D01*
X44666Y37245D01*
X44527Y37301D01*
X44361Y37342D01*
X44180Y37356D01*
D02*
G37*
G36*
X5677Y33636D02*
X5622D01*
X5552Y33622D01*
X5455D01*
X5344Y33608D01*
X5205Y33595D01*
X4914Y33567D01*
X4595Y33497D01*
X4275Y33428D01*
X3984Y33317D01*
X3859Y33261D01*
X3748Y33192D01*
X3720Y33178D01*
X3665Y33123D01*
X3581Y33026D01*
X3484Y32887D01*
X3387Y32720D01*
X3304Y32498D01*
X3248Y32234D01*
X3221Y31915D01*
Y31901D01*
Y31887D01*
Y31804D01*
X3234Y31679D01*
X3262Y31526D01*
X3304Y31346D01*
X3359Y31166D01*
X3443Y30999D01*
X3554Y30832D01*
X3568Y30819D01*
X3609Y30777D01*
X3692Y30708D01*
X3790Y30638D01*
X3915Y30569D01*
X4053Y30499D01*
X4220Y30458D01*
X4414Y30444D01*
X4511D01*
X4622Y30472D01*
X4761Y30499D01*
X4914Y30541D01*
X5066Y30610D01*
X5219Y30708D01*
X5344Y30832D01*
X5358Y30846D01*
X5400Y30916D01*
X5455Y31013D01*
X5511Y31166D01*
X5566Y31374D01*
X5594Y31485D01*
X5622Y31624D01*
X5649Y31776D01*
X5663Y31929D01*
X5677Y32109D01*
Y32304D01*
Y33636D01*
D02*
G37*
G36*
X8140Y473289D02*
X7515D01*
Y469732D01*
X8015D01*
X8115Y469740D01*
X8232D01*
X8373Y469748D01*
X8507Y469765D01*
X8648Y469790D01*
X8765Y469815D01*
X8782Y469823D01*
X8815Y469832D01*
X8873Y469865D01*
X8940Y469907D01*
X9015Y469973D01*
X9098Y470056D01*
X9182Y470156D01*
X9256Y470290D01*
Y470298D01*
X9265Y470306D01*
X9273Y470331D01*
X9290Y470365D01*
X9298Y470406D01*
X9315Y470456D01*
X9331Y470523D01*
X9356Y470590D01*
X9373Y470673D01*
X9390Y470765D01*
X9406Y470864D01*
X9415Y470973D01*
X9431Y471098D01*
X9440Y471231D01*
X9448Y471373D01*
Y471523D01*
Y471531D01*
Y471556D01*
Y471606D01*
Y471656D01*
X9440Y471731D01*
Y471806D01*
X9423Y471989D01*
X9398Y472181D01*
X9365Y472381D01*
X9323Y472572D01*
X9290Y472655D01*
X9256Y472730D01*
Y472739D01*
X9248Y472747D01*
X9223Y472789D01*
X9182Y472855D01*
X9132Y472930D01*
X9057Y473014D01*
X8981Y473089D01*
X8890Y473155D01*
X8782Y473197D01*
X8765Y473205D01*
X8732Y473214D01*
X8665Y473230D01*
X8565Y473247D01*
X8448Y473264D01*
X8307Y473272D01*
X8140Y473289D01*
D02*
G37*
G36*
X54038Y336789D02*
X53013D01*
Y333573D01*
X53863D01*
X53921Y333581D01*
X53988D01*
X54063Y333590D01*
X54229Y333607D01*
X54413Y333648D01*
X54596Y333698D01*
X54771Y333765D01*
X54838Y333815D01*
X54904Y333865D01*
X54921Y333881D01*
X54937Y333898D01*
X54954Y333931D01*
X54979Y333965D01*
X55004Y334015D01*
X55029Y334073D01*
X55063Y334148D01*
X55096Y334231D01*
X55121Y334331D01*
X55146Y334439D01*
X55171Y334564D01*
X55196Y334706D01*
X55204Y334864D01*
X55221Y335031D01*
Y335223D01*
Y335231D01*
Y335264D01*
Y335314D01*
X55212Y335381D01*
Y335464D01*
X55204Y335556D01*
X55187Y335764D01*
X55146Y335981D01*
X55096Y336189D01*
X55063Y336289D01*
X55021Y336372D01*
X54971Y336447D01*
X54921Y336505D01*
X54904Y336514D01*
X54863Y336547D01*
X54788Y336597D01*
X54746Y336622D01*
X54688Y336647D01*
X54621Y336672D01*
X54546Y336697D01*
X54463Y336722D01*
X54371Y336747D01*
X54271Y336764D01*
X54154Y336780D01*
X54038Y336789D01*
D02*
G37*
G36*
X16062Y473289D02*
X15037D01*
Y470073D01*
X15887D01*
X15945Y470082D01*
X16012D01*
X16087Y470090D01*
X16254Y470107D01*
X16437Y470148D01*
X16620Y470198D01*
X16795Y470265D01*
X16862Y470315D01*
X16928Y470365D01*
X16945Y470381D01*
X16962Y470398D01*
X16978Y470431D01*
X17003Y470465D01*
X17028Y470515D01*
X17053Y470573D01*
X17087Y470648D01*
X17120Y470731D01*
X17145Y470831D01*
X17170Y470939D01*
X17195Y471064D01*
X17220Y471206D01*
X17228Y471364D01*
X17245Y471531D01*
Y471723D01*
Y471731D01*
Y471764D01*
Y471814D01*
X17237Y471881D01*
Y471964D01*
X17228Y472056D01*
X17212Y472264D01*
X17170Y472480D01*
X17120Y472689D01*
X17087Y472789D01*
X17045Y472872D01*
X16995Y472947D01*
X16945Y473005D01*
X16928Y473014D01*
X16887Y473047D01*
X16812Y473097D01*
X16770Y473122D01*
X16712Y473147D01*
X16645Y473172D01*
X16570Y473197D01*
X16487Y473222D01*
X16395Y473247D01*
X16295Y473264D01*
X16179Y473280D01*
X16062Y473289D01*
D02*
G37*
G36*
X13529Y336905D02*
X13346D01*
X13313Y336897D01*
X13263D01*
X13204Y336889D01*
X13079Y336872D01*
X12938Y336830D01*
X12788Y336780D01*
X12638Y336705D01*
X12505Y336605D01*
X12488Y336589D01*
X12455Y336547D01*
X12396Y336480D01*
X12330Y336372D01*
X12255Y336239D01*
X12188Y336081D01*
X12130Y335881D01*
X12088Y335656D01*
Y335647D01*
Y335622D01*
X12080Y335581D01*
Y335522D01*
X12071Y335447D01*
X12063Y335348D01*
X12055Y335231D01*
Y335098D01*
X12046Y334931D01*
X12038Y334748D01*
X12030Y334539D01*
X12021Y334306D01*
Y334048D01*
X12013Y333765D01*
Y333448D01*
Y333107D01*
Y333098D01*
Y333082D01*
Y333057D01*
Y333023D01*
Y332982D01*
Y332932D01*
Y332807D01*
Y332648D01*
Y332482D01*
X12021Y332290D01*
Y332090D01*
X12030Y331674D01*
X12038Y331466D01*
Y331266D01*
X12046Y331074D01*
X12055Y330899D01*
X12071Y330741D01*
X12080Y330616D01*
Y330608D01*
Y330591D01*
X12088Y330558D01*
X12096Y330516D01*
X12105Y330466D01*
X12113Y330408D01*
X12155Y330266D01*
X12196Y330116D01*
X12263Y329950D01*
X12346Y329791D01*
X12446Y329650D01*
X12463Y329633D01*
X12505Y329591D01*
X12580Y329533D01*
X12679Y329475D01*
X12813Y329408D01*
X12979Y329350D01*
X13179Y329308D01*
X13287Y329300D01*
X13404Y329292D01*
X13454D01*
X13496Y329300D01*
X13587Y329308D01*
X13712Y329325D01*
X13854Y329358D01*
X13996Y329408D01*
X14145Y329483D01*
X14279Y329575D01*
X14296Y329591D01*
X14337Y329633D01*
X14395Y329700D01*
X14462Y329800D01*
X14537Y329933D01*
X14604Y330091D01*
X14662Y330291D01*
X14687Y330399D01*
X14704Y330516D01*
Y330524D01*
X14712Y330549D01*
Y330591D01*
X14720Y330649D01*
X14729Y330724D01*
X14737Y330824D01*
X14745Y330941D01*
X14754Y331083D01*
X14762Y331249D01*
X14770Y331432D01*
Y331641D01*
X14779Y331882D01*
X14787Y332140D01*
X14795Y332432D01*
Y332749D01*
Y333090D01*
Y333098D01*
Y333115D01*
Y333140D01*
Y333173D01*
Y333215D01*
Y333265D01*
Y333390D01*
Y333548D01*
Y333715D01*
X14787Y333906D01*
Y334106D01*
X14779Y334523D01*
X14770Y334731D01*
X14762Y334931D01*
X14754Y335123D01*
X14745Y335297D01*
X14737Y335447D01*
X14720Y335572D01*
Y335581D01*
Y335597D01*
X14712Y335631D01*
X14704Y335672D01*
X14695Y335722D01*
X14687Y335781D01*
X14654Y335922D01*
X14604Y336072D01*
X14545Y336230D01*
X14462Y336389D01*
X14362Y336539D01*
Y336547D01*
X14345Y336555D01*
X14304Y336597D01*
X14237Y336655D01*
X14137Y336722D01*
X14004Y336789D01*
X13837Y336847D01*
X13737Y336872D01*
X13637Y336889D01*
X13529Y336905D01*
D02*
G37*
G36*
X37120D02*
X36936D01*
X36903Y336897D01*
X36853D01*
X36795Y336889D01*
X36670Y336872D01*
X36528Y336830D01*
X36378Y336780D01*
X36228Y336705D01*
X36095Y336605D01*
X36078Y336589D01*
X36045Y336547D01*
X35987Y336480D01*
X35920Y336372D01*
X35845Y336239D01*
X35779Y336081D01*
X35720Y335881D01*
X35679Y335656D01*
Y335647D01*
Y335622D01*
X35670Y335581D01*
Y335522D01*
X35662Y335447D01*
X35654Y335348D01*
X35645Y335231D01*
Y335098D01*
X35637Y334931D01*
X35629Y334748D01*
X35620Y334539D01*
X35612Y334306D01*
Y334048D01*
X35604Y333765D01*
Y333448D01*
Y333107D01*
Y333098D01*
Y333082D01*
Y333057D01*
Y333023D01*
Y332982D01*
Y332932D01*
Y332807D01*
Y332648D01*
Y332482D01*
X35612Y332290D01*
Y332090D01*
X35620Y331674D01*
X35629Y331466D01*
Y331266D01*
X35637Y331074D01*
X35645Y330899D01*
X35662Y330741D01*
X35670Y330616D01*
Y330608D01*
Y330591D01*
X35679Y330558D01*
X35687Y330516D01*
X35695Y330466D01*
X35704Y330408D01*
X35745Y330266D01*
X35787Y330116D01*
X35853Y329950D01*
X35937Y329791D01*
X36037Y329650D01*
X36053Y329633D01*
X36095Y329591D01*
X36170Y329533D01*
X36270Y329475D01*
X36403Y329408D01*
X36570Y329350D01*
X36770Y329308D01*
X36878Y329300D01*
X36995Y329292D01*
X37045D01*
X37086Y329300D01*
X37178Y329308D01*
X37303Y329325D01*
X37444Y329358D01*
X37586Y329408D01*
X37736Y329483D01*
X37869Y329575D01*
X37886Y329591D01*
X37928Y329633D01*
X37986Y329700D01*
X38053Y329800D01*
X38128Y329933D01*
X38194Y330091D01*
X38253Y330291D01*
X38278Y330399D01*
X38294Y330516D01*
Y330524D01*
X38302Y330549D01*
Y330591D01*
X38311Y330649D01*
X38319Y330724D01*
X38328Y330824D01*
X38336Y330941D01*
X38344Y331083D01*
X38353Y331249D01*
X38361Y331432D01*
Y331641D01*
X38369Y331882D01*
X38377Y332140D01*
X38386Y332432D01*
Y332749D01*
Y333090D01*
Y333098D01*
Y333115D01*
Y333140D01*
Y333173D01*
Y333215D01*
Y333265D01*
Y333390D01*
Y333548D01*
Y333715D01*
X38377Y333906D01*
Y334106D01*
X38369Y334523D01*
X38361Y334731D01*
X38353Y334931D01*
X38344Y335123D01*
X38336Y335297D01*
X38328Y335447D01*
X38311Y335572D01*
Y335581D01*
Y335597D01*
X38302Y335631D01*
X38294Y335672D01*
X38286Y335722D01*
X38278Y335781D01*
X38244Y335922D01*
X38194Y336072D01*
X38136Y336230D01*
X38053Y336389D01*
X37953Y336539D01*
Y336547D01*
X37936Y336555D01*
X37894Y336597D01*
X37828Y336655D01*
X37728Y336722D01*
X37595Y336789D01*
X37428Y336847D01*
X37328Y336872D01*
X37228Y336889D01*
X37120Y336905D01*
D02*
G37*
G36*
X48680Y100509D02*
X48464D01*
X48314Y100493D01*
X48114Y100476D01*
X47864Y100459D01*
X47581Y100426D01*
X47264Y100393D01*
Y100359D01*
Y100293D01*
X47281Y100160D01*
Y99976D01*
X47297Y99760D01*
Y99493D01*
X47314Y99193D01*
X47331Y98860D01*
Y98510D01*
X47348Y98110D01*
Y97694D01*
X47364Y97261D01*
Y96811D01*
X47381Y96344D01*
Y95378D01*
Y95345D01*
Y95245D01*
Y95095D01*
Y94895D01*
Y94628D01*
Y94328D01*
X47398Y93979D01*
Y93595D01*
Y93179D01*
X47414Y92729D01*
Y92263D01*
X47431Y91780D01*
X47464Y90747D01*
X47497Y89697D01*
X47531D01*
X47631Y89664D01*
X47781Y89647D01*
X47981Y89614D01*
X48230Y89580D01*
X48497Y89564D01*
X48764Y89530D01*
X49180D01*
X49313Y89547D01*
X49480Y89564D01*
X49697Y89580D01*
X49946Y89614D01*
X50213Y89664D01*
X50513Y89730D01*
X50813Y89814D01*
X51129Y89914D01*
X51446Y90047D01*
X51762Y90214D01*
X52062Y90397D01*
X52362Y90597D01*
X52629Y90847D01*
X52879Y91130D01*
X52895Y91146D01*
X52929Y91196D01*
X52995Y91296D01*
X53079Y91413D01*
X53162Y91580D01*
X53278Y91763D01*
X53395Y91979D01*
X53512Y92229D01*
X53628Y92496D01*
X53728Y92796D01*
X53845Y93112D01*
X53928Y93462D01*
X54011Y93829D01*
X54078Y94212D01*
X54111Y94628D01*
X54128Y95045D01*
Y95078D01*
Y95145D01*
X54111Y95262D01*
Y95428D01*
X54095Y95628D01*
X54062Y95861D01*
X54011Y96111D01*
X53961Y96394D01*
X53895Y96694D01*
X53795Y97011D01*
X53695Y97327D01*
X53562Y97660D01*
X53412Y97977D01*
X53228Y98310D01*
X53012Y98627D01*
X52779Y98927D01*
X52762Y98943D01*
X52712Y98993D01*
X52645Y99077D01*
X52529Y99177D01*
X52379Y99293D01*
X52212Y99427D01*
X52012Y99576D01*
X51762Y99726D01*
X51496Y99860D01*
X51196Y100010D01*
X50863Y100143D01*
X50496Y100259D01*
X50080Y100359D01*
X49647Y100443D01*
X49180Y100493D01*
X48680Y100509D01*
D02*
G37*
G36*
X19859Y119825D02*
X19775D01*
X19692Y119808D01*
X19559D01*
X19409Y119775D01*
X19242Y119742D01*
X19042Y119692D01*
X18826Y119625D01*
X18609Y119542D01*
X18359Y119442D01*
X18109Y119308D01*
X17859Y119159D01*
X17609Y118975D01*
X17359Y118759D01*
X17110Y118526D01*
X16876Y118242D01*
X16860Y118226D01*
X16826Y118176D01*
X16760Y118076D01*
X16693Y117959D01*
X16593Y117809D01*
X16493Y117626D01*
X16377Y117409D01*
X16277Y117159D01*
X16160Y116893D01*
X16043Y116593D01*
X15943Y116260D01*
X15844Y115910D01*
X15777Y115527D01*
X15710Y115144D01*
X15677Y114710D01*
X15660Y114277D01*
Y114244D01*
Y114161D01*
X15677Y114044D01*
Y113861D01*
X15694Y113644D01*
X15727Y113411D01*
X15760Y113128D01*
X15827Y112828D01*
X15893Y112511D01*
X15977Y112195D01*
X16077Y111845D01*
X16210Y111512D01*
X16343Y111162D01*
X16526Y110845D01*
X16710Y110512D01*
X16943Y110212D01*
X16960Y110196D01*
X17010Y110145D01*
X17076Y110062D01*
X17176Y109962D01*
X17310Y109846D01*
X17459Y109712D01*
X17626Y109579D01*
X17826Y109429D01*
X18043Y109279D01*
X18293Y109146D01*
X18542Y109013D01*
X18826Y108896D01*
X19126Y108796D01*
X19442Y108713D01*
X19759Y108663D01*
X20108Y108646D01*
X20192D01*
X20275Y108663D01*
X20408Y108679D01*
X20558Y108696D01*
X20725Y108729D01*
X20925Y108779D01*
X21141Y108846D01*
X21358Y108929D01*
X21608Y109029D01*
X21841Y109163D01*
X22091Y109312D01*
X22341Y109479D01*
X22591Y109696D01*
X22841Y109929D01*
X23074Y110212D01*
X23091Y110229D01*
X23124Y110279D01*
X23190Y110379D01*
X23274Y110495D01*
X23357Y110645D01*
X23457Y110845D01*
X23574Y111062D01*
X23690Y111312D01*
X23807Y111578D01*
X23924Y111878D01*
X24024Y112211D01*
X24107Y112561D01*
X24190Y112944D01*
X24257Y113328D01*
X24290Y113761D01*
X24307Y114194D01*
Y114227D01*
Y114311D01*
Y114427D01*
X24290Y114610D01*
X24273Y114827D01*
X24240Y115060D01*
X24207Y115343D01*
X24140Y115643D01*
X24073Y115960D01*
X23990Y116293D01*
X23890Y116626D01*
X23774Y116960D01*
X23624Y117309D01*
X23440Y117642D01*
X23257Y117959D01*
X23024Y118259D01*
X23007Y118276D01*
X22974Y118326D01*
X22891Y118409D01*
X22791Y118509D01*
X22674Y118625D01*
X22524Y118759D01*
X22341Y118892D01*
X22141Y119042D01*
X21924Y119192D01*
X21691Y119325D01*
X21425Y119458D01*
X21141Y119575D01*
X20858Y119675D01*
X20542Y119758D01*
X20208Y119808D01*
X19859Y119825D01*
D02*
G37*
G36*
X46198Y62411D02*
X45515D01*
X45248Y62395D01*
X44932Y62378D01*
X44599Y62345D01*
X44249Y62295D01*
X43916Y62245D01*
Y62228D01*
Y62161D01*
X43932Y62061D01*
Y61911D01*
X43949Y61728D01*
X43966Y61495D01*
Y61245D01*
X43982Y60945D01*
X43999Y60612D01*
X44015Y60246D01*
Y59846D01*
X44032Y59412D01*
Y58963D01*
X44049Y58463D01*
Y57946D01*
Y57397D01*
X44432D01*
X44615Y57380D01*
X45332D01*
X45415Y57397D01*
X45515D01*
X45765Y57430D01*
X46048Y57463D01*
X46365Y57513D01*
X46714Y57597D01*
X47081Y57713D01*
X47431Y57846D01*
X47781Y58030D01*
X48097Y58246D01*
X48380Y58496D01*
X48630Y58796D01*
X48730Y58979D01*
X48814Y59163D01*
X48880Y59346D01*
X48930Y59562D01*
X48963Y59796D01*
X48980Y60029D01*
Y60062D01*
Y60129D01*
X48963Y60246D01*
X48930Y60395D01*
X48880Y60579D01*
X48814Y60779D01*
X48730Y60995D01*
X48597Y61228D01*
X48430Y61445D01*
X48230Y61662D01*
X47981Y61861D01*
X47681Y62045D01*
X47331Y62195D01*
X46931Y62311D01*
X46698Y62345D01*
X46448Y62378D01*
X46198Y62411D01*
D02*
G37*
G36*
X16815Y177672D02*
X16510D01*
X16454Y177658D01*
X16371D01*
X16274Y177644D01*
X16066Y177617D01*
X15830Y177547D01*
X15580Y177464D01*
X15330Y177339D01*
X15108Y177172D01*
X15080Y177145D01*
X15025Y177075D01*
X14928Y176964D01*
X14817Y176784D01*
X14692Y176562D01*
X14581Y176298D01*
X14484Y175965D01*
X14414Y175590D01*
Y175576D01*
Y175535D01*
X14400Y175465D01*
Y175368D01*
X14386Y175243D01*
X14372Y175077D01*
X14359Y174882D01*
Y174660D01*
X14345Y174383D01*
X14331Y174077D01*
X14317Y173730D01*
X14303Y173342D01*
Y172911D01*
X14289Y172439D01*
Y171912D01*
Y171343D01*
Y171329D01*
Y171301D01*
Y171260D01*
Y171204D01*
Y171135D01*
Y171051D01*
Y170843D01*
Y170579D01*
Y170302D01*
X14303Y169983D01*
Y169650D01*
X14317Y168956D01*
X14331Y168608D01*
Y168275D01*
X14345Y167956D01*
X14359Y167665D01*
X14386Y167401D01*
X14400Y167193D01*
Y167179D01*
Y167151D01*
X14414Y167096D01*
X14428Y167026D01*
X14442Y166943D01*
X14456Y166846D01*
X14525Y166610D01*
X14595Y166360D01*
X14706Y166082D01*
X14844Y165819D01*
X15011Y165583D01*
X15039Y165555D01*
X15108Y165486D01*
X15233Y165388D01*
X15400Y165291D01*
X15622Y165180D01*
X15899Y165083D01*
X16232Y165014D01*
X16413Y165000D01*
X16607Y164986D01*
X16691D01*
X16760Y165000D01*
X16913Y165014D01*
X17121Y165041D01*
X17357Y165097D01*
X17593Y165180D01*
X17842Y165305D01*
X18065Y165458D01*
X18092Y165486D01*
X18162Y165555D01*
X18259Y165666D01*
X18370Y165832D01*
X18495Y166055D01*
X18606Y166318D01*
X18703Y166651D01*
X18745Y166832D01*
X18772Y167026D01*
Y167040D01*
X18786Y167082D01*
Y167151D01*
X18800Y167248D01*
X18814Y167373D01*
X18828Y167540D01*
X18842Y167734D01*
X18856Y167970D01*
X18870Y168248D01*
X18883Y168553D01*
Y168900D01*
X18897Y169302D01*
X18911Y169733D01*
X18925Y170219D01*
Y170746D01*
Y171315D01*
Y171329D01*
Y171357D01*
Y171398D01*
Y171454D01*
Y171523D01*
Y171607D01*
Y171815D01*
Y172079D01*
Y172356D01*
X18911Y172675D01*
Y173008D01*
X18897Y173702D01*
X18883Y174049D01*
X18870Y174383D01*
X18856Y174702D01*
X18842Y174993D01*
X18828Y175243D01*
X18800Y175451D01*
Y175465D01*
Y175493D01*
X18786Y175549D01*
X18772Y175618D01*
X18759Y175701D01*
X18745Y175798D01*
X18689Y176034D01*
X18606Y176284D01*
X18509Y176548D01*
X18370Y176812D01*
X18203Y177061D01*
Y177075D01*
X18176Y177089D01*
X18106Y177159D01*
X17995Y177256D01*
X17829Y177367D01*
X17607Y177478D01*
X17329Y177575D01*
X17162Y177617D01*
X16996Y177644D01*
X16815Y177672D01*
D02*
G37*
%LPD*%
M02*
