G04 Layer_Color=8388736*
%FSLAX25Y25*%
%MOIN*%
G70*
G01*
G75*
G36*
X37973Y37915D02*
X38119Y37874D01*
X38286Y37811D01*
X38473Y37728D01*
X38640Y37624D01*
X38806Y37457D01*
X38827Y37436D01*
X38869Y37374D01*
X38952Y37270D01*
X39035Y37124D01*
X39098Y36957D01*
X39181Y36770D01*
X39223Y36540D01*
X39244Y36291D01*
Y36270D01*
Y36186D01*
X39223Y36082D01*
X39202Y35936D01*
X39160Y35791D01*
X39098Y35624D01*
X39015Y35478D01*
X38910Y35332D01*
X38890Y35312D01*
X38848Y35270D01*
X38785Y35228D01*
X38702Y35166D01*
X38473Y35041D01*
X38327Y34999D01*
X38161Y34978D01*
X38077D01*
X37994Y34999D01*
X37890Y35020D01*
X37765Y35062D01*
X37640Y35124D01*
X37515Y35207D01*
X37390Y35312D01*
X37369Y35332D01*
X37348Y35374D01*
X37286Y35436D01*
X37244Y35520D01*
X37119Y35770D01*
X37098Y35895D01*
X37078Y36041D01*
Y36061D01*
Y36124D01*
Y36207D01*
X37098Y36332D01*
X37140Y36561D01*
X37182Y36665D01*
X37244Y36749D01*
X37265Y36790D01*
X37348Y36853D01*
X37411Y36957D01*
X37432Y37020D01*
Y37040D01*
X37411Y37082D01*
X37369Y37124D01*
X37265Y37145D01*
X37244D01*
X37182Y37124D01*
X37078Y37103D01*
X36952Y37020D01*
X36807Y36895D01*
X36640Y36728D01*
X36453Y36478D01*
X36369Y36311D01*
X36286Y36145D01*
Y36124D01*
X36265Y36103D01*
X36244Y36041D01*
X36224Y35957D01*
X36182Y35853D01*
X36140Y35707D01*
X36099Y35561D01*
X36057Y35374D01*
X36015Y35166D01*
X35974Y34916D01*
X35932Y34645D01*
X35890Y34353D01*
X35869Y34041D01*
X35849Y33687D01*
X35828Y33312D01*
Y32916D01*
Y30125D01*
X37348D01*
Y29500D01*
X31995D01*
Y30125D01*
X33057D01*
Y37061D01*
X31995D01*
Y37686D01*
X33953D01*
X34203Y37707D01*
X34474D01*
X34724Y37728D01*
X34932Y37749D01*
X35286Y37811D01*
X35661D01*
Y35561D01*
X35682D01*
Y35582D01*
X35703Y35624D01*
Y35666D01*
X35724Y35749D01*
X35786Y35978D01*
X35869Y36228D01*
X35994Y36520D01*
X36140Y36811D01*
X36307Y37082D01*
X36494Y37332D01*
X36515Y37353D01*
X36598Y37436D01*
X36702Y37519D01*
X36869Y37644D01*
X37057Y37749D01*
X37265Y37853D01*
X37494Y37915D01*
X37744Y37936D01*
X37848D01*
X37973Y37915D01*
D02*
G37*
G36*
X30974Y37061D02*
X30683D01*
X30495Y37040D01*
X30079Y36999D01*
X29912Y36957D01*
X29766Y36915D01*
X29745D01*
X29704Y36895D01*
X29641Y36832D01*
X29558Y36770D01*
X29433Y36665D01*
X29266Y36520D01*
X29100Y36332D01*
X28891Y36103D01*
X27516Y34499D01*
X30516Y30125D01*
X31370D01*
Y29500D01*
X26058D01*
Y30125D01*
X27267D01*
X25725Y32395D01*
X24538Y30958D01*
X24517Y30937D01*
X24475Y30896D01*
X24413Y30812D01*
X24350Y30708D01*
X24205Y30521D01*
X24163Y30437D01*
X24142Y30375D01*
Y30333D01*
X24205Y30250D01*
X24246Y30208D01*
X24309Y30167D01*
X24413Y30146D01*
X24559Y30125D01*
X25038D01*
Y29500D01*
X21934D01*
Y30125D01*
X22392D01*
X22517Y30146D01*
X22746Y30167D01*
X22871Y30187D01*
X22955Y30229D01*
X22976D01*
X22996Y30250D01*
X23059Y30292D01*
X23121Y30354D01*
X23225Y30437D01*
X23330Y30542D01*
X23475Y30687D01*
X23621Y30854D01*
X25371Y32916D01*
X22497Y37061D01*
X21788D01*
Y37686D01*
X26829D01*
Y37061D01*
X25725D01*
X27142Y35020D01*
X28121Y36186D01*
X28141Y36207D01*
X28183Y36270D01*
X28246Y36332D01*
X28329Y36436D01*
X28454Y36645D01*
X28495Y36728D01*
X28516Y36811D01*
Y36832D01*
Y36853D01*
X28495Y36895D01*
X28454Y36936D01*
X28391Y36978D01*
X28287Y37020D01*
X28162Y37061D01*
X27683D01*
Y37686D01*
X30974D01*
Y37061D01*
D02*
G37*
G36*
X16938Y418175D02*
X17087D01*
X17275Y418150D01*
X17475Y418138D01*
X17687Y418113D01*
X18137Y418038D01*
X18587Y417925D01*
X18800Y417863D01*
X18988Y417775D01*
X19162Y417688D01*
X19312Y417575D01*
X19325Y417562D01*
X19350Y417550D01*
X19375Y417513D01*
X19425Y417475D01*
X19537Y417350D01*
X19675Y417188D01*
X19813Y417000D01*
X19925Y416775D01*
X19975Y416663D01*
X20012Y416538D01*
X20025Y416412D01*
X20038Y416288D01*
Y416275D01*
Y416250D01*
Y416213D01*
X20025Y416162D01*
X20000Y416025D01*
X19950Y415850D01*
X19875Y415650D01*
X19762Y415450D01*
X19688Y415338D01*
X19600Y415225D01*
X19488Y415125D01*
X19375Y415025D01*
X19363D01*
X19350Y415000D01*
X19300Y414975D01*
X19250Y414937D01*
X19187Y414900D01*
X19100Y414850D01*
X19000Y414800D01*
X18875Y414750D01*
X18750Y414687D01*
X18600Y414638D01*
X18438Y414575D01*
X18262Y414525D01*
X18075Y414475D01*
X17863Y414425D01*
X17638Y414388D01*
X17400Y414350D01*
Y414325D01*
X17413D01*
X17450Y414313D01*
X17500Y414300D01*
X17562Y414275D01*
X17650Y414250D01*
X17738Y414225D01*
X17950Y414150D01*
X18200Y414050D01*
X18438Y413938D01*
X18675Y413812D01*
X18875Y413662D01*
X18900Y413650D01*
X18950Y413588D01*
X19038Y413500D01*
X19138Y413400D01*
X19250Y413263D01*
X19350Y413100D01*
X19437Y412937D01*
X19500Y412750D01*
Y412725D01*
X19525Y412663D01*
X19537Y412550D01*
X19563Y412413D01*
X19588Y412238D01*
X19600Y412038D01*
X19625Y411800D01*
Y411550D01*
Y411538D01*
Y411525D01*
Y411487D01*
Y411438D01*
X19637Y411325D01*
X19650Y411188D01*
X19662Y411037D01*
X19675Y410900D01*
X19700Y410787D01*
X19737Y410700D01*
Y410687D01*
X19762Y410675D01*
X19787Y410650D01*
X19825Y410625D01*
X19887Y410588D01*
X19950Y410563D01*
X20038Y410550D01*
X20137Y410537D01*
X20200D01*
X20263Y410550D01*
X20350Y410563D01*
X20450Y410588D01*
X20575Y410625D01*
X20700Y410675D01*
X20838Y410738D01*
Y410275D01*
X20825D01*
X20812Y410262D01*
X20775Y410250D01*
X20738Y410225D01*
X20613Y410175D01*
X20450Y410125D01*
X20250Y410063D01*
X20025Y410012D01*
X19775Y409975D01*
X19500Y409963D01*
X19412D01*
X19338Y409975D01*
X19263D01*
X19175Y409987D01*
X18950Y410025D01*
X18712Y410075D01*
X18462Y410162D01*
X18200Y410275D01*
X17975Y410437D01*
X17950Y410463D01*
X17925Y410488D01*
X17887Y410537D01*
X17838Y410588D01*
X17787Y410650D01*
X17738Y410738D01*
X17687Y410838D01*
X17625Y410938D01*
X17575Y411062D01*
X17525Y411212D01*
X17475Y411363D01*
X17437Y411538D01*
X17400Y411725D01*
X17375Y411938D01*
X17363Y412162D01*
Y412175D01*
Y412213D01*
Y412275D01*
X17350Y412362D01*
Y412463D01*
X17337Y412575D01*
X17312Y412838D01*
X17263Y413112D01*
X17212Y413375D01*
X17175Y413500D01*
X17138Y413613D01*
X17087Y413713D01*
X17038Y413788D01*
X17025Y413800D01*
X16975Y413850D01*
X16913Y413912D01*
X16800Y413987D01*
X16650Y414050D01*
X16475Y414113D01*
X16250Y414162D01*
X15988Y414175D01*
X15550D01*
Y410400D01*
X16625D01*
Y410000D01*
X12513D01*
Y410400D01*
X13550D01*
Y417788D01*
X12513D01*
Y418188D01*
X16800D01*
X16938Y418175D01*
D02*
G37*
G36*
X9175D02*
X9313Y418162D01*
X9475Y418150D01*
X9650Y418138D01*
X9838Y418113D01*
X10250Y418025D01*
X10650Y417912D01*
X10850Y417837D01*
X11038Y417750D01*
X11200Y417650D01*
X11350Y417537D01*
X11362Y417525D01*
X11388Y417513D01*
X11412Y417475D01*
X11462Y417425D01*
X11525Y417362D01*
X11587Y417287D01*
X11725Y417100D01*
X11850Y416875D01*
X11975Y416625D01*
X12025Y416475D01*
X12050Y416325D01*
X12075Y416175D01*
X12088Y416012D01*
Y416000D01*
Y415975D01*
Y415925D01*
X12075Y415863D01*
X12062Y415788D01*
X12050Y415700D01*
X11987Y415487D01*
X11887Y415250D01*
X11825Y415125D01*
X11738Y415000D01*
X11650Y414862D01*
X11537Y414738D01*
X11412Y414600D01*
X11263Y414475D01*
X11250Y414463D01*
X11225Y414450D01*
X11175Y414412D01*
X11100Y414375D01*
X11012Y414325D01*
X10900Y414275D01*
X10763Y414213D01*
X10600Y414150D01*
X10413Y414087D01*
X10200Y414025D01*
X9962Y413975D01*
X9713Y413925D01*
X9425Y413888D01*
X9100Y413850D01*
X8762Y413837D01*
X8388Y413825D01*
X8025D01*
Y410400D01*
X9200D01*
Y410000D01*
X5000D01*
Y410400D01*
X6025D01*
Y417788D01*
X5000D01*
Y418188D01*
X9050D01*
X9175Y418175D01*
D02*
G37*
G36*
X33163Y418300D02*
X33237D01*
X33338Y418288D01*
X33550Y418237D01*
X33788Y418162D01*
X34062Y418062D01*
X34337Y417912D01*
X34475Y417812D01*
X34613Y417712D01*
X34625Y417725D01*
X34663Y417750D01*
X34712Y417788D01*
X34775Y417837D01*
X34925Y417950D01*
X35075Y418100D01*
X35425D01*
X35475Y415812D01*
X35075D01*
X35063Y415837D01*
X35050Y415900D01*
X35013Y416012D01*
X34962Y416138D01*
X34900Y416300D01*
X34825Y416475D01*
X34725Y416663D01*
X34613Y416862D01*
X34488Y417063D01*
X34337Y417250D01*
X34163Y417425D01*
X33988Y417588D01*
X33775Y417725D01*
X33562Y417825D01*
X33312Y417887D01*
X33050Y417912D01*
X33025D01*
X32937Y417900D01*
X32825Y417887D01*
X32688Y417837D01*
X32525Y417775D01*
X32375Y417662D01*
X32225Y417525D01*
X32162Y417425D01*
X32100Y417325D01*
Y417312D01*
X32087Y417300D01*
X32075Y417263D01*
X32050Y417212D01*
X32037Y417137D01*
X32013Y417050D01*
X31988Y416937D01*
X31962Y416813D01*
X31925Y416663D01*
X31900Y416500D01*
X31875Y416300D01*
X31863Y416087D01*
X31837Y415850D01*
X31825Y415575D01*
X31813Y415287D01*
Y414962D01*
Y414950D01*
Y414925D01*
Y414875D01*
Y414825D01*
Y414750D01*
Y414650D01*
Y414550D01*
Y414437D01*
X31825Y414175D01*
Y413888D01*
Y413562D01*
X31837Y413225D01*
X31863Y412537D01*
X31875Y412213D01*
X31900Y411900D01*
X31925Y411600D01*
X31950Y411350D01*
X31962Y411237D01*
X31975Y411150D01*
X32000Y411062D01*
X32013Y410988D01*
Y410975D01*
X32025Y410962D01*
X32063Y410887D01*
X32125Y410775D01*
X32212Y410663D01*
X32337Y410537D01*
X32500Y410425D01*
X32713Y410350D01*
X32825Y410337D01*
X32963Y410325D01*
X33025D01*
X33112Y410337D01*
X33213Y410362D01*
X33338Y410388D01*
X33487Y410437D01*
X33637Y410512D01*
X33812Y410600D01*
X34000Y410712D01*
X34175Y410850D01*
X34363Y411025D01*
X34550Y411237D01*
X34725Y411487D01*
X34900Y411775D01*
X35063Y412113D01*
X35138Y412288D01*
X35200Y412488D01*
X35600D01*
X35475Y409963D01*
X35075D01*
X35063Y409975D01*
X35037Y410000D01*
X35000Y410050D01*
X34950Y410125D01*
X34875Y410200D01*
X34800Y410300D01*
X34613Y410512D01*
X34600Y410500D01*
X34575Y410488D01*
X34538Y410450D01*
X34475Y410413D01*
X34400Y410362D01*
X34312Y410313D01*
X34200Y410262D01*
X34087Y410200D01*
X33825Y410087D01*
X33525Y409987D01*
X33187Y409912D01*
X33013Y409900D01*
X32825Y409888D01*
X32763D01*
X32700Y409900D01*
X32612D01*
X32500Y409925D01*
X32362Y409950D01*
X32212Y409975D01*
X32063Y410025D01*
X31888Y410087D01*
X31700Y410162D01*
X31512Y410250D01*
X31313Y410350D01*
X31125Y410475D01*
X30925Y410625D01*
X30725Y410800D01*
X30538Y410988D01*
X30525Y411000D01*
X30500Y411037D01*
X30450Y411100D01*
X30387Y411188D01*
X30300Y411300D01*
X30225Y411438D01*
X30125Y411600D01*
X30038Y411788D01*
X29950Y411987D01*
X29850Y412213D01*
X29775Y412463D01*
X29700Y412738D01*
X29625Y413025D01*
X29575Y413338D01*
X29550Y413675D01*
X29537Y414025D01*
Y414050D01*
Y414113D01*
X29550Y414213D01*
Y414337D01*
X29563Y414500D01*
X29588Y414687D01*
X29625Y414900D01*
X29662Y415125D01*
X29713Y415363D01*
X29787Y415613D01*
X29862Y415875D01*
X29963Y416125D01*
X30075Y416388D01*
X30213Y416638D01*
X30362Y416888D01*
X30538Y417112D01*
X30550Y417125D01*
X30588Y417163D01*
X30637Y417225D01*
X30713Y417300D01*
X30812Y417387D01*
X30937Y417487D01*
X31062Y417600D01*
X31225Y417712D01*
X31387Y417825D01*
X31587Y417938D01*
X31787Y418038D01*
X32000Y418125D01*
X32237Y418200D01*
X32487Y418262D01*
X32737Y418300D01*
X33013Y418313D01*
X33100D01*
X33163Y418300D01*
D02*
G37*
G36*
X53025D02*
X53100D01*
X53175Y418288D01*
X53363Y418250D01*
X53588Y418188D01*
X53850Y418087D01*
X54112Y417963D01*
X54387Y417788D01*
X54400Y417800D01*
X54438Y417812D01*
X54488Y417850D01*
X54550Y417887D01*
X54625Y417938D01*
X54712Y418000D01*
X54913Y418162D01*
X55313D01*
X55413Y415963D01*
X54925D01*
Y415975D01*
X54913Y416012D01*
X54887Y416062D01*
X54862Y416138D01*
X54825Y416225D01*
X54775Y416325D01*
X54675Y416563D01*
X54537Y416813D01*
X54387Y417063D01*
X54225Y417287D01*
X54125Y417387D01*
X54037Y417475D01*
X54013Y417500D01*
X53950Y417550D01*
X53850Y417613D01*
X53712Y417700D01*
X53537Y417775D01*
X53338Y417850D01*
X53100Y417900D01*
X52850Y417912D01*
X52750D01*
X52637Y417887D01*
X52500Y417863D01*
X52350Y417825D01*
X52175Y417750D01*
X52012Y417662D01*
X51863Y417537D01*
X51850Y417525D01*
X51800Y417475D01*
X51750Y417387D01*
X51675Y417287D01*
X51613Y417163D01*
X51550Y417013D01*
X51500Y416850D01*
X51487Y416675D01*
Y416663D01*
Y416650D01*
X51500Y416575D01*
X51512Y416475D01*
X51538Y416337D01*
X51587Y416200D01*
X51662Y416062D01*
X51750Y415938D01*
X51888Y415837D01*
X51912Y415825D01*
X51963Y415800D01*
X52062Y415750D01*
X52213Y415700D01*
X52400Y415637D01*
X52513Y415600D01*
X52637Y415562D01*
X52775Y415525D01*
X52938Y415475D01*
X53100Y415438D01*
X53275Y415400D01*
X53288D01*
X53338Y415387D01*
X53412Y415363D01*
X53525Y415338D01*
X53637Y415300D01*
X53775Y415263D01*
X53938Y415212D01*
X54100Y415163D01*
X54438Y415025D01*
X54763Y414850D01*
X54925Y414762D01*
X55063Y414650D01*
X55187Y414537D01*
X55300Y414425D01*
X55313Y414412D01*
X55325Y414400D01*
X55350Y414362D01*
X55388Y414313D01*
X55425Y414250D01*
X55462Y414162D01*
X55512Y414075D01*
X55563Y413975D01*
X55663Y413737D01*
X55738Y413450D01*
X55800Y413137D01*
X55825Y412775D01*
Y412762D01*
Y412725D01*
Y412663D01*
X55813Y412575D01*
X55800Y412475D01*
X55787Y412350D01*
X55762Y412225D01*
X55738Y412075D01*
X55663Y411750D01*
X55537Y411412D01*
X55462Y411237D01*
X55362Y411075D01*
X55263Y410900D01*
X55137Y410738D01*
X55125Y410725D01*
X55100Y410700D01*
X55063Y410663D01*
X55013Y410600D01*
X54937Y410537D01*
X54850Y410475D01*
X54750Y410388D01*
X54637Y410313D01*
X54513Y410238D01*
X54375Y410162D01*
X54212Y410087D01*
X54037Y410025D01*
X53863Y409963D01*
X53663Y409925D01*
X53450Y409900D01*
X53225Y409888D01*
X53137D01*
X53075Y409900D01*
X53000D01*
X52912Y409912D01*
X52700Y409963D01*
X52450Y410025D01*
X52188Y410125D01*
X51912Y410262D01*
X51775Y410337D01*
X51638Y410437D01*
X51625Y410425D01*
X51575Y410388D01*
X51512Y410337D01*
X51437Y410275D01*
X51337Y410187D01*
X51237Y410100D01*
X51025Y409912D01*
X50625D01*
Y412300D01*
X51087D01*
X51100Y412275D01*
X51113Y412213D01*
X51150Y412113D01*
X51200Y411987D01*
X51262Y411837D01*
X51337Y411662D01*
X51437Y411487D01*
X51550Y411300D01*
X51688Y411112D01*
X51837Y410925D01*
X52012Y410750D01*
X52200Y410600D01*
X52412Y410475D01*
X52650Y410375D01*
X52912Y410313D01*
X53188Y410288D01*
X53263D01*
X53325Y410300D01*
X53475Y410313D01*
X53663Y410350D01*
X53863Y410400D01*
X54075Y410488D01*
X54275Y410600D01*
X54462Y410763D01*
X54488Y410787D01*
X54537Y410850D01*
X54600Y410950D01*
X54688Y411088D01*
X54775Y411237D01*
X54838Y411425D01*
X54887Y411637D01*
X54913Y411850D01*
Y411863D01*
Y411900D01*
X54900Y411963D01*
X54887Y412050D01*
X54862Y412138D01*
X54825Y412238D01*
X54775Y412337D01*
X54712Y412437D01*
X54700Y412450D01*
X54675Y412488D01*
X54637Y412537D01*
X54575Y412600D01*
X54438Y412738D01*
X54250Y412875D01*
X54238Y412887D01*
X54188Y412900D01*
X54100Y412937D01*
X54050Y412962D01*
X53975Y412988D01*
X53887Y413013D01*
X53787Y413050D01*
X53675Y413075D01*
X53537Y413112D01*
X53387Y413150D01*
X53225Y413188D01*
X53038Y413237D01*
X52825Y413275D01*
X52812D01*
X52775Y413287D01*
X52713Y413300D01*
X52637Y413325D01*
X52538Y413350D01*
X52425Y413387D01*
X52175Y413487D01*
X51900Y413600D01*
X51613Y413763D01*
X51350Y413950D01*
X51237Y414062D01*
X51125Y414175D01*
Y414187D01*
X51100Y414200D01*
X51075Y414237D01*
X51038Y414288D01*
X51000Y414350D01*
X50950Y414437D01*
X50862Y414625D01*
X50762Y414862D01*
X50675Y415137D01*
X50612Y415450D01*
X50600Y415625D01*
X50587Y415800D01*
Y415812D01*
Y415850D01*
Y415900D01*
X50600Y415975D01*
X50612Y416062D01*
X50625Y416175D01*
X50638Y416288D01*
X50675Y416412D01*
X50750Y416700D01*
X50862Y416988D01*
X50937Y417137D01*
X51038Y417287D01*
X51138Y417438D01*
X51250Y417575D01*
X51262Y417588D01*
X51275Y417613D01*
X51313Y417637D01*
X51375Y417688D01*
X51437Y417750D01*
X51512Y417812D01*
X51600Y417875D01*
X51700Y417950D01*
X51950Y418075D01*
X52225Y418200D01*
X52387Y418250D01*
X52550Y418275D01*
X52725Y418300D01*
X52900Y418313D01*
X52975D01*
X53025Y418300D01*
D02*
G37*
G36*
X16874Y178331D02*
X17041D01*
X17249Y178289D01*
X17478Y178248D01*
X17749Y178206D01*
X18061Y178123D01*
X18374Y178019D01*
X18707Y177894D01*
X19061Y177748D01*
X19415Y177560D01*
X19769Y177352D01*
X20144Y177102D01*
X20498Y176831D01*
X20853Y176498D01*
X20873Y176477D01*
X20936Y176415D01*
X21019Y176311D01*
X21144Y176165D01*
X21290Y175977D01*
X21457Y175748D01*
X21623Y175477D01*
X21790Y175165D01*
X21957Y174811D01*
X22144Y174415D01*
X22290Y173998D01*
X22436Y173519D01*
X22561Y173020D01*
X22644Y172478D01*
X22706Y171915D01*
X22727Y171291D01*
Y171249D01*
Y171145D01*
X22706Y170978D01*
Y170770D01*
X22665Y170499D01*
X22644Y170187D01*
X22581Y169853D01*
X22498Y169478D01*
X22415Y169062D01*
X22290Y168666D01*
X22144Y168229D01*
X21977Y167812D01*
X21769Y167395D01*
X21540Y166979D01*
X21269Y166583D01*
X20957Y166208D01*
X20936Y166187D01*
X20873Y166125D01*
X20769Y166041D01*
X20644Y165916D01*
X20478Y165771D01*
X20269Y165604D01*
X20040Y165437D01*
X19769Y165271D01*
X19457Y165083D01*
X19144Y164917D01*
X18790Y164750D01*
X18415Y164604D01*
X17999Y164479D01*
X17582Y164396D01*
X17124Y164333D01*
X16666Y164313D01*
X16541D01*
X16395Y164333D01*
X16207Y164354D01*
X15978Y164375D01*
X15708Y164417D01*
X15416Y164479D01*
X15083Y164562D01*
X14749Y164667D01*
X14374Y164812D01*
X13999Y164979D01*
X13624Y165167D01*
X13270Y165396D01*
X12895Y165666D01*
X12541Y165979D01*
X12208Y166333D01*
X12187Y166354D01*
X12146Y166416D01*
X12041Y166541D01*
X11937Y166687D01*
X11812Y166895D01*
X11666Y167125D01*
X11521Y167416D01*
X11354Y167729D01*
X11187Y168062D01*
X11042Y168458D01*
X10896Y168874D01*
X10771Y169312D01*
X10667Y169791D01*
X10583Y170291D01*
X10521Y170811D01*
X10500Y171374D01*
Y171416D01*
Y171520D01*
X10521Y171666D01*
Y171874D01*
X10563Y172145D01*
X10604Y172457D01*
X10646Y172790D01*
X10729Y173144D01*
X10833Y173540D01*
X10937Y173936D01*
X11083Y174353D01*
X11271Y174790D01*
X11479Y175207D01*
X11708Y175623D01*
X12000Y176019D01*
X12312Y176394D01*
X12333Y176415D01*
X12395Y176477D01*
X12500Y176581D01*
X12645Y176706D01*
X12812Y176852D01*
X13020Y177019D01*
X13270Y177185D01*
X13541Y177373D01*
X13833Y177560D01*
X14166Y177727D01*
X14520Y177894D01*
X14895Y178040D01*
X15312Y178165D01*
X15728Y178269D01*
X16187Y178331D01*
X16645Y178352D01*
X16749D01*
X16874Y178331D01*
D02*
G37*
G36*
X43225Y415900D02*
X42825D01*
Y415912D01*
X42812Y415950D01*
X42788Y416012D01*
X42750Y416087D01*
X42713Y416175D01*
X42675Y416288D01*
X42562Y416525D01*
X42425Y416775D01*
X42250Y417025D01*
X42162Y417137D01*
X42075Y417250D01*
X41963Y417338D01*
X41862Y417413D01*
X41850D01*
X41837Y417425D01*
X41800Y417450D01*
X41763Y417475D01*
X41638Y417537D01*
X41462Y417600D01*
X41238Y417675D01*
X40988Y417725D01*
X40688Y417775D01*
X40350Y417788D01*
X39287D01*
Y414325D01*
X39588D01*
X39663Y414337D01*
X39737Y414350D01*
X39838Y414375D01*
X39950Y414400D01*
X40075Y414450D01*
X40200Y414512D01*
X40337Y414587D01*
X40462Y414675D01*
X40587Y414800D01*
X40700Y414937D01*
X40813Y415100D01*
X40900Y415300D01*
X40975Y415525D01*
X41025Y415775D01*
X41425D01*
Y412425D01*
X41025D01*
Y412437D01*
X41012Y412488D01*
X41000Y412563D01*
X40988Y412663D01*
X40962Y412775D01*
X40913Y412900D01*
X40863Y413037D01*
X40800Y413175D01*
X40712Y413312D01*
X40613Y413450D01*
X40488Y413575D01*
X40350Y413688D01*
X40187Y413788D01*
X40000Y413863D01*
X39775Y413912D01*
X39538Y413925D01*
X39287D01*
Y410400D01*
X40762D01*
X40863Y410413D01*
X40988Y410437D01*
X41137Y410475D01*
X41300Y410525D01*
X41488Y410588D01*
X41688Y410687D01*
X41888Y410813D01*
X42088Y410962D01*
X42300Y411137D01*
X42487Y411363D01*
X42675Y411625D01*
X42838Y411938D01*
X42925Y412100D01*
X42987Y412288D01*
X43050Y412475D01*
X43112Y412687D01*
X43538D01*
X43363Y410000D01*
X36250D01*
Y410400D01*
X37288D01*
Y417788D01*
X36250D01*
Y418188D01*
X43112D01*
X43225Y415900D01*
D02*
G37*
G36*
X46887Y418300D02*
X46962D01*
X47038Y418288D01*
X47225Y418250D01*
X47450Y418188D01*
X47712Y418087D01*
X47975Y417963D01*
X48250Y417788D01*
X48263Y417800D01*
X48300Y417812D01*
X48350Y417850D01*
X48412Y417887D01*
X48487Y417938D01*
X48575Y418000D01*
X48775Y418162D01*
X49175D01*
X49275Y415963D01*
X48788D01*
Y415975D01*
X48775Y416012D01*
X48750Y416062D01*
X48725Y416138D01*
X48687Y416225D01*
X48638Y416325D01*
X48537Y416563D01*
X48400Y416813D01*
X48250Y417063D01*
X48087Y417287D01*
X47987Y417387D01*
X47900Y417475D01*
X47875Y417500D01*
X47813Y417550D01*
X47712Y417613D01*
X47575Y417700D01*
X47400Y417775D01*
X47200Y417850D01*
X46962Y417900D01*
X46712Y417912D01*
X46613D01*
X46500Y417887D01*
X46363Y417863D01*
X46213Y417825D01*
X46038Y417750D01*
X45875Y417662D01*
X45725Y417537D01*
X45713Y417525D01*
X45663Y417475D01*
X45612Y417387D01*
X45537Y417287D01*
X45475Y417163D01*
X45412Y417013D01*
X45362Y416850D01*
X45350Y416675D01*
Y416663D01*
Y416650D01*
X45362Y416575D01*
X45375Y416475D01*
X45400Y416337D01*
X45450Y416200D01*
X45525Y416062D01*
X45612Y415938D01*
X45750Y415837D01*
X45775Y415825D01*
X45825Y415800D01*
X45925Y415750D01*
X46075Y415700D01*
X46262Y415637D01*
X46375Y415600D01*
X46500Y415562D01*
X46637Y415525D01*
X46800Y415475D01*
X46962Y415438D01*
X47137Y415400D01*
X47150D01*
X47200Y415387D01*
X47275Y415363D01*
X47387Y415338D01*
X47500Y415300D01*
X47638Y415263D01*
X47800Y415212D01*
X47962Y415163D01*
X48300Y415025D01*
X48625Y414850D01*
X48788Y414762D01*
X48925Y414650D01*
X49050Y414537D01*
X49163Y414425D01*
X49175Y414412D01*
X49187Y414400D01*
X49213Y414362D01*
X49250Y414313D01*
X49288Y414250D01*
X49325Y414162D01*
X49375Y414075D01*
X49425Y413975D01*
X49525Y413737D01*
X49600Y413450D01*
X49663Y413137D01*
X49687Y412775D01*
Y412762D01*
Y412725D01*
Y412663D01*
X49675Y412575D01*
X49663Y412475D01*
X49650Y412350D01*
X49625Y412225D01*
X49600Y412075D01*
X49525Y411750D01*
X49400Y411412D01*
X49325Y411237D01*
X49225Y411075D01*
X49125Y410900D01*
X49000Y410738D01*
X48987Y410725D01*
X48963Y410700D01*
X48925Y410663D01*
X48875Y410600D01*
X48800Y410537D01*
X48713Y410475D01*
X48612Y410388D01*
X48500Y410313D01*
X48375Y410238D01*
X48237Y410162D01*
X48075Y410087D01*
X47900Y410025D01*
X47725Y409963D01*
X47525Y409925D01*
X47313Y409900D01*
X47087Y409888D01*
X47000D01*
X46938Y409900D01*
X46863D01*
X46775Y409912D01*
X46562Y409963D01*
X46312Y410025D01*
X46050Y410125D01*
X45775Y410262D01*
X45638Y410337D01*
X45500Y410437D01*
X45487Y410425D01*
X45437Y410388D01*
X45375Y410337D01*
X45300Y410275D01*
X45200Y410187D01*
X45100Y410100D01*
X44888Y409912D01*
X44488D01*
Y412300D01*
X44950D01*
X44962Y412275D01*
X44975Y412213D01*
X45013Y412113D01*
X45063Y411987D01*
X45125Y411837D01*
X45200Y411662D01*
X45300Y411487D01*
X45412Y411300D01*
X45550Y411112D01*
X45700Y410925D01*
X45875Y410750D01*
X46062Y410600D01*
X46275Y410475D01*
X46512Y410375D01*
X46775Y410313D01*
X47050Y410288D01*
X47125D01*
X47188Y410300D01*
X47337Y410313D01*
X47525Y410350D01*
X47725Y410400D01*
X47938Y410488D01*
X48138Y410600D01*
X48325Y410763D01*
X48350Y410787D01*
X48400Y410850D01*
X48463Y410950D01*
X48550Y411088D01*
X48638Y411237D01*
X48700Y411425D01*
X48750Y411637D01*
X48775Y411850D01*
Y411863D01*
Y411900D01*
X48763Y411963D01*
X48750Y412050D01*
X48725Y412138D01*
X48687Y412238D01*
X48638Y412337D01*
X48575Y412437D01*
X48562Y412450D01*
X48537Y412488D01*
X48500Y412537D01*
X48438Y412600D01*
X48300Y412738D01*
X48112Y412875D01*
X48100Y412887D01*
X48050Y412900D01*
X47962Y412937D01*
X47912Y412962D01*
X47837Y412988D01*
X47750Y413013D01*
X47650Y413050D01*
X47537Y413075D01*
X47400Y413112D01*
X47250Y413150D01*
X47087Y413188D01*
X46900Y413237D01*
X46687Y413275D01*
X46675D01*
X46637Y413287D01*
X46575Y413300D01*
X46500Y413325D01*
X46400Y413350D01*
X46288Y413387D01*
X46038Y413487D01*
X45763Y413600D01*
X45475Y413763D01*
X45213Y413950D01*
X45100Y414062D01*
X44987Y414175D01*
Y414187D01*
X44962Y414200D01*
X44938Y414237D01*
X44900Y414288D01*
X44862Y414350D01*
X44813Y414437D01*
X44725Y414625D01*
X44625Y414862D01*
X44537Y415137D01*
X44475Y415450D01*
X44462Y415625D01*
X44450Y415800D01*
Y415812D01*
Y415850D01*
Y415900D01*
X44462Y415975D01*
X44475Y416062D01*
X44488Y416175D01*
X44500Y416288D01*
X44537Y416412D01*
X44613Y416700D01*
X44725Y416988D01*
X44800Y417137D01*
X44900Y417287D01*
X45000Y417438D01*
X45112Y417575D01*
X45125Y417588D01*
X45138Y417613D01*
X45175Y417637D01*
X45237Y417688D01*
X45300Y417750D01*
X45375Y417812D01*
X45463Y417875D01*
X45562Y417950D01*
X45812Y418075D01*
X46088Y418200D01*
X46250Y418250D01*
X46413Y418275D01*
X46587Y418300D01*
X46762Y418313D01*
X46837D01*
X46887Y418300D01*
D02*
G37*
G36*
X13575Y337300D02*
X13675D01*
X13800Y337275D01*
X13938Y337250D01*
X14100Y337225D01*
X14288Y337175D01*
X14475Y337112D01*
X14675Y337037D01*
X14887Y336950D01*
X15100Y336838D01*
X15313Y336713D01*
X15538Y336562D01*
X15750Y336400D01*
X15962Y336200D01*
X15975Y336188D01*
X16013Y336150D01*
X16062Y336087D01*
X16138Y336000D01*
X16225Y335888D01*
X16325Y335750D01*
X16425Y335588D01*
X16525Y335400D01*
X16625Y335188D01*
X16737Y334950D01*
X16825Y334700D01*
X16913Y334413D01*
X16987Y334113D01*
X17038Y333787D01*
X17075Y333450D01*
X17087Y333075D01*
Y333050D01*
Y332987D01*
X17075Y332888D01*
Y332763D01*
X17050Y332600D01*
X17038Y332413D01*
X17000Y332212D01*
X16950Y331988D01*
X16900Y331737D01*
X16825Y331500D01*
X16737Y331238D01*
X16637Y330988D01*
X16512Y330737D01*
X16375Y330487D01*
X16213Y330250D01*
X16025Y330025D01*
X16013Y330012D01*
X15975Y329975D01*
X15913Y329925D01*
X15837Y329850D01*
X15737Y329763D01*
X15612Y329662D01*
X15475Y329562D01*
X15313Y329463D01*
X15125Y329350D01*
X14938Y329250D01*
X14725Y329150D01*
X14500Y329063D01*
X14250Y328988D01*
X14000Y328938D01*
X13725Y328900D01*
X13450Y328888D01*
X13375D01*
X13287Y328900D01*
X13175Y328912D01*
X13037Y328925D01*
X12875Y328950D01*
X12700Y328988D01*
X12500Y329037D01*
X12300Y329100D01*
X12075Y329187D01*
X11850Y329288D01*
X11625Y329400D01*
X11412Y329538D01*
X11187Y329700D01*
X10975Y329888D01*
X10775Y330100D01*
X10763Y330113D01*
X10738Y330150D01*
X10675Y330225D01*
X10612Y330312D01*
X10537Y330437D01*
X10450Y330575D01*
X10362Y330750D01*
X10262Y330938D01*
X10163Y331137D01*
X10075Y331375D01*
X9988Y331625D01*
X9912Y331888D01*
X9850Y332175D01*
X9800Y332475D01*
X9763Y332787D01*
X9750Y333125D01*
Y333150D01*
Y333212D01*
X9763Y333300D01*
Y333425D01*
X9787Y333588D01*
X9813Y333775D01*
X9838Y333975D01*
X9888Y334188D01*
X9950Y334425D01*
X10012Y334663D01*
X10100Y334912D01*
X10212Y335175D01*
X10338Y335425D01*
X10475Y335675D01*
X10650Y335912D01*
X10837Y336138D01*
X10850Y336150D01*
X10887Y336188D01*
X10950Y336250D01*
X11038Y336325D01*
X11137Y336413D01*
X11263Y336512D01*
X11412Y336613D01*
X11575Y336725D01*
X11750Y336838D01*
X11950Y336937D01*
X12162Y337037D01*
X12387Y337125D01*
X12638Y337200D01*
X12888Y337263D01*
X13162Y337300D01*
X13438Y337313D01*
X13500D01*
X13575Y337300D01*
D02*
G37*
G36*
X49687Y336788D02*
X49150D01*
X49062Y336775D01*
X48963Y336762D01*
X48875Y336737D01*
X48800Y336713D01*
X48750Y336675D01*
X48737Y336650D01*
X48725Y336613D01*
X48700Y336562D01*
X48687Y336488D01*
X48662Y336375D01*
X48650Y336250D01*
Y336087D01*
Y331850D01*
Y331838D01*
Y331813D01*
Y331775D01*
Y331713D01*
Y331650D01*
X48638Y331562D01*
X48625Y331375D01*
X48612Y331150D01*
X48588Y330912D01*
X48537Y330675D01*
X48487Y330437D01*
Y330425D01*
X48475Y330413D01*
X48450Y330338D01*
X48400Y330225D01*
X48325Y330075D01*
X48225Y329912D01*
X48075Y329737D01*
X47888Y329550D01*
X47662Y329363D01*
X47650D01*
X47625Y329338D01*
X47587Y329325D01*
X47537Y329288D01*
X47462Y329250D01*
X47375Y329212D01*
X47275Y329175D01*
X47150Y329125D01*
X47012Y329075D01*
X46863Y329037D01*
X46687Y329000D01*
X46512Y328962D01*
X46300Y328938D01*
X46088Y328912D01*
X45850Y328888D01*
X45412D01*
X45325Y328900D01*
X45150Y328912D01*
X44925Y328925D01*
X44688Y328962D01*
X44425Y329000D01*
X44162Y329050D01*
X44150D01*
X44137Y329063D01*
X44100D01*
X44050Y329087D01*
X43925Y329125D01*
X43762Y329187D01*
X43587Y329262D01*
X43400Y329363D01*
X43213Y329487D01*
X43038Y329638D01*
X43025Y329662D01*
X42963Y329713D01*
X42887Y329800D01*
X42800Y329912D01*
X42713Y330050D01*
X42625Y330200D01*
X42550Y330363D01*
X42487Y330525D01*
Y330550D01*
X42475Y330600D01*
X42450Y330700D01*
X42437Y330825D01*
X42412Y330975D01*
X42388Y331150D01*
X42375Y331350D01*
Y331562D01*
Y336788D01*
X41300D01*
Y337188D01*
X45500D01*
Y336788D01*
X44375D01*
Y331500D01*
Y331487D01*
Y331450D01*
Y331375D01*
X44388Y331300D01*
Y331188D01*
X44400Y331075D01*
X44438Y330813D01*
X44488Y330525D01*
X44575Y330250D01*
X44625Y330113D01*
X44688Y330000D01*
X44763Y329888D01*
X44837Y329800D01*
X44862Y329787D01*
X44925Y329737D01*
X45025Y329662D01*
X45175Y329588D01*
X45350Y329513D01*
X45562Y329437D01*
X45812Y329387D01*
X46100Y329375D01*
X46200D01*
X46312Y329387D01*
X46463Y329400D01*
X46625Y329425D01*
X46812Y329475D01*
X46988Y329525D01*
X47175Y329600D01*
X47200Y329612D01*
X47250Y329638D01*
X47350Y329700D01*
X47450Y329775D01*
X47575Y329862D01*
X47700Y329975D01*
X47825Y330113D01*
X47938Y330275D01*
X47950Y330300D01*
X47987Y330363D01*
X48025Y330475D01*
X48050Y330550D01*
X48087Y330638D01*
X48112Y330737D01*
X48138Y330850D01*
X48162Y330975D01*
X48175Y331125D01*
X48200Y331275D01*
X48213Y331437D01*
X48225Y331625D01*
Y331825D01*
Y336138D01*
Y336162D01*
Y336200D01*
Y336275D01*
X48213Y336363D01*
X48200Y336550D01*
X48188Y336625D01*
X48162Y336675D01*
X48150Y336687D01*
X48125Y336713D01*
X48075Y336737D01*
X48013Y336750D01*
X47925Y336775D01*
X47800Y336788D01*
X47087D01*
Y337188D01*
X49687D01*
Y336788D01*
D02*
G37*
G36*
X54450Y337175D02*
X54600D01*
X54787Y337150D01*
X54988Y337138D01*
X55200Y337112D01*
X55650Y337037D01*
X56100Y336925D01*
X56313Y336862D01*
X56500Y336775D01*
X56675Y336687D01*
X56825Y336575D01*
X56837Y336562D01*
X56862Y336550D01*
X56888Y336512D01*
X56937Y336475D01*
X57050Y336350D01*
X57187Y336188D01*
X57325Y336000D01*
X57437Y335775D01*
X57487Y335663D01*
X57525Y335538D01*
X57538Y335413D01*
X57550Y335287D01*
Y335275D01*
Y335250D01*
Y335212D01*
X57538Y335162D01*
X57512Y335025D01*
X57463Y334850D01*
X57388Y334650D01*
X57275Y334450D01*
X57200Y334337D01*
X57112Y334225D01*
X57000Y334125D01*
X56888Y334025D01*
X56875D01*
X56862Y334000D01*
X56813Y333975D01*
X56762Y333938D01*
X56700Y333900D01*
X56612Y333850D01*
X56512Y333800D01*
X56388Y333750D01*
X56262Y333687D01*
X56112Y333637D01*
X55950Y333575D01*
X55775Y333525D01*
X55588Y333475D01*
X55375Y333425D01*
X55150Y333387D01*
X54913Y333350D01*
Y333325D01*
X54925D01*
X54962Y333313D01*
X55013Y333300D01*
X55075Y333275D01*
X55163Y333250D01*
X55250Y333225D01*
X55462Y333150D01*
X55712Y333050D01*
X55950Y332938D01*
X56187Y332812D01*
X56388Y332663D01*
X56413Y332650D01*
X56463Y332588D01*
X56550Y332500D01*
X56650Y332400D01*
X56762Y332262D01*
X56862Y332100D01*
X56950Y331938D01*
X57012Y331750D01*
Y331725D01*
X57038Y331663D01*
X57050Y331550D01*
X57075Y331413D01*
X57100Y331238D01*
X57112Y331037D01*
X57138Y330800D01*
Y330550D01*
Y330538D01*
Y330525D01*
Y330487D01*
Y330437D01*
X57150Y330325D01*
X57162Y330188D01*
X57175Y330037D01*
X57187Y329900D01*
X57213Y329787D01*
X57250Y329700D01*
Y329688D01*
X57275Y329675D01*
X57300Y329650D01*
X57337Y329625D01*
X57400Y329588D01*
X57463Y329562D01*
X57550Y329550D01*
X57650Y329538D01*
X57713D01*
X57775Y329550D01*
X57863Y329562D01*
X57963Y329588D01*
X58087Y329625D01*
X58213Y329675D01*
X58350Y329737D01*
Y329275D01*
X58337D01*
X58325Y329262D01*
X58288Y329250D01*
X58250Y329225D01*
X58125Y329175D01*
X57963Y329125D01*
X57762Y329063D01*
X57538Y329012D01*
X57288Y328975D01*
X57012Y328962D01*
X56925D01*
X56850Y328975D01*
X56775D01*
X56687Y328988D01*
X56463Y329025D01*
X56225Y329075D01*
X55975Y329163D01*
X55712Y329275D01*
X55488Y329437D01*
X55462Y329463D01*
X55437Y329487D01*
X55400Y329538D01*
X55350Y329588D01*
X55300Y329650D01*
X55250Y329737D01*
X55200Y329837D01*
X55137Y329938D01*
X55088Y330063D01*
X55037Y330212D01*
X54988Y330363D01*
X54950Y330538D01*
X54913Y330725D01*
X54887Y330938D01*
X54875Y331163D01*
Y331175D01*
Y331212D01*
Y331275D01*
X54862Y331363D01*
Y331463D01*
X54850Y331575D01*
X54825Y331838D01*
X54775Y332113D01*
X54725Y332375D01*
X54688Y332500D01*
X54650Y332612D01*
X54600Y332713D01*
X54550Y332787D01*
X54537Y332800D01*
X54488Y332850D01*
X54425Y332912D01*
X54312Y332987D01*
X54163Y333050D01*
X53987Y333113D01*
X53763Y333162D01*
X53500Y333175D01*
X53062D01*
Y329400D01*
X54137D01*
Y329000D01*
X50025D01*
Y329400D01*
X51063D01*
Y336788D01*
X50025D01*
Y337188D01*
X54312D01*
X54450Y337175D01*
D02*
G37*
G36*
X37187Y337300D02*
X37288D01*
X37413Y337275D01*
X37550Y337250D01*
X37712Y337225D01*
X37900Y337175D01*
X38087Y337112D01*
X38287Y337037D01*
X38500Y336950D01*
X38712Y336838D01*
X38925Y336713D01*
X39150Y336562D01*
X39362Y336400D01*
X39575Y336200D01*
X39588Y336188D01*
X39625Y336150D01*
X39675Y336087D01*
X39750Y336000D01*
X39838Y335888D01*
X39937Y335750D01*
X40038Y335588D01*
X40137Y335400D01*
X40238Y335188D01*
X40350Y334950D01*
X40437Y334700D01*
X40525Y334413D01*
X40600Y334113D01*
X40650Y333787D01*
X40688Y333450D01*
X40700Y333075D01*
Y333050D01*
Y332987D01*
X40688Y332888D01*
Y332763D01*
X40663Y332600D01*
X40650Y332413D01*
X40613Y332212D01*
X40562Y331988D01*
X40512Y331737D01*
X40437Y331500D01*
X40350Y331238D01*
X40250Y330988D01*
X40125Y330737D01*
X39987Y330487D01*
X39825Y330250D01*
X39638Y330025D01*
X39625Y330012D01*
X39588Y329975D01*
X39525Y329925D01*
X39450Y329850D01*
X39350Y329763D01*
X39225Y329662D01*
X39088Y329562D01*
X38925Y329463D01*
X38737Y329350D01*
X38550Y329250D01*
X38337Y329150D01*
X38113Y329063D01*
X37863Y328988D01*
X37613Y328938D01*
X37337Y328900D01*
X37062Y328888D01*
X36988D01*
X36900Y328900D01*
X36788Y328912D01*
X36650Y328925D01*
X36487Y328950D01*
X36312Y328988D01*
X36112Y329037D01*
X35912Y329100D01*
X35688Y329187D01*
X35462Y329288D01*
X35238Y329400D01*
X35025Y329538D01*
X34800Y329700D01*
X34587Y329888D01*
X34387Y330100D01*
X34375Y330113D01*
X34350Y330150D01*
X34288Y330225D01*
X34225Y330312D01*
X34150Y330437D01*
X34062Y330575D01*
X33975Y330750D01*
X33875Y330938D01*
X33775Y331137D01*
X33687Y331375D01*
X33600Y331625D01*
X33525Y331888D01*
X33463Y332175D01*
X33413Y332475D01*
X33375Y332787D01*
X33362Y333125D01*
Y333150D01*
Y333212D01*
X33375Y333300D01*
Y333425D01*
X33400Y333588D01*
X33425Y333775D01*
X33450Y333975D01*
X33500Y334188D01*
X33562Y334425D01*
X33625Y334663D01*
X33713Y334912D01*
X33825Y335175D01*
X33950Y335425D01*
X34087Y335675D01*
X34262Y335912D01*
X34450Y336138D01*
X34462Y336150D01*
X34500Y336188D01*
X34563Y336250D01*
X34650Y336325D01*
X34750Y336413D01*
X34875Y336512D01*
X35025Y336613D01*
X35188Y336725D01*
X35362Y336838D01*
X35563Y336937D01*
X35775Y337037D01*
X36000Y337125D01*
X36250Y337200D01*
X36500Y337263D01*
X36775Y337300D01*
X37050Y337313D01*
X37113D01*
X37187Y337300D01*
D02*
G37*
G36*
X25375Y336788D02*
X25000D01*
X24925Y336775D01*
X24825D01*
X24737Y336750D01*
X24637Y336725D01*
X24563Y336687D01*
X24500Y336637D01*
Y336625D01*
X24487Y336613D01*
X24463Y336575D01*
X24450Y336512D01*
X24425Y336438D01*
X24400Y336337D01*
X24387Y336225D01*
Y336075D01*
Y328888D01*
X23963D01*
X19087Y336087D01*
Y330175D01*
Y330150D01*
Y330100D01*
Y330012D01*
X19100Y329912D01*
X19113Y329800D01*
X19125Y329700D01*
X19150Y329600D01*
X19187Y329538D01*
X19212Y329513D01*
X19250Y329500D01*
X19300Y329475D01*
X19375Y329450D01*
X19475Y329425D01*
X19600Y329413D01*
X19762Y329400D01*
X20237D01*
Y329000D01*
X17650D01*
Y329400D01*
X18037D01*
X18125Y329413D01*
X18225Y329425D01*
X18325Y329437D01*
X18425Y329475D01*
X18512Y329513D01*
X18563Y329562D01*
Y329575D01*
X18575Y329600D01*
X18600Y329650D01*
X18612Y329737D01*
X18638Y329850D01*
X18650Y330000D01*
X18663Y330200D01*
Y330312D01*
Y330437D01*
Y336075D01*
Y336100D01*
Y336150D01*
Y336225D01*
X18650Y336325D01*
X18638Y336425D01*
X18625Y336512D01*
X18600Y336600D01*
X18563Y336663D01*
X18538Y336687D01*
X18512Y336700D01*
X18462Y336725D01*
X18400Y336750D01*
X18313Y336762D01*
X18200Y336788D01*
X17613D01*
Y337188D01*
X20700D01*
X23963Y332375D01*
Y335888D01*
Y335900D01*
Y335912D01*
Y335975D01*
Y336075D01*
X23950Y336188D01*
X23937Y336313D01*
X23912Y336425D01*
X23888Y336538D01*
X23850Y336613D01*
Y336625D01*
X23825Y336637D01*
X23787Y336663D01*
X23738Y336700D01*
X23663Y336737D01*
X23550Y336762D01*
X23425Y336775D01*
X23262Y336788D01*
X22887D01*
Y337188D01*
X25375D01*
Y336788D01*
D02*
G37*
G36*
X6625Y337300D02*
X6700D01*
X6800Y337287D01*
X7012Y337238D01*
X7250Y337162D01*
X7525Y337063D01*
X7800Y336912D01*
X7937Y336812D01*
X8075Y336713D01*
X8088Y336725D01*
X8125Y336750D01*
X8175Y336788D01*
X8237Y336838D01*
X8388Y336950D01*
X8538Y337100D01*
X8888D01*
X8937Y334812D01*
X8538D01*
X8525Y334838D01*
X8512Y334900D01*
X8475Y335013D01*
X8425Y335138D01*
X8363Y335300D01*
X8287Y335475D01*
X8187Y335663D01*
X8075Y335862D01*
X7950Y336063D01*
X7800Y336250D01*
X7625Y336425D01*
X7450Y336588D01*
X7237Y336725D01*
X7025Y336825D01*
X6775Y336888D01*
X6513Y336912D01*
X6487D01*
X6400Y336900D01*
X6288Y336888D01*
X6150Y336838D01*
X5988Y336775D01*
X5838Y336663D01*
X5688Y336525D01*
X5625Y336425D01*
X5562Y336325D01*
Y336313D01*
X5550Y336300D01*
X5537Y336262D01*
X5513Y336212D01*
X5500Y336138D01*
X5475Y336050D01*
X5450Y335938D01*
X5425Y335812D01*
X5387Y335663D01*
X5362Y335500D01*
X5337Y335300D01*
X5325Y335087D01*
X5300Y334850D01*
X5288Y334575D01*
X5275Y334288D01*
Y333962D01*
Y333950D01*
Y333925D01*
Y333875D01*
Y333825D01*
Y333750D01*
Y333650D01*
Y333550D01*
Y333437D01*
X5288Y333175D01*
Y332888D01*
Y332562D01*
X5300Y332225D01*
X5325Y331538D01*
X5337Y331212D01*
X5362Y330900D01*
X5387Y330600D01*
X5412Y330350D01*
X5425Y330238D01*
X5438Y330150D01*
X5463Y330063D01*
X5475Y329988D01*
Y329975D01*
X5488Y329962D01*
X5525Y329888D01*
X5587Y329775D01*
X5675Y329662D01*
X5800Y329538D01*
X5962Y329425D01*
X6175Y329350D01*
X6288Y329338D01*
X6425Y329325D01*
X6487D01*
X6575Y329338D01*
X6675Y329363D01*
X6800Y329387D01*
X6950Y329437D01*
X7100Y329513D01*
X7275Y329600D01*
X7463Y329713D01*
X7638Y329850D01*
X7825Y330025D01*
X8012Y330238D01*
X8187Y330487D01*
X8363Y330775D01*
X8525Y331113D01*
X8600Y331288D01*
X8663Y331487D01*
X9063D01*
X8937Y328962D01*
X8538D01*
X8525Y328975D01*
X8500Y329000D01*
X8462Y329050D01*
X8412Y329125D01*
X8337Y329200D01*
X8263Y329300D01*
X8075Y329513D01*
X8062Y329500D01*
X8038Y329487D01*
X8000Y329450D01*
X7937Y329413D01*
X7863Y329363D01*
X7775Y329312D01*
X7662Y329262D01*
X7550Y329200D01*
X7288Y329087D01*
X6988Y328988D01*
X6650Y328912D01*
X6475Y328900D01*
X6288Y328888D01*
X6225D01*
X6163Y328900D01*
X6075D01*
X5962Y328925D01*
X5825Y328950D01*
X5675Y328975D01*
X5525Y329025D01*
X5350Y329087D01*
X5162Y329163D01*
X4975Y329250D01*
X4775Y329350D01*
X4588Y329475D01*
X4388Y329625D01*
X4188Y329800D01*
X4000Y329988D01*
X3988Y330000D01*
X3963Y330037D01*
X3912Y330100D01*
X3850Y330188D01*
X3762Y330300D01*
X3687Y330437D01*
X3588Y330600D01*
X3500Y330787D01*
X3413Y330988D01*
X3312Y331212D01*
X3238Y331463D01*
X3162Y331737D01*
X3087Y332025D01*
X3038Y332337D01*
X3012Y332675D01*
X3000Y333025D01*
Y333050D01*
Y333113D01*
X3012Y333212D01*
Y333337D01*
X3025Y333500D01*
X3050Y333687D01*
X3087Y333900D01*
X3125Y334125D01*
X3175Y334363D01*
X3250Y334612D01*
X3325Y334875D01*
X3425Y335125D01*
X3537Y335387D01*
X3675Y335637D01*
X3825Y335888D01*
X4000Y336112D01*
X4013Y336125D01*
X4050Y336162D01*
X4100Y336225D01*
X4175Y336300D01*
X4275Y336387D01*
X4400Y336488D01*
X4525Y336600D01*
X4688Y336713D01*
X4850Y336825D01*
X5050Y336937D01*
X5250Y337037D01*
X5463Y337125D01*
X5700Y337200D01*
X5950Y337263D01*
X6200Y337300D01*
X6475Y337313D01*
X6562D01*
X6625Y337300D01*
D02*
G37*
G36*
X25238Y418300D02*
X25337D01*
X25462Y418275D01*
X25600Y418250D01*
X25763Y418225D01*
X25950Y418175D01*
X26138Y418113D01*
X26338Y418038D01*
X26550Y417950D01*
X26763Y417837D01*
X26975Y417712D01*
X27200Y417562D01*
X27413Y417400D01*
X27625Y417200D01*
X27637Y417188D01*
X27675Y417150D01*
X27725Y417088D01*
X27800Y417000D01*
X27887Y416888D01*
X27988Y416750D01*
X28087Y416587D01*
X28188Y416400D01*
X28288Y416187D01*
X28400Y415950D01*
X28488Y415700D01*
X28575Y415413D01*
X28650Y415112D01*
X28700Y414787D01*
X28738Y414450D01*
X28750Y414075D01*
Y414050D01*
Y413987D01*
X28738Y413888D01*
Y413763D01*
X28712Y413600D01*
X28700Y413413D01*
X28662Y413212D01*
X28613Y412988D01*
X28563Y412738D01*
X28488Y412500D01*
X28400Y412238D01*
X28300Y411987D01*
X28175Y411737D01*
X28038Y411487D01*
X27875Y411250D01*
X27687Y411025D01*
X27675Y411013D01*
X27637Y410975D01*
X27575Y410925D01*
X27500Y410850D01*
X27400Y410763D01*
X27275Y410663D01*
X27138Y410563D01*
X26975Y410463D01*
X26787Y410350D01*
X26600Y410250D01*
X26388Y410150D01*
X26162Y410063D01*
X25912Y409987D01*
X25662Y409937D01*
X25387Y409900D01*
X25113Y409888D01*
X25038D01*
X24950Y409900D01*
X24837Y409912D01*
X24700Y409925D01*
X24538Y409950D01*
X24363Y409987D01*
X24162Y410038D01*
X23963Y410100D01*
X23738Y410187D01*
X23513Y410288D01*
X23288Y410400D01*
X23075Y410537D01*
X22850Y410700D01*
X22637Y410887D01*
X22437Y411100D01*
X22425Y411112D01*
X22400Y411150D01*
X22337Y411225D01*
X22275Y411312D01*
X22200Y411438D01*
X22113Y411575D01*
X22025Y411750D01*
X21925Y411938D01*
X21825Y412138D01*
X21737Y412375D01*
X21650Y412625D01*
X21575Y412887D01*
X21512Y413175D01*
X21463Y413475D01*
X21425Y413788D01*
X21413Y414125D01*
Y414150D01*
Y414213D01*
X21425Y414300D01*
Y414425D01*
X21450Y414587D01*
X21475Y414775D01*
X21500Y414975D01*
X21550Y415188D01*
X21612Y415425D01*
X21675Y415662D01*
X21763Y415912D01*
X21875Y416175D01*
X22000Y416425D01*
X22138Y416675D01*
X22312Y416913D01*
X22500Y417137D01*
X22512Y417150D01*
X22550Y417188D01*
X22613Y417250D01*
X22700Y417325D01*
X22800Y417413D01*
X22925Y417513D01*
X23075Y417613D01*
X23237Y417725D01*
X23413Y417837D01*
X23613Y417938D01*
X23825Y418038D01*
X24050Y418125D01*
X24300Y418200D01*
X24550Y418262D01*
X24825Y418300D01*
X25100Y418313D01*
X25163D01*
X25238Y418300D01*
D02*
G37*
G36*
X56054Y37915D02*
X56262Y37894D01*
X56491Y37853D01*
X56762Y37769D01*
X57012Y37686D01*
X57262Y37561D01*
X57283Y37540D01*
X57366Y37499D01*
X57470Y37415D01*
X57616Y37332D01*
X57887Y37082D01*
X58012Y36957D01*
X58095Y36811D01*
Y36790D01*
X58116Y36749D01*
X58157Y36645D01*
X58199Y36520D01*
X58220Y36374D01*
X58262Y36166D01*
X58282Y35936D01*
Y35666D01*
Y30125D01*
X59449D01*
Y29500D01*
X54325D01*
Y30125D01*
X55512D01*
Y35811D01*
Y35853D01*
Y35936D01*
X55491Y36061D01*
Y36228D01*
X55408Y36561D01*
X55366Y36707D01*
X55283Y36811D01*
Y36832D01*
X55241Y36853D01*
X55137Y36936D01*
X54950Y37020D01*
X54825Y37061D01*
X54616D01*
X54491Y37020D01*
X54346Y36978D01*
X54158Y36895D01*
X53950Y36790D01*
X53700Y36624D01*
X53429Y36416D01*
X53387Y36395D01*
X53304Y36291D01*
X53200Y36124D01*
X53054Y35895D01*
X52908Y35582D01*
X52804Y35187D01*
X52742Y34978D01*
X52721Y34728D01*
X52679Y34457D01*
Y34166D01*
Y30125D01*
X53866D01*
Y29500D01*
X48721D01*
Y30125D01*
X49909D01*
Y37061D01*
X48721D01*
Y37686D01*
X49825D01*
X50096Y37707D01*
X50388D01*
X50742Y37749D01*
X51096Y37769D01*
X51471Y37811D01*
X52367Y37936D01*
X52679D01*
Y36186D01*
X52700D01*
X52721Y36207D01*
X52742Y36270D01*
X52804Y36353D01*
X52908Y36457D01*
X53012Y36603D01*
X53137Y36749D01*
X53304Y36895D01*
X53491Y37061D01*
X53700Y37228D01*
X53929Y37374D01*
X54179Y37540D01*
X54450Y37665D01*
X54741Y37769D01*
X55054Y37853D01*
X55387Y37915D01*
X55741Y37936D01*
X55887D01*
X56054Y37915D01*
D02*
G37*
G36*
X32700Y334512D02*
X32325D01*
Y334525D01*
Y334538D01*
X32300Y334612D01*
X32275Y334725D01*
X32225Y334862D01*
X32175Y335037D01*
X32100Y335238D01*
X32025Y335437D01*
X31912Y335650D01*
X31800Y335862D01*
X31662Y336063D01*
X31512Y336262D01*
X31337Y336438D01*
X31150Y336575D01*
X30937Y336687D01*
X30700Y336762D01*
X30575Y336788D01*
X30263D01*
Y329400D01*
X31500D01*
Y329000D01*
X27025D01*
Y329400D01*
X28262D01*
Y336788D01*
X28012D01*
X27937Y336775D01*
X27850Y336750D01*
X27725Y336713D01*
X27600Y336663D01*
X27463Y336600D01*
X27312Y336500D01*
X27150Y336387D01*
X26987Y336238D01*
X26838Y336050D01*
X26687Y335825D01*
X26537Y335562D01*
X26412Y335262D01*
X26350Y335100D01*
X26300Y334912D01*
X26250Y334725D01*
X26200Y334512D01*
X25825D01*
X25875Y337188D01*
X32650D01*
X32700Y334512D01*
D02*
G37*
G36*
X49550Y102815D02*
X49825D01*
X50200Y102765D01*
X50600Y102715D01*
X51050Y102665D01*
X51550Y102565D01*
X52050Y102465D01*
X52575Y102315D01*
X53100Y102140D01*
X53625Y101940D01*
X54125Y101690D01*
X54600Y101390D01*
X55025Y101065D01*
X55425Y100690D01*
X55450Y100665D01*
X55500Y100590D01*
X55600Y100465D01*
X55725Y100315D01*
X55875Y100090D01*
X56050Y99840D01*
X56225Y99565D01*
X56400Y99240D01*
X56575Y98865D01*
X56750Y98490D01*
X56925Y98065D01*
X57075Y97590D01*
X57200Y97115D01*
X57300Y96615D01*
X57350Y96065D01*
X57375Y95515D01*
Y95465D01*
Y95365D01*
X57350Y95190D01*
Y94940D01*
X57300Y94640D01*
X57250Y94290D01*
X57200Y93915D01*
X57100Y93490D01*
X56975Y93040D01*
X56850Y92565D01*
X56650Y92065D01*
X56450Y91565D01*
X56200Y91065D01*
X55900Y90540D01*
X55575Y90040D01*
X55175Y89565D01*
X55150Y89540D01*
X55075Y89465D01*
X54950Y89340D01*
X54775Y89165D01*
X54550Y88990D01*
X54275Y88765D01*
X53950Y88540D01*
X53600Y88315D01*
X53175Y88065D01*
X52725Y87840D01*
X52225Y87615D01*
X51675Y87440D01*
X51075Y87265D01*
X50450Y87140D01*
X49775Y87065D01*
X49050Y87040D01*
X48075D01*
X47775Y87065D01*
X47075D01*
X46675Y87090D01*
X46250D01*
X45775Y87115D01*
X45275D01*
X44750Y87140D01*
X44175Y87165D01*
Y87215D01*
Y87340D01*
X44200Y87540D01*
Y87790D01*
Y88140D01*
X44225Y88540D01*
Y89015D01*
X44250Y89540D01*
X44275Y90115D01*
Y90740D01*
X44300Y91415D01*
Y92115D01*
Y92865D01*
X44325Y93665D01*
Y94465D01*
Y95315D01*
Y95340D01*
Y95365D01*
Y95515D01*
Y95740D01*
Y96040D01*
Y96415D01*
Y96865D01*
Y97365D01*
X44300Y97890D01*
Y98465D01*
Y99065D01*
X44275Y100315D01*
X44225Y101565D01*
X44200Y102165D01*
X44175Y102765D01*
X47125D01*
X47450Y102790D01*
X47975D01*
X48150Y102815D01*
X48575D01*
X48800Y102840D01*
X49325D01*
X49550Y102815D01*
D02*
G37*
G36*
X44410Y37915D02*
X44556D01*
X44701Y37894D01*
X45055Y37811D01*
X45472Y37707D01*
X45909Y37519D01*
X46368Y37290D01*
X46597Y37124D01*
X46805Y36957D01*
X46826Y36936D01*
X46847Y36915D01*
X46909Y36853D01*
X46993Y36770D01*
X47076Y36686D01*
X47180Y36561D01*
X47284Y36416D01*
X47388Y36228D01*
X47513Y36041D01*
X47618Y35832D01*
X47742Y35582D01*
X47847Y35332D01*
X47930Y35041D01*
X48013Y34749D01*
X48097Y34416D01*
X48138Y34062D01*
X43139D01*
Y32729D01*
Y32708D01*
Y32666D01*
Y32583D01*
Y32479D01*
Y32354D01*
X43160Y32208D01*
X43181Y31875D01*
X43202Y31521D01*
X43264Y31166D01*
X43327Y30854D01*
X43368Y30708D01*
X43410Y30583D01*
X43431Y30562D01*
X43472Y30500D01*
X43556Y30396D01*
X43681Y30292D01*
X43847Y30187D01*
X44076Y30083D01*
X44347Y30021D01*
X44701Y30000D01*
X44847D01*
X45014Y30021D01*
X45243Y30062D01*
X45493Y30146D01*
X45764Y30229D01*
X46055Y30375D01*
X46347Y30562D01*
X46389Y30583D01*
X46472Y30667D01*
X46618Y30812D01*
X46784Y31000D01*
X46972Y31250D01*
X47180Y31541D01*
X47368Y31916D01*
X47534Y32333D01*
X48138D01*
Y32312D01*
X48117Y32270D01*
X48097Y32187D01*
X48055Y32083D01*
X48013Y31958D01*
X47951Y31812D01*
X47805Y31458D01*
X47618Y31083D01*
X47368Y30708D01*
X47076Y30333D01*
X46722Y30021D01*
X46701D01*
X46680Y29979D01*
X46618Y29958D01*
X46534Y29896D01*
X46326Y29771D01*
X46055Y29646D01*
X45701Y29500D01*
X45285Y29375D01*
X44826Y29292D01*
X44306Y29250D01*
X44118D01*
X43972Y29271D01*
X43826Y29292D01*
X43618Y29313D01*
X43410Y29354D01*
X43181Y29417D01*
X42681Y29563D01*
X42431Y29688D01*
X42160Y29812D01*
X41910Y29958D01*
X41660Y30125D01*
X41410Y30333D01*
X41181Y30562D01*
X41160Y30583D01*
X41139Y30625D01*
X41077Y30687D01*
X40993Y30792D01*
X40910Y30916D01*
X40827Y31083D01*
X40723Y31250D01*
X40619Y31458D01*
X40389Y31895D01*
X40223Y32416D01*
X40077Y33020D01*
X40056Y33333D01*
X40035Y33645D01*
Y33666D01*
Y33729D01*
Y33812D01*
X40056Y33937D01*
X40077Y34083D01*
X40098Y34249D01*
X40139Y34437D01*
X40181Y34645D01*
X40327Y35103D01*
X40535Y35603D01*
X40660Y35853D01*
X40827Y36124D01*
X40993Y36374D01*
X41202Y36624D01*
X41223Y36645D01*
X41264Y36686D01*
X41327Y36749D01*
X41410Y36832D01*
X41535Y36936D01*
X41681Y37040D01*
X41827Y37165D01*
X42014Y37290D01*
X42452Y37519D01*
X42952Y37728D01*
X43222Y37811D01*
X43535Y37874D01*
X43826Y37915D01*
X44160Y37936D01*
X44306D01*
X44410Y37915D01*
D02*
G37*
G36*
X19425Y83670D02*
Y83570D01*
X19400Y83395D01*
Y83170D01*
X19375Y82870D01*
Y82520D01*
X19350Y82120D01*
Y81645D01*
X19325Y81145D01*
X19300Y80570D01*
Y79945D01*
X19275Y79295D01*
Y78595D01*
X19250Y77845D01*
Y77070D01*
Y76245D01*
Y76195D01*
Y76045D01*
Y75795D01*
Y75495D01*
Y75095D01*
Y74620D01*
X19275Y74120D01*
Y73545D01*
Y72920D01*
X19300Y72270D01*
Y71595D01*
X19325Y70920D01*
X19375Y69495D01*
X19425Y68095D01*
X16450D01*
Y68120D01*
X16425Y68170D01*
X16400Y68245D01*
X16350Y68345D01*
X16275Y68495D01*
X16175Y68695D01*
X16050Y68920D01*
X15875Y69220D01*
X15650Y69570D01*
X15375Y69995D01*
X15050Y70470D01*
X14675Y71045D01*
X14250Y71695D01*
X13725Y72445D01*
X13150Y73270D01*
Y73295D01*
X13100Y73320D01*
X13075Y73395D01*
X13000Y73495D01*
X12825Y73745D01*
X12600Y74070D01*
X12325Y74470D01*
X12025Y74945D01*
X11700Y75445D01*
X11375Y75995D01*
X10675Y77120D01*
X10350Y77695D01*
X10050Y78245D01*
X9775Y78770D01*
X9525Y79245D01*
X9350Y79695D01*
X9225Y80070D01*
X9025D01*
Y80045D01*
X9050Y79945D01*
Y79820D01*
X9075Y79620D01*
X9100Y79395D01*
X9125Y79120D01*
X9150Y78820D01*
X9175Y78470D01*
X9225Y77745D01*
X9275Y76945D01*
X9325Y76120D01*
Y75295D01*
Y75270D01*
Y75170D01*
Y74995D01*
Y74770D01*
Y74470D01*
Y74145D01*
X9350Y73745D01*
Y73295D01*
Y72795D01*
X9375Y72245D01*
Y71645D01*
X9400Y71020D01*
X9425Y70345D01*
X9450Y69620D01*
X9475Y68870D01*
X9500Y68095D01*
X6550D01*
Y68145D01*
Y68270D01*
X6575Y68470D01*
Y68745D01*
X6600Y69095D01*
Y69495D01*
X6625Y69970D01*
X6650Y70495D01*
Y71095D01*
X6675Y71720D01*
Y72395D01*
X6700Y73095D01*
Y73845D01*
X6725Y74620D01*
Y75420D01*
Y76245D01*
Y76270D01*
Y76295D01*
Y76445D01*
Y76670D01*
Y76970D01*
Y77370D01*
Y77795D01*
X6700Y78295D01*
Y78820D01*
Y79395D01*
X6675Y79995D01*
X6650Y81245D01*
X6600Y82495D01*
X6575Y83120D01*
X6550Y83695D01*
X10100D01*
Y83670D01*
X10125Y83620D01*
X10150Y83520D01*
X10200Y83420D01*
X10250Y83270D01*
X10350Y83070D01*
X10475Y82820D01*
X10625Y82545D01*
X10825Y82170D01*
X11075Y81770D01*
X11350Y81295D01*
X11700Y80745D01*
X12100Y80120D01*
X12550Y79420D01*
X13075Y78620D01*
Y78595D01*
X13100Y78570D01*
X13200Y78420D01*
X13375Y78170D01*
X13575Y77870D01*
X13825Y77470D01*
X14100Y77045D01*
X14400Y76570D01*
X14700Y76070D01*
X15350Y74995D01*
X15650Y74470D01*
X15925Y73945D01*
X16200Y73445D01*
X16400Y72995D01*
X16575Y72595D01*
X16700Y72245D01*
X16875D01*
Y72270D01*
Y72370D01*
X16850Y72495D01*
X16825Y72695D01*
X16800Y72920D01*
X16775Y73195D01*
X16750Y73520D01*
X16725Y73845D01*
X16675Y74595D01*
X16625Y75395D01*
X16600Y76220D01*
X16575Y77045D01*
Y77095D01*
Y77195D01*
Y77370D01*
Y77595D01*
Y77895D01*
Y78245D01*
Y78645D01*
X16550Y79095D01*
Y79570D01*
Y80095D01*
X16525Y80645D01*
Y81220D01*
X16475Y82445D01*
X16425Y83695D01*
X19425D01*
Y83670D01*
D02*
G37*
G36*
X38000Y83895D02*
X38375Y83870D01*
X38800Y83845D01*
X39250Y83795D01*
X39750Y83695D01*
X40250Y83595D01*
X39825Y80820D01*
X39800D01*
X39750Y80845D01*
X39675Y80870D01*
X39575Y80895D01*
X39300Y80970D01*
X38950Y81045D01*
X38525Y81120D01*
X38075Y81195D01*
X37600Y81245D01*
X37100Y81270D01*
X36875D01*
X36700Y81245D01*
X36500Y81220D01*
X36275Y81195D01*
X35750Y81070D01*
X35150Y80895D01*
X34850Y80770D01*
X34550Y80620D01*
X34250Y80445D01*
X33975Y80220D01*
X33725Y79995D01*
X33475Y79720D01*
Y79695D01*
X33425Y79645D01*
X33375Y79570D01*
X33300Y79445D01*
X33200Y79295D01*
X33100Y79120D01*
X33000Y78920D01*
X32900Y78670D01*
X32775Y78420D01*
X32675Y78145D01*
X32475Y77495D01*
X32350Y76770D01*
X32325Y76370D01*
X32300Y75970D01*
Y75945D01*
Y75870D01*
Y75745D01*
X32325Y75595D01*
X32350Y75395D01*
X32375Y75170D01*
X32425Y74920D01*
X32475Y74645D01*
X32650Y74020D01*
X32900Y73370D01*
X33050Y73045D01*
X33250Y72720D01*
X33450Y72395D01*
X33700Y72070D01*
X33725Y72045D01*
X33775Y71995D01*
X33850Y71920D01*
X33975Y71820D01*
X34100Y71695D01*
X34275Y71545D01*
X34500Y71395D01*
X34725Y71245D01*
X35000Y71095D01*
X35300Y70945D01*
X35625Y70795D01*
X35975Y70670D01*
X36350Y70570D01*
X36750Y70495D01*
X37200Y70445D01*
X37650Y70420D01*
X37925D01*
X38050Y70445D01*
X38225D01*
X38625Y70495D01*
X39100Y70545D01*
X39650Y70620D01*
X40250Y70745D01*
X40900Y70920D01*
X40700Y68170D01*
X40675D01*
X40625Y68145D01*
X40525D01*
X40400Y68120D01*
X40250Y68095D01*
X40075Y68045D01*
X39650Y67995D01*
X39125Y67920D01*
X38550Y67845D01*
X37950Y67820D01*
X37325Y67795D01*
X37150D01*
X36925Y67820D01*
X36650D01*
X36300Y67870D01*
X35925Y67920D01*
X35475Y67995D01*
X35000Y68070D01*
X34500Y68195D01*
X34000Y68345D01*
X33475Y68520D01*
X32950Y68745D01*
X32450Y68995D01*
X31950Y69295D01*
X31475Y69645D01*
X31050Y70045D01*
X31025Y70070D01*
X30950Y70145D01*
X30850Y70270D01*
X30725Y70445D01*
X30550Y70670D01*
X30375Y70920D01*
X30175Y71245D01*
X29975Y71570D01*
X29775Y71970D01*
X29575Y72395D01*
X29400Y72845D01*
X29225Y73320D01*
X29100Y73845D01*
X29000Y74395D01*
X28925Y74970D01*
X28900Y75570D01*
Y75620D01*
Y75720D01*
X28925Y75895D01*
Y76145D01*
X28975Y76420D01*
X29025Y76770D01*
X29100Y77145D01*
X29175Y77570D01*
X29300Y77995D01*
X29450Y78470D01*
X29650Y78945D01*
X29850Y79445D01*
X30125Y79945D01*
X30425Y80445D01*
X30775Y80945D01*
X31175Y81420D01*
X31200Y81445D01*
X31275Y81520D01*
X31425Y81645D01*
X31600Y81820D01*
X31825Y81995D01*
X32125Y82220D01*
X32450Y82445D01*
X32825Y82670D01*
X33250Y82895D01*
X33725Y83120D01*
X34250Y83345D01*
X34800Y83520D01*
X35400Y83695D01*
X36050Y83820D01*
X36750Y83895D01*
X37475Y83920D01*
X37725D01*
X38000Y83895D01*
D02*
G37*
G36*
X40725Y102740D02*
Y102640D01*
X40700Y102465D01*
Y102240D01*
X40675Y101940D01*
Y101590D01*
X40650Y101190D01*
Y100715D01*
X40625Y100215D01*
X40600Y99640D01*
Y99015D01*
X40575Y98365D01*
Y97665D01*
X40550Y96915D01*
Y96140D01*
Y95315D01*
Y95265D01*
Y95115D01*
Y94865D01*
Y94565D01*
Y94165D01*
Y93690D01*
X40575Y93190D01*
Y92615D01*
Y91990D01*
X40600Y91340D01*
Y90665D01*
X40625Y89990D01*
X40675Y88565D01*
X40725Y87165D01*
X37750D01*
Y87190D01*
X37725Y87240D01*
X37700Y87315D01*
X37650Y87415D01*
X37575Y87565D01*
X37475Y87765D01*
X37350Y87990D01*
X37175Y88290D01*
X36950Y88640D01*
X36675Y89065D01*
X36350Y89540D01*
X35975Y90115D01*
X35550Y90765D01*
X35025Y91515D01*
X34450Y92340D01*
Y92365D01*
X34400Y92390D01*
X34375Y92465D01*
X34300Y92565D01*
X34125Y92815D01*
X33900Y93140D01*
X33625Y93540D01*
X33325Y94015D01*
X33000Y94515D01*
X32675Y95065D01*
X31975Y96190D01*
X31650Y96765D01*
X31350Y97315D01*
X31075Y97840D01*
X30825Y98315D01*
X30650Y98765D01*
X30525Y99140D01*
X30325D01*
Y99115D01*
X30350Y99015D01*
Y98890D01*
X30375Y98690D01*
X30400Y98465D01*
X30425Y98190D01*
X30450Y97890D01*
X30475Y97540D01*
X30525Y96815D01*
X30575Y96015D01*
X30625Y95190D01*
Y94365D01*
Y94340D01*
Y94240D01*
Y94065D01*
Y93840D01*
Y93540D01*
Y93215D01*
X30650Y92815D01*
Y92365D01*
Y91865D01*
X30675Y91315D01*
Y90715D01*
X30700Y90090D01*
X30725Y89415D01*
X30750Y88690D01*
X30775Y87940D01*
X30800Y87165D01*
X27850D01*
Y87215D01*
Y87340D01*
X27875Y87540D01*
Y87815D01*
X27900Y88165D01*
Y88565D01*
X27925Y89040D01*
X27950Y89565D01*
Y90165D01*
X27975Y90790D01*
Y91465D01*
X28000Y92165D01*
Y92915D01*
X28025Y93690D01*
Y94490D01*
Y95315D01*
Y95340D01*
Y95365D01*
Y95515D01*
Y95740D01*
Y96040D01*
Y96440D01*
Y96865D01*
X28000Y97365D01*
Y97890D01*
Y98465D01*
X27975Y99065D01*
X27950Y100315D01*
X27900Y101565D01*
X27875Y102190D01*
X27850Y102765D01*
X31400D01*
Y102740D01*
X31425Y102690D01*
X31450Y102590D01*
X31500Y102490D01*
X31550Y102340D01*
X31650Y102140D01*
X31775Y101890D01*
X31925Y101615D01*
X32125Y101240D01*
X32375Y100840D01*
X32650Y100365D01*
X33000Y99815D01*
X33400Y99190D01*
X33850Y98490D01*
X34375Y97690D01*
Y97665D01*
X34400Y97640D01*
X34500Y97490D01*
X34675Y97240D01*
X34875Y96940D01*
X35125Y96540D01*
X35400Y96115D01*
X35700Y95640D01*
X36000Y95140D01*
X36650Y94065D01*
X36950Y93540D01*
X37225Y93015D01*
X37500Y92515D01*
X37700Y92065D01*
X37875Y91665D01*
X38000Y91315D01*
X38175D01*
Y91340D01*
Y91440D01*
X38150Y91565D01*
X38125Y91765D01*
X38100Y91990D01*
X38075Y92265D01*
X38050Y92590D01*
X38025Y92915D01*
X37975Y93665D01*
X37925Y94465D01*
X37900Y95290D01*
X37875Y96115D01*
Y96165D01*
Y96265D01*
Y96440D01*
Y96665D01*
Y96965D01*
Y97315D01*
Y97715D01*
X37850Y98165D01*
Y98640D01*
Y99165D01*
X37825Y99715D01*
Y100290D01*
X37775Y101515D01*
X37725Y102765D01*
X40725D01*
Y102740D01*
D02*
G37*
G36*
X5395Y37915D02*
X5541D01*
X5874Y37894D01*
X6249Y37853D01*
X6666Y37769D01*
X7082Y37686D01*
X7457Y37561D01*
X7478D01*
X7499Y37540D01*
X7624Y37478D01*
X7770Y37374D01*
X7957Y37207D01*
X8145Y36999D01*
X8311Y36707D01*
X8415Y36353D01*
X8436Y36145D01*
X8457Y35916D01*
Y31625D01*
Y31604D01*
Y31583D01*
Y31458D01*
X8499Y31271D01*
X8540Y31083D01*
X8603Y30875D01*
X8707Y30687D01*
X8853Y30562D01*
X8957Y30542D01*
X9061Y30521D01*
X9103D01*
X9186Y30542D01*
X9353Y30604D01*
X9540Y30708D01*
X9832Y30250D01*
Y30229D01*
X9790Y30208D01*
X9686Y30104D01*
X9499Y29937D01*
X9249Y29750D01*
X8957Y29563D01*
X8603Y29417D01*
X8228Y29292D01*
X8020Y29271D01*
X7811Y29250D01*
X7707D01*
X7624Y29271D01*
X7395Y29313D01*
X7124Y29396D01*
X6812Y29542D01*
X6645Y29646D01*
X6478Y29771D01*
X6312Y29917D01*
X6145Y30083D01*
X5978Y30271D01*
X5833Y30479D01*
X5812Y30458D01*
X5770Y30417D01*
X5708Y30375D01*
X5603Y30292D01*
X5478Y30187D01*
X5333Y30083D01*
X5145Y29979D01*
X4958Y29875D01*
X4520Y29646D01*
X4020Y29438D01*
X3749Y29354D01*
X3458Y29313D01*
X3166Y29271D01*
X2854Y29250D01*
X2666D01*
X2479Y29271D01*
X2229Y29313D01*
X1937Y29396D01*
X1667Y29479D01*
X1375Y29625D01*
X1125Y29812D01*
X1104Y29833D01*
X1021Y29917D01*
X937Y30042D01*
X812Y30208D01*
X708Y30417D01*
X604Y30667D01*
X521Y30937D01*
X500Y31250D01*
Y31271D01*
X521Y31375D01*
X542Y31500D01*
X583Y31687D01*
X667Y31875D01*
X771Y32125D01*
X937Y32375D01*
X1146Y32625D01*
X1417Y32895D01*
X1771Y33145D01*
X1958Y33270D01*
X2187Y33395D01*
X2416Y33520D01*
X2687Y33624D01*
X2979Y33729D01*
X3291Y33812D01*
X3624Y33916D01*
X3979Y33978D01*
X4354Y34041D01*
X4770Y34103D01*
X5208Y34145D01*
X5687Y34166D01*
Y35978D01*
Y36020D01*
Y36103D01*
Y36228D01*
X5666Y36395D01*
X5603Y36749D01*
X5562Y36915D01*
X5499Y37040D01*
Y37061D01*
X5457Y37082D01*
X5395Y37145D01*
X5312Y37207D01*
X5187Y37249D01*
X5020Y37311D01*
X4812Y37332D01*
X4541Y37353D01*
X4333D01*
X4208Y37332D01*
X3895Y37270D01*
X3749Y37228D01*
X3604Y37165D01*
X3583D01*
X3562Y37145D01*
X3437Y37061D01*
X3333Y36936D01*
X3291Y36874D01*
X3270Y36811D01*
Y36790D01*
X3291Y36728D01*
X3374Y36603D01*
X3416Y36520D01*
X3500Y36436D01*
X3520D01*
X3541Y36395D01*
X3624Y36270D01*
X3708Y36082D01*
X3749Y35957D01*
Y35832D01*
Y35811D01*
Y35749D01*
X3729Y35645D01*
X3708Y35520D01*
X3645Y35395D01*
X3583Y35228D01*
X3479Y35082D01*
X3354Y34937D01*
X3333Y34916D01*
X3291Y34874D01*
X3187Y34812D01*
X3083Y34749D01*
X2937Y34687D01*
X2771Y34624D01*
X2562Y34582D01*
X2354Y34562D01*
X2271D01*
X2146Y34582D01*
X2021Y34603D01*
X1875Y34645D01*
X1708Y34707D01*
X1541Y34791D01*
X1396Y34916D01*
X1375Y34937D01*
X1333Y34978D01*
X1271Y35062D01*
X1208Y35166D01*
X1146Y35291D01*
X1083Y35436D01*
X1042Y35603D01*
X1021Y35791D01*
Y35811D01*
Y35832D01*
X1042Y35936D01*
X1083Y36103D01*
X1146Y36311D01*
X1271Y36561D01*
X1479Y36811D01*
X1583Y36936D01*
X1729Y37061D01*
X1896Y37186D01*
X2083Y37311D01*
X2104D01*
X2125Y37332D01*
X2187Y37374D01*
X2271Y37415D01*
X2396Y37457D01*
X2520Y37519D01*
X2666Y37561D01*
X2854Y37624D01*
X3041Y37686D01*
X3270Y37749D01*
X3500Y37790D01*
X3770Y37832D01*
X4354Y37915D01*
X5020Y37936D01*
X5270D01*
X5395Y37915D01*
D02*
G37*
G36*
X6575Y122235D02*
X6850D01*
X7125Y122210D01*
X7750Y122160D01*
X8400Y122085D01*
X9075Y121985D01*
X9700Y121860D01*
X9250Y119185D01*
X9225D01*
X9175Y119210D01*
X9100Y119235D01*
X8975Y119285D01*
X8825Y119335D01*
X8650Y119385D01*
X8425Y119435D01*
X8200Y119485D01*
X7675Y119585D01*
X7100Y119685D01*
X6450Y119760D01*
X5750Y119785D01*
X5500D01*
X5300Y119760D01*
X5100Y119735D01*
X4850Y119710D01*
X4350Y119585D01*
X3825Y119410D01*
X3575Y119285D01*
X3375Y119135D01*
X3175Y118960D01*
X3050Y118760D01*
X2950Y118535D01*
X2925Y118260D01*
Y118235D01*
Y118135D01*
X2950Y117985D01*
X3000Y117810D01*
X3075Y117585D01*
X3200Y117385D01*
X3350Y117160D01*
X3575Y116960D01*
X3600Y116935D01*
X3700Y116885D01*
X3850Y116785D01*
X4100Y116660D01*
X4450Y116485D01*
X4650Y116385D01*
X4875Y116260D01*
X5125Y116135D01*
X5425Y116010D01*
X5725Y115885D01*
X6075Y115735D01*
X6100D01*
X6175Y115710D01*
X6275Y115660D01*
X6425Y115585D01*
X6600Y115510D01*
X6775Y115410D01*
X7250Y115210D01*
X7750Y114935D01*
X8250Y114610D01*
X8725Y114285D01*
X8950Y114085D01*
X9150Y113910D01*
X9175Y113885D01*
X9200Y113860D01*
X9275Y113785D01*
X9375Y113685D01*
X9475Y113535D01*
X9575Y113385D01*
X9850Y113010D01*
X10100Y112535D01*
X10300Y111960D01*
X10475Y111335D01*
X10500Y110985D01*
X10525Y110635D01*
Y110610D01*
Y110585D01*
Y110435D01*
X10475Y110210D01*
X10425Y109910D01*
X10325Y109560D01*
X10175Y109160D01*
X9950Y108735D01*
X9675Y108310D01*
X9325Y107860D01*
X8875Y107435D01*
X8625Y107235D01*
X8325Y107035D01*
X8025Y106860D01*
X7675Y106685D01*
X7300Y106535D01*
X6900Y106385D01*
X6475Y106260D01*
X6000Y106160D01*
X5500Y106085D01*
X4975Y106010D01*
X4400Y105985D01*
X3775Y105960D01*
X3375D01*
X3175Y105985D01*
X2950D01*
X2675Y106010D01*
X2375Y106035D01*
X1725Y106085D01*
X1000Y106185D01*
X250Y106310D01*
X-500Y106485D01*
X100Y109160D01*
X125D01*
X200Y109135D01*
X300Y109110D01*
X425Y109060D01*
X600Y109010D01*
X800Y108935D01*
X1050Y108885D01*
X1300Y108835D01*
X1850Y108710D01*
X2475Y108585D01*
X3125Y108510D01*
X3775Y108485D01*
X4250D01*
X4425Y108510D01*
X4850Y108535D01*
X5300Y108585D01*
X5750Y108635D01*
X6175Y108735D01*
X6350Y108785D01*
X6525Y108860D01*
X6550Y108885D01*
X6650Y108935D01*
X6800Y109035D01*
X6950Y109160D01*
X7100Y109335D01*
X7250Y109535D01*
X7350Y109810D01*
X7375Y110110D01*
Y110160D01*
Y110260D01*
X7325Y110435D01*
X7275Y110660D01*
X7175Y110885D01*
X7050Y111160D01*
X6850Y111410D01*
X6575Y111660D01*
X6550Y111685D01*
X6450Y111760D01*
X6250Y111885D01*
X5975Y112035D01*
X5800Y112135D01*
X5600Y112260D01*
X5375Y112360D01*
X5125Y112485D01*
X4825Y112635D01*
X4525Y112785D01*
X4175Y112935D01*
X3800Y113085D01*
X3775D01*
X3725Y113135D01*
X3625Y113160D01*
X3500Y113235D01*
X3325Y113310D01*
X3150Y113385D01*
X2750Y113610D01*
X2275Y113885D01*
X1825Y114185D01*
X1375Y114510D01*
X1000Y114860D01*
Y114885D01*
X950Y114910D01*
X900Y114985D01*
X825Y115085D01*
X625Y115335D01*
X425Y115685D01*
X200Y116135D01*
X0Y116635D01*
X-125Y117210D01*
X-150Y117535D01*
X-175Y117860D01*
Y117885D01*
Y117960D01*
Y118060D01*
X-150Y118210D01*
X-125Y118360D01*
X-100Y118560D01*
X25Y119035D01*
X200Y119560D01*
X325Y119810D01*
X475Y120085D01*
X650Y120360D01*
X850Y120610D01*
X1075Y120860D01*
X1350Y121085D01*
X1375Y121110D01*
X1425Y121135D01*
X1500Y121185D01*
X1625Y121260D01*
X1800Y121360D01*
X1975Y121460D01*
X2200Y121560D01*
X2475Y121685D01*
X2775Y121785D01*
X3100Y121885D01*
X3450Y121985D01*
X3850Y122085D01*
X4275Y122160D01*
X4725Y122210D01*
X5225Y122260D01*
X6350D01*
X6575Y122235D01*
D02*
G37*
G36*
X20500Y122335D02*
X20725D01*
X21000Y122285D01*
X21325Y122235D01*
X21675Y122185D01*
X22050Y122085D01*
X22475Y121960D01*
X22900Y121810D01*
X23325Y121635D01*
X23775Y121410D01*
X24225Y121160D01*
X24675Y120860D01*
X25100Y120535D01*
X25500Y120135D01*
X25525Y120110D01*
X25600Y120035D01*
X25700Y119910D01*
X25825Y119735D01*
X26000Y119510D01*
X26175Y119260D01*
X26375Y118935D01*
X26575Y118585D01*
X26750Y118210D01*
X26950Y117785D01*
X27125Y117310D01*
X27300Y116810D01*
X27425Y116260D01*
X27525Y115685D01*
X27600Y115085D01*
X27625Y114460D01*
Y114410D01*
Y114310D01*
X27600Y114110D01*
Y113860D01*
X27550Y113535D01*
X27500Y113160D01*
X27425Y112760D01*
X27350Y112310D01*
X27225Y111860D01*
X27075Y111360D01*
X26900Y110860D01*
X26675Y110335D01*
X26425Y109835D01*
X26125Y109310D01*
X25775Y108835D01*
X25375Y108360D01*
X25350Y108335D01*
X25275Y108260D01*
X25150Y108135D01*
X24975Y107985D01*
X24750Y107810D01*
X24500Y107610D01*
X24175Y107385D01*
X23825Y107160D01*
X23450Y106935D01*
X23025Y106710D01*
X22575Y106510D01*
X22075Y106335D01*
X21550Y106185D01*
X21000Y106060D01*
X20400Y105985D01*
X19800Y105960D01*
X19650D01*
X19500Y105985D01*
X19275D01*
X19000Y106035D01*
X18675Y106085D01*
X18325Y106135D01*
X17950Y106235D01*
X17525Y106360D01*
X17100Y106510D01*
X16675Y106685D01*
X16225Y106885D01*
X15775Y107135D01*
X15325Y107435D01*
X14900Y107785D01*
X14475Y108160D01*
X14450Y108185D01*
X14375Y108260D01*
X14275Y108385D01*
X14150Y108560D01*
X13975Y108785D01*
X13800Y109035D01*
X13600Y109360D01*
X13425Y109710D01*
X13225Y110085D01*
X13025Y110535D01*
X12850Y110985D01*
X12675Y111485D01*
X12550Y112035D01*
X12450Y112610D01*
X12375Y113210D01*
X12350Y113835D01*
Y113885D01*
Y114010D01*
X12375Y114185D01*
Y114460D01*
X12425Y114760D01*
X12475Y115135D01*
X12550Y115535D01*
X12625Y115985D01*
X12750Y116460D01*
X12900Y116935D01*
X13075Y117435D01*
X13300Y117960D01*
X13550Y118460D01*
X13850Y118985D01*
X14200Y119460D01*
X14600Y119935D01*
X14625Y119960D01*
X14700Y120035D01*
X14825Y120160D01*
X15000Y120310D01*
X15225Y120510D01*
X15500Y120710D01*
X15800Y120910D01*
X16150Y121160D01*
X16550Y121385D01*
X16975Y121585D01*
X17425Y121810D01*
X17925Y121985D01*
X18450Y122135D01*
X19000Y122260D01*
X19600Y122335D01*
X20200Y122360D01*
X20350D01*
X20500Y122335D01*
D02*
G37*
G36*
X43250Y121935D02*
Y121810D01*
Y121585D01*
X43225Y121285D01*
Y120935D01*
Y120510D01*
X43200Y120010D01*
Y119460D01*
Y118885D01*
X43175Y118260D01*
Y117585D01*
Y116885D01*
X43150Y115435D01*
Y113935D01*
Y113910D01*
Y113835D01*
Y113735D01*
Y113585D01*
X43125Y113410D01*
X43100Y113210D01*
X43075Y112960D01*
X43050Y112685D01*
X42950Y112085D01*
X42800Y111410D01*
X42600Y110710D01*
X42325Y109960D01*
X42000Y109210D01*
X41550Y108510D01*
X41300Y108160D01*
X41025Y107835D01*
X40725Y107510D01*
X40400Y107235D01*
X40050Y106960D01*
X39650Y106710D01*
X39225Y106510D01*
X38775Y106335D01*
X38300Y106185D01*
X37775Y106085D01*
X37225Y106010D01*
X36625Y105985D01*
X36325D01*
X36100Y106010D01*
X35825Y106035D01*
X35525Y106085D01*
X35175Y106135D01*
X34800Y106210D01*
X34425Y106285D01*
X34025Y106410D01*
X33625Y106560D01*
X33200Y106735D01*
X32825Y106935D01*
X32425Y107160D01*
X32075Y107435D01*
X31750Y107735D01*
X31725Y107760D01*
X31675Y107810D01*
X31600Y107935D01*
X31500Y108085D01*
X31375Y108285D01*
X31225Y108535D01*
X31100Y108835D01*
X30950Y109185D01*
X30775Y109585D01*
X30650Y110060D01*
X30500Y110560D01*
X30375Y111135D01*
X30275Y111785D01*
X30200Y112485D01*
X30150Y113235D01*
X30125Y114060D01*
Y114110D01*
Y114235D01*
Y114460D01*
Y114760D01*
Y115110D01*
Y115535D01*
Y116035D01*
Y116560D01*
X30100Y117135D01*
Y117760D01*
Y118410D01*
X30075Y119110D01*
X30050Y120535D01*
X30025Y121985D01*
X33425D01*
Y121935D01*
Y121810D01*
X33400Y121585D01*
Y121285D01*
Y120935D01*
X33375Y120510D01*
Y120010D01*
X33350Y119485D01*
X33325Y118910D01*
Y118285D01*
X33300Y117660D01*
Y116985D01*
X33275Y115585D01*
Y114160D01*
Y114135D01*
Y114010D01*
Y113860D01*
X33300Y113635D01*
Y113360D01*
X33325Y113060D01*
X33350Y112735D01*
X33375Y112360D01*
X33475Y111635D01*
X33625Y110885D01*
X33725Y110535D01*
X33825Y110210D01*
X33950Y109910D01*
X34100Y109660D01*
Y109635D01*
X34150Y109610D01*
X34250Y109460D01*
X34450Y109285D01*
X34750Y109060D01*
X35100Y108835D01*
X35550Y108635D01*
X36075Y108485D01*
X36375Y108460D01*
X36700Y108435D01*
X36875D01*
X37000Y108460D01*
X37150D01*
X37325Y108510D01*
X37725Y108585D01*
X38150Y108735D01*
X38600Y108935D01*
X39000Y109235D01*
X39175Y109435D01*
X39350Y109635D01*
Y109660D01*
X39375Y109685D01*
X39425Y109760D01*
X39475Y109885D01*
X39550Y110010D01*
X39600Y110210D01*
X39675Y110410D01*
X39775Y110660D01*
X39850Y110960D01*
X39925Y111285D01*
X39975Y111660D01*
X40050Y112060D01*
X40100Y112535D01*
X40150Y113035D01*
X40175Y113585D01*
Y114185D01*
Y114235D01*
Y114360D01*
Y114560D01*
Y114835D01*
Y115160D01*
Y115560D01*
X40150Y116035D01*
Y116535D01*
Y117110D01*
X40125Y117710D01*
Y118360D01*
X40100Y119035D01*
X40075Y119735D01*
X40050Y120460D01*
X40000Y121985D01*
X43250D01*
Y121935D01*
D02*
G37*
G36*
X26250Y83670D02*
Y83545D01*
X26225Y83395D01*
Y83145D01*
Y82870D01*
X26200Y82495D01*
Y82095D01*
X26175Y81620D01*
X26150Y81120D01*
Y80545D01*
X26125Y79945D01*
Y79270D01*
Y78570D01*
X26100Y77845D01*
Y77070D01*
Y76245D01*
Y76195D01*
Y76045D01*
Y75795D01*
Y75470D01*
Y75095D01*
Y74620D01*
X26125Y74095D01*
Y73520D01*
Y72920D01*
Y72270D01*
X26150Y71595D01*
X26175Y70895D01*
X26200Y69495D01*
X26250Y68095D01*
X22875D01*
Y68145D01*
Y68270D01*
X22900Y68470D01*
Y68745D01*
Y69095D01*
X22925Y69495D01*
Y69970D01*
X22950Y70495D01*
X22975Y71095D01*
Y71720D01*
X23000Y72395D01*
Y73095D01*
Y73845D01*
X23025Y74620D01*
Y75420D01*
Y76245D01*
Y76270D01*
Y76295D01*
Y76445D01*
Y76670D01*
Y76970D01*
Y77370D01*
Y77795D01*
Y78295D01*
X23000Y78820D01*
Y79395D01*
Y79995D01*
X22975Y81245D01*
X22925Y82495D01*
X22900Y83120D01*
X22875Y83695D01*
X26250D01*
Y83670D01*
D02*
G37*
G36*
X27478Y249477D02*
X25624D01*
Y237167D01*
X27478D01*
Y236500D01*
X20500D01*
Y237167D01*
X22291D01*
Y249477D01*
X20500D01*
Y250144D01*
X27478D01*
Y249477D01*
D02*
G37*
G36*
X41080D02*
X40455D01*
X40330Y249456D01*
X40163D01*
X40018Y249415D01*
X39851Y249373D01*
X39726Y249310D01*
X39622Y249227D01*
Y249206D01*
X39601Y249185D01*
X39559Y249123D01*
X39539Y249019D01*
X39497Y248894D01*
X39455Y248727D01*
X39434Y248540D01*
Y248290D01*
Y236313D01*
X38726D01*
X30603Y248311D01*
Y238458D01*
Y238416D01*
Y238333D01*
Y238187D01*
X30623Y238021D01*
X30644Y237833D01*
X30665Y237667D01*
X30707Y237500D01*
X30769Y237396D01*
X30811Y237354D01*
X30873Y237333D01*
X30957Y237292D01*
X31082Y237250D01*
X31248Y237208D01*
X31457Y237187D01*
X31727Y237167D01*
X32519D01*
Y236500D01*
X28207D01*
Y237167D01*
X28853D01*
X28999Y237187D01*
X29165Y237208D01*
X29332Y237229D01*
X29499Y237292D01*
X29644Y237354D01*
X29728Y237437D01*
Y237458D01*
X29748Y237500D01*
X29790Y237583D01*
X29811Y237729D01*
X29853Y237916D01*
X29873Y238166D01*
X29894Y238500D01*
Y238687D01*
Y238895D01*
Y248290D01*
Y248331D01*
Y248415D01*
Y248540D01*
X29873Y248706D01*
X29853Y248873D01*
X29832Y249019D01*
X29790Y249165D01*
X29728Y249269D01*
X29686Y249310D01*
X29644Y249331D01*
X29561Y249373D01*
X29457Y249415D01*
X29311Y249435D01*
X29124Y249477D01*
X28145D01*
Y250144D01*
X33290D01*
X38726Y242124D01*
Y247977D01*
Y247998D01*
Y248019D01*
Y248123D01*
Y248290D01*
X38705Y248477D01*
X38685Y248686D01*
X38643Y248873D01*
X38601Y249061D01*
X38539Y249185D01*
Y249206D01*
X38497Y249227D01*
X38435Y249269D01*
X38351Y249331D01*
X38226Y249394D01*
X38039Y249435D01*
X37831Y249456D01*
X37560Y249477D01*
X36935D01*
Y250144D01*
X41080D01*
Y249477D01*
D02*
G37*
G36*
X37704Y177477D02*
X36808D01*
X36663Y177456D01*
X36496Y177435D01*
X36350Y177394D01*
X36225Y177352D01*
X36142Y177290D01*
X36121Y177248D01*
X36100Y177185D01*
X36058Y177102D01*
X36038Y176977D01*
X35996Y176790D01*
X35975Y176581D01*
Y176311D01*
Y169249D01*
Y169228D01*
Y169187D01*
Y169124D01*
Y169020D01*
Y168916D01*
X35954Y168770D01*
X35933Y168458D01*
X35913Y168083D01*
X35871Y167687D01*
X35788Y167291D01*
X35704Y166895D01*
Y166875D01*
X35684Y166854D01*
X35642Y166729D01*
X35559Y166541D01*
X35434Y166291D01*
X35267Y166021D01*
X35017Y165729D01*
X34705Y165417D01*
X34330Y165104D01*
X34309D01*
X34267Y165062D01*
X34205Y165042D01*
X34121Y164979D01*
X33996Y164917D01*
X33850Y164854D01*
X33684Y164792D01*
X33476Y164708D01*
X33246Y164625D01*
X32996Y164562D01*
X32705Y164500D01*
X32413Y164437D01*
X32059Y164396D01*
X31705Y164354D01*
X31309Y164313D01*
X30580D01*
X30434Y164333D01*
X30143Y164354D01*
X29768Y164375D01*
X29372Y164437D01*
X28935Y164500D01*
X28497Y164583D01*
X28476D01*
X28455Y164604D01*
X28393D01*
X28310Y164646D01*
X28101Y164708D01*
X27831Y164812D01*
X27539Y164937D01*
X27226Y165104D01*
X26914Y165312D01*
X26622Y165562D01*
X26602Y165604D01*
X26497Y165687D01*
X26373Y165833D01*
X26227Y166021D01*
X26081Y166250D01*
X25935Y166500D01*
X25810Y166771D01*
X25706Y167041D01*
Y167083D01*
X25685Y167166D01*
X25643Y167333D01*
X25623Y167541D01*
X25581Y167791D01*
X25539Y168083D01*
X25518Y168416D01*
Y168770D01*
Y177477D01*
X23727D01*
Y178144D01*
X30726D01*
Y177477D01*
X28851D01*
Y168666D01*
Y168645D01*
Y168583D01*
Y168458D01*
X28872Y168333D01*
Y168145D01*
X28893Y167958D01*
X28955Y167520D01*
X29039Y167041D01*
X29184Y166583D01*
X29268Y166354D01*
X29372Y166166D01*
X29497Y165979D01*
X29622Y165833D01*
X29664Y165812D01*
X29768Y165729D01*
X29934Y165604D01*
X30184Y165479D01*
X30476Y165354D01*
X30830Y165229D01*
X31247Y165146D01*
X31726Y165125D01*
X31892D01*
X32080Y165146D01*
X32330Y165167D01*
X32601Y165208D01*
X32913Y165292D01*
X33205Y165375D01*
X33517Y165500D01*
X33559Y165521D01*
X33642Y165562D01*
X33809Y165666D01*
X33975Y165791D01*
X34184Y165937D01*
X34392Y166125D01*
X34600Y166354D01*
X34788Y166625D01*
X34809Y166666D01*
X34871Y166771D01*
X34934Y166958D01*
X34975Y167083D01*
X35038Y167229D01*
X35079Y167395D01*
X35121Y167583D01*
X35163Y167791D01*
X35184Y168041D01*
X35225Y168291D01*
X35246Y168562D01*
X35267Y168874D01*
Y169208D01*
Y176394D01*
Y176436D01*
Y176498D01*
Y176623D01*
X35246Y176769D01*
X35225Y177081D01*
X35204Y177206D01*
X35163Y177290D01*
X35142Y177310D01*
X35100Y177352D01*
X35017Y177394D01*
X34913Y177415D01*
X34767Y177456D01*
X34559Y177477D01*
X33371D01*
Y178144D01*
X37704D01*
Y177477D01*
D02*
G37*
G36*
X49827Y173686D02*
X49202D01*
Y173707D01*
Y173728D01*
X49161Y173853D01*
X49119Y174040D01*
X49036Y174269D01*
X48952Y174561D01*
X48827Y174894D01*
X48702Y175227D01*
X48515Y175582D01*
X48327Y175936D01*
X48098Y176269D01*
X47848Y176602D01*
X47557Y176894D01*
X47244Y177123D01*
X46890Y177310D01*
X46494Y177435D01*
X46286Y177477D01*
X45765D01*
Y165167D01*
X47827D01*
Y164500D01*
X40370D01*
Y165167D01*
X42432D01*
Y177477D01*
X42016D01*
X41891Y177456D01*
X41745Y177415D01*
X41537Y177352D01*
X41328Y177269D01*
X41099Y177165D01*
X40849Y176998D01*
X40578Y176811D01*
X40308Y176561D01*
X40058Y176248D01*
X39808Y175873D01*
X39558Y175436D01*
X39349Y174936D01*
X39245Y174665D01*
X39162Y174353D01*
X39079Y174040D01*
X38995Y173686D01*
X38370D01*
X38454Y178144D01*
X49744D01*
X49827Y173686D01*
D02*
G37*
G36*
X19976Y30104D02*
X21143D01*
Y29500D01*
X18726D01*
X18455Y29479D01*
X18185D01*
X17935Y29458D01*
X17747Y29438D01*
X17685D01*
X17622Y29417D01*
X17539Y29396D01*
X17352Y29375D01*
X17206Y29354D01*
Y31021D01*
X17164D01*
X17143Y30979D01*
X17081Y30896D01*
X16997Y30750D01*
X16852Y30562D01*
X16685Y30375D01*
X16456Y30167D01*
X16206Y29979D01*
X15914Y29792D01*
X15872Y29771D01*
X15768Y29729D01*
X15602Y29646D01*
X15394Y29583D01*
X15123Y29500D01*
X14831Y29417D01*
X14498Y29375D01*
X14144Y29354D01*
X13998D01*
X13810Y29375D01*
X13602Y29396D01*
X13352Y29438D01*
X13102Y29500D01*
X12831Y29583D01*
X12581Y29708D01*
X12561Y29729D01*
X12477Y29771D01*
X12373Y29854D01*
X12248Y29958D01*
X11977Y30208D01*
X11852Y30354D01*
X11769Y30521D01*
Y30542D01*
X11748Y30604D01*
X11727Y30708D01*
X11686Y30854D01*
X11665Y31062D01*
X11623Y31312D01*
X11602Y31604D01*
Y31937D01*
Y37061D01*
X10436D01*
Y37686D01*
X14373D01*
Y32250D01*
Y32229D01*
Y32187D01*
Y32125D01*
Y32062D01*
Y31833D01*
X14394Y31583D01*
Y31312D01*
X14414Y31041D01*
X14435Y30812D01*
X14456Y30625D01*
Y30604D01*
X14477Y30562D01*
X14519Y30500D01*
X14581Y30437D01*
X14644Y30354D01*
X14748Y30292D01*
X14894Y30250D01*
X15060Y30229D01*
X15144D01*
X15248Y30250D01*
X15394Y30292D01*
X15560Y30333D01*
X15748Y30417D01*
X15956Y30521D01*
X16185Y30667D01*
X16206Y30687D01*
X16289Y30750D01*
X16393Y30833D01*
X16518Y30958D01*
X16664Y31104D01*
X16789Y31271D01*
X16914Y31458D01*
X16997Y31646D01*
Y31666D01*
X17039Y31750D01*
X17060Y31875D01*
X17101Y32062D01*
X17143Y32270D01*
X17164Y32541D01*
X17206Y32875D01*
Y33229D01*
Y37061D01*
X15852D01*
Y37686D01*
X19976D01*
Y30104D01*
D02*
G37*
G36*
X37450Y61975D02*
X37300D01*
X37100Y62000D01*
X36850D01*
X36525Y62025D01*
X36150Y62050D01*
X35750D01*
X35275Y62075D01*
X34800Y62100D01*
X34275Y62125D01*
X33175Y62150D01*
X32050Y62175D01*
X30925D01*
Y62150D01*
Y62100D01*
Y62000D01*
X30950Y61875D01*
Y61725D01*
X30975Y61525D01*
Y61300D01*
X31000Y61050D01*
Y60775D01*
Y60475D01*
X31025Y59825D01*
X31050Y59075D01*
Y58250D01*
X32300D01*
X32650Y58275D01*
X33450D01*
X33900Y58300D01*
X34375D01*
X35350Y58325D01*
X36400Y58375D01*
Y55875D01*
X36125D01*
X35925Y55900D01*
X35375D01*
X35050Y55925D01*
X34275D01*
X33875Y55950D01*
X32975D01*
X32025Y55975D01*
X31050D01*
Y55950D01*
Y55875D01*
Y55750D01*
Y55575D01*
Y55350D01*
Y55100D01*
Y54800D01*
X31075Y54500D01*
Y53800D01*
X31100Y53025D01*
X31125Y52225D01*
X31150Y51425D01*
X32375D01*
X32800Y51450D01*
X33750D01*
X34300Y51475D01*
X34875Y51500D01*
X35475D01*
X36125Y51525D01*
X36775Y51550D01*
X38150Y51625D01*
X38050Y49000D01*
X27850D01*
Y49050D01*
Y49175D01*
X27875Y49375D01*
Y49625D01*
Y49975D01*
X27900Y50375D01*
Y50850D01*
X27925Y51375D01*
X27950Y51950D01*
Y52575D01*
X27975Y53250D01*
Y53950D01*
Y54700D01*
X28000Y55500D01*
Y56300D01*
Y57150D01*
Y57175D01*
Y57200D01*
Y57350D01*
Y57575D01*
Y57875D01*
Y58250D01*
Y58700D01*
Y59200D01*
X27975Y59725D01*
Y60300D01*
Y60900D01*
X27950Y62150D01*
X27900Y63400D01*
X27875Y64000D01*
X27850Y64600D01*
X37575D01*
X37450Y61975D01*
D02*
G37*
G36*
X47000Y64650D02*
X47350Y64625D01*
X47775Y64550D01*
X48250Y64475D01*
X48750Y64350D01*
X49250Y64200D01*
X49775Y64000D01*
X50250Y63750D01*
X50725Y63450D01*
X51150Y63100D01*
X51500Y62675D01*
X51775Y62175D01*
X51875Y61875D01*
X51950Y61575D01*
X51975Y61275D01*
X52000Y60925D01*
Y60900D01*
Y60800D01*
X51975Y60650D01*
X51950Y60450D01*
X51900Y60200D01*
X51825Y59925D01*
X51725Y59600D01*
X51600Y59275D01*
X51450Y58925D01*
X51225Y58600D01*
X50975Y58250D01*
X50675Y57900D01*
X50300Y57575D01*
X49900Y57275D01*
X49400Y57000D01*
X48850Y56750D01*
Y56575D01*
X48875D01*
X48900Y56550D01*
X49050Y56500D01*
X49275Y56375D01*
X49575Y56200D01*
X49900Y55950D01*
X50275Y55625D01*
X50450Y55425D01*
X50625Y55200D01*
X50800Y54950D01*
X50975Y54675D01*
Y54650D01*
X51025Y54600D01*
X51075Y54500D01*
X51150Y54375D01*
X51250Y54200D01*
X51350Y53975D01*
X51475Y53700D01*
X51625Y53375D01*
X51800Y53025D01*
X51975Y52600D01*
X52200Y52150D01*
X52400Y51625D01*
X52650Y51050D01*
X52900Y50425D01*
X53175Y49750D01*
X53450Y49000D01*
X49875D01*
X49850Y49050D01*
X49825Y49175D01*
X49750Y49400D01*
X49650Y49675D01*
X49525Y50000D01*
X49400Y50400D01*
X49250Y50800D01*
X49100Y51250D01*
X48750Y52125D01*
X48575Y52575D01*
X48400Y53000D01*
X48225Y53375D01*
X48050Y53725D01*
X47900Y54000D01*
X47750Y54225D01*
X47725Y54275D01*
X47600Y54375D01*
X47425Y54550D01*
X47175Y54725D01*
X46825Y54900D01*
X46425Y55075D01*
X45925Y55175D01*
X45350Y55225D01*
X44025D01*
Y55200D01*
Y55075D01*
Y54925D01*
Y54700D01*
Y54400D01*
Y54075D01*
Y53700D01*
X44050Y53275D01*
Y52825D01*
Y52350D01*
Y51825D01*
X44075Y51300D01*
X44100Y50175D01*
X44125Y49000D01*
X40800D01*
Y49050D01*
Y49175D01*
X40825Y49375D01*
Y49625D01*
Y49975D01*
X40850Y50375D01*
Y50850D01*
X40875Y51375D01*
X40900Y51950D01*
Y52575D01*
X40925Y53250D01*
Y53950D01*
Y54700D01*
X40950Y55500D01*
Y56300D01*
Y57150D01*
Y57175D01*
Y57200D01*
Y57350D01*
Y57575D01*
Y57875D01*
Y58250D01*
Y58700D01*
Y59200D01*
X40925Y59725D01*
Y60300D01*
Y60900D01*
X40900Y62150D01*
X40850Y63400D01*
X40825Y64000D01*
X40800Y64600D01*
X43650D01*
X43975Y64625D01*
X44575D01*
X44800Y64650D01*
X45400D01*
X45750Y64675D01*
X46725D01*
X47000Y64650D01*
D02*
G37*
%LPC*%
G36*
X16438Y417788D02*
X15550D01*
Y414575D01*
X16450D01*
X16600Y414587D01*
X16762Y414612D01*
X16950Y414650D01*
X17138Y414700D01*
X17300Y414762D01*
X17437Y414862D01*
X17450Y414875D01*
X17488Y414925D01*
X17537Y415013D01*
X17600Y415150D01*
X17625Y415225D01*
X17662Y415325D01*
X17687Y415438D01*
X17713Y415562D01*
X17738Y415700D01*
X17750Y415850D01*
X17763Y416025D01*
Y416213D01*
Y416225D01*
Y416262D01*
Y416313D01*
Y416375D01*
X17750Y416463D01*
Y416550D01*
X17725Y416762D01*
X17687Y416975D01*
X17638Y417200D01*
X17562Y417375D01*
X17513Y417450D01*
X17462Y417513D01*
X17450Y417525D01*
X17400Y417550D01*
X17325Y417600D01*
X17225Y417650D01*
X17075Y417700D01*
X16900Y417750D01*
X16688Y417775D01*
X16438Y417788D01*
D02*
G37*
G36*
X8650D02*
X8025D01*
Y414225D01*
X8625D01*
X8750Y414237D01*
X8888Y414250D01*
X9025Y414262D01*
X9162Y414288D01*
X9275Y414313D01*
X9287D01*
X9325Y414337D01*
X9375Y414362D01*
X9450Y414400D01*
X9525Y414463D01*
X9612Y414550D01*
X9687Y414650D01*
X9763Y414787D01*
X9775Y414800D01*
X9800Y414862D01*
X9825Y414950D01*
X9862Y415088D01*
X9900Y415263D01*
X9938Y415462D01*
X9950Y415725D01*
X9962Y416012D01*
Y416025D01*
Y416050D01*
Y416087D01*
Y416150D01*
X9950Y416300D01*
X9938Y416475D01*
X9912Y416675D01*
X9888Y416875D01*
X9838Y417063D01*
X9775Y417225D01*
X9763Y417238D01*
X9737Y417287D01*
X9700Y417350D01*
X9650Y417425D01*
X9575Y417513D01*
X9488Y417588D01*
X9400Y417650D01*
X9287Y417700D01*
X9275D01*
X9238Y417712D01*
X9162Y417725D01*
X9075Y417750D01*
X8963Y417763D01*
X8812Y417775D01*
X8650Y417788D01*
D02*
G37*
G36*
X16603Y177685D02*
X16457D01*
X16270Y177665D01*
X16062Y177623D01*
X15833Y177560D01*
X15583Y177477D01*
X15333Y177352D01*
X15103Y177185D01*
X15083Y177165D01*
X15020Y177081D01*
X14916Y176977D01*
X14812Y176790D01*
X14708Y176581D01*
X14583Y176290D01*
X14479Y175977D01*
X14416Y175582D01*
Y175561D01*
Y175540D01*
X14395Y175457D01*
Y175373D01*
Y175227D01*
X14374Y175082D01*
Y174873D01*
X14354Y174644D01*
X14333Y174373D01*
Y174061D01*
X14312Y173728D01*
Y173332D01*
Y172895D01*
X14291Y172415D01*
Y171895D01*
Y171332D01*
Y171291D01*
Y171186D01*
Y171041D01*
Y170832D01*
Y170582D01*
Y170291D01*
Y169978D01*
X14312Y169645D01*
Y168958D01*
X14333Y168270D01*
X14354Y167958D01*
Y167666D01*
X14374Y167395D01*
X14395Y167187D01*
Y167166D01*
Y167145D01*
X14416Y167020D01*
X14458Y166833D01*
X14520Y166604D01*
X14604Y166333D01*
X14708Y166062D01*
X14853Y165812D01*
X15020Y165562D01*
X15041Y165542D01*
X15124Y165479D01*
X15228Y165375D01*
X15416Y165271D01*
X15624Y165167D01*
X15895Y165062D01*
X16228Y165000D01*
X16603Y164979D01*
X16749D01*
X16916Y165000D01*
X17124Y165042D01*
X17353Y165104D01*
X17603Y165187D01*
X17832Y165292D01*
X18061Y165458D01*
X18082Y165479D01*
X18165Y165542D01*
X18249Y165666D01*
X18374Y165833D01*
X18499Y166041D01*
X18624Y166312D01*
X18728Y166646D01*
X18790Y167020D01*
Y167041D01*
Y167083D01*
X18811Y167145D01*
Y167250D01*
X18832Y167375D01*
Y167541D01*
X18853Y167729D01*
X18874Y167979D01*
Y168249D01*
X18894Y168562D01*
Y168895D01*
X18915Y169291D01*
Y169728D01*
X18936Y170207D01*
Y170749D01*
Y171311D01*
Y171353D01*
Y171457D01*
Y171603D01*
Y171811D01*
Y172082D01*
Y172353D01*
Y172665D01*
X18915Y173020D01*
Y173707D01*
X18894Y174394D01*
X18874Y174707D01*
X18853Y174998D01*
X18832Y175248D01*
X18811Y175457D01*
Y175477D01*
Y175498D01*
X18790Y175623D01*
X18749Y175811D01*
X18686Y176040D01*
X18603Y176290D01*
X18499Y176561D01*
X18374Y176811D01*
X18207Y177060D01*
X18186Y177081D01*
X18124Y177165D01*
X17999Y177269D01*
X17832Y177373D01*
X17603Y177498D01*
X17332Y177581D01*
X16999Y177665D01*
X16603Y177685D01*
D02*
G37*
G36*
X13412Y336912D02*
X13325D01*
X13213Y336900D01*
X13088Y336875D01*
X12950Y336838D01*
X12800Y336788D01*
X12650Y336713D01*
X12513Y336613D01*
X12500Y336600D01*
X12462Y336550D01*
X12400Y336488D01*
X12337Y336375D01*
X12275Y336250D01*
X12200Y336075D01*
X12138Y335888D01*
X12100Y335650D01*
Y335637D01*
Y335625D01*
X12088Y335575D01*
Y335525D01*
Y335437D01*
X12075Y335350D01*
Y335225D01*
X12062Y335087D01*
X12050Y334925D01*
Y334737D01*
X12037Y334538D01*
Y334300D01*
Y334037D01*
X12025Y333750D01*
Y333437D01*
Y333100D01*
Y333075D01*
Y333013D01*
Y332925D01*
Y332800D01*
Y332650D01*
Y332475D01*
Y332288D01*
X12037Y332087D01*
Y331675D01*
X12050Y331262D01*
X12062Y331075D01*
Y330900D01*
X12075Y330737D01*
X12088Y330612D01*
Y330600D01*
Y330588D01*
X12100Y330512D01*
X12125Y330400D01*
X12162Y330262D01*
X12212Y330100D01*
X12275Y329938D01*
X12363Y329787D01*
X12462Y329638D01*
X12475Y329625D01*
X12525Y329588D01*
X12587Y329525D01*
X12700Y329463D01*
X12825Y329400D01*
X12988Y329338D01*
X13187Y329300D01*
X13412Y329288D01*
X13500D01*
X13600Y329300D01*
X13725Y329325D01*
X13862Y329363D01*
X14013Y329413D01*
X14150Y329475D01*
X14288Y329575D01*
X14300Y329588D01*
X14350Y329625D01*
X14400Y329700D01*
X14475Y329800D01*
X14550Y329925D01*
X14625Y330087D01*
X14687Y330288D01*
X14725Y330512D01*
Y330525D01*
Y330550D01*
X14738Y330588D01*
Y330650D01*
X14750Y330725D01*
Y330825D01*
X14762Y330938D01*
X14775Y331087D01*
Y331250D01*
X14787Y331437D01*
Y331638D01*
X14800Y331875D01*
Y332137D01*
X14812Y332425D01*
Y332750D01*
Y333087D01*
Y333113D01*
Y333175D01*
Y333262D01*
Y333387D01*
Y333550D01*
Y333713D01*
Y333900D01*
X14800Y334113D01*
Y334525D01*
X14787Y334938D01*
X14775Y335125D01*
X14762Y335300D01*
X14750Y335450D01*
X14738Y335575D01*
Y335588D01*
Y335600D01*
X14725Y335675D01*
X14700Y335788D01*
X14662Y335925D01*
X14613Y336075D01*
X14550Y336238D01*
X14475Y336387D01*
X14375Y336538D01*
X14363Y336550D01*
X14325Y336600D01*
X14250Y336663D01*
X14150Y336725D01*
X14013Y336800D01*
X13850Y336850D01*
X13650Y336900D01*
X13412Y336912D01*
D02*
G37*
G36*
X53950Y336788D02*
X53062D01*
Y333575D01*
X53962D01*
X54112Y333588D01*
X54275Y333612D01*
X54462Y333650D01*
X54650Y333700D01*
X54813Y333763D01*
X54950Y333862D01*
X54962Y333875D01*
X55000Y333925D01*
X55050Y334013D01*
X55112Y334150D01*
X55137Y334225D01*
X55175Y334325D01*
X55200Y334437D01*
X55225Y334562D01*
X55250Y334700D01*
X55263Y334850D01*
X55275Y335025D01*
Y335212D01*
Y335225D01*
Y335262D01*
Y335313D01*
Y335375D01*
X55263Y335462D01*
Y335550D01*
X55238Y335763D01*
X55200Y335975D01*
X55150Y336200D01*
X55075Y336375D01*
X55025Y336450D01*
X54975Y336512D01*
X54962Y336525D01*
X54913Y336550D01*
X54838Y336600D01*
X54738Y336650D01*
X54588Y336700D01*
X54413Y336750D01*
X54200Y336775D01*
X53950Y336788D01*
D02*
G37*
G36*
X37025Y336912D02*
X36937D01*
X36825Y336900D01*
X36700Y336875D01*
X36562Y336838D01*
X36413Y336788D01*
X36263Y336713D01*
X36125Y336613D01*
X36112Y336600D01*
X36075Y336550D01*
X36013Y336488D01*
X35950Y336375D01*
X35888Y336250D01*
X35813Y336075D01*
X35750Y335888D01*
X35713Y335650D01*
Y335637D01*
Y335625D01*
X35700Y335575D01*
Y335525D01*
Y335437D01*
X35688Y335350D01*
Y335225D01*
X35675Y335087D01*
X35662Y334925D01*
Y334737D01*
X35650Y334538D01*
Y334300D01*
Y334037D01*
X35638Y333750D01*
Y333437D01*
Y333100D01*
Y333075D01*
Y333013D01*
Y332925D01*
Y332800D01*
Y332650D01*
Y332475D01*
Y332288D01*
X35650Y332087D01*
Y331675D01*
X35662Y331262D01*
X35675Y331075D01*
Y330900D01*
X35688Y330737D01*
X35700Y330612D01*
Y330600D01*
Y330588D01*
X35713Y330512D01*
X35737Y330400D01*
X35775Y330262D01*
X35825Y330100D01*
X35888Y329938D01*
X35975Y329787D01*
X36075Y329638D01*
X36088Y329625D01*
X36138Y329588D01*
X36200Y329525D01*
X36312Y329463D01*
X36437Y329400D01*
X36600Y329338D01*
X36800Y329300D01*
X37025Y329288D01*
X37113D01*
X37212Y329300D01*
X37337Y329325D01*
X37475Y329363D01*
X37625Y329413D01*
X37762Y329475D01*
X37900Y329575D01*
X37912Y329588D01*
X37962Y329625D01*
X38012Y329700D01*
X38087Y329800D01*
X38162Y329925D01*
X38238Y330087D01*
X38300Y330288D01*
X38337Y330512D01*
Y330525D01*
Y330550D01*
X38350Y330588D01*
Y330650D01*
X38363Y330725D01*
Y330825D01*
X38375Y330938D01*
X38388Y331087D01*
Y331250D01*
X38400Y331437D01*
Y331638D01*
X38412Y331875D01*
Y332137D01*
X38425Y332425D01*
Y332750D01*
Y333087D01*
Y333113D01*
Y333175D01*
Y333262D01*
Y333387D01*
Y333550D01*
Y333713D01*
Y333900D01*
X38412Y334113D01*
Y334525D01*
X38400Y334938D01*
X38388Y335125D01*
X38375Y335300D01*
X38363Y335450D01*
X38350Y335575D01*
Y335588D01*
Y335600D01*
X38337Y335675D01*
X38313Y335788D01*
X38275Y335925D01*
X38225Y336075D01*
X38162Y336238D01*
X38087Y336387D01*
X37988Y336538D01*
X37975Y336550D01*
X37938Y336600D01*
X37863Y336663D01*
X37762Y336725D01*
X37625Y336800D01*
X37462Y336850D01*
X37262Y336900D01*
X37025Y336912D01*
D02*
G37*
G36*
X25075Y417912D02*
X24987D01*
X24875Y417900D01*
X24750Y417875D01*
X24612Y417837D01*
X24463Y417788D01*
X24313Y417712D01*
X24175Y417613D01*
X24162Y417600D01*
X24125Y417550D01*
X24062Y417487D01*
X24000Y417375D01*
X23937Y417250D01*
X23863Y417075D01*
X23800Y416888D01*
X23763Y416650D01*
Y416638D01*
Y416625D01*
X23750Y416575D01*
Y416525D01*
Y416437D01*
X23738Y416350D01*
Y416225D01*
X23725Y416087D01*
X23712Y415925D01*
Y415737D01*
X23700Y415538D01*
Y415300D01*
Y415037D01*
X23687Y414750D01*
Y414437D01*
Y414100D01*
Y414075D01*
Y414012D01*
Y413925D01*
Y413800D01*
Y413650D01*
Y413475D01*
Y413287D01*
X23700Y413088D01*
Y412675D01*
X23712Y412262D01*
X23725Y412075D01*
Y411900D01*
X23738Y411737D01*
X23750Y411613D01*
Y411600D01*
Y411587D01*
X23763Y411513D01*
X23787Y411400D01*
X23825Y411263D01*
X23875Y411100D01*
X23937Y410938D01*
X24025Y410787D01*
X24125Y410638D01*
X24137Y410625D01*
X24187Y410588D01*
X24250Y410525D01*
X24363Y410463D01*
X24487Y410400D01*
X24650Y410337D01*
X24850Y410300D01*
X25075Y410288D01*
X25163D01*
X25262Y410300D01*
X25387Y410325D01*
X25525Y410362D01*
X25675Y410413D01*
X25813Y410475D01*
X25950Y410575D01*
X25962Y410588D01*
X26013Y410625D01*
X26063Y410700D01*
X26138Y410800D01*
X26212Y410925D01*
X26287Y411088D01*
X26350Y411287D01*
X26388Y411513D01*
Y411525D01*
Y411550D01*
X26400Y411587D01*
Y411650D01*
X26412Y411725D01*
Y411825D01*
X26425Y411938D01*
X26438Y412087D01*
Y412250D01*
X26450Y412437D01*
Y412638D01*
X26463Y412875D01*
Y413137D01*
X26475Y413425D01*
Y413750D01*
Y414087D01*
Y414113D01*
Y414175D01*
Y414262D01*
Y414388D01*
Y414550D01*
Y414712D01*
Y414900D01*
X26463Y415112D01*
Y415525D01*
X26450Y415938D01*
X26438Y416125D01*
X26425Y416300D01*
X26412Y416450D01*
X26400Y416575D01*
Y416587D01*
Y416600D01*
X26388Y416675D01*
X26362Y416787D01*
X26325Y416925D01*
X26275Y417075D01*
X26212Y417238D01*
X26138Y417387D01*
X26037Y417537D01*
X26025Y417550D01*
X25987Y417600D01*
X25912Y417662D01*
X25813Y417725D01*
X25675Y417800D01*
X25512Y417850D01*
X25313Y417900D01*
X25075Y417912D01*
D02*
G37*
G36*
X48650Y100440D02*
X48275D01*
X48075Y100415D01*
X47825Y100390D01*
X47550Y100365D01*
X47225Y100340D01*
Y100315D01*
Y100240D01*
Y100090D01*
X47250Y99915D01*
Y99715D01*
X47275Y99440D01*
Y99140D01*
X47300Y98815D01*
Y98440D01*
Y98065D01*
X47325Y97215D01*
X47350Y96290D01*
Y95315D01*
Y95290D01*
Y95190D01*
Y95040D01*
Y94815D01*
Y94565D01*
Y94265D01*
Y93915D01*
X47375Y93540D01*
Y93115D01*
Y92690D01*
X47400Y91715D01*
X47425Y90690D01*
X47475Y89640D01*
X47500D01*
X47600Y89615D01*
X47750Y89590D01*
X47950Y89565D01*
X48200Y89540D01*
X48450Y89515D01*
X49025Y89490D01*
X49275D01*
X49450Y89515D01*
X49650Y89540D01*
X49900Y89565D01*
X50175Y89615D01*
X50475Y89690D01*
X51100Y89890D01*
X51400Y90015D01*
X51725Y90165D01*
X52025Y90340D01*
X52325Y90565D01*
X52600Y90815D01*
X52850Y91090D01*
X52875Y91115D01*
X52900Y91165D01*
X52975Y91265D01*
X53050Y91365D01*
X53150Y91540D01*
X53250Y91715D01*
X53350Y91940D01*
X53475Y92190D01*
X53600Y92440D01*
X53700Y92740D01*
X53900Y93415D01*
X54050Y94165D01*
X54075Y94565D01*
X54100Y94990D01*
Y95015D01*
Y95090D01*
Y95215D01*
X54075Y95365D01*
X54050Y95565D01*
X54025Y95790D01*
X54000Y96065D01*
X53925Y96340D01*
X53775Y96940D01*
X53525Y97590D01*
X53375Y97915D01*
X53200Y98240D01*
X53000Y98565D01*
X52750Y98865D01*
X52725Y98890D01*
X52675Y98940D01*
X52600Y99015D01*
X52500Y99115D01*
X52350Y99240D01*
X52175Y99365D01*
X51975Y99515D01*
X51725Y99665D01*
X51450Y99790D01*
X51150Y99940D01*
X50825Y100065D01*
X50450Y100190D01*
X50050Y100290D01*
X49625Y100365D01*
X49150Y100415D01*
X48650Y100440D01*
D02*
G37*
G36*
X44201Y37353D02*
X44118D01*
X44035Y37332D01*
X43910Y37311D01*
X43785Y37270D01*
X43660Y37228D01*
X43535Y37145D01*
X43410Y37040D01*
X43389Y37020D01*
X43368Y36978D01*
X43327Y36895D01*
X43285Y36749D01*
X43222Y36561D01*
X43181Y36291D01*
X43160Y35957D01*
X43139Y35770D01*
Y35561D01*
Y34728D01*
X45326D01*
Y35582D01*
Y35603D01*
Y35624D01*
Y35770D01*
X45305Y35957D01*
X45285Y36186D01*
X45243Y36416D01*
X45201Y36665D01*
X45118Y36853D01*
X45014Y37020D01*
X44993Y37040D01*
X44951Y37082D01*
X44889Y37124D01*
X44805Y37186D01*
X44680Y37249D01*
X44556Y37311D01*
X44389Y37332D01*
X44201Y37353D01*
D02*
G37*
G36*
X5687Y33624D02*
X5562D01*
X5457Y33604D01*
X5208Y33583D01*
X4916Y33541D01*
X4603Y33499D01*
X4291Y33416D01*
X3979Y33312D01*
X3749Y33187D01*
X3729Y33166D01*
X3666Y33124D01*
X3583Y33020D01*
X3500Y32895D01*
X3395Y32708D01*
X3312Y32500D01*
X3250Y32229D01*
X3229Y31916D01*
Y31895D01*
Y31812D01*
X3250Y31687D01*
X3270Y31521D01*
X3312Y31354D01*
X3374Y31166D01*
X3458Y31000D01*
X3562Y30833D01*
X3583Y30812D01*
X3624Y30771D01*
X3687Y30708D01*
X3791Y30646D01*
X3916Y30562D01*
X4062Y30500D01*
X4229Y30458D01*
X4416Y30437D01*
X4520D01*
X4624Y30458D01*
X4770Y30479D01*
X4916Y30542D01*
X5062Y30604D01*
X5228Y30708D01*
X5353Y30833D01*
X5374Y30854D01*
X5416Y30916D01*
X5457Y31021D01*
X5520Y31166D01*
X5582Y31354D01*
X5645Y31625D01*
X5666Y31916D01*
X5687Y32291D01*
Y33624D01*
D02*
G37*
G36*
X19875Y119760D02*
X19700D01*
X19575Y119735D01*
X19425Y119710D01*
X19250Y119685D01*
X18850Y119560D01*
X18375Y119385D01*
X18125Y119260D01*
X17875Y119085D01*
X17625Y118910D01*
X17375Y118710D01*
X17125Y118460D01*
X16900Y118185D01*
X16875Y118160D01*
X16850Y118110D01*
X16800Y118035D01*
X16700Y117910D01*
X16625Y117735D01*
X16525Y117560D01*
X16400Y117335D01*
X16300Y117110D01*
X16175Y116835D01*
X16075Y116535D01*
X15950Y116185D01*
X15875Y115835D01*
X15725Y115060D01*
X15700Y114660D01*
X15675Y114210D01*
Y114185D01*
Y114110D01*
Y113960D01*
X15700Y113785D01*
X15725Y113585D01*
X15750Y113335D01*
X15775Y113060D01*
X15825Y112760D01*
X15975Y112110D01*
X16225Y111435D01*
X16350Y111085D01*
X16525Y110760D01*
X16725Y110435D01*
X16950Y110135D01*
X16975Y110110D01*
X17000Y110060D01*
X17075Y109985D01*
X17175Y109885D01*
X17300Y109785D01*
X17450Y109635D01*
X17825Y109360D01*
X18300Y109085D01*
X18850Y108835D01*
X19125Y108735D01*
X19450Y108660D01*
X19775Y108610D01*
X20125Y108585D01*
X20300D01*
X20425Y108610D01*
X20575Y108635D01*
X20750Y108660D01*
X21150Y108785D01*
X21625Y108960D01*
X21875Y109110D01*
X22125Y109260D01*
X22375Y109435D01*
X22625Y109635D01*
X22875Y109885D01*
X23100Y110160D01*
X23125Y110185D01*
X23150Y110235D01*
X23225Y110310D01*
X23300Y110435D01*
X23375Y110610D01*
X23500Y110785D01*
X23600Y111010D01*
X23725Y111260D01*
X23825Y111510D01*
X23950Y111835D01*
X24050Y112160D01*
X24125Y112510D01*
X24275Y113285D01*
X24300Y113685D01*
X24325Y114135D01*
Y114160D01*
Y114235D01*
Y114385D01*
X24300Y114560D01*
X24275Y114760D01*
X24250Y115010D01*
X24225Y115285D01*
X24175Y115585D01*
X24000Y116235D01*
X23775Y116910D01*
X23625Y117235D01*
X23450Y117560D01*
X23250Y117885D01*
X23025Y118185D01*
X23000Y118210D01*
X22975Y118260D01*
X22900Y118335D01*
X22800Y118435D01*
X22675Y118560D01*
X22525Y118685D01*
X22150Y118985D01*
X21700Y119260D01*
X21150Y119510D01*
X20875Y119610D01*
X20550Y119685D01*
X20225Y119735D01*
X19875Y119760D01*
D02*
G37*
G36*
X45875Y62425D02*
X45475D01*
X45200Y62400D01*
X44900Y62375D01*
X44550Y62350D01*
X43875Y62250D01*
Y62225D01*
Y62175D01*
Y62050D01*
X43900Y61900D01*
Y61725D01*
X43925Y61500D01*
Y61250D01*
X43950Y60950D01*
Y60600D01*
Y60250D01*
X43975Y59850D01*
Y59425D01*
X44000Y58950D01*
Y58475D01*
Y57950D01*
Y57400D01*
X44400D01*
X44750Y57375D01*
X45300D01*
X45475Y57400D01*
X45725Y57425D01*
X46025Y57450D01*
X46325Y57525D01*
X46675Y57600D01*
X47050Y57700D01*
X47400Y57850D01*
X47750Y58025D01*
X48075Y58225D01*
X48350Y58500D01*
X48600Y58800D01*
X48775Y59150D01*
X48900Y59550D01*
X48950Y60025D01*
Y60050D01*
Y60125D01*
X48925Y60250D01*
X48900Y60400D01*
X48850Y60575D01*
X48800Y60775D01*
X48700Y61000D01*
X48575Y61225D01*
X48400Y61450D01*
X48200Y61675D01*
X47950Y61875D01*
X47650Y62050D01*
X47300Y62200D01*
X46900Y62325D01*
X46425Y62400D01*
X45875Y62425D01*
D02*
G37*
%LPD*%
M02*
