G04 Layer_Physical_Order=1*
G04 Layer_Color=255*
%FSLAX25Y25*%
%MOIN*%
G70*
G01*
G75*
%ADD10O,0.07283X0.02165*%
%ADD11R,0.02756X0.04724*%
G04:AMPARAMS|DCode=12|XSize=23.62mil|YSize=57.09mil|CornerRadius=2.01mil|HoleSize=0mil|Usage=FLASHONLY|Rotation=90.000|XOffset=0mil|YOffset=0mil|HoleType=Round|Shape=RoundedRectangle|*
%AMROUNDEDRECTD12*
21,1,0.02362,0.05307,0,0,90.0*
21,1,0.01961,0.05709,0,0,90.0*
1,1,0.00402,0.02653,0.00980*
1,1,0.00402,0.02653,-0.00980*
1,1,0.00402,-0.02653,-0.00980*
1,1,0.00402,-0.02653,0.00980*
%
%ADD12ROUNDEDRECTD12*%
%ADD13R,0.04331X0.04331*%
%ADD14C,0.02000*%
%ADD15C,0.03000*%
%ADD16C,0.05000*%
%ADD17C,0.00800*%
%ADD18C,0.01000*%
%ADD19C,0.04000*%
%ADD20C,0.09842*%
%ADD21C,0.06000*%
%ADD22C,0.11811*%
%ADD23R,0.05905X0.05905*%
%ADD24C,0.05905*%
%ADD25C,0.02000*%
%ADD26C,0.02756*%
G36*
X38972Y252572D02*
X38967Y252577D01*
X38950Y252582D01*
X38923Y252586D01*
X38885Y252590D01*
X38706Y252597D01*
X38429Y252600D01*
Y253400D01*
X38972Y253428D01*
Y252572D01*
D02*
G37*
G36*
X27991Y256991D02*
X28454Y256681D01*
X29000Y256573D01*
X29000Y256573D01*
X38383D01*
X38390Y256572D01*
X38439Y256499D01*
X39128Y256038D01*
X39941Y255876D01*
X45059D01*
X45483Y255961D01*
X45910Y255629D01*
Y255371D01*
X45483Y255039D01*
X45059Y255123D01*
X39941D01*
X39128Y254962D01*
X38743Y254704D01*
X38660Y254787D01*
X38197Y255097D01*
X37651Y255205D01*
X37651Y255205D01*
X34278D01*
X34278Y255205D01*
X33732Y255097D01*
X33269Y254787D01*
X33269Y254787D01*
X30522Y252041D01*
X30493Y252039D01*
X30373Y252050D01*
X30003Y252180D01*
X29884Y252780D01*
X29442Y253442D01*
X25539Y257345D01*
Y258789D01*
X26001Y258980D01*
X27991Y256991D01*
D02*
G37*
G36*
X53573Y259343D02*
Y251657D01*
X53165Y251228D01*
X52539D01*
X52214Y251714D01*
X51428Y252240D01*
X50500Y252425D01*
X49572Y252240D01*
X49469Y252171D01*
X48969Y252438D01*
Y258907D01*
X49711Y259649D01*
X49831Y259760D01*
X49845Y259772D01*
X53165D01*
X53573Y259343D01*
D02*
G37*
G36*
X37820Y251437D02*
X37888Y251328D01*
X37964Y251232D01*
X38047Y251148D01*
X38138Y251078D01*
X38236Y251020D01*
X38341Y250975D01*
X38454Y250943D01*
X38574Y250924D01*
X38702Y250917D01*
X38385Y250117D01*
X38278Y250114D01*
X38167Y250103D01*
X38050Y250084D01*
X37800Y250026D01*
X37667Y249986D01*
X37386Y249883D01*
X37084Y249752D01*
X37760Y251559D01*
X37820Y251437D01*
D02*
G37*
G36*
X29560Y43060D02*
X29510Y43144D01*
X29360Y43218D01*
X29110Y43284D01*
X28760Y43342D01*
X28310Y43390D01*
X26360Y43482D01*
X24560Y43500D01*
Y48500D01*
X25510Y48504D01*
X29110Y48715D01*
X29360Y48781D01*
X29510Y48856D01*
X29560Y48940D01*
Y43060D01*
D02*
G37*
G36*
X48759Y305213D02*
X49496Y304588D01*
X49821Y304361D01*
X50118Y304190D01*
X50387Y304075D01*
X50627Y304018D01*
X50839Y304016D01*
X51022Y304072D01*
X51176Y304184D01*
X48360Y301367D01*
X48472Y301522D01*
X48527Y301705D01*
X48526Y301916D01*
X48468Y302156D01*
X48354Y302425D01*
X48183Y302722D01*
X47955Y303048D01*
X47671Y303402D01*
X46933Y304196D01*
X48348Y305610D01*
X48759Y305213D01*
D02*
G37*
G36*
X39232Y257209D02*
X39221Y257284D01*
X39189Y257350D01*
X39134Y257409D01*
X39059Y257459D01*
X38961Y257502D01*
X38842Y257538D01*
X38701Y257565D01*
X38538Y257584D01*
X38354Y257596D01*
X38148Y257600D01*
Y258400D01*
X38354Y258404D01*
X38701Y258435D01*
X38842Y258463D01*
X38961Y258498D01*
X39059Y258541D01*
X39134Y258591D01*
X39189Y258650D01*
X39221Y258716D01*
X39232Y258790D01*
Y257209D01*
D02*
G37*
G36*
X46564Y303096D02*
X46899Y302735D01*
X47139Y302436D01*
X47315Y302184D01*
Y299878D01*
X47393Y299488D01*
X47614Y299157D01*
X47945Y298936D01*
X48335Y298858D01*
X52665D01*
X52971Y298919D01*
X53408Y298616D01*
Y298384D01*
X52971Y298081D01*
X52665Y298142D01*
X48335D01*
X47945Y298064D01*
X47614Y297843D01*
X47393Y297512D01*
X47315Y297122D01*
Y292791D01*
X47393Y292401D01*
X47614Y292070D01*
X47945Y291849D01*
X48335Y291772D01*
X48366D01*
X48372Y291757D01*
X48412Y291607D01*
X48448Y291395D01*
X48461Y291248D01*
Y288749D01*
X48448Y288599D01*
X48412Y288385D01*
X48371Y288233D01*
X48370Y288228D01*
X48335D01*
X47945Y288151D01*
X47661Y287961D01*
X47581Y287968D01*
X47446Y288007D01*
X47154Y288142D01*
X47021Y288813D01*
X46561Y289502D01*
X45872Y289962D01*
X45059Y290124D01*
X44627D01*
X44588Y290269D01*
X44552Y290484D01*
X44539Y290633D01*
Y304467D01*
X45001Y304658D01*
X46564Y303096D01*
D02*
G37*
G36*
X13661Y256957D02*
X13602Y256973D01*
X13506Y256988D01*
X13375Y257001D01*
X12492Y257035D01*
X11453Y257043D01*
X11661Y259043D01*
X13661D01*
Y256957D01*
D02*
G37*
G36*
X21396Y257040D02*
X21461Y257014D01*
Y256500D01*
X21616Y255720D01*
X22058Y255058D01*
X24924Y252192D01*
X24748Y251660D01*
X24727Y251657D01*
X21942Y254442D01*
X21280Y254884D01*
X20500Y255039D01*
X19483D01*
X19059Y255123D01*
X13941D01*
X13128Y254962D01*
X12439Y254502D01*
X11979Y253813D01*
X11817Y253000D01*
X11979Y252187D01*
X12439Y251499D01*
X13128Y251038D01*
X13941Y250876D01*
X19059D01*
X19483Y250961D01*
X19655D01*
X20418Y250198D01*
X20099Y249810D01*
X19872Y249962D01*
X19059Y250124D01*
X13941D01*
X13128Y249962D01*
X12439Y249501D01*
X11979Y248813D01*
X11817Y248000D01*
X11979Y247187D01*
X12439Y246498D01*
X13128Y246038D01*
X13941Y245877D01*
X19059D01*
X19872Y246038D01*
X20561Y246498D01*
X21021Y247187D01*
X21182Y248000D01*
X21021Y248813D01*
X20869Y249040D01*
X21257Y249359D01*
X22189Y248427D01*
X22260Y248072D01*
X22786Y247286D01*
X23572Y246760D01*
X24500Y246575D01*
X25182Y246711D01*
X25483Y246261D01*
X25260Y245928D01*
X25076Y245000D01*
X25260Y244072D01*
X25786Y243286D01*
X26572Y242760D01*
X27500Y242576D01*
X28428Y242760D01*
X29214Y243286D01*
X29740Y244072D01*
X29853Y244639D01*
X30061Y244793D01*
X30346Y244911D01*
X30572Y244760D01*
X31500Y244576D01*
X32428Y244760D01*
X33214Y245286D01*
X33740Y246072D01*
X33924Y247000D01*
X33740Y247928D01*
X33214Y248714D01*
X33109Y248784D01*
X33058Y248844D01*
X33015Y248902D01*
X32983Y248953D01*
X32959Y248997D01*
X32943Y249034D01*
X32932Y249066D01*
X32927Y249086D01*
Y250409D01*
X33626Y251107D01*
X34100Y250875D01*
X34260Y250072D01*
X34786Y249286D01*
X35572Y248760D01*
X36500Y248575D01*
X37428Y248760D01*
X37464Y248784D01*
X37705Y248678D01*
X37908Y248453D01*
X37817Y248000D01*
X37979Y247187D01*
X38439Y246498D01*
X39128Y246038D01*
X39941Y245877D01*
X45059D01*
X45366Y245938D01*
X46497Y245961D01*
X47295D01*
X47444Y245948D01*
X47658Y245912D01*
X47810Y245871D01*
X47817Y245869D01*
X47893Y245488D01*
X48114Y245157D01*
X48305Y245029D01*
X48153Y244529D01*
X46819D01*
X46796Y244531D01*
X46702Y244545D01*
X46615Y244562D01*
X46536Y244584D01*
X46464Y244609D01*
X46397Y244637D01*
X46335Y244669D01*
X46276Y244705D01*
X46190Y244766D01*
X46113Y244801D01*
X45872Y244962D01*
X45059Y245124D01*
X39941D01*
X39128Y244962D01*
X38439Y244501D01*
X37979Y243813D01*
X37817Y243000D01*
X37911Y242529D01*
X37529Y242029D01*
X21471D01*
X21089Y242529D01*
X21182Y243000D01*
X21021Y243813D01*
X20561Y244501D01*
X19872Y244962D01*
X19059Y245124D01*
X17500D01*
Y243000D01*
X16500D01*
Y242000D01*
X11621D01*
X11584Y241947D01*
X6927D01*
X6775Y242447D01*
X6942Y242558D01*
X7237Y243000D01*
X5500D01*
Y244000D01*
X4500D01*
Y245737D01*
X4364Y245646D01*
X3864Y245914D01*
Y247772D01*
X8165D01*
X8556Y247849D01*
X8886Y248070D01*
X9107Y248401D01*
X9185Y248791D01*
Y253122D01*
X9107Y253512D01*
X8886Y253843D01*
X8556Y254064D01*
X8413Y254490D01*
X8556Y254936D01*
X8886Y255157D01*
X9107Y255488D01*
X9185Y255878D01*
Y255913D01*
X9190Y255915D01*
X9342Y255956D01*
X9556Y255991D01*
X9705Y256004D01*
X12773D01*
X13305Y255983D01*
X13379Y255976D01*
X13388Y255975D01*
X13391Y255974D01*
X13395Y255974D01*
X13447Y255966D01*
X13483Y255967D01*
X13486Y255967D01*
X13941Y255876D01*
X19059D01*
X19872Y256038D01*
X20561Y256499D01*
X20961Y257098D01*
X21396Y257040D01*
D02*
G37*
G36*
X8161Y259853D02*
X8221Y259683D01*
X8321Y259533D01*
X8462Y259403D01*
X8643Y259293D01*
X8865Y259203D01*
X9126Y259133D01*
X9428Y259083D01*
X9770Y259053D01*
X10152Y259043D01*
Y257043D01*
X9770Y257033D01*
X9428Y257003D01*
X9126Y256953D01*
X8865Y256883D01*
X8643Y256793D01*
X8462Y256683D01*
X8321Y256553D01*
X8221Y256403D01*
X8161Y256233D01*
X8140Y256043D01*
Y260043D01*
X8161Y259853D01*
D02*
G37*
G36*
X48860Y246000D02*
X48840Y246190D01*
X48779Y246360D01*
X48679Y246510D01*
X48538Y246640D01*
X48357Y246750D01*
X48135Y246840D01*
X47874Y246910D01*
X47572Y246960D01*
X47230Y246990D01*
X47109Y246993D01*
X45339Y246957D01*
Y249043D01*
X45378Y249035D01*
X45456Y249028D01*
X45917Y249011D01*
X46974Y249003D01*
X47230Y249010D01*
X47572Y249040D01*
X47874Y249090D01*
X48135Y249160D01*
X48357Y249250D01*
X48538Y249360D01*
X48679Y249490D01*
X48779Y249640D01*
X48840Y249810D01*
X48860Y250000D01*
Y246000D01*
D02*
G37*
G36*
X36786Y229286D02*
X36827Y228861D01*
X36532Y228566D01*
X35980Y227739D01*
X35865Y227163D01*
X35606Y227111D01*
X35209Y226846D01*
X34944Y226449D01*
X34850Y225980D01*
Y224020D01*
X34944Y223551D01*
X35209Y223154D01*
X35606Y222889D01*
X36075Y222795D01*
X36790D01*
X36874Y222705D01*
X36657Y222205D01*
X36075D01*
X35606Y222111D01*
X35209Y221846D01*
X34944Y221449D01*
X34850Y220980D01*
Y219020D01*
X34944Y218551D01*
X35209Y218154D01*
X35606Y217889D01*
X36075Y217795D01*
X41382D01*
X41850Y217889D01*
X42248Y218154D01*
X42513Y218551D01*
X42606Y219020D01*
Y219222D01*
X42845Y219461D01*
X45000D01*
X45780Y219616D01*
X46442Y220058D01*
X46497Y220140D01*
X46714Y220286D01*
X47240Y221072D01*
X47425Y222000D01*
X47240Y222928D01*
X46714Y223714D01*
X45928Y224240D01*
X45000Y224425D01*
X44072Y224240D01*
X43286Y223714D01*
X42765Y223835D01*
X42606Y224020D01*
Y225980D01*
X42513Y226449D01*
X42248Y226846D01*
X42146Y226914D01*
X42132Y226997D01*
X42420Y227451D01*
X45644D01*
X48174Y224921D01*
Y194453D01*
X42251Y188530D01*
X30196D01*
X30071Y189030D01*
X30806Y189423D01*
X31707Y190163D01*
X32447Y191065D01*
X32997Y192093D01*
X33336Y193209D01*
X33450Y194370D01*
X33336Y195531D01*
X32997Y196647D01*
X32447Y197676D01*
X31707Y198577D01*
X30806Y199317D01*
X29777Y199867D01*
X28661Y200206D01*
X27500Y200320D01*
X27200Y200290D01*
X27127Y200786D01*
X27402Y200840D01*
X28064Y201283D01*
X28359Y201724D01*
X24885D01*
X25180Y201283D01*
X25842Y200840D01*
X26452Y200719D01*
X26427Y200214D01*
X26339Y200206D01*
X25223Y199867D01*
X24194Y199317D01*
X23293Y198577D01*
X22553Y197676D01*
X22003Y196647D01*
X21664Y195531D01*
X21550Y194370D01*
X21664Y193209D01*
X22003Y192093D01*
X22553Y191065D01*
X23293Y190163D01*
X24194Y189423D01*
X24929Y189030D01*
X24804Y188530D01*
X18500D01*
X17586Y188410D01*
X16735Y188057D01*
X16004Y187496D01*
X3504Y174996D01*
X2943Y174265D01*
X2590Y173414D01*
X2470Y172500D01*
Y90000D01*
X2590Y89086D01*
X2943Y88235D01*
X3470Y87548D01*
Y78984D01*
X2647Y78353D01*
X2006Y77517D01*
X1927Y77328D01*
X1427Y77427D01*
Y197933D01*
X1927Y198103D01*
X2004Y198004D01*
X2735Y197443D01*
X3586Y197090D01*
X4500Y196970D01*
X5414Y197090D01*
X6265Y197443D01*
X6996Y198004D01*
X13962Y204970D01*
X23000D01*
X23914Y205090D01*
X24765Y205443D01*
X25496Y206004D01*
X28996Y209504D01*
X29557Y210235D01*
X29910Y211086D01*
X30030Y212000D01*
X29910Y212914D01*
X29557Y213765D01*
X28996Y214496D01*
X28265Y215057D01*
X27414Y215410D01*
X26500Y215530D01*
X25586Y215410D01*
X24735Y215057D01*
X24004Y214496D01*
X21538Y212030D01*
X20515D01*
X20394Y212111D01*
X19925Y212205D01*
X14618D01*
X14150Y212111D01*
X14028Y212030D01*
X12500D01*
X11586Y211910D01*
X10735Y211557D01*
X10004Y210996D01*
X2004Y202996D01*
X1927Y202897D01*
X1427Y203066D01*
Y216594D01*
X1927Y216861D01*
X1945Y216849D01*
X2335Y216772D01*
X6665D01*
X7056Y216849D01*
X7386Y217070D01*
X7607Y217401D01*
X7685Y217791D01*
Y217870D01*
X7690Y217871D01*
X7842Y217912D01*
X8056Y217948D01*
X8205Y217961D01*
X9772D01*
X10072Y217760D01*
X11000Y217576D01*
X11928Y217760D01*
X12228Y217961D01*
X13588D01*
X14039Y217938D01*
X14082Y217934D01*
X14150Y217889D01*
X14618Y217795D01*
X19925D01*
X20394Y217889D01*
X20791Y218154D01*
X21056Y218551D01*
X21149Y219020D01*
Y220980D01*
X21056Y221449D01*
X20791Y221846D01*
X20394Y222111D01*
X19925Y222205D01*
X14618D01*
X14150Y222111D01*
X14139Y222104D01*
X13073Y222039D01*
X12228D01*
X11928Y222240D01*
X11000Y222425D01*
X10072Y222240D01*
X9772Y222039D01*
X8205D01*
X8056Y222052D01*
X7842Y222088D01*
X7690Y222129D01*
X7683Y222131D01*
X7607Y222512D01*
X7386Y222843D01*
X7056Y223064D01*
X6665Y223142D01*
X2335D01*
X2029Y223081D01*
X1592Y223384D01*
Y223616D01*
X2029Y223919D01*
X2335Y223858D01*
X6665D01*
X6815Y223888D01*
X6835Y223888D01*
X6856Y223896D01*
X7056Y223936D01*
X7198Y224031D01*
X7205Y224034D01*
X7210Y224040D01*
X7386Y224157D01*
X7468Y224279D01*
X7514Y224289D01*
X8132Y224339D01*
X13394D01*
Y224020D01*
X13487Y223551D01*
X13752Y223154D01*
X14150Y222889D01*
X14618Y222795D01*
X19925D01*
X20394Y222889D01*
X20405Y222896D01*
X21470Y222961D01*
X29500D01*
X30280Y223116D01*
X30942Y223558D01*
X34942Y227558D01*
X35384Y228220D01*
X35475Y228675D01*
X35740Y229072D01*
X35875Y229749D01*
X36405Y229855D01*
X36786Y229286D01*
D02*
G37*
G36*
X20099Y226101D02*
X20168Y226080D01*
X20276Y226061D01*
X20423Y226045D01*
X21097Y226011D01*
X22121Y226000D01*
Y224000D01*
X21741Y223999D01*
X20099Y223899D01*
X20070Y223875D01*
Y226125D01*
X20099Y226101D01*
D02*
G37*
G36*
X14474Y218875D02*
X14444Y218899D01*
X14375Y218920D01*
X14267Y218939D01*
X14120Y218955D01*
X13447Y218989D01*
X12422Y219000D01*
Y221000D01*
X12802Y221001D01*
X14444Y221101D01*
X14474Y221125D01*
Y218875D01*
D02*
G37*
G36*
X53573Y190586D02*
Y76427D01*
X53073Y76328D01*
X52994Y76517D01*
X52353Y77353D01*
X51517Y77994D01*
X50544Y78397D01*
X49500Y78535D01*
X48456Y78397D01*
X47847Y78145D01*
X43530Y82462D01*
Y113000D01*
X43410Y113914D01*
X43057Y114765D01*
X42496Y115496D01*
X39496Y118496D01*
X38765Y119057D01*
X37914Y119410D01*
X37000Y119530D01*
X30196D01*
X30071Y120030D01*
X30806Y120423D01*
X31707Y121163D01*
X32447Y122064D01*
X32997Y123093D01*
X33336Y124209D01*
X33450Y125370D01*
X33336Y126531D01*
X32997Y127647D01*
X32447Y128676D01*
X31707Y129577D01*
X30806Y130317D01*
X29777Y130867D01*
X28661Y131206D01*
X27500Y131320D01*
X26339Y131206D01*
X25223Y130867D01*
X24194Y130317D01*
X23293Y129577D01*
X22553Y128676D01*
X22003Y127647D01*
X21664Y126531D01*
X21550Y125370D01*
X21664Y124209D01*
X22003Y123093D01*
X22553Y122064D01*
X23293Y121163D01*
X24194Y120423D01*
X24929Y120030D01*
X24804Y119530D01*
X20462D01*
X18530Y121462D01*
Y167000D01*
X18410Y167914D01*
X18057Y168765D01*
X17496Y169496D01*
X16765Y170057D01*
X15914Y170410D01*
X15000Y170530D01*
X14086Y170410D01*
X13235Y170057D01*
X12504Y169496D01*
X11943Y168765D01*
X11590Y167914D01*
X11470Y167000D01*
Y120000D01*
X11590Y119086D01*
X11943Y118235D01*
X12504Y117504D01*
X16504Y113504D01*
X17235Y112943D01*
X18086Y112590D01*
X19000Y112470D01*
X23853D01*
X23978Y111970D01*
X23723Y111833D01*
X23645Y111769D01*
X23556Y111722D01*
X22657Y110984D01*
X22593Y110907D01*
X22516Y110843D01*
X21778Y109944D01*
X21731Y109855D01*
X21667Y109777D01*
X21118Y108751D01*
X21089Y108655D01*
X21042Y108567D01*
X20704Y107454D01*
X20694Y107354D01*
X20665Y107258D01*
X20551Y106100D01*
X20561Y106000D01*
X20551Y105900D01*
X20665Y104742D01*
X20694Y104646D01*
X20704Y104546D01*
X21042Y103433D01*
X21089Y103345D01*
X21118Y103249D01*
X21667Y102223D01*
X21731Y102145D01*
X21778Y102056D01*
X22516Y101157D01*
X22593Y101093D01*
X22657Y101016D01*
X23556Y100278D01*
X23645Y100231D01*
X23723Y100167D01*
X24748Y99618D01*
X24845Y99589D01*
X24933Y99542D01*
X26046Y99204D01*
X26146Y99194D01*
X26242Y99165D01*
X26973Y99093D01*
Y98591D01*
X26339Y98528D01*
X25223Y98190D01*
X24194Y97640D01*
X23293Y96900D01*
X22553Y95999D01*
X22003Y94970D01*
X21664Y93854D01*
X21550Y92693D01*
X21664Y91532D01*
X22003Y90416D01*
X22553Y89387D01*
X23293Y88486D01*
X24194Y87746D01*
X25223Y87196D01*
X26339Y86857D01*
X26497Y86842D01*
Y86339D01*
X26339Y86324D01*
X25223Y85985D01*
X24194Y85435D01*
X23293Y84695D01*
X22553Y83794D01*
X22003Y82765D01*
X21664Y81649D01*
X21649Y81488D01*
X33351D01*
X33336Y81649D01*
X32997Y82765D01*
X32447Y83794D01*
X31707Y84695D01*
X30806Y85435D01*
X29777Y85985D01*
X28661Y86324D01*
X28503Y86339D01*
Y86842D01*
X28661Y86857D01*
X29777Y87196D01*
X30806Y87746D01*
X31707Y88486D01*
X32447Y89387D01*
X32997Y90416D01*
X33336Y91532D01*
X33450Y92693D01*
X33336Y93854D01*
X32997Y94970D01*
X32447Y95999D01*
X31707Y96900D01*
X30806Y97640D01*
X29777Y98190D01*
X28661Y98528D01*
X28027Y98591D01*
Y99093D01*
X28758Y99165D01*
X28854Y99194D01*
X28954Y99204D01*
X30067Y99542D01*
X30155Y99589D01*
X30252Y99618D01*
X31277Y100167D01*
X31355Y100231D01*
X31444Y100278D01*
X32343Y101016D01*
X32407Y101093D01*
X32484Y101157D01*
X33222Y102056D01*
X33270Y102145D01*
X33333Y102223D01*
X33882Y103249D01*
X33911Y103345D01*
X33958Y103433D01*
X34296Y104546D01*
X34306Y104646D01*
X34335Y104742D01*
X34449Y105900D01*
X34439Y106000D01*
X34449Y106100D01*
X34335Y107258D01*
X34306Y107354D01*
X34296Y107454D01*
X33958Y108567D01*
X33911Y108655D01*
X33882Y108751D01*
X33333Y109777D01*
X33270Y109855D01*
X33222Y109944D01*
X32484Y110843D01*
X32406Y110907D01*
X32343Y110984D01*
X31444Y111722D01*
X31355Y111769D01*
X31277Y111833D01*
X31022Y111970D01*
X31147Y112470D01*
X35538D01*
X36470Y111538D01*
Y81000D01*
X36590Y80086D01*
X36943Y79235D01*
X37504Y78504D01*
X44470Y71538D01*
Y42665D01*
X43970Y42513D01*
X43812Y42749D01*
X43370Y43044D01*
Y41307D01*
Y39570D01*
X43812Y39865D01*
X43970Y40101D01*
X44470Y39950D01*
Y36283D01*
X44590Y35370D01*
X44943Y34518D01*
X45504Y33787D01*
X45652Y33674D01*
X45680Y33531D01*
X45901Y33200D01*
X46232Y32979D01*
X46622Y32902D01*
X47018D01*
X47086Y32874D01*
X48000Y32753D01*
X48914Y32874D01*
X48982Y32902D01*
X49378D01*
X49768Y32979D01*
X50099Y33200D01*
X50320Y33531D01*
X50348Y33674D01*
X50496Y33787D01*
X51057Y34518D01*
X51410Y35370D01*
X51530Y36283D01*
Y71016D01*
X52353Y71647D01*
X52994Y72483D01*
X53073Y72672D01*
X53573Y72573D01*
Y1427D01*
X1427D01*
Y73573D01*
X1927Y73672D01*
X2006Y73483D01*
X2647Y72647D01*
X3470Y72016D01*
Y36783D01*
X3590Y35870D01*
X3943Y35018D01*
X4504Y34287D01*
X4652Y34174D01*
X4680Y34031D01*
X4901Y33700D01*
X5232Y33479D01*
X5622Y33402D01*
X6018D01*
X6086Y33374D01*
X7000Y33253D01*
X7914Y33374D01*
X7982Y33402D01*
X8378D01*
X8768Y33479D01*
X9099Y33700D01*
X9320Y34031D01*
X9348Y34174D01*
X9496Y34287D01*
X9970Y34904D01*
X10470Y34773D01*
Y28462D01*
X7754Y25747D01*
X7000D01*
X6086Y25626D01*
X6018Y25598D01*
X5622D01*
X5232Y25521D01*
X4901Y25300D01*
X4680Y24969D01*
X4652Y24826D01*
X4504Y24713D01*
X3943Y23982D01*
X3590Y23130D01*
X3470Y22217D01*
X3590Y21303D01*
X3943Y20451D01*
X4504Y19720D01*
X4652Y19607D01*
X4680Y19464D01*
X4901Y19133D01*
X5232Y18912D01*
X5622Y18835D01*
X6018D01*
X6086Y18807D01*
X7000Y18686D01*
X9217D01*
X10130Y18807D01*
X10982Y19159D01*
X11713Y19720D01*
X16496Y24504D01*
X17057Y25235D01*
X17410Y26086D01*
X17530Y27000D01*
Y40538D01*
X19462Y42470D01*
X20694D01*
X21468Y42149D01*
X22500Y42013D01*
X23532Y42149D01*
X24306Y42470D01*
X25641D01*
X26331Y42463D01*
X28232Y42373D01*
X28624Y42331D01*
X28883Y42289D01*
X28951Y42243D01*
X28952Y42242D01*
X28954Y42241D01*
X29157Y42105D01*
X29300Y42077D01*
X29312Y42071D01*
X29333Y42070D01*
X29547Y42028D01*
X35453D01*
X35843Y42105D01*
X36174Y42326D01*
X36395Y42657D01*
X36472Y43047D01*
Y48953D01*
X36395Y49343D01*
X36174Y49674D01*
X35843Y49895D01*
X35453Y49972D01*
X29547D01*
X29333Y49930D01*
X29312Y49929D01*
X29300Y49923D01*
X29157Y49895D01*
X28954Y49759D01*
X28952Y49758D01*
X28951Y49757D01*
X28903Y49725D01*
X25586Y49530D01*
X24306D01*
X23532Y49851D01*
X22500Y49987D01*
X21468Y49851D01*
X20694Y49530D01*
X18000D01*
X17086Y49410D01*
X16235Y49057D01*
X15504Y48496D01*
X11504Y44496D01*
X11030Y43879D01*
X10530Y44010D01*
Y89000D01*
X10410Y89914D01*
X10057Y90765D01*
X9530Y91452D01*
Y171038D01*
X19962Y181470D01*
X23853D01*
X23978Y180970D01*
X23723Y180833D01*
X23645Y180770D01*
X23556Y180722D01*
X22657Y179984D01*
X22593Y179906D01*
X22516Y179843D01*
X21778Y178944D01*
X21731Y178855D01*
X21667Y178777D01*
X21118Y177752D01*
X21089Y177655D01*
X21042Y177567D01*
X20704Y176454D01*
X20694Y176354D01*
X20665Y176258D01*
X20551Y175100D01*
X20561Y175000D01*
X20551Y174900D01*
X20665Y173742D01*
X20694Y173646D01*
X20704Y173546D01*
X21042Y172433D01*
X21089Y172345D01*
X21118Y172248D01*
X21667Y171223D01*
X21731Y171145D01*
X21778Y171056D01*
X22516Y170157D01*
X22593Y170093D01*
X22657Y170016D01*
X23556Y169278D01*
X23645Y169230D01*
X23723Y169167D01*
X24748Y168618D01*
X24845Y168589D01*
X24933Y168542D01*
X26046Y168204D01*
X26146Y168194D01*
X26242Y168165D01*
X26973Y168093D01*
Y167591D01*
X26339Y167528D01*
X25223Y167190D01*
X24194Y166640D01*
X23293Y165900D01*
X22553Y164998D01*
X22003Y163970D01*
X21664Y162854D01*
X21550Y161693D01*
X21664Y160532D01*
X22003Y159416D01*
X22553Y158387D01*
X23293Y157486D01*
X24194Y156746D01*
X25223Y156196D01*
X26339Y155857D01*
X26497Y155842D01*
Y155339D01*
X26339Y155324D01*
X25223Y154985D01*
X24194Y154435D01*
X23293Y153695D01*
X22553Y152794D01*
X22003Y151765D01*
X21664Y150649D01*
X21649Y150488D01*
X33351D01*
X33336Y150649D01*
X32997Y151765D01*
X32447Y152794D01*
X31707Y153695D01*
X30806Y154435D01*
X29777Y154985D01*
X28661Y155324D01*
X28503Y155339D01*
Y155842D01*
X28661Y155857D01*
X29777Y156196D01*
X30806Y156746D01*
X31707Y157486D01*
X32447Y158387D01*
X32997Y159416D01*
X33336Y160532D01*
X33450Y161693D01*
X33336Y162854D01*
X32997Y163970D01*
X32447Y164998D01*
X31707Y165900D01*
X30806Y166640D01*
X29777Y167190D01*
X28661Y167528D01*
X28027Y167591D01*
Y168093D01*
X28758Y168165D01*
X28854Y168194D01*
X28954Y168204D01*
X30067Y168542D01*
X30155Y168589D01*
X30252Y168618D01*
X31277Y169167D01*
X31355Y169230D01*
X31444Y169278D01*
X32343Y170016D01*
X32407Y170094D01*
X32484Y170157D01*
X33222Y171056D01*
X33270Y171145D01*
X33333Y171223D01*
X33882Y172248D01*
X33911Y172345D01*
X33958Y172433D01*
X34296Y173546D01*
X34306Y173646D01*
X34335Y173742D01*
X34449Y174900D01*
X34439Y175000D01*
X34449Y175100D01*
X34335Y176258D01*
X34306Y176354D01*
X34296Y176454D01*
X33958Y177567D01*
X33911Y177655D01*
X33882Y177752D01*
X33333Y178777D01*
X33270Y178855D01*
X33222Y178944D01*
X32484Y179843D01*
X32406Y179907D01*
X32343Y179984D01*
X31444Y180722D01*
X31355Y180770D01*
X31277Y180833D01*
X31022Y180970D01*
X31147Y181470D01*
X43000D01*
X43914Y181590D01*
X44765Y181943D01*
X45496Y182504D01*
X46057Y183235D01*
X46410Y184086D01*
X46417Y184137D01*
X53073Y190793D01*
X53573Y190586D01*
D02*
G37*
G36*
X6661Y221810D02*
X6721Y221640D01*
X6821Y221490D01*
X6962Y221360D01*
X7143Y221250D01*
X7365Y221160D01*
X7626Y221090D01*
X7928Y221040D01*
X8270Y221010D01*
X8652Y221000D01*
Y219000D01*
X8270Y218990D01*
X7928Y218960D01*
X7626Y218910D01*
X7365Y218840D01*
X7143Y218750D01*
X6962Y218640D01*
X6821Y218510D01*
X6721Y218360D01*
X6661Y218190D01*
X6640Y218000D01*
Y222000D01*
X6661Y221810D01*
D02*
G37*
G36*
X6661Y228188D02*
X6722Y228018D01*
X6823Y227868D01*
X6964Y227738D01*
X7145Y227628D01*
X7366Y227538D01*
X7628Y227468D01*
X7929Y227418D01*
X8271Y227388D01*
X8652Y227378D01*
Y225378D01*
X8272Y225373D01*
X7372Y225300D01*
X7152Y225256D01*
X6972Y225203D01*
X6832Y225139D01*
X6732Y225066D01*
X6672Y224984D01*
X6652Y224891D01*
X6640Y228378D01*
X6661Y228188D01*
D02*
G37*
G36*
X45715Y243852D02*
X45837Y243778D01*
X45964Y243713D01*
X46097Y243657D01*
X46236Y243609D01*
X46380Y243570D01*
X46529Y243539D01*
X46684Y243517D01*
X46845Y243504D01*
X47011Y243500D01*
Y242500D01*
X46845Y242496D01*
X46684Y242483D01*
X46529Y242461D01*
X46380Y242430D01*
X46236Y242391D01*
X46097Y242343D01*
X45964Y242287D01*
X45837Y242221D01*
X45715Y242147D01*
X45599Y242065D01*
Y243935D01*
X45715Y243852D01*
D02*
G37*
G36*
X31906Y249024D02*
X31923Y248904D01*
X31951Y248785D01*
X31990Y248668D01*
X32041Y248551D01*
X32103Y248435D01*
X32177Y248321D01*
X32261Y248208D01*
X32357Y248095D01*
X32465Y247984D01*
X30535D01*
X30643Y248095D01*
X30739Y248208D01*
X30823Y248321D01*
X30897Y248435D01*
X30959Y248551D01*
X31010Y248668D01*
X31049Y248785D01*
X31077Y248904D01*
X31094Y249024D01*
X31100Y249145D01*
X31900D01*
X31906Y249024D01*
D02*
G37*
G36*
X48038Y243496D02*
X48358Y243465D01*
X48488Y243437D01*
X48598Y243402D01*
X48688Y243359D01*
X48758Y243308D01*
X48808Y243250D01*
X48838Y243183D01*
X48848Y243109D01*
X48860Y242000D01*
X48849Y242095D01*
X48817Y242180D01*
X48766Y242255D01*
X48695Y242320D01*
X48604Y242375D01*
X48493Y242420D01*
X48362Y242455D01*
X48210Y242480D01*
X48039Y242495D01*
X47848Y242500D01*
Y243500D01*
X48038Y243496D01*
D02*
G37*
G36*
X47815Y238791D02*
X47893Y238401D01*
X48114Y238070D01*
X48445Y237849D01*
X48835Y237772D01*
X52821D01*
X53138Y237404D01*
X52702Y237169D01*
X52165Y237275D01*
X51385Y237120D01*
X50723Y236678D01*
X50428Y236236D01*
X52165D01*
Y235236D01*
X53165D01*
Y233458D01*
X53573Y233241D01*
Y228091D01*
X53073Y227845D01*
X52713Y228120D01*
X51983Y228423D01*
X51867Y228438D01*
X48502Y231802D01*
X47675Y232355D01*
X46700Y232549D01*
X44556D01*
X43302Y233802D01*
X42476Y234355D01*
X41500Y234549D01*
X40627D01*
X39496Y235680D01*
X38669Y236233D01*
X37693Y236427D01*
X31307D01*
X30332Y236233D01*
X29504Y235680D01*
X28373Y234549D01*
X19500D01*
X18525Y234355D01*
X17698Y233802D01*
X17145Y232976D01*
X16951Y232000D01*
X17145Y231025D01*
X17698Y230198D01*
X18525Y229645D01*
X19500Y229451D01*
X29429D01*
X30188Y229602D01*
X30692Y229353D01*
X30762Y229282D01*
X30784Y229168D01*
X28655Y227039D01*
X20955D01*
X20504Y227062D01*
X20461Y227066D01*
X20394Y227111D01*
X19925Y227205D01*
X17951D01*
X17336Y227820D01*
X16674Y228262D01*
X15894Y228417D01*
X8206D01*
X8057Y228430D01*
X7843Y228466D01*
X7692Y228506D01*
X7685Y228509D01*
Y229209D01*
X7607Y229599D01*
X7386Y229930D01*
X7056Y230151D01*
X6665Y230228D01*
X2335D01*
X1945Y230151D01*
X1927Y230139D01*
X1427Y230406D01*
Y240556D01*
X1889Y240748D01*
X3301Y239336D01*
X3797Y239004D01*
X4383Y238888D01*
X20129D01*
X20544Y238971D01*
X40629D01*
X40832Y238471D01*
X40633Y238173D01*
X44107D01*
X43812Y238615D01*
X43545Y238793D01*
Y239395D01*
X43581Y239419D01*
X43913Y239915D01*
X44029Y240500D01*
Y240877D01*
X45059D01*
X45872Y241038D01*
X46113Y241199D01*
X46190Y241234D01*
X46276Y241295D01*
X46335Y241331D01*
X46397Y241363D01*
X46464Y241391D01*
X46536Y241416D01*
X46615Y241438D01*
X46702Y241456D01*
X46796Y241469D01*
X46819Y241471D01*
X47815D01*
Y238791D01*
D02*
G37*
G36*
X43405Y241922D02*
X43320Y241892D01*
X43245Y241841D01*
X43180Y241770D01*
X43125Y241679D01*
X43080Y241568D01*
X43045Y241436D01*
X43020Y241284D01*
X43005Y241112D01*
X43000Y240920D01*
X42000D01*
X41995Y241112D01*
X41980Y241284D01*
X41955Y241436D01*
X41920Y241568D01*
X41875Y241679D01*
X41820Y241770D01*
X41755Y241841D01*
X41680Y241892D01*
X41595Y241922D01*
X41500Y241932D01*
X43500D01*
X43405Y241922D01*
D02*
G37*
G36*
X28058Y268058D02*
X28720Y267616D01*
X29500Y267461D01*
X29517Y267464D01*
X30241Y266741D01*
X30241Y266741D01*
X30704Y266431D01*
X31250Y266323D01*
X38449D01*
X38575Y266312D01*
X38629Y266303D01*
X38683Y266291D01*
X38724Y266279D01*
X38754Y266268D01*
X38771Y266260D01*
X38779Y266255D01*
X38819Y266227D01*
X38853Y266213D01*
X38881Y266188D01*
X38931Y266170D01*
X39128Y266038D01*
X39941Y265877D01*
X43268D01*
X43578Y265397D01*
X43555Y265335D01*
X43363Y265124D01*
X39941D01*
X39128Y264962D01*
X38439Y264502D01*
X37979Y263813D01*
X37927Y263548D01*
X37396Y263443D01*
X37214Y263714D01*
X36428Y264240D01*
X35500Y264424D01*
X34572Y264240D01*
X33786Y263714D01*
X33260Y262928D01*
X33075Y262000D01*
X33260Y261072D01*
X33786Y260286D01*
X34322Y259927D01*
X34170Y259427D01*
X29591D01*
X27315Y261704D01*
Y263589D01*
X27319Y263595D01*
X27427Y264141D01*
X27427Y264141D01*
Y268102D01*
X27927Y268254D01*
X28058Y268058D01*
D02*
G37*
G36*
X3240Y264794D02*
X3155Y264764D01*
X3080Y264714D01*
X3015Y264644D01*
X2960Y264554D01*
X2915Y264444D01*
X2880Y264314D01*
X2855Y264164D01*
X2840Y263994D01*
X2835Y263804D01*
X1835D01*
X1848Y264804D01*
X3335D01*
X3240Y264794D01*
D02*
G37*
G36*
X5010Y277813D02*
X5040Y277471D01*
X5090Y277169D01*
X5160Y276908D01*
X5250Y276687D01*
X5360Y276506D01*
X5490Y276365D01*
X5640Y276264D01*
X5810Y276204D01*
X6000Y276184D01*
X2000D01*
X2190Y276204D01*
X2360Y276264D01*
X2510Y276365D01*
X2640Y276506D01*
X2750Y276687D01*
X2840Y276908D01*
X2910Y277169D01*
X2960Y277471D01*
X2990Y277813D01*
X3000Y278196D01*
X5000D01*
X5010Y277813D01*
D02*
G37*
G36*
X49979Y260804D02*
X49917Y260850D01*
X49843Y260872D01*
X49758D01*
X49662Y260850D01*
X49555Y260804D01*
X49436Y260736D01*
X49306Y260646D01*
X49164Y260533D01*
X48848Y260239D01*
X48282Y260804D01*
X48440Y260968D01*
X48689Y261263D01*
X48780Y261393D01*
X48848Y261511D01*
X48893Y261619D01*
X48915Y261715D01*
Y261800D01*
X48893Y261874D01*
X48848Y261936D01*
X49979Y260804D01*
D02*
G37*
G36*
X5810Y280284D02*
X5640Y280224D01*
X5490Y280124D01*
X5360Y279984D01*
X5250Y279804D01*
X5160Y279584D01*
X5090Y279324D01*
X5040Y279024D01*
X5010Y278684D01*
X5000Y278304D01*
X3000D01*
X2990Y278684D01*
X2960Y279024D01*
X2910Y279324D01*
X2840Y279584D01*
X2750Y279804D01*
X2640Y279984D01*
X2510Y280124D01*
X2360Y280224D01*
X2190Y280284D01*
X2000Y280304D01*
X6000D01*
X5810Y280284D01*
D02*
G37*
G36*
X13661Y271957D02*
X13622Y271965D01*
X13544Y271972D01*
X13083Y271989D01*
X11557Y272000D01*
Y274000D01*
X13661Y274043D01*
Y271957D01*
D02*
G37*
G36*
X39401Y267065D02*
X39323Y267119D01*
X39238Y267167D01*
X39145Y267210D01*
X39045Y267247D01*
X38937Y267279D01*
X38823Y267304D01*
X38701Y267324D01*
X38434Y267347D01*
X38290Y267350D01*
X38081Y268150D01*
X38278Y268154D01*
X38603Y268185D01*
X38732Y268213D01*
X38838Y268248D01*
X38920Y268291D01*
X38980Y268342D01*
X39017Y268401D01*
X39032Y268468D01*
X39023Y268543D01*
X39401Y267065D01*
D02*
G37*
G36*
X46775Y264068D02*
X46666Y263952D01*
X46566Y263832D01*
X46475Y263707D01*
X46394Y263579D01*
X46322Y263446D01*
X46259Y263309D01*
X46206Y263168D01*
X46162Y263023D01*
X46127Y262874D01*
X46102Y262720D01*
X45733Y263067D01*
X45354Y262647D01*
X44646Y263353D01*
X44917Y263648D01*
X45432Y263349D01*
X44666Y264068D01*
X44744Y264014D01*
X44836Y263988D01*
X44940Y263988D01*
X45058Y264016D01*
X45189Y264070D01*
X45334Y264152D01*
X45491Y264261D01*
X45662Y264397D01*
X45846Y264560D01*
X46043Y264751D01*
X46775Y264068D01*
D02*
G37*
G36*
X37158Y268798D02*
X37182Y268662D01*
X37222Y268542D01*
X37278Y268438D01*
X37350Y268350D01*
X37438Y268278D01*
X37542Y268222D01*
X37662Y268182D01*
X37798Y268158D01*
X37950Y268150D01*
X36750Y267350D01*
X35550Y268150D01*
X35702Y268158D01*
X35838Y268182D01*
X35958Y268222D01*
X36062Y268278D01*
X36150Y268350D01*
X36222Y268438D01*
X36278Y268542D01*
X36318Y268662D01*
X36342Y268798D01*
X36350Y268950D01*
X37150D01*
X37158Y268798D01*
D02*
G37*
G36*
X27110Y271710D02*
X27021Y271779D01*
X26934Y271834D01*
X26848Y271873D01*
X26763Y271897D01*
X26680Y271905D01*
X26598Y271899D01*
X26517Y271876D01*
X26438Y271838D01*
X26360Y271785D01*
X26283Y271717D01*
X26177Y272743D01*
X26862Y273508D01*
X27110Y271710D01*
D02*
G37*
G36*
X30503Y269407D02*
X30513Y269324D01*
X30530Y269243D01*
X30555Y269164D01*
X30587Y269085D01*
X30626Y269008D01*
X30672Y268932D01*
X30726Y268857D01*
X30787Y268783D01*
X30855Y268710D01*
X30290Y268145D01*
X30217Y268213D01*
X30143Y268274D01*
X30068Y268328D01*
X29992Y268374D01*
X29915Y268413D01*
X29836Y268445D01*
X29757Y268470D01*
X29676Y268487D01*
X29593Y268497D01*
X29510Y268500D01*
X30500Y269490D01*
X30503Y269407D01*
D02*
G37*
G36*
X20056Y264042D02*
X20246Y263949D01*
X20506Y263768D01*
X20835Y263500D01*
X21705Y262701D01*
X22244Y262170D01*
X20958Y260628D01*
X20575Y260997D01*
X19884Y261576D01*
X19576Y261786D01*
X19293Y261942D01*
X19035Y262046D01*
X18801Y262097D01*
X18593Y262095D01*
X18410Y262040D01*
X18251Y261932D01*
X19994Y263540D01*
X19905Y263797D01*
X19885Y263966D01*
X19936Y264048D01*
X20056Y264042D01*
D02*
G37*
G36*
X6161Y289810D02*
X6222Y289640D01*
X6323Y289490D01*
X6464Y289360D01*
X6646Y289250D01*
X6867Y289160D01*
X7128Y289090D01*
X7429Y289040D01*
X7771Y289010D01*
X8152Y289000D01*
Y287000D01*
X6152Y287391D01*
X6140Y290000D01*
X6161Y289810D01*
D02*
G37*
G36*
X13661Y286957D02*
X13622Y286965D01*
X13544Y286972D01*
X13083Y286989D01*
X11557Y287000D01*
Y289000D01*
X13661Y289043D01*
Y286957D01*
D02*
G37*
G36*
X52310Y292784D02*
X52140Y292724D01*
X51990Y292624D01*
X51860Y292484D01*
X51750Y292304D01*
X51660Y292084D01*
X51590Y291824D01*
X51540Y291524D01*
X51510Y291184D01*
X51500Y290804D01*
X49500D01*
X49490Y291184D01*
X49460Y291524D01*
X49410Y291824D01*
X49340Y292084D01*
X49250Y292304D01*
X49140Y292484D01*
X49010Y292624D01*
X48860Y292724D01*
X48690Y292784D01*
X48500Y292804D01*
X52500D01*
X52310Y292784D01*
D02*
G37*
G36*
X43510Y290698D02*
X43540Y290356D01*
X43590Y290054D01*
X43660Y289792D01*
X43750Y289571D01*
X43860Y289390D01*
X43990Y289249D01*
X44140Y289148D01*
X44310Y289088D01*
X44500Y289068D01*
X40500D01*
X40690Y289088D01*
X40860Y289148D01*
X41010Y289249D01*
X41140Y289390D01*
X41250Y289571D01*
X41340Y289792D01*
X41410Y290054D01*
X41460Y290356D01*
X41490Y290698D01*
X41500Y291080D01*
X43500D01*
X43510Y290698D01*
D02*
G37*
G36*
X17510D02*
X17540Y290356D01*
X17590Y290054D01*
X17660Y289792D01*
X17750Y289571D01*
X17860Y289390D01*
X17990Y289249D01*
X18140Y289148D01*
X18310Y289088D01*
X18500Y289068D01*
X14500D01*
X14690Y289088D01*
X14860Y289148D01*
X15010Y289249D01*
X15140Y289390D01*
X15250Y289571D01*
X15340Y289792D01*
X15410Y290054D01*
X15460Y290356D01*
X15490Y290698D01*
X15500Y291080D01*
X17500D01*
X17510Y290698D01*
D02*
G37*
G36*
X51510Y288813D02*
X51540Y288471D01*
X51590Y288170D01*
X51660Y287908D01*
X51750Y287687D01*
X51860Y287506D01*
X51990Y287365D01*
X52140Y287264D01*
X52310Y287204D01*
X52500Y287184D01*
X48500D01*
X48690Y287204D01*
X48860Y287264D01*
X49010Y287365D01*
X49140Y287506D01*
X49250Y287687D01*
X49340Y287908D01*
X49410Y288170D01*
X49460Y288471D01*
X49490Y288813D01*
X49500Y289196D01*
X51500D01*
X51510Y288813D01*
D02*
G37*
G36*
X39298Y285130D02*
X39991Y284549D01*
X40306Y284333D01*
X40599Y284165D01*
X40872Y284047D01*
X41123Y283979D01*
X41352Y283959D01*
X41561Y283989D01*
X41748Y284068D01*
X40944Y283596D01*
X40993Y283576D01*
X41148Y283530D01*
X41323Y283490D01*
X41518Y283458D01*
X41969Y283414D01*
X42224Y283404D01*
X42500Y283400D01*
Y282600D01*
X42224Y282596D01*
X41518Y282542D01*
X41323Y282510D01*
X41148Y282470D01*
X40993Y282424D01*
X40859Y282370D01*
X40744Y282308D01*
X40650Y282240D01*
Y283424D01*
X39390Y282685D01*
Y282208D01*
X39284Y282282D01*
X39232Y282313D01*
Y282209D01*
X39221Y282284D01*
X39197Y282334D01*
X39171Y282349D01*
X39051Y282408D01*
X38923Y282459D01*
X38788Y282502D01*
X38645Y282537D01*
X38495Y282565D01*
X38337Y282584D01*
X38172Y282596D01*
X38000Y282600D01*
Y283400D01*
X38172Y283404D01*
X37507Y284079D01*
X38920Y285494D01*
X39298Y285130D01*
D02*
G37*
G36*
X6172Y284493D02*
X6232Y284390D01*
X6332Y284298D01*
X6472Y284219D01*
X6652Y284152D01*
X6872Y284097D01*
X7132Y284055D01*
X7432Y284024D01*
X8152Y284000D01*
Y282000D01*
X7771Y281990D01*
X7429Y281960D01*
X7128Y281910D01*
X6866Y281840D01*
X6645Y281750D01*
X6464Y281640D01*
X6323Y281510D01*
X6222Y281360D01*
X6161Y281190D01*
X6140Y281000D01*
X6152Y284609D01*
X6172Y284493D01*
D02*
G37*
G36*
X48360Y276000D02*
X48340Y276190D01*
X48279Y276360D01*
X48179Y276510D01*
X48038Y276640D01*
X47857Y276750D01*
X47635Y276840D01*
X47374Y276910D01*
X47072Y276960D01*
X46773Y276986D01*
X45339Y276957D01*
Y279043D01*
X45378Y279035D01*
X45456Y279028D01*
X45917Y279011D01*
X46580Y279006D01*
X46730Y279010D01*
X47072Y279040D01*
X47374Y279090D01*
X47635Y279160D01*
X47857Y279250D01*
X48038Y279360D01*
X48179Y279490D01*
X48279Y279640D01*
X48340Y279810D01*
X48360Y280000D01*
Y276000D01*
D02*
G37*
G36*
X53573Y415307D02*
X53073Y415071D01*
X52221Y415769D01*
X51022Y416411D01*
X49720Y416806D01*
X48366Y416939D01*
X47012Y416806D01*
X45711Y416411D01*
X44511Y415769D01*
X43460Y414907D01*
X42597Y413855D01*
X41955Y412655D01*
X41561Y411354D01*
X41427Y410000D01*
X41561Y408646D01*
X41955Y407345D01*
X42597Y406145D01*
X43460Y405093D01*
X44511Y404230D01*
X45711Y403589D01*
X47012Y403194D01*
X48366Y403061D01*
X49720Y403194D01*
X51022Y403589D01*
X52221Y404230D01*
X53073Y404929D01*
X53573Y404693D01*
Y382682D01*
X53073Y382632D01*
X53065Y382670D01*
X52623Y383332D01*
X52181Y383627D01*
Y381890D01*
Y380153D01*
X52623Y380448D01*
X53065Y381109D01*
X53073Y381147D01*
X53573Y381098D01*
Y339807D01*
X53073Y339571D01*
X52221Y340269D01*
X51022Y340911D01*
X49720Y341306D01*
X48366Y341439D01*
X47012Y341306D01*
X45711Y340911D01*
X44511Y340269D01*
X43460Y339407D01*
X42597Y338355D01*
X41955Y337155D01*
X41561Y335854D01*
X41427Y334500D01*
X41561Y333146D01*
X41955Y331845D01*
X42597Y330645D01*
X43460Y329593D01*
X44511Y328731D01*
X45711Y328089D01*
X47012Y327694D01*
X48366Y327561D01*
X49720Y327694D01*
X51022Y328089D01*
X52221Y328731D01*
X53073Y329429D01*
X53573Y329193D01*
Y305406D01*
X53073Y305139D01*
X53056Y305151D01*
X52665Y305228D01*
X50360D01*
X50119Y305397D01*
X49540Y305887D01*
X45583Y309845D01*
Y311728D01*
X45783Y312029D01*
X45968Y312957D01*
X45783Y313884D01*
X45258Y314671D01*
X44471Y315197D01*
X43543Y315381D01*
X42616Y315197D01*
X41829Y314671D01*
X41303Y313884D01*
X41233Y313530D01*
X41058Y313355D01*
X40616Y312694D01*
X40461Y311913D01*
Y310220D01*
X39961Y309974D01*
X39360Y310435D01*
X38387Y310838D01*
X37343Y310976D01*
X36298Y310838D01*
X35325Y310435D01*
X34490Y309794D01*
X33849Y308958D01*
X33446Y307985D01*
X33308Y306941D01*
X33446Y305897D01*
X33849Y304924D01*
X34490Y304088D01*
X35325Y303447D01*
X36298Y303044D01*
X37343Y302906D01*
X38387Y303044D01*
X39360Y303447D01*
X39961Y303908D01*
X40461Y303661D01*
Y290633D01*
X40448Y290484D01*
X40412Y290269D01*
X40373Y290124D01*
X39941D01*
X39128Y289962D01*
X38439Y289502D01*
X37979Y288813D01*
X37932Y288576D01*
X37453Y288430D01*
X33068Y292815D01*
X33240Y293072D01*
X33424Y294000D01*
X33240Y294928D01*
X32714Y295714D01*
X31928Y296240D01*
X31000Y296425D01*
X30072Y296240D01*
X29286Y295714D01*
X28760Y294928D01*
X28576Y294000D01*
X28760Y293072D01*
X28961Y292772D01*
Y292000D01*
X29116Y291220D01*
X29558Y290558D01*
X36549Y283567D01*
X35741Y282759D01*
X35431Y282296D01*
X35323Y281750D01*
X35323Y281750D01*
Y269177D01*
X31887D01*
X31539Y269500D01*
X31384Y270280D01*
X30942Y270942D01*
X30280Y271384D01*
X30268Y271896D01*
X30438Y272750D01*
X30253Y273678D01*
X29728Y274464D01*
X28941Y274990D01*
X28013Y275174D01*
X27085Y274990D01*
X26299Y274464D01*
X26125Y274205D01*
X26103Y274188D01*
X25532Y273550D01*
X24991Y273009D01*
X24681Y272546D01*
X24573Y272000D01*
X24573Y272000D01*
Y264581D01*
X24569Y264575D01*
X24460Y264029D01*
X24460Y264029D01*
Y262077D01*
X23998Y261886D01*
X21442Y264442D01*
X20780Y264884D01*
X20568Y264926D01*
X20505Y264957D01*
X20497Y264959D01*
X20491Y264964D01*
X20305Y265010D01*
X20120Y265059D01*
X20112Y265058D01*
X20105Y265060D01*
X19984Y265066D01*
X19842Y265045D01*
X19699Y265039D01*
X19699Y265039D01*
X19483D01*
X19059Y265124D01*
X17379D01*
X17171Y265623D01*
X17394Y265877D01*
X19059D01*
X19872Y266038D01*
X20561Y266498D01*
X21021Y267187D01*
X21182Y268000D01*
X21021Y268813D01*
X20561Y269501D01*
X19872Y269962D01*
X19059Y270124D01*
X13941D01*
X13128Y269962D01*
X12439Y269501D01*
X12130Y269039D01*
X11728D01*
X11428Y269240D01*
X10500Y269425D01*
X9572Y269240D01*
X8786Y268714D01*
X8260Y267928D01*
X8076Y267000D01*
X8260Y266072D01*
X8786Y265286D01*
X9572Y264760D01*
X10500Y264576D01*
X11428Y264760D01*
X11728Y264961D01*
X12295D01*
X12412Y264461D01*
X11979Y263813D01*
X11817Y263000D01*
X11979Y262187D01*
X12439Y261498D01*
X13128Y261038D01*
X13941Y260876D01*
X19059D01*
X19090Y260883D01*
X19268Y260761D01*
X19534Y260539D01*
X19311Y260073D01*
X19059Y260123D01*
X13941D01*
X13735Y260083D01*
X9705D01*
X9556Y260096D01*
X9342Y260131D01*
X9190Y260172D01*
X9185Y260174D01*
Y260209D01*
X9107Y260599D01*
X8886Y260930D01*
X8556Y261151D01*
X8165Y261228D01*
X3864D01*
Y263772D01*
X6165D01*
X6555Y263849D01*
X6886Y264070D01*
X7107Y264401D01*
X7185Y264791D01*
Y269122D01*
X7107Y269512D01*
X6886Y269843D01*
X6555Y270064D01*
X6165Y270142D01*
X1835D01*
X1494Y270500D01*
X1835Y270858D01*
X6165D01*
X6555Y270936D01*
X6886Y271157D01*
X7107Y271488D01*
X7631Y271555D01*
X8072Y271260D01*
X8687Y271138D01*
X8720Y271116D01*
X9500Y270961D01*
X9500Y270961D01*
X13306D01*
X13477Y270955D01*
X13526Y270950D01*
X13556Y270953D01*
X13941Y270877D01*
X19059D01*
X19872Y271038D01*
X20561Y271498D01*
X21021Y272187D01*
X21182Y273000D01*
X21021Y273813D01*
X20561Y274501D01*
X19872Y274962D01*
X19059Y275124D01*
X13941D01*
X13634Y275062D01*
X12503Y275039D01*
X10831D01*
X10714Y275214D01*
X9928Y275740D01*
X9000Y275924D01*
X8072Y275740D01*
X7685Y275481D01*
X7185Y275748D01*
Y276209D01*
X7107Y276599D01*
X6886Y276930D01*
X6555Y277151D01*
X6165Y277228D01*
X6130D01*
X6129Y277233D01*
X6088Y277385D01*
X6052Y277599D01*
X6039Y277749D01*
Y278748D01*
X6052Y278895D01*
X6087Y279107D01*
X6128Y279257D01*
X6134Y279272D01*
X6165D01*
X6555Y279349D01*
X6886Y279570D01*
X7107Y279901D01*
X7185Y280291D01*
Y280869D01*
X7192Y280872D01*
X7344Y280912D01*
X7557Y280948D01*
X7706Y280961D01*
X8772D01*
X9072Y280760D01*
X10000Y280575D01*
X10928Y280760D01*
X11228Y280961D01*
X13306D01*
X13477Y280955D01*
X13526Y280950D01*
X13556Y280953D01*
X13941Y280876D01*
X15561D01*
X15648Y280384D01*
X15258Y280123D01*
X13941D01*
X13128Y279962D01*
X12439Y279502D01*
X11979Y278813D01*
X11817Y278000D01*
X11979Y277187D01*
X12439Y276499D01*
X13128Y276038D01*
X13941Y275876D01*
X19059D01*
X19872Y276038D01*
X20561Y276499D01*
X21021Y277187D01*
X21182Y278000D01*
X21021Y278813D01*
X20561Y279502D01*
X19892Y279948D01*
X19714Y280214D01*
X19388Y280432D01*
X19494Y280963D01*
X19872Y281038D01*
X20561Y281499D01*
X21021Y282187D01*
X21182Y283000D01*
X21021Y283813D01*
X20561Y284502D01*
X19872Y284962D01*
X19059Y285123D01*
X13941D01*
X13634Y285062D01*
X12503Y285039D01*
X11228D01*
X10928Y285240D01*
X10000Y285424D01*
X9072Y285240D01*
X8772Y285039D01*
X7591D01*
X7501Y285042D01*
X7266Y285066D01*
X7079Y285097D01*
X7045Y285105D01*
X7016Y285149D01*
X7014Y285154D01*
X7009Y285159D01*
X6886Y285343D01*
X6744Y285438D01*
X6740Y285442D01*
X6733Y285445D01*
X6710Y285461D01*
X6862Y285961D01*
X13306D01*
X13477Y285955D01*
X13526Y285950D01*
X13556Y285953D01*
X13941Y285876D01*
X19059D01*
X19872Y286038D01*
X20561Y286498D01*
X21021Y287187D01*
X21182Y288000D01*
X21021Y288813D01*
X20561Y289502D01*
X19872Y289962D01*
X19059Y290124D01*
X18627D01*
X18588Y290269D01*
X18552Y290484D01*
X18539Y290633D01*
Y291168D01*
X18714Y291286D01*
X19240Y292072D01*
X19424Y293000D01*
X19240Y293928D01*
X18714Y294714D01*
X17928Y295240D01*
X17000Y295425D01*
X16072Y295240D01*
X15286Y294714D01*
X14760Y293928D01*
X14638Y293313D01*
X14616Y293280D01*
X14461Y292500D01*
Y290633D01*
X14448Y290484D01*
X14412Y290269D01*
X14373Y290124D01*
X13941D01*
X13634Y290062D01*
X12503Y290039D01*
X7707D01*
X7558Y290052D01*
X7344Y290088D01*
X7192Y290128D01*
X7185Y290131D01*
Y291709D01*
X7107Y292099D01*
X6886Y292430D01*
X6555Y292651D01*
X6165Y292728D01*
X1835D01*
X1427Y293157D01*
Y329193D01*
X1927Y329429D01*
X2779Y328731D01*
X3979Y328089D01*
X5280Y327694D01*
X6634Y327561D01*
X7988Y327694D01*
X9289Y328089D01*
X10489Y328731D01*
X11540Y329593D01*
X12403Y330645D01*
X13045Y331845D01*
X13439Y333146D01*
X13573Y334500D01*
X13439Y335854D01*
X13045Y337155D01*
X12403Y338355D01*
X11540Y339407D01*
X10489Y340269D01*
X9289Y340911D01*
X7988Y341306D01*
X6634Y341439D01*
X5280Y341306D01*
X3979Y340911D01*
X2779Y340269D01*
X1927Y339571D01*
X1427Y339807D01*
Y404693D01*
X1927Y404929D01*
X2779Y404230D01*
X3979Y403589D01*
X5280Y403194D01*
X6634Y403061D01*
X7988Y403194D01*
X9289Y403589D01*
X10489Y404230D01*
X11540Y405093D01*
X12403Y406145D01*
X13045Y407345D01*
X13439Y408646D01*
X13573Y410000D01*
X13439Y411354D01*
X13045Y412655D01*
X12403Y413855D01*
X11540Y414907D01*
X10489Y415769D01*
X9289Y416411D01*
X7988Y416806D01*
X6634Y416939D01*
X5280Y416806D01*
X3979Y416411D01*
X2779Y415769D01*
X1927Y415071D01*
X1427Y415307D01*
Y431573D01*
X53573D01*
Y415307D01*
D02*
G37*
G36*
X13661Y281957D02*
X13622Y281965D01*
X13544Y281972D01*
X13083Y281989D01*
X11557Y282000D01*
Y284000D01*
X13661Y284043D01*
Y281957D01*
D02*
G37*
%LPC*%
G36*
X6500Y245737D02*
Y245000D01*
X7237D01*
X6942Y245442D01*
X6500Y245737D01*
D02*
G37*
G36*
X15500Y245124D02*
X13941D01*
X13128Y244962D01*
X12439Y244501D01*
X12104Y244000D01*
X15500D01*
Y245124D01*
D02*
G37*
G36*
X42602Y209000D02*
X39728D01*
Y207795D01*
X41382D01*
X41850Y207889D01*
X42248Y208154D01*
X42513Y208551D01*
X42602Y209000D01*
D02*
G37*
G36*
X37728D02*
X34854D01*
X34944Y208551D01*
X35209Y208154D01*
X35606Y207889D01*
X36075Y207795D01*
X37728D01*
Y209000D01*
D02*
G37*
G36*
Y212205D02*
X36075D01*
X35606Y212111D01*
X35209Y211846D01*
X34944Y211449D01*
X34854Y211000D01*
X37728D01*
Y212205D01*
D02*
G37*
G36*
X16272Y214000D02*
X13398D01*
X13487Y213551D01*
X13752Y213154D01*
X14150Y212889D01*
X14618Y212795D01*
X16272D01*
Y214000D01*
D02*
G37*
G36*
X41382Y212205D02*
X39728D01*
Y211000D01*
X42602D01*
X42513Y211449D01*
X42248Y211846D01*
X41850Y212111D01*
X41382Y212205D01*
D02*
G37*
G36*
X27622Y204462D02*
Y203724D01*
X28359D01*
X28064Y204166D01*
X27622Y204462D01*
D02*
G37*
G36*
X12611Y193850D02*
X11874D01*
Y193113D01*
X12316Y193409D01*
X12611Y193850D01*
D02*
G37*
G36*
X11874Y196588D02*
Y195850D01*
X12611D01*
X12316Y196292D01*
X11874Y196588D01*
D02*
G37*
G36*
X9874Y193850D02*
X9137D01*
X9432Y193409D01*
X9874Y193113D01*
Y193850D01*
D02*
G37*
G36*
X25622Y204462D02*
X25180Y204166D01*
X24885Y203724D01*
X25622D01*
Y204462D01*
D02*
G37*
G36*
X9874Y196588D02*
X9432Y196292D01*
X9137Y195850D01*
X9874D01*
Y196588D01*
D02*
G37*
G36*
X45000Y217425D02*
X44072Y217240D01*
X43772Y217039D01*
X42412D01*
X41961Y217062D01*
X41918Y217067D01*
X41850Y217111D01*
X41382Y217205D01*
X36075D01*
X35606Y217111D01*
X35209Y216846D01*
X34944Y216449D01*
X34850Y215980D01*
Y214020D01*
X34944Y213551D01*
X35209Y213154D01*
X35606Y212889D01*
X36075Y212795D01*
X41382D01*
X41850Y212889D01*
X41862Y212896D01*
X42927Y212961D01*
X43772D01*
X44072Y212760D01*
X45000Y212576D01*
X45928Y212760D01*
X46714Y213286D01*
X47240Y214072D01*
X47425Y215000D01*
X47240Y215928D01*
X46714Y216714D01*
X45928Y217240D01*
X45000Y217425D01*
D02*
G37*
G36*
X11874Y216273D02*
Y214535D01*
Y212798D01*
X12316Y213093D01*
X12758Y213755D01*
X12840Y214167D01*
X12894Y214438D01*
X13394Y214389D01*
Y214682D01*
X12894Y214633D01*
X12840Y214904D01*
X12758Y215316D01*
X12316Y215977D01*
X11874Y216273D01*
D02*
G37*
G36*
X9874Y213535D02*
X9137D01*
X9432Y213093D01*
X9874Y212798D01*
Y213535D01*
D02*
G37*
G36*
X21146Y214000D02*
X18272D01*
Y212795D01*
X19925D01*
X20394Y212889D01*
X20791Y213154D01*
X21056Y213551D01*
X21146Y214000D01*
D02*
G37*
G36*
X19925Y217205D02*
X18272D01*
Y216000D01*
X21146D01*
X21056Y216449D01*
X20791Y216846D01*
X20394Y217111D01*
X19925Y217205D01*
D02*
G37*
G36*
X16272D02*
X14618D01*
X14150Y217111D01*
X13752Y216846D01*
X13487Y216449D01*
X13398Y216000D01*
X16272D01*
Y217205D01*
D02*
G37*
G36*
X9874Y216273D02*
X9432Y215977D01*
X9137Y215535D01*
X9874D01*
Y216273D01*
D02*
G37*
%LPD*%
G36*
X41556Y216101D02*
X41625Y216080D01*
X41733Y216061D01*
X41879Y216045D01*
X42553Y216011D01*
X43578Y216000D01*
Y214000D01*
X43198Y213999D01*
X41556Y213899D01*
X41526Y213875D01*
Y216125D01*
X41556Y216101D01*
D02*
G37*
%LPC*%
G36*
X39433Y172966D02*
Y172228D01*
X40170D01*
X39875Y172670D01*
X39433Y172966D01*
D02*
G37*
G36*
X31500Y35000D02*
X28645D01*
X28649Y34968D01*
X29047Y34007D01*
X29681Y33181D01*
X30507Y32547D01*
X31468Y32149D01*
X31500Y32145D01*
Y35000D01*
D02*
G37*
G36*
X21500D02*
X18645D01*
X18649Y34968D01*
X19047Y34007D01*
X19681Y33181D01*
X20507Y32547D01*
X21468Y32149D01*
X21500Y32145D01*
Y35000D01*
D02*
G37*
G36*
X36355D02*
X33500D01*
Y32145D01*
X33532Y32149D01*
X34493Y32547D01*
X35319Y33181D01*
X35953Y34007D01*
X36351Y34968D01*
X36355Y35000D01*
D02*
G37*
G36*
X26355D02*
X23500D01*
Y32145D01*
X23532Y32149D01*
X24493Y32547D01*
X25319Y33181D01*
X25953Y34007D01*
X26351Y34968D01*
X26355Y35000D01*
D02*
G37*
G36*
X31500Y29855D02*
X31468Y29851D01*
X30507Y29453D01*
X29681Y28819D01*
X29047Y27993D01*
X28649Y27032D01*
X28645Y27000D01*
X31500D01*
Y29855D01*
D02*
G37*
G36*
X21500D02*
X21468Y29851D01*
X20507Y29453D01*
X19681Y28819D01*
X19047Y27993D01*
X18649Y27032D01*
X18645Y27000D01*
X21500D01*
Y29855D01*
D02*
G37*
G36*
X33500D02*
Y27000D01*
X36355D01*
X36351Y27032D01*
X35953Y27993D01*
X35319Y28819D01*
X34493Y29453D01*
X33532Y29851D01*
X33500Y29855D01*
D02*
G37*
G36*
X23500D02*
Y27000D01*
X26355D01*
X26351Y27032D01*
X25953Y27993D01*
X25319Y28819D01*
X24493Y29453D01*
X23532Y29851D01*
X23500Y29855D01*
D02*
G37*
G36*
X41370Y43044D02*
X40928Y42749D01*
X40633Y42307D01*
X41370D01*
Y43044D01*
D02*
G37*
G36*
Y40307D02*
X40633D01*
X40928Y39865D01*
X41370Y39570D01*
Y40307D01*
D02*
G37*
G36*
X28359Y59992D02*
X27622D01*
Y59255D01*
X28064Y59550D01*
X28359Y59992D01*
D02*
G37*
G36*
X25622D02*
X24885D01*
X25180Y59550D01*
X25622Y59255D01*
Y59992D01*
D02*
G37*
G36*
X31500Y39855D02*
X31468Y39851D01*
X30507Y39453D01*
X29681Y38819D01*
X29047Y37993D01*
X28649Y37032D01*
X28645Y37000D01*
X31500D01*
Y39855D01*
D02*
G37*
G36*
X21500D02*
X21468Y39851D01*
X20507Y39453D01*
X19681Y38819D01*
X19047Y37993D01*
X18649Y37032D01*
X18645Y37000D01*
X21500D01*
Y39855D01*
D02*
G37*
G36*
X33500D02*
Y37000D01*
X36355D01*
X36351Y37032D01*
X35953Y37993D01*
X35319Y38819D01*
X34493Y39453D01*
X33532Y39851D01*
X33500Y39855D01*
D02*
G37*
G36*
X23500D02*
Y37000D01*
X26355D01*
X26351Y37032D01*
X25953Y37993D01*
X25319Y38819D01*
X24493Y39453D01*
X23532Y39851D01*
X23500Y39855D01*
D02*
G37*
G36*
X36355Y25000D02*
X33500D01*
Y22145D01*
X33532Y22149D01*
X34493Y22547D01*
X35319Y23181D01*
X35953Y24007D01*
X36351Y24968D01*
X36355Y25000D01*
D02*
G37*
G36*
X21500Y15000D02*
X18645D01*
X18649Y14968D01*
X19047Y14007D01*
X19681Y13181D01*
X20507Y12547D01*
X21468Y12149D01*
X21500Y12145D01*
Y15000D01*
D02*
G37*
G36*
X11874Y11548D02*
Y10811D01*
X12611D01*
X12316Y11253D01*
X11874Y11548D01*
D02*
G37*
G36*
X26355Y15000D02*
X23500D01*
Y12145D01*
X23532Y12149D01*
X24493Y12547D01*
X25319Y13181D01*
X25953Y14007D01*
X26351Y14968D01*
X26355Y15000D01*
D02*
G37*
G36*
X31500D02*
X28645D01*
X28649Y14968D01*
X29047Y14007D01*
X29681Y13181D01*
X30507Y12547D01*
X31468Y12149D01*
X31500Y12145D01*
Y15000D01*
D02*
G37*
G36*
X12611Y8811D02*
X11874D01*
Y8074D01*
X12316Y8369D01*
X12611Y8811D01*
D02*
G37*
G36*
X9874D02*
X9137D01*
X9432Y8369D01*
X9874Y8074D01*
Y8811D01*
D02*
G37*
G36*
Y11548D02*
X9432Y11253D01*
X9137Y10811D01*
X9874D01*
Y11548D01*
D02*
G37*
G36*
X48000Y25247D02*
X47086Y25126D01*
X47018Y25098D01*
X46622D01*
X46232Y25021D01*
X45901Y24800D01*
X45680Y24469D01*
X45652Y24326D01*
X45504Y24213D01*
X44943Y23482D01*
X44590Y22630D01*
X44470Y21716D01*
Y10962D01*
X43038Y9530D01*
X34306D01*
X33532Y9851D01*
X32500Y9987D01*
X31468Y9851D01*
X30694Y9530D01*
X24306D01*
X23532Y9851D01*
X22500Y9987D01*
X21468Y9851D01*
X20507Y9453D01*
X19681Y8819D01*
X19047Y7993D01*
X18649Y7032D01*
X18513Y6000D01*
X18649Y4968D01*
X19047Y4007D01*
X19681Y3181D01*
X20507Y2547D01*
X21468Y2149D01*
X22500Y2013D01*
X23532Y2149D01*
X24306Y2470D01*
X30694D01*
X31468Y2149D01*
X32500Y2013D01*
X33532Y2149D01*
X34306Y2470D01*
X44500D01*
X45414Y2590D01*
X46265Y2943D01*
X46996Y3504D01*
X50496Y7004D01*
X51057Y7735D01*
X51410Y8586D01*
X51530Y9500D01*
Y21716D01*
X51410Y22630D01*
X51057Y23482D01*
X50496Y24213D01*
X50348Y24326D01*
X50320Y24469D01*
X50099Y24800D01*
X49768Y25021D01*
X49378Y25098D01*
X48982D01*
X48914Y25126D01*
X48000Y25247D01*
D02*
G37*
G36*
X21500Y25000D02*
X18645D01*
X18649Y24968D01*
X19047Y24007D01*
X19681Y23181D01*
X20507Y22547D01*
X21468Y22149D01*
X21500Y22145D01*
Y25000D01*
D02*
G37*
G36*
X33500Y19855D02*
Y17000D01*
X36355D01*
X36351Y17032D01*
X35953Y17993D01*
X35319Y18819D01*
X34493Y19453D01*
X33532Y19851D01*
X33500Y19855D01*
D02*
G37*
G36*
X26355Y25000D02*
X23500D01*
Y22145D01*
X23532Y22149D01*
X24493Y22547D01*
X25319Y23181D01*
X25953Y24007D01*
X26351Y24968D01*
X26355Y25000D01*
D02*
G37*
G36*
X31500D02*
X28645D01*
X28649Y24968D01*
X29047Y24007D01*
X29681Y23181D01*
X30507Y22547D01*
X31468Y22149D01*
X31500Y22145D01*
Y25000D01*
D02*
G37*
G36*
X21500Y19855D02*
X21468Y19851D01*
X20507Y19453D01*
X19681Y18819D01*
X19047Y17993D01*
X18649Y17032D01*
X18645Y17000D01*
X21500D01*
Y19855D01*
D02*
G37*
G36*
X36355Y15000D02*
X33500D01*
Y12145D01*
X33532Y12149D01*
X34493Y12547D01*
X35319Y13181D01*
X35953Y14007D01*
X36351Y14968D01*
X36355Y15000D01*
D02*
G37*
G36*
X23500Y19855D02*
Y17000D01*
X26355D01*
X26351Y17032D01*
X25953Y17993D01*
X25319Y18819D01*
X24493Y19453D01*
X23532Y19851D01*
X23500Y19855D01*
D02*
G37*
G36*
X31500D02*
X31468Y19851D01*
X30507Y19453D01*
X29681Y18819D01*
X29047Y17993D01*
X28649Y17032D01*
X28645Y17000D01*
X31500D01*
Y19855D01*
D02*
G37*
G36*
X21685Y141470D02*
X21243Y141174D01*
X20948Y140732D01*
X21685D01*
Y141470D01*
D02*
G37*
G36*
X24422Y138732D02*
X23685D01*
Y137995D01*
X24127Y138290D01*
X24422Y138732D01*
D02*
G37*
G36*
X26500Y148488D02*
X21649D01*
X21664Y148327D01*
X22003Y147211D01*
X22553Y146183D01*
X23293Y145281D01*
X24194Y144541D01*
X25223Y143991D01*
X26339Y143653D01*
X26500Y143637D01*
Y148488D01*
D02*
G37*
G36*
X23685Y141470D02*
Y140732D01*
X24422D01*
X24127Y141174D01*
X23685Y141470D01*
D02*
G37*
G36*
X49244Y113910D02*
X48802Y113615D01*
X48507Y113173D01*
X49244D01*
Y113910D01*
D02*
G37*
G36*
X51981Y111173D02*
X51244D01*
Y110436D01*
X51686Y110731D01*
X51981Y111173D01*
D02*
G37*
G36*
X21685Y138732D02*
X20948D01*
X21243Y138290D01*
X21685Y137995D01*
Y138732D01*
D02*
G37*
G36*
X51244Y113910D02*
Y113173D01*
X51981D01*
X51686Y113615D01*
X51244Y113910D01*
D02*
G37*
G36*
X37433Y170228D02*
X36696D01*
X36991Y169786D01*
X37433Y169491D01*
Y170228D01*
D02*
G37*
G36*
X39433Y149344D02*
Y148606D01*
X40170D01*
X39875Y149048D01*
X39433Y149344D01*
D02*
G37*
G36*
X37433Y172966D02*
X36991Y172670D01*
X36696Y172228D01*
X37433D01*
Y172966D01*
D02*
G37*
G36*
X40170Y170228D02*
X39433D01*
Y169491D01*
X39875Y169786D01*
X40170Y170228D01*
D02*
G37*
G36*
X37433Y146606D02*
X36696D01*
X36991Y146164D01*
X37433Y145869D01*
Y146606D01*
D02*
G37*
G36*
X33351Y148488D02*
X28500D01*
Y143637D01*
X28661Y143653D01*
X29777Y143991D01*
X30806Y144541D01*
X31707Y145281D01*
X32447Y146183D01*
X32997Y147211D01*
X33336Y148327D01*
X33351Y148488D01*
D02*
G37*
G36*
X37433Y149344D02*
X36991Y149048D01*
X36696Y148606D01*
X37433D01*
Y149344D01*
D02*
G37*
G36*
X40170Y146606D02*
X39433D01*
Y145869D01*
X39875Y146164D01*
X40170Y146606D01*
D02*
G37*
G36*
X49244Y111173D02*
X48507D01*
X48802Y110731D01*
X49244Y110436D01*
Y111173D01*
D02*
G37*
G36*
X16548Y95425D02*
X15811D01*
Y94688D01*
X16253Y94983D01*
X16548Y95425D01*
D02*
G37*
G36*
X13811D02*
X13074D01*
X13369Y94983D01*
X13811Y94688D01*
Y95425D01*
D02*
G37*
G36*
X15811Y98162D02*
Y97425D01*
X16548D01*
X16253Y97867D01*
X15811Y98162D01*
D02*
G37*
G36*
X13811D02*
X13369Y97867D01*
X13074Y97425D01*
X13811D01*
Y98162D01*
D02*
G37*
G36*
X27622Y62729D02*
Y61992D01*
X28359D01*
X28064Y62434D01*
X27622Y62729D01*
D02*
G37*
G36*
X25622D02*
X25180Y62434D01*
X24885Y61992D01*
X25622D01*
Y62729D01*
D02*
G37*
G36*
X33351Y79488D02*
X28500D01*
Y74637D01*
X28661Y74653D01*
X29777Y74991D01*
X30806Y75541D01*
X31707Y76281D01*
X32447Y77183D01*
X32997Y78211D01*
X33336Y79327D01*
X33351Y79488D01*
D02*
G37*
G36*
X26500D02*
X21649D01*
X21664Y79327D01*
X22003Y78211D01*
X22553Y77183D01*
X23293Y76281D01*
X24194Y75541D01*
X25223Y74991D01*
X26339Y74653D01*
X26500Y74637D01*
Y79488D01*
D02*
G37*
G36*
X15811Y106036D02*
Y105299D01*
X16548D01*
X16253Y105741D01*
X15811Y106036D01*
D02*
G37*
G36*
X13811D02*
X13369Y105741D01*
X13074Y105299D01*
X13811D01*
Y106036D01*
D02*
G37*
G36*
X51244D02*
Y105299D01*
X51981D01*
X51686Y105741D01*
X51244Y106036D01*
D02*
G37*
G36*
X49244D02*
X48802Y105741D01*
X48507Y105299D01*
X49244D01*
Y106036D01*
D02*
G37*
G36*
X16548Y103299D02*
X15811D01*
Y102562D01*
X16253Y102857D01*
X16548Y103299D01*
D02*
G37*
G36*
X13811D02*
X13074D01*
X13369Y102857D01*
X13811Y102562D01*
Y103299D01*
D02*
G37*
G36*
X51981D02*
X51244D01*
Y102562D01*
X51686Y102857D01*
X51981Y103299D01*
D02*
G37*
G36*
X49244D02*
X48507D01*
X48802Y102857D01*
X49244Y102562D01*
Y103299D01*
D02*
G37*
G36*
X41370Y236173D02*
X40633D01*
X40928Y235731D01*
X41370Y235436D01*
Y236173D01*
D02*
G37*
G36*
X51165Y234236D02*
X50428D01*
X50723Y233794D01*
X51165Y233499D01*
Y234236D01*
D02*
G37*
G36*
X44107Y236173D02*
X43370D01*
Y235436D01*
X43812Y235731D01*
X44107Y236173D01*
D02*
G37*
G36*
X8674Y394638D02*
X7937D01*
Y393901D01*
X8379Y394196D01*
X8674Y394638D01*
D02*
G37*
G36*
X13811D02*
X13074D01*
X13369Y394196D01*
X13811Y393901D01*
Y394638D01*
D02*
G37*
G36*
X16548D02*
X15811D01*
Y393901D01*
X16253Y394196D01*
X16548Y394638D01*
D02*
G37*
G36*
X5937D02*
X5200D01*
X5495Y394196D01*
X5937Y393901D01*
Y394638D01*
D02*
G37*
G36*
X50181Y383627D02*
X49739Y383332D01*
X49444Y382890D01*
X50181D01*
Y383627D01*
D02*
G37*
G36*
X5937Y385564D02*
X5495Y385269D01*
X5200Y384827D01*
X5937D01*
Y385564D01*
D02*
G37*
G36*
X7937D02*
Y384827D01*
X8674D01*
X8379Y385269D01*
X7937Y385564D01*
D02*
G37*
G36*
X49244Y394638D02*
X48507D01*
X48802Y394196D01*
X49244Y393901D01*
Y394638D01*
D02*
G37*
G36*
X51981D02*
X51244D01*
Y393901D01*
X51686Y394196D01*
X51981Y394638D01*
D02*
G37*
G36*
X5937Y397375D02*
X5495Y397080D01*
X5200Y396638D01*
X5937D01*
Y397375D01*
D02*
G37*
G36*
X40170Y394638D02*
X39433D01*
Y393901D01*
X39875Y394196D01*
X40170Y394638D01*
D02*
G37*
G36*
X25622D02*
X24885D01*
X25180Y394196D01*
X25622Y393901D01*
Y394638D01*
D02*
G37*
G36*
X28359D02*
X27622D01*
Y393901D01*
X28064Y394196D01*
X28359Y394638D01*
D02*
G37*
G36*
X37433D02*
X36696D01*
X36991Y394196D01*
X37433Y393901D01*
Y394638D01*
D02*
G37*
G36*
X8674Y382827D02*
X7937D01*
Y382090D01*
X8379Y382385D01*
X8674Y382827D01*
D02*
G37*
G36*
X31559Y369816D02*
Y369079D01*
X32296D01*
X32001Y369521D01*
X31559Y369816D01*
D02*
G37*
G36*
X41370D02*
X40928Y369521D01*
X40633Y369079D01*
X41370D01*
Y369816D01*
D02*
G37*
G36*
X43370D02*
Y369079D01*
X44107D01*
X43812Y369521D01*
X43370Y369816D01*
D02*
G37*
G36*
X29559D02*
X29117Y369521D01*
X28822Y369079D01*
X29559D01*
Y369816D01*
D02*
G37*
G36*
X51981Y367079D02*
X51244D01*
Y366341D01*
X51686Y366637D01*
X51981Y367079D01*
D02*
G37*
G36*
X17748Y369816D02*
X17306Y369521D01*
X17011Y369079D01*
X17748D01*
Y369816D01*
D02*
G37*
G36*
X19748D02*
Y369079D01*
X20485D01*
X20190Y369521D01*
X19748Y369816D01*
D02*
G37*
G36*
X37343Y386475D02*
X36298Y386338D01*
X35325Y385935D01*
X34490Y385294D01*
X33849Y384458D01*
X33446Y383485D01*
X33308Y382441D01*
X33446Y381397D01*
X33849Y380424D01*
X34490Y379588D01*
X35325Y378947D01*
X36298Y378544D01*
X37343Y378406D01*
X38387Y378544D01*
X39360Y378947D01*
X40195Y379588D01*
X40837Y380424D01*
X41240Y381397D01*
X41377Y382441D01*
X41240Y383485D01*
X40837Y384458D01*
X40195Y385294D01*
X39360Y385935D01*
X38387Y386338D01*
X37343Y386475D01*
D02*
G37*
G36*
X50181Y380890D02*
X49444D01*
X49739Y380448D01*
X50181Y380153D01*
Y380890D01*
D02*
G37*
G36*
X5937Y382827D02*
X5200D01*
X5495Y382385D01*
X5937Y382090D01*
Y382827D01*
D02*
G37*
G36*
X27500Y386475D02*
X26456Y386338D01*
X25483Y385935D01*
X24647Y385294D01*
X24006Y384458D01*
X23603Y383485D01*
X23465Y382441D01*
X23603Y381397D01*
X24006Y380424D01*
X24647Y379588D01*
X25483Y378947D01*
X26456Y378544D01*
X27500Y378406D01*
X28544Y378544D01*
X29517Y378947D01*
X30353Y379588D01*
X30994Y380424D01*
X31397Y381397D01*
X31534Y382441D01*
X31397Y383485D01*
X30994Y384458D01*
X30353Y385294D01*
X29517Y385935D01*
X28544Y386338D01*
X27500Y386475D01*
D02*
G37*
G36*
X49244Y369816D02*
X48802Y369521D01*
X48507Y369079D01*
X49244D01*
Y369816D01*
D02*
G37*
G36*
X51244D02*
Y369079D01*
X51981D01*
X51686Y369521D01*
X51244Y369816D01*
D02*
G37*
G36*
X17658Y386475D02*
X16613Y386338D01*
X15640Y385935D01*
X14805Y385294D01*
X14164Y384458D01*
X13760Y383485D01*
X13623Y382441D01*
X13760Y381397D01*
X14164Y380424D01*
X14805Y379588D01*
X15640Y378947D01*
X16613Y378544D01*
X17658Y378406D01*
X18702Y378544D01*
X19675Y378947D01*
X20510Y379588D01*
X21151Y380424D01*
X21554Y381397D01*
X21692Y382441D01*
X21554Y383485D01*
X21151Y384458D01*
X20510Y385294D01*
X19675Y385935D01*
X18702Y386338D01*
X17658Y386475D01*
D02*
G37*
G36*
X29559Y422197D02*
X28822D01*
X29117Y421755D01*
X29559Y421460D01*
Y422197D01*
D02*
G37*
G36*
X32296D02*
X31559D01*
Y421460D01*
X32001Y421755D01*
X32296Y422197D01*
D02*
G37*
G36*
X41370D02*
X40633D01*
X40928Y421755D01*
X41370Y421460D01*
Y422197D01*
D02*
G37*
G36*
X20485D02*
X19748D01*
Y421460D01*
X20190Y421755D01*
X20485Y422197D01*
D02*
G37*
G36*
X33496Y409186D02*
X33054Y408891D01*
X32759Y408449D01*
X33496D01*
Y409186D01*
D02*
G37*
G36*
X35496D02*
Y408449D01*
X36233D01*
X35938Y408891D01*
X35496Y409186D01*
D02*
G37*
G36*
X17748Y422197D02*
X17011D01*
X17306Y421755D01*
X17748Y421460D01*
Y422197D01*
D02*
G37*
G36*
X31559Y424934D02*
Y424197D01*
X32296D01*
X32001Y424639D01*
X31559Y424934D01*
D02*
G37*
G36*
X41370D02*
X40928Y424639D01*
X40633Y424197D01*
X41370D01*
Y424934D01*
D02*
G37*
G36*
X43370D02*
Y424197D01*
X44107D01*
X43812Y424639D01*
X43370Y424934D01*
D02*
G37*
G36*
X29559D02*
X29117Y424639D01*
X28822Y424197D01*
X29559D01*
Y424934D01*
D02*
G37*
G36*
X44107Y422197D02*
X43370D01*
Y421460D01*
X43812Y421755D01*
X44107Y422197D01*
D02*
G37*
G36*
X17748Y424934D02*
X17306Y424639D01*
X17011Y424197D01*
X17748D01*
Y424934D01*
D02*
G37*
G36*
X19748D02*
Y424197D01*
X20485D01*
X20190Y424639D01*
X19748Y424934D01*
D02*
G37*
G36*
X23685Y409186D02*
Y408449D01*
X24422D01*
X24127Y408891D01*
X23685Y409186D01*
D02*
G37*
G36*
X27622Y397375D02*
Y396638D01*
X28359D01*
X28064Y397080D01*
X27622Y397375D01*
D02*
G37*
G36*
X37433D02*
X36991Y397080D01*
X36696Y396638D01*
X37433D01*
Y397375D01*
D02*
G37*
G36*
X39433D02*
Y396638D01*
X40170D01*
X39875Y397080D01*
X39433Y397375D01*
D02*
G37*
G36*
X25622D02*
X25180Y397080D01*
X24885Y396638D01*
X25622D01*
Y397375D01*
D02*
G37*
G36*
X7937D02*
Y396638D01*
X8674D01*
X8379Y397080D01*
X7937Y397375D01*
D02*
G37*
G36*
X13811D02*
X13369Y397080D01*
X13074Y396638D01*
X13811D01*
Y397375D01*
D02*
G37*
G36*
X15811D02*
Y396638D01*
X16548D01*
X16253Y397080D01*
X15811Y397375D01*
D02*
G37*
G36*
X33496Y406449D02*
X32759D01*
X33054Y406007D01*
X33496Y405712D01*
Y406449D01*
D02*
G37*
G36*
X36233D02*
X35496D01*
Y405712D01*
X35938Y406007D01*
X36233Y406449D01*
D02*
G37*
G36*
X21685Y409186D02*
X21243Y408891D01*
X20948Y408449D01*
X21685D01*
Y409186D01*
D02*
G37*
G36*
X24422Y406449D02*
X23685D01*
Y405712D01*
X24127Y406007D01*
X24422Y406449D01*
D02*
G37*
G36*
X49244Y397375D02*
X48802Y397080D01*
X48507Y396638D01*
X49244D01*
Y397375D01*
D02*
G37*
G36*
X51244D02*
Y396638D01*
X51981D01*
X51686Y397080D01*
X51244Y397375D01*
D02*
G37*
G36*
X21685Y406449D02*
X20948D01*
X21243Y406007D01*
X21685Y405712D01*
Y406449D01*
D02*
G37*
G36*
X28359Y327709D02*
X27622D01*
Y326972D01*
X28064Y327267D01*
X28359Y327709D01*
D02*
G37*
G36*
X25622Y330446D02*
X25180Y330151D01*
X24885Y329709D01*
X25622D01*
Y330446D01*
D02*
G37*
G36*
X27622D02*
Y329709D01*
X28359D01*
X28064Y330151D01*
X27622Y330446D01*
D02*
G37*
G36*
X25622Y327709D02*
X24885D01*
X25180Y327267D01*
X25622Y326972D01*
Y327709D01*
D02*
G37*
G36*
X5722Y323772D02*
X4984D01*
Y323035D01*
X5426Y323330D01*
X5722Y323772D01*
D02*
G37*
G36*
X2984Y326509D02*
X2542Y326214D01*
X2247Y325772D01*
X2984D01*
Y326509D01*
D02*
G37*
G36*
X4984D02*
Y325772D01*
X5722D01*
X5426Y326214D01*
X4984Y326509D01*
D02*
G37*
G36*
X21685Y342257D02*
X21243Y341962D01*
X20948Y341520D01*
X21685D01*
Y342257D01*
D02*
G37*
G36*
X23685D02*
Y341520D01*
X24422D01*
X24127Y341962D01*
X23685Y342257D01*
D02*
G37*
G36*
X29559D02*
X29117Y341962D01*
X28822Y341520D01*
X29559D01*
Y342257D01*
D02*
G37*
G36*
X32296Y339520D02*
X31559D01*
Y338783D01*
X32001Y339078D01*
X32296Y339520D01*
D02*
G37*
G36*
X21685D02*
X20948D01*
X21243Y339078D01*
X21685Y338783D01*
Y339520D01*
D02*
G37*
G36*
X24422D02*
X23685D01*
Y338783D01*
X24127Y339078D01*
X24422Y339520D01*
D02*
G37*
G36*
X29559D02*
X28822D01*
X29117Y339078D01*
X29559Y338783D01*
Y339520D01*
D02*
G37*
G36*
X21685Y300150D02*
X20948D01*
X21243Y299708D01*
X21685Y299412D01*
Y300150D01*
D02*
G37*
G36*
X24422D02*
X23685D01*
Y299412D01*
X24127Y299708D01*
X24422Y300150D01*
D02*
G37*
G36*
X29559D02*
X28822D01*
X29117Y299708D01*
X29559Y299412D01*
Y300150D01*
D02*
G37*
G36*
X25500Y279237D02*
Y278500D01*
X26237D01*
X25942Y278942D01*
X25500Y279237D01*
D02*
G37*
G36*
X23500Y276500D02*
X22763D01*
X23058Y276058D01*
X23500Y275763D01*
Y276500D01*
D02*
G37*
G36*
X26237D02*
X25500D01*
Y275763D01*
X25942Y276058D01*
X26237Y276500D01*
D02*
G37*
G36*
X23500Y279237D02*
X23058Y278942D01*
X22763Y278500D01*
X23500D01*
Y279237D01*
D02*
G37*
G36*
X9500Y356925D02*
X8572Y356740D01*
X7786Y356214D01*
X7260Y355428D01*
X7075Y354500D01*
X7260Y353572D01*
X7786Y352786D01*
X8572Y352260D01*
X8927Y352189D01*
X15461Y345655D01*
Y319345D01*
X10427Y314311D01*
X10072Y314240D01*
X9286Y313714D01*
X8760Y312928D01*
X8575Y312000D01*
X8760Y311072D01*
X9286Y310286D01*
X10072Y309760D01*
X11000Y309576D01*
X11928Y309760D01*
X12714Y310286D01*
X13240Y311072D01*
X13310Y311427D01*
X18942Y317058D01*
X19384Y317720D01*
X19539Y318500D01*
Y346500D01*
X19384Y347280D01*
X18942Y347942D01*
X11811Y355073D01*
X11740Y355428D01*
X11214Y356214D01*
X10428Y356740D01*
X9500Y356925D01*
D02*
G37*
G36*
X40750Y322674D02*
X39822Y322490D01*
X39522Y322289D01*
X38250D01*
X38250Y322289D01*
X37470Y322134D01*
X36808Y321692D01*
X26484Y311368D01*
X26067Y310960D01*
X25502Y310450D01*
X25485Y310436D01*
X25483Y310435D01*
X25376Y310353D01*
X25358Y310340D01*
X25353Y310336D01*
X24647Y309794D01*
X24006Y308958D01*
X23603Y307985D01*
X23465Y306941D01*
X23603Y305897D01*
X24006Y304924D01*
X24647Y304088D01*
X25483Y303447D01*
X26456Y303044D01*
X27500Y302906D01*
X28544Y303044D01*
X29111Y303278D01*
X29560Y303248D01*
X29585Y303200D01*
X29411Y302788D01*
X29117Y302591D01*
X28822Y302150D01*
X32296D01*
X32001Y302591D01*
X31339Y303034D01*
X30559Y303189D01*
X29779Y303034D01*
X29775Y303038D01*
X29800Y303664D01*
X30353Y304088D01*
X30994Y304924D01*
X31397Y305897D01*
X31534Y306941D01*
X31397Y307985D01*
X30994Y308958D01*
X30748Y309279D01*
X30722Y309342D01*
X30636Y309470D01*
X30613Y309517D01*
X30606Y309543D01*
X30605Y309560D01*
X30607Y309585D01*
X30620Y309633D01*
X30654Y309710D01*
X30719Y309818D01*
X30774Y309890D01*
X39095Y318211D01*
X39522D01*
X39822Y318010D01*
X40750Y317826D01*
X41678Y318010D01*
X42464Y318536D01*
X42990Y319322D01*
X43174Y320250D01*
X42990Y321178D01*
X42464Y321964D01*
X41678Y322490D01*
X40750Y322674D01*
D02*
G37*
G36*
X2984Y323772D02*
X2247D01*
X2542Y323330D01*
X2984Y323035D01*
Y323772D01*
D02*
G37*
G36*
X17658Y310976D02*
X16613Y310838D01*
X15640Y310435D01*
X14805Y309794D01*
X14164Y308958D01*
X13760Y307985D01*
X13623Y306941D01*
X13760Y305897D01*
X14164Y304924D01*
X14805Y304088D01*
X15640Y303447D01*
X16613Y303044D01*
X17658Y302906D01*
X18702Y303044D01*
X19675Y303447D01*
X20510Y304088D01*
X21151Y304924D01*
X21554Y305897D01*
X21692Y306941D01*
X21554Y307985D01*
X21151Y308958D01*
X20510Y309794D01*
X19675Y310435D01*
X18702Y310838D01*
X17658Y310976D01*
D02*
G37*
G36*
X32296Y300150D02*
X31559D01*
Y299412D01*
X32001Y299708D01*
X32296Y300150D01*
D02*
G37*
G36*
X21685Y302887D02*
X21243Y302591D01*
X20948Y302150D01*
X21685D01*
Y302887D01*
D02*
G37*
G36*
X23685D02*
Y302150D01*
X24422D01*
X24127Y302591D01*
X23685Y302887D01*
D02*
G37*
G36*
X31559Y342257D02*
Y341520D01*
X32296D01*
X32001Y341962D01*
X31559Y342257D01*
D02*
G37*
G36*
X43370Y354068D02*
Y353331D01*
X44107D01*
X43812Y353773D01*
X43370Y354068D01*
D02*
G37*
G36*
X49244D02*
X48802Y353773D01*
X48507Y353331D01*
X49244D01*
Y354068D01*
D02*
G37*
G36*
X51244D02*
Y353331D01*
X51981D01*
X51686Y353773D01*
X51244Y354068D01*
D02*
G37*
G36*
X41370D02*
X40928Y353773D01*
X40633Y353331D01*
X41370D01*
Y354068D01*
D02*
G37*
G36*
X32496Y352131D02*
Y351394D01*
X33233D01*
X32938Y351836D01*
X32496Y352131D01*
D02*
G37*
G36*
X17748Y354068D02*
X17306Y353773D01*
X17011Y353331D01*
X17748D01*
Y354068D01*
D02*
G37*
G36*
X19748D02*
Y353331D01*
X20485D01*
X20190Y353773D01*
X19748Y354068D01*
D02*
G37*
G36*
X41370Y367079D02*
X40633D01*
X40928Y366637D01*
X41370Y366341D01*
Y367079D01*
D02*
G37*
G36*
X44107D02*
X43370D01*
Y366341D01*
X43812Y366637D01*
X44107Y367079D01*
D02*
G37*
G36*
X49244D02*
X48507D01*
X48802Y366637D01*
X49244Y366341D01*
Y367079D01*
D02*
G37*
G36*
X32296D02*
X31559D01*
Y366341D01*
X32001Y366637D01*
X32296Y367079D01*
D02*
G37*
G36*
X17748D02*
X17011D01*
X17306Y366637D01*
X17748Y366341D01*
Y367079D01*
D02*
G37*
G36*
X20485D02*
X19748D01*
Y366341D01*
X20190Y366637D01*
X20485Y367079D01*
D02*
G37*
G36*
X29559D02*
X28822D01*
X29117Y366637D01*
X29559Y366341D01*
Y367079D01*
D02*
G37*
G36*
X30496Y349394D02*
X29759D01*
X30054Y348952D01*
X30496Y348657D01*
Y349394D01*
D02*
G37*
G36*
X33233D02*
X32496D01*
Y348657D01*
X32938Y348952D01*
X33233Y349394D01*
D02*
G37*
G36*
X17748Y351331D02*
X17011D01*
X17306Y350889D01*
X17748Y350593D01*
Y351331D01*
D02*
G37*
G36*
X7937Y346194D02*
Y345457D01*
X8674D01*
X8379Y345899D01*
X7937Y346194D01*
D02*
G37*
G36*
X5937Y343457D02*
X5200D01*
X5495Y343015D01*
X5937Y342720D01*
Y343457D01*
D02*
G37*
G36*
X8674D02*
X7937D01*
Y342720D01*
X8379Y343015D01*
X8674Y343457D01*
D02*
G37*
G36*
X5937Y346194D02*
X5495Y345899D01*
X5200Y345457D01*
X5937D01*
Y346194D01*
D02*
G37*
G36*
X30496Y352131D02*
X30054Y351836D01*
X29759Y351394D01*
X30496D01*
Y352131D01*
D02*
G37*
G36*
X51981Y351331D02*
X51244D01*
Y350593D01*
X51686Y350889D01*
X51981Y351331D01*
D02*
G37*
G36*
X49244D02*
X48507D01*
X48802Y350889D01*
X49244Y350593D01*
Y351331D01*
D02*
G37*
G36*
X20485D02*
X19748D01*
Y350593D01*
X20190Y350889D01*
X20485Y351331D01*
D02*
G37*
G36*
X41370D02*
X40633D01*
X40928Y350889D01*
X41370Y350593D01*
Y351331D01*
D02*
G37*
G36*
X44107D02*
X43370D01*
Y350593D01*
X43812Y350889D01*
X44107Y351331D01*
D02*
G37*
%LPD*%
G36*
X30243Y310829D02*
X30041Y310610D01*
X29875Y310394D01*
X29747Y310181D01*
X29655Y309971D01*
X29599Y309764D01*
X29581Y309560D01*
X29599Y309359D01*
X29654Y309161D01*
X29746Y308966D01*
X29875Y308774D01*
X25942Y309504D01*
X26035Y309570D01*
X26164Y309674D01*
X26765Y310217D01*
X28478Y311892D01*
X30243Y310829D01*
D02*
G37*
D10*
X16500Y288000D02*
D03*
Y283000D02*
D03*
Y278000D02*
D03*
Y273000D02*
D03*
Y268000D02*
D03*
Y263000D02*
D03*
Y258000D02*
D03*
Y253000D02*
D03*
Y248000D02*
D03*
Y243000D02*
D03*
X42500Y288000D02*
D03*
Y283000D02*
D03*
Y278000D02*
D03*
Y273000D02*
D03*
Y268000D02*
D03*
Y263000D02*
D03*
Y258000D02*
D03*
Y253000D02*
D03*
Y248000D02*
D03*
Y243000D02*
D03*
D11*
X7000Y22217D02*
D03*
Y36783D02*
D03*
X48000Y36283D02*
D03*
Y21716D02*
D03*
D12*
X38728Y210000D02*
D03*
Y215000D02*
D03*
Y220000D02*
D03*
Y225000D02*
D03*
X17272Y210000D02*
D03*
Y215000D02*
D03*
Y220000D02*
D03*
Y225000D02*
D03*
D13*
X4500Y227043D02*
D03*
Y219957D02*
D03*
X6000Y250957D02*
D03*
Y258043D02*
D03*
X51000Y248043D02*
D03*
Y240957D02*
D03*
X4000Y274043D02*
D03*
Y266957D02*
D03*
Y289543D02*
D03*
Y282457D02*
D03*
X51000Y262957D02*
D03*
Y270043D02*
D03*
X50500Y294957D02*
D03*
Y302043D02*
D03*
X50500Y277957D02*
D03*
Y285043D02*
D03*
D14*
X42500Y248000D02*
X50957D01*
X42000Y221500D02*
X45000D01*
X16428Y278500D02*
X18000D01*
X16214Y278286D02*
X16428Y278500D01*
X15894Y226378D02*
X17272Y225000D01*
X5165Y226378D02*
X15894D01*
X4500Y227043D02*
X5165Y226378D01*
X16500Y253000D02*
X20500D01*
X50957Y248000D02*
X51000Y248043D01*
X20500Y253000D02*
X24500Y249000D01*
X42500Y278000D02*
X50457D01*
X20000Y263000D02*
X23500Y259500D01*
X33500Y229000D02*
Y230000D01*
X29500Y225000D02*
X33500Y229000D01*
X38728Y220000D02*
X40500D01*
X38335D02*
X38728D01*
X17272D02*
X17665D01*
X11000D02*
X17272D01*
X38728Y215000D02*
X45000D01*
X38335D02*
X38728D01*
X4543Y220000D02*
X11000D01*
X45000Y221500D02*
Y222000D01*
X40500Y220000D02*
X42000Y221500D01*
X4000Y289543D02*
X5543Y288000D01*
X17272Y225000D02*
X29500D01*
X27500Y306941D02*
Y309500D01*
X38250Y320250D01*
X40750D01*
X43543Y309000D02*
Y312957D01*
Y309000D02*
X50500Y302043D01*
X42500Y288000D02*
Y311913D01*
X43543Y312957D01*
X50500Y285043D02*
Y294957D01*
Y285043D02*
X50500Y285043D01*
X16500Y288000D02*
Y292500D01*
X17000Y293000D01*
X5543Y288000D02*
X16500D01*
X4000Y282457D02*
X4543Y283000D01*
X10000D01*
X16500D01*
X11000Y312000D02*
X17500Y318500D01*
Y346500D01*
X9500Y354500D02*
X17500Y346500D01*
X31000Y292000D02*
X40000Y283000D01*
X31000Y292000D02*
Y294000D01*
X15500Y267000D02*
X16500Y268000D01*
X9500Y273000D02*
X16500D01*
X16214Y278286D02*
X16500Y278000D01*
X4000Y274043D02*
Y282457D01*
X9000Y273500D02*
X9500Y273000D01*
X10500Y267000D02*
X15500D01*
X6000Y258043D02*
X16457D01*
X16500Y263000D02*
X20000D01*
X23500Y256500D02*
Y259500D01*
Y256500D02*
X28000Y252000D01*
Y245500D02*
Y252000D01*
X27500Y245000D02*
X28000Y245500D01*
D15*
X37693Y233878D02*
X39571Y232000D01*
X39500Y228500D02*
X41000Y230000D01*
X38335Y225000D02*
Y226764D01*
X46700Y230000D02*
X51200Y225500D01*
X38335Y226764D02*
X39500Y227929D01*
Y228500D01*
X41000Y230000D02*
X43500D01*
X46700D01*
X41500Y232000D02*
X43500Y230000D01*
X39571Y232000D02*
X41500D01*
X29429D02*
X31307Y233878D01*
X37693D01*
X19500Y232000D02*
X27500D01*
X29429D01*
D16*
X7000Y36783D02*
Y89000D01*
X40000Y81000D02*
X48000Y73000D01*
X12500Y208500D02*
X23000D01*
X19000Y116000D02*
X37000D01*
X15000Y120000D02*
X19000Y116000D01*
X37000D02*
X40000Y113000D01*
X15000Y120000D02*
Y167000D01*
X40000Y81000D02*
Y113000D01*
X48000Y36283D02*
Y73000D01*
X6000Y90000D02*
X7000Y89000D01*
X6000Y90000D02*
Y172500D01*
X7000Y22217D02*
X9217D01*
X14000Y27000D01*
Y42000D01*
X18000Y46000D01*
X22500D01*
X32500D01*
X48000Y9500D02*
Y21716D01*
X44500Y6000D02*
X48000Y9500D01*
X32500Y6000D02*
X44500D01*
X22500D02*
X32500D01*
X6000Y172500D02*
X18500Y185000D01*
X43000D01*
X4500Y200500D02*
X12500Y208500D01*
X23000D02*
X26500Y212000D01*
D17*
X27500Y273500D02*
X28250Y272750D01*
X26000Y272000D02*
X27500Y273500D01*
X40750Y267750D02*
X41750Y268750D01*
X29500Y269500D02*
X31250Y267750D01*
X36750D01*
X47542Y259498D02*
X51000Y262957D01*
X47542Y251972D02*
Y259498D01*
X29000Y258000D02*
X42500D01*
X46087Y250517D02*
X47542Y251972D01*
X25887Y261113D02*
X29000Y258000D01*
X31500Y251000D02*
X34278Y253778D01*
X37651D01*
X38429Y253000D02*
X42500D01*
X37651Y253778D02*
X38429Y253000D01*
X36500Y250535D02*
Y251000D01*
Y250535D02*
X36517Y250517D01*
X42406Y258094D02*
X42500Y258000D01*
X36517Y250517D02*
X46087D01*
X31500Y247000D02*
Y251000D01*
X42406Y258094D02*
Y258417D01*
X41750Y268750D02*
X42500Y268000D01*
X36750Y267750D02*
X40750D01*
X28013Y272750D02*
X28250D01*
X36750Y267750D02*
Y281750D01*
X38000Y283000D01*
X40000D01*
X42500D01*
X26000Y264141D02*
Y272000D01*
X25887Y264029D02*
X26000Y264141D01*
X25887Y261113D02*
Y264029D01*
D18*
X45000Y263000D02*
X46500Y264500D01*
X42500Y243000D02*
X48957D01*
X51000Y240957D01*
X42500Y263000D02*
X45000D01*
X46000Y264500D02*
X46500D01*
X2335Y265291D02*
X4000Y266957D01*
X2335Y242465D02*
Y265291D01*
X20129Y240417D02*
X20211Y240500D01*
X4383Y240417D02*
X20129D01*
X2335Y242465D02*
X4383Y240417D01*
X42500Y240500D02*
Y243000D01*
X20211Y240500D02*
X42500D01*
D19*
X43000Y185000D02*
X51200Y193200D01*
Y225500D01*
D20*
X27500Y149488D02*
D03*
Y161693D02*
D03*
Y194370D02*
D03*
Y80488D02*
D03*
Y92693D02*
D03*
Y125370D02*
D03*
D21*
Y175000D02*
D03*
X37343Y306941D02*
D03*
X17658D02*
D03*
X27500D02*
D03*
X37343Y382441D02*
D03*
X17658D02*
D03*
X27500D02*
D03*
Y106000D02*
D03*
X49500Y74500D02*
D03*
X5500Y75500D02*
D03*
D22*
X6634Y334500D02*
D03*
X48366D02*
D03*
X6634Y410000D02*
D03*
X48366D02*
D03*
D23*
X32500Y46000D02*
D03*
D24*
X22500D02*
D03*
X32500Y36000D02*
D03*
X22500D02*
D03*
X32500Y26000D02*
D03*
X22500D02*
D03*
X32500Y16000D02*
D03*
X22500D02*
D03*
X32500Y6000D02*
D03*
X22500D02*
D03*
D25*
X52213Y277528D02*
D03*
X42370Y237173D02*
D03*
X3984Y324772D02*
D03*
X52165Y235236D02*
D03*
X10874Y214535D02*
D03*
X26622Y202724D02*
D03*
X10874Y194850D02*
D03*
Y9811D02*
D03*
X42370Y41307D02*
D03*
X26622Y60992D02*
D03*
X14811Y96425D02*
D03*
Y104299D02*
D03*
X50244D02*
D03*
Y112173D02*
D03*
X22685Y139732D02*
D03*
X38433Y147606D02*
D03*
Y171228D02*
D03*
X22685Y301150D02*
D03*
X30559D02*
D03*
X18748Y423197D02*
D03*
X30559D02*
D03*
X42370D02*
D03*
X22685Y407449D02*
D03*
X34496D02*
D03*
X6937Y344457D02*
D03*
X26622Y328709D02*
D03*
X22685Y340520D02*
D03*
X30559D02*
D03*
X18748Y352331D02*
D03*
X31496Y350394D02*
D03*
X18748Y368079D02*
D03*
X30559D02*
D03*
X6937Y383827D02*
D03*
Y395638D02*
D03*
X14811D02*
D03*
X26622D02*
D03*
X38433D02*
D03*
X42370Y368079D02*
D03*
Y352331D02*
D03*
X50244Y395638D02*
D03*
Y368079D02*
D03*
X51181Y381890D02*
D03*
X50244Y352331D02*
D03*
X5500Y244000D02*
D03*
X24500Y277500D02*
D03*
X29500Y269500D02*
D03*
X46165Y272000D02*
D03*
X49000Y270500D02*
D03*
X6500Y253500D02*
D03*
D26*
X35500Y262000D02*
D03*
X50500Y250000D02*
D03*
X36500Y251000D02*
D03*
X38500Y231000D02*
D03*
X33500Y230000D02*
D03*
X16500Y208000D02*
D03*
X15000Y167000D02*
D03*
X4500Y200500D02*
D03*
X45000Y215000D02*
D03*
X11000Y220000D02*
D03*
X45000Y222000D02*
D03*
X26500Y212000D02*
D03*
X24500Y249000D02*
D03*
X19500Y232000D02*
D03*
X40750Y320250D02*
D03*
X43543Y312957D02*
D03*
X17000Y293000D02*
D03*
X10000Y283000D02*
D03*
X11000Y312000D02*
D03*
X9500Y354500D02*
D03*
X31000Y294000D02*
D03*
X18000Y278500D02*
D03*
X31500Y247000D02*
D03*
X46000Y264500D02*
D03*
X28013Y272750D02*
D03*
X9000Y273500D02*
D03*
X10500Y267000D02*
D03*
X27500Y245000D02*
D03*
Y232000D02*
D03*
M02*
