G04 Layer_Color=8388736*
%FSLAX25Y25*%
%MOIN*%
G70*
G01*
G75*
%ADD33O,0.08083X0.02965*%
%ADD34R,0.03556X0.05524*%
G04:AMPARAMS|DCode=35|XSize=31.62mil|YSize=65.09mil|CornerRadius=6.01mil|HoleSize=0mil|Usage=FLASHONLY|Rotation=90.000|XOffset=0mil|YOffset=0mil|HoleType=Round|Shape=RoundedRectangle|*
%AMROUNDEDRECTD35*
21,1,0.03162,0.05307,0,0,90.0*
21,1,0.01961,0.06509,0,0,90.0*
1,1,0.01202,0.02653,0.00980*
1,1,0.01202,0.02653,-0.00980*
1,1,0.01202,-0.02653,-0.00980*
1,1,0.01202,-0.02653,0.00980*
%
%ADD35ROUNDEDRECTD35*%
%ADD36R,0.05131X0.05131*%
%ADD37C,0.10642*%
%ADD38C,0.06800*%
%ADD39C,0.12611*%
%ADD40R,0.06706X0.06706*%
%ADD41C,0.06706*%
D33*
X16500Y288000D02*
D03*
Y283000D02*
D03*
Y278000D02*
D03*
Y273000D02*
D03*
Y268000D02*
D03*
Y263000D02*
D03*
Y258000D02*
D03*
Y253000D02*
D03*
Y248000D02*
D03*
Y243000D02*
D03*
X42500Y288000D02*
D03*
Y283000D02*
D03*
Y278000D02*
D03*
Y273000D02*
D03*
Y268000D02*
D03*
Y263000D02*
D03*
Y258000D02*
D03*
Y253000D02*
D03*
Y248000D02*
D03*
Y243000D02*
D03*
D34*
X7000Y22217D02*
D03*
Y36783D02*
D03*
X48000Y36283D02*
D03*
Y21716D02*
D03*
D35*
X38728Y210000D02*
D03*
Y215000D02*
D03*
Y220000D02*
D03*
Y225000D02*
D03*
X17272Y210000D02*
D03*
Y215000D02*
D03*
Y220000D02*
D03*
Y225000D02*
D03*
D36*
X4500Y227043D02*
D03*
Y219957D02*
D03*
X6000Y250957D02*
D03*
Y258043D02*
D03*
X51000Y248043D02*
D03*
Y240957D02*
D03*
X4000Y274043D02*
D03*
Y266957D02*
D03*
Y289543D02*
D03*
Y282457D02*
D03*
X51000Y262957D02*
D03*
Y270043D02*
D03*
X50500Y294957D02*
D03*
Y302043D02*
D03*
X50500Y277957D02*
D03*
Y285043D02*
D03*
D37*
X27500Y149488D02*
D03*
Y161693D02*
D03*
Y194370D02*
D03*
Y80488D02*
D03*
Y92693D02*
D03*
Y125370D02*
D03*
D38*
Y175000D02*
D03*
X37343Y306941D02*
D03*
X17658D02*
D03*
X27500D02*
D03*
X37343Y382441D02*
D03*
X17658D02*
D03*
X27500D02*
D03*
Y106000D02*
D03*
X49500Y74500D02*
D03*
X5500Y75500D02*
D03*
D39*
X6634Y334500D02*
D03*
X48366D02*
D03*
X6634Y410000D02*
D03*
X48366D02*
D03*
D40*
X32500Y46000D02*
D03*
D41*
X22500D02*
D03*
X32500Y36000D02*
D03*
X22500D02*
D03*
X32500Y26000D02*
D03*
X22500D02*
D03*
X32500Y16000D02*
D03*
X22500D02*
D03*
X32500Y6000D02*
D03*
X22500D02*
D03*
M02*
