G04 Layer_Physical_Order=2*
G04 Layer_Color=16711680*
%FSLAX25Y25*%
%MOIN*%
G70*
G01*
G75*
%ADD13R,0.04331X0.04331*%
%ADD14C,0.02000*%
%ADD15C,0.03000*%
%ADD16C,0.05000*%
%ADD17C,0.00800*%
%ADD18C,0.01000*%
%ADD20C,0.09842*%
%ADD21C,0.06000*%
%ADD22C,0.11811*%
%ADD23R,0.05905X0.05905*%
%ADD24C,0.05905*%
%ADD25C,0.02000*%
%ADD26C,0.02756*%
%ADD27R,0.06299X0.10236*%
%ADD28R,0.04331X0.04331*%
G36*
X33849Y309767D02*
X33906Y309693D01*
X33972Y309581D01*
X34011Y309491D01*
X34030Y309423D01*
X34036Y309369D01*
X34033Y309317D01*
X34020Y309256D01*
X33989Y309176D01*
X33924Y309057D01*
X33849Y308958D01*
X33446Y307985D01*
X33308Y306941D01*
X33446Y305897D01*
X33849Y304924D01*
X34490Y304088D01*
X34570Y304027D01*
X34689Y303901D01*
X34829Y303732D01*
X34949Y303564D01*
X35050Y303395D01*
X35134Y303225D01*
X35202Y303053D01*
X35254Y302878D01*
X35291Y302697D01*
X35303Y302600D01*
Y291158D01*
X35459Y290377D01*
X35901Y289716D01*
X37901Y287715D01*
X37858Y287398D01*
X37808Y287223D01*
X37444Y287151D01*
X37114Y286930D01*
X36893Y286599D01*
X36815Y286209D01*
Y281878D01*
X36893Y281488D01*
X37114Y281157D01*
X37444Y280936D01*
X37835Y280858D01*
X40878D01*
X41058Y280642D01*
X40822Y280142D01*
X37835D01*
X37444Y280064D01*
X37114Y279843D01*
X36893Y279512D01*
X36815Y279122D01*
Y276359D01*
X36691Y276209D01*
X35175Y274694D01*
X34972Y274734D01*
X34685Y274911D01*
Y275957D01*
X28315D01*
Y275422D01*
X28013Y275174D01*
X27085Y274990D01*
X26685Y274723D01*
X26185Y274990D01*
Y276422D01*
X26237Y276500D01*
X24500D01*
Y277500D01*
X23500D01*
Y279237D01*
X23058Y278942D01*
X22915Y278728D01*
X20835D01*
X20445Y278651D01*
X20390Y278673D01*
X20240Y279428D01*
X19714Y280214D01*
X18928Y280740D01*
X18000Y280925D01*
X17072Y280740D01*
X16955Y280661D01*
X16505Y280962D01*
X16539Y281136D01*
Y286000D01*
X16384Y286780D01*
X15942Y287442D01*
X12539Y290845D01*
Y310169D01*
X12714Y310286D01*
X13240Y311072D01*
X13424Y312000D01*
X13240Y312928D01*
X12714Y313714D01*
X12346Y313961D01*
X12497Y314461D01*
X29155D01*
X33849Y309767D01*
D02*
G37*
G36*
X40724Y274796D02*
X40656Y274772D01*
X40596Y274732D01*
X40544Y274676D01*
X40500Y274604D01*
X40464Y274516D01*
X40436Y274412D01*
X40416Y274292D01*
X40404Y274156D01*
X40400Y274004D01*
X39600D01*
X39596Y274156D01*
X39584Y274292D01*
X39564Y274412D01*
X39536Y274516D01*
X39500Y274604D01*
X39456Y274676D01*
X39404Y274732D01*
X39344Y274772D01*
X39276Y274796D01*
X39200Y274804D01*
X40800D01*
X40724Y274796D01*
D02*
G37*
G36*
X52718Y275784D02*
X52777Y275724D01*
X52830Y275624D01*
X52875Y275484D01*
X52913Y275304D01*
X52944Y275084D01*
X52986Y274524D01*
X53000Y273804D01*
X51000D01*
X50990Y274184D01*
X50960Y274524D01*
X50910Y274824D01*
X50840Y275084D01*
X50750Y275304D01*
X50640Y275484D01*
X50510Y275624D01*
X50360Y275724D01*
X50190Y275784D01*
X50000Y275804D01*
X52652D01*
X52718Y275784D01*
D02*
G37*
G36*
X40087Y303855D02*
X40455Y303667D01*
X40461Y303661D01*
Y294000D01*
X40616Y293220D01*
X41058Y292558D01*
X46603Y287014D01*
X46979Y286611D01*
X47244Y286286D01*
X47315Y286186D01*
Y284303D01*
X47114Y284065D01*
X45753Y282703D01*
X45422Y282207D01*
X45305Y281622D01*
Y281608D01*
X44805Y281401D01*
X43414Y282792D01*
X43264Y282953D01*
X43185Y283053D01*
Y286209D01*
X43107Y286599D01*
X42886Y286930D01*
X42555Y287151D01*
X42165Y287228D01*
X42130D01*
X42129Y287233D01*
X42088Y287385D01*
X42052Y287599D01*
X42039Y287749D01*
Y288500D01*
X41884Y289280D01*
X41442Y289942D01*
X39382Y292002D01*
Y302600D01*
X39393Y302697D01*
X39431Y302878D01*
X39483Y303053D01*
X39551Y303225D01*
X39634Y303395D01*
X39736Y303564D01*
X39856Y303732D01*
X39961Y303859D01*
X40087Y303855D01*
D02*
G37*
G36*
X41014Y283974D02*
X41055Y283883D01*
X41124Y283770D01*
X41221Y283635D01*
X41497Y283300D01*
X41811Y282964D01*
X42152Y283305D01*
X42096Y283227D01*
X42068Y283136D01*
Y283029D01*
X42096Y282909D01*
X42152Y282775D01*
X42237Y282626D01*
X42350Y282464D01*
X42492Y282287D01*
X42860Y281891D01*
X42152Y281184D01*
X41947Y281382D01*
X41580Y281693D01*
X41417Y281806D01*
X41269Y281891D01*
X41134Y281947D01*
X41014Y281976D01*
X40908D01*
X40816Y281947D01*
X40738Y281891D01*
X41069Y282222D01*
X40273Y282919D01*
X40160Y282988D01*
X40069Y283030D01*
X39999Y283043D01*
X41000Y284044D01*
X41014Y283974D01*
D02*
G37*
G36*
X38436Y274816D02*
X38399Y274885D01*
X38345Y274925D01*
X38274Y274937D01*
X38186Y274921D01*
X38082Y274878D01*
X37960Y274806D01*
X37821Y274706D01*
X37666Y274578D01*
X37304Y274239D01*
X37282Y275348D01*
X37417Y275489D01*
X37636Y275752D01*
X37720Y275874D01*
X37786Y275991D01*
X37836Y276101D01*
X37868Y276204D01*
X37882Y276302D01*
X37879Y276394D01*
X37860Y276479D01*
X38436Y274816D01*
D02*
G37*
G36*
X49502Y271858D02*
X49518Y271665D01*
X49532Y271579D01*
X49550Y271500D01*
X49572Y271428D01*
X49598Y271364D01*
X49628Y271307D01*
X49662Y271257D01*
X49700Y271214D01*
X48300D01*
X48338Y271257D01*
X48372Y271307D01*
X48402Y271364D01*
X48428Y271428D01*
X48450Y271500D01*
X48468Y271579D01*
X48482Y271665D01*
X48492Y271758D01*
X48500Y271966D01*
X49500D01*
X49502Y271858D01*
D02*
G37*
G36*
X40404Y271341D02*
X40416Y271203D01*
X40436Y271082D01*
X40464Y270976D01*
X40500Y270887D01*
X40544Y270814D01*
X40596Y270757D01*
X40656Y270716D01*
X40724Y270692D01*
X40800Y270684D01*
X39200D01*
X39276Y270692D01*
X39344Y270716D01*
X39404Y270757D01*
X39456Y270814D01*
X39500Y270887D01*
X39536Y270976D01*
X39564Y271082D01*
X39584Y271203D01*
X39596Y271341D01*
X39600Y271496D01*
X40400D01*
X40404Y271341D01*
D02*
G37*
G36*
X47081Y271589D02*
X47064Y271529D01*
X47036Y271391D01*
X47025Y271314D01*
X47004Y271051D01*
X47000Y270849D01*
X46200Y270401D01*
X46196Y270503D01*
X46186Y270597D01*
X46168Y270683D01*
X46143Y270760D01*
X46111Y270830D01*
X46072Y270891D01*
X46026Y270944D01*
X45973Y270988D01*
X45913Y271024D01*
X45845Y271053D01*
X47100Y271645D01*
X47081Y271589D01*
D02*
G37*
G36*
X29108Y273607D02*
X29221Y273511D01*
X29334Y273427D01*
X29449Y273353D01*
X29564Y273291D01*
X29681Y273240D01*
X29799Y273201D01*
X29917Y273173D01*
X30037Y273156D01*
X30158Y273150D01*
Y272350D01*
X30037Y272344D01*
X29917Y272327D01*
X29799Y272299D01*
X29681Y272260D01*
X29564Y272209D01*
X29449Y272147D01*
X29334Y272073D01*
X29221Y271989D01*
X29108Y271893D01*
X28997Y271785D01*
Y273715D01*
X29108Y273607D01*
D02*
G37*
G36*
X2444Y305349D02*
X2835Y305272D01*
X2866D01*
X2872Y305258D01*
X2912Y305107D01*
X2948Y304895D01*
X2961Y304748D01*
Y288000D01*
X3116Y287220D01*
X3558Y286558D01*
X7689Y282427D01*
X7760Y282072D01*
X8286Y281286D01*
X9072Y280760D01*
X10000Y280575D01*
X10928Y280760D01*
X11714Y281286D01*
X11767Y281365D01*
X12239Y281170D01*
X12175Y280850D01*
Y278286D01*
X12330Y277506D01*
X12772Y276844D01*
X13434Y276402D01*
X14214Y276247D01*
X14994Y276402D01*
X15082Y276461D01*
X16772D01*
X17072Y276260D01*
X18000Y276076D01*
X18928Y276260D01*
X19315Y276519D01*
X19815Y276252D01*
Y273378D01*
X19893Y272988D01*
X20114Y272657D01*
X20445Y272436D01*
X20835Y272358D01*
X22000D01*
Y275543D01*
X24000D01*
Y272358D01*
X25165D01*
X25556Y272436D01*
X25587Y272359D01*
X25673Y271942D01*
X25336Y271608D01*
X25165Y271642D01*
X20835D01*
X20445Y271564D01*
X20114Y271343D01*
X19893Y271012D01*
X19815Y270622D01*
Y266291D01*
X19893Y265901D01*
X20114Y265570D01*
X20445Y265349D01*
X20835Y265272D01*
X20866D01*
X20872Y265258D01*
X20912Y265107D01*
X20948Y264895D01*
X20961Y264748D01*
Y263749D01*
X20948Y263599D01*
X20912Y263385D01*
X20872Y263233D01*
X20870Y263228D01*
X20835D01*
X20445Y263151D01*
X20114Y262930D01*
X19893Y262599D01*
X19815Y262209D01*
Y260226D01*
X19353Y260035D01*
X18934Y260454D01*
X18770Y260626D01*
X18217Y261282D01*
X18021Y261549D01*
X17867Y261786D01*
X17760Y261980D01*
X17699Y262120D01*
X17685Y262170D01*
Y262209D01*
X17666Y262302D01*
X17666Y262304D01*
X17665Y262306D01*
X17607Y262599D01*
X17386Y262930D01*
X17055Y263151D01*
X16941Y263174D01*
X16940Y263174D01*
X16938Y263174D01*
X16665Y263228D01*
X13039D01*
Y266500D01*
X13039Y266500D01*
X12884Y267280D01*
X12862Y267313D01*
X12740Y267928D01*
X12214Y268714D01*
X11428Y269240D01*
X10500Y269425D01*
X10299Y269385D01*
X10107Y269512D01*
X9886Y269843D01*
X9556Y270064D01*
X9165Y270142D01*
X4835D01*
X4445Y270064D01*
X4114Y269843D01*
X3893Y269512D01*
X3815Y269122D01*
Y264791D01*
X3893Y264401D01*
X4114Y264070D01*
X4445Y263849D01*
X4835Y263772D01*
X8961D01*
Y260587D01*
X9116Y259806D01*
X9558Y259145D01*
X10101Y258601D01*
X10763Y258159D01*
X11315Y258050D01*
Y257878D01*
X11393Y257488D01*
X11614Y257157D01*
X11945Y256936D01*
X12335Y256858D01*
X16626D01*
Y256142D01*
X15500D01*
Y252957D01*
Y249772D01*
X16131D01*
X16213Y249715D01*
X16500Y249272D01*
X16388Y248709D01*
X16543Y247928D01*
X16985Y247267D01*
X20961Y243291D01*
Y234414D01*
X20520Y234178D01*
X20428Y234240D01*
X20023Y234320D01*
X19942Y234442D01*
X19280Y234884D01*
X18500Y235039D01*
X15249D01*
X15099Y235052D01*
X14885Y235088D01*
X14733Y235128D01*
X14728Y235130D01*
Y235165D01*
X14651Y235556D01*
X14430Y235886D01*
X14099Y236107D01*
X13709Y236185D01*
X9378D01*
X8988Y236107D01*
X8657Y235886D01*
X8436Y235556D01*
X8358Y235165D01*
Y230835D01*
X8436Y230445D01*
X8657Y230114D01*
X8988Y229893D01*
X9378Y229815D01*
X13709D01*
X14099Y229893D01*
X14430Y230114D01*
X14651Y230445D01*
X14728Y230835D01*
Y230870D01*
X14733Y230872D01*
X14885Y230912D01*
X15099Y230948D01*
X15249Y230961D01*
X17334D01*
X17786Y230286D01*
X18572Y229760D01*
X19500Y229575D01*
X20428Y229760D01*
X20520Y229821D01*
X20961Y229586D01*
Y215500D01*
X21116Y214720D01*
X21558Y214058D01*
X24190Y211427D01*
X24260Y211072D01*
X24786Y210286D01*
X25572Y209760D01*
X26500Y209576D01*
X27428Y209760D01*
X28214Y210286D01*
X28740Y211072D01*
X28925Y212000D01*
X28740Y212928D01*
X28214Y213714D01*
X27428Y214240D01*
X27073Y214311D01*
X25039Y216345D01*
Y230503D01*
X25539Y230654D01*
X25786Y230286D01*
X26572Y229760D01*
X27500Y229575D01*
X28428Y229760D01*
X29214Y230286D01*
X29740Y231072D01*
X29924Y232000D01*
X29740Y232928D01*
X29539Y233228D01*
Y243772D01*
X29740Y244072D01*
X29853Y244639D01*
X30408Y244869D01*
X30572Y244760D01*
X31315Y244612D01*
Y242378D01*
X31393Y241988D01*
X31614Y241657D01*
X31945Y241436D01*
X32335Y241358D01*
X36665D01*
X37056Y241436D01*
X37386Y241657D01*
X37607Y241988D01*
X37685Y242378D01*
Y246709D01*
X37607Y247099D01*
X37386Y247430D01*
X37056Y247651D01*
X36665Y247728D01*
X33780D01*
X33740Y247928D01*
X33214Y248714D01*
X32428Y249240D01*
X32050Y249315D01*
X32100Y249815D01*
X33622D01*
X34012Y249893D01*
X34436Y249808D01*
X34786Y249286D01*
X35572Y248760D01*
X36500Y248575D01*
X37428Y248760D01*
X38214Y249286D01*
X38568Y249815D01*
X40709D01*
X41099Y249893D01*
X41430Y250114D01*
X41651Y250445D01*
X41728Y250835D01*
Y255165D01*
X41651Y255556D01*
X41430Y255886D01*
X41099Y256107D01*
X40709Y256185D01*
X37393D01*
X37285Y256277D01*
X36927Y256635D01*
Y258094D01*
X37427Y258361D01*
X37444Y258349D01*
X37835Y258272D01*
X42165D01*
X42555Y258349D01*
X42886Y258570D01*
X43107Y258901D01*
X43185Y259291D01*
Y260029D01*
X46124D01*
X46315Y259567D01*
X45393Y258645D01*
X44951Y257983D01*
X44796Y257203D01*
Y237794D01*
X44295Y237745D01*
X44254Y237954D01*
X43812Y238615D01*
X43370Y238910D01*
Y237173D01*
Y235436D01*
X43812Y235731D01*
X44254Y236393D01*
X44295Y236601D01*
X44796Y236552D01*
Y235165D01*
X44951Y234385D01*
X45393Y233723D01*
X46969Y232147D01*
X46778Y231685D01*
X43878D01*
X43488Y231607D01*
X43157Y231386D01*
X42936Y231055D01*
X42858Y230665D01*
Y229500D01*
X46043D01*
Y228500D01*
X47043D01*
Y225315D01*
X47816D01*
X47896Y225211D01*
X48037Y224815D01*
X47893Y224599D01*
X47815Y224209D01*
Y222600D01*
X47315Y222550D01*
X47240Y222928D01*
X46714Y223714D01*
X45928Y224240D01*
X45000Y224425D01*
X44072Y224240D01*
X43772Y224039D01*
X43000D01*
X43000Y224039D01*
X42220Y223884D01*
X41558Y223442D01*
X41558Y223442D01*
X33058Y214942D01*
X32616Y214280D01*
X32461Y213500D01*
Y205500D01*
X32616Y204720D01*
X33058Y204058D01*
X40961Y196155D01*
Y171335D01*
X40461Y171286D01*
X40317Y172009D01*
X39875Y172670D01*
X39433Y172966D01*
Y171228D01*
Y169491D01*
X39875Y169786D01*
X40317Y170448D01*
X40461Y171171D01*
X40961Y171122D01*
Y147713D01*
X40461Y147664D01*
X40317Y148387D01*
X39875Y149048D01*
X39433Y149344D01*
Y147606D01*
Y145869D01*
X39875Y146164D01*
X40317Y146826D01*
X40461Y147549D01*
X40961Y147500D01*
Y141715D01*
X31372Y132126D01*
X31150Y131974D01*
X30875Y131829D01*
X30552Y131696D01*
X30178Y131579D01*
X29753Y131481D01*
X29291Y131405D01*
X28168Y131317D01*
X27590Y131311D01*
X27500Y131320D01*
X26339Y131206D01*
X25223Y130867D01*
X24194Y130317D01*
X23293Y129577D01*
X22553Y128676D01*
X22003Y127647D01*
X21664Y126531D01*
X21550Y125370D01*
X21664Y124209D01*
X22003Y123093D01*
X22553Y122064D01*
X23293Y121163D01*
X24194Y120423D01*
X25223Y119873D01*
X26339Y119535D01*
X27500Y119420D01*
X28661Y119535D01*
X29777Y119873D01*
X30806Y120423D01*
X31707Y121163D01*
X31778Y121249D01*
X31913Y121372D01*
X32045Y121463D01*
X32220Y121556D01*
X32442Y121646D01*
X32712Y121728D01*
X33029Y121800D01*
X33379Y121856D01*
X34240Y121926D01*
X50500D01*
X51414Y122047D01*
X51957Y122272D01*
X52665D01*
X53056Y122349D01*
X53073Y122361D01*
X53573Y122093D01*
Y76427D01*
X53073Y76328D01*
X52994Y76517D01*
X52353Y77353D01*
X51530Y77984D01*
Y82957D01*
X51410Y83870D01*
X51185Y84413D01*
Y85122D01*
X51107Y85512D01*
X50886Y85843D01*
X50555Y86064D01*
X50165Y86142D01*
X49457D01*
X48914Y86367D01*
X48986Y86858D01*
X50165D01*
X50555Y86936D01*
X50886Y87157D01*
X51107Y87488D01*
X51185Y87878D01*
Y89043D01*
X44815D01*
Y87878D01*
X44893Y87488D01*
X45114Y87157D01*
X45445Y86936D01*
X45835Y86858D01*
X47014D01*
X47086Y86367D01*
X46543Y86142D01*
X45835D01*
X45445Y86064D01*
X45114Y85843D01*
X44893Y85512D01*
X44815Y85122D01*
Y84413D01*
X44590Y83870D01*
X44470Y82957D01*
Y78592D01*
X44005Y78171D01*
X43637Y77876D01*
X43422Y77724D01*
X39350D01*
X38960Y77647D01*
X38629Y77426D01*
X38408Y77095D01*
X38331Y76705D01*
Y66469D01*
X38408Y66078D01*
X38629Y65747D01*
X38960Y65526D01*
X39350Y65449D01*
X45650D01*
X46040Y65526D01*
X46371Y65747D01*
X46592Y66078D01*
X46669Y66469D01*
Y70220D01*
X46706Y70302D01*
X46883Y70597D01*
X46993Y70754D01*
X47483Y71006D01*
X48456Y70603D01*
X49500Y70465D01*
X50544Y70603D01*
X51517Y71006D01*
X52353Y71647D01*
X52994Y72483D01*
X53073Y72672D01*
X53573Y72573D01*
Y1427D01*
X1427D01*
Y73573D01*
X1927Y73672D01*
X2006Y73483D01*
X2647Y72647D01*
X3483Y72006D01*
X4456Y71603D01*
X5500Y71465D01*
X6544Y71603D01*
X7130Y71846D01*
X8304Y70631D01*
X8331Y70601D01*
Y66382D01*
X8408Y65992D01*
X8629Y65661D01*
X8960Y65440D01*
X9350Y65362D01*
X15650D01*
X16040Y65440D01*
X16371Y65661D01*
X16592Y65992D01*
X16669Y66382D01*
Y76618D01*
X16592Y77008D01*
X16371Y77339D01*
X16040Y77560D01*
X15650Y77638D01*
X11355D01*
X11030Y77962D01*
Y82957D01*
X10910Y83870D01*
X10685Y84413D01*
Y85122D01*
X10607Y85512D01*
X10386Y85843D01*
X10056Y86064D01*
X9665Y86142D01*
X8957D01*
X8414Y86367D01*
X8486Y86858D01*
X9665D01*
X10056Y86936D01*
X10386Y87157D01*
X10607Y87488D01*
X10685Y87878D01*
Y89043D01*
X4315D01*
Y87878D01*
X4393Y87488D01*
X4614Y87157D01*
X4944Y86936D01*
X5335Y86858D01*
X6514D01*
X6586Y86367D01*
X6043Y86142D01*
X5335D01*
X4944Y86064D01*
X4614Y85843D01*
X4393Y85512D01*
X4315Y85122D01*
Y84413D01*
X4090Y83870D01*
X3970Y82957D01*
Y79196D01*
X3483Y78994D01*
X2647Y78353D01*
X2006Y77517D01*
X1927Y77328D01*
X1427Y77427D01*
Y174934D01*
X1927Y175103D01*
X2004Y175004D01*
X12504Y164504D01*
X13235Y163943D01*
X14086Y163590D01*
X15000Y163470D01*
X15914Y163590D01*
X16765Y163943D01*
X17496Y164504D01*
X18057Y165235D01*
X18410Y166086D01*
X18530Y167000D01*
X18410Y167914D01*
X18057Y168765D01*
X17496Y169496D01*
X8030Y178962D01*
Y200500D01*
X7910Y201414D01*
X7557Y202265D01*
X6996Y202996D01*
X6265Y203557D01*
X5414Y203910D01*
X4500Y204030D01*
X3586Y203910D01*
X2735Y203557D01*
X2004Y202996D01*
X1927Y202897D01*
X1427Y203066D01*
Y209594D01*
X1927Y209861D01*
X1945Y209849D01*
X2335Y209772D01*
X3753D01*
X3901Y209687D01*
X4312Y209401D01*
X5214Y208638D01*
X20413Y193439D01*
X21400Y192428D01*
X22273Y191455D01*
X22421Y191270D01*
X22508Y191148D01*
X22553Y191065D01*
X23293Y190163D01*
X24194Y189423D01*
X25223Y188873D01*
X26339Y188534D01*
X27500Y188420D01*
X28661Y188534D01*
X29777Y188873D01*
X30806Y189423D01*
X31707Y190163D01*
X32447Y191065D01*
X32997Y192093D01*
X33336Y193209D01*
X33450Y194370D01*
X33336Y195531D01*
X32997Y196647D01*
X32447Y197676D01*
X31707Y198577D01*
X30806Y199317D01*
X29777Y199867D01*
X28661Y200206D01*
X27500Y200320D01*
X27200Y200290D01*
X27127Y200786D01*
X27402Y200840D01*
X28064Y201283D01*
X28359Y201724D01*
X24885D01*
X25180Y201283D01*
X25842Y200840D01*
X26452Y200719D01*
X26427Y200214D01*
X26339Y200206D01*
X25223Y199867D01*
X24194Y199317D01*
X23803Y198996D01*
X23738Y198966D01*
X23479Y198775D01*
X23295Y198678D01*
X23137Y198624D01*
X22992Y198603D01*
X22845Y198610D01*
X22678Y198648D01*
X22479Y198728D01*
X22248Y198862D01*
X22054Y199007D01*
X15871Y205191D01*
X16117Y205652D01*
X16500Y205575D01*
X17428Y205760D01*
X18214Y206286D01*
X18740Y207072D01*
X18780Y207272D01*
X19165D01*
X19556Y207349D01*
X19886Y207570D01*
X20107Y207901D01*
X20185Y208291D01*
Y212622D01*
X20107Y213012D01*
X19886Y213343D01*
X19556Y213564D01*
X19165Y213642D01*
X14835D01*
X14445Y213564D01*
X14114Y213343D01*
X13893Y213012D01*
X13815Y212622D01*
Y208291D01*
X13893Y207901D01*
X13943Y207825D01*
X13555Y207506D01*
X8968Y212094D01*
X8443Y212659D01*
X8064Y213133D01*
X7770Y213556D01*
X7685Y213704D01*
Y215122D01*
X7607Y215512D01*
X7386Y215843D01*
X7056Y216064D01*
X6665Y216142D01*
X2335D01*
X2029Y216081D01*
X1592Y216384D01*
Y216616D01*
X2029Y216919D01*
X2335Y216858D01*
X6665D01*
X7056Y216936D01*
X7386Y217157D01*
X7607Y217488D01*
X7683Y217869D01*
X7690Y217871D01*
X7842Y217912D01*
X8056Y217948D01*
X8205Y217961D01*
X9772D01*
X10072Y217760D01*
X11000Y217576D01*
X11928Y217760D01*
X12714Y218286D01*
X13240Y219072D01*
X13315Y219450D01*
X13815Y219400D01*
Y218543D01*
X16000D01*
Y220728D01*
X14835D01*
X14445Y220651D01*
X14114Y220430D01*
X13910Y220124D01*
X13799Y220109D01*
X13394Y220154D01*
X13240Y220928D01*
X12714Y221714D01*
X11928Y222240D01*
X11000Y222425D01*
X10072Y222240D01*
X9772Y222039D01*
X8205D01*
X8056Y222052D01*
X7842Y222088D01*
X7690Y222129D01*
X7685Y222130D01*
Y222209D01*
X7607Y222599D01*
X7386Y222930D01*
X7056Y223151D01*
X6665Y223228D01*
X2335D01*
X1945Y223151D01*
X1927Y223139D01*
X1427Y223407D01*
Y229608D01*
X1895Y229889D01*
X1927Y229887D01*
X2291Y229815D01*
X3457D01*
Y233000D01*
Y236185D01*
X2291D01*
X1927Y236112D01*
X1895Y236111D01*
X1427Y236392D01*
Y241093D01*
X1927Y241361D01*
X1945Y241349D01*
X2335Y241272D01*
X3500D01*
Y244457D01*
Y247642D01*
X2335D01*
X2029Y247581D01*
X1592Y247884D01*
Y248116D01*
X2029Y248419D01*
X2335Y248358D01*
X6665D01*
X7056Y248436D01*
X7386Y248657D01*
X7607Y248988D01*
X7685Y249378D01*
Y251886D01*
X7942Y252058D01*
X8384Y252720D01*
X8539Y253500D01*
X8384Y254280D01*
X7942Y254942D01*
X7280Y255384D01*
X6500Y255539D01*
X5720Y255384D01*
X5058Y254942D01*
X4915Y254728D01*
X2335D01*
X1945Y254651D01*
X1927Y254639D01*
X1427Y254907D01*
Y305495D01*
X1517Y305564D01*
X2114Y305570D01*
X2444Y305349D01*
D02*
G37*
G36*
X38505Y273404D02*
X38573Y273345D01*
Y271728D01*
X37835D01*
X37444Y271651D01*
X37114Y271430D01*
X36893Y271099D01*
X36815Y270709D01*
Y266378D01*
X36893Y265988D01*
X37114Y265657D01*
X37444Y265436D01*
X37835Y265358D01*
X42165D01*
X42555Y265436D01*
X42763Y265574D01*
X43510Y264828D01*
X43530Y264797D01*
X43550Y264762D01*
X43566Y264728D01*
X43579Y264694D01*
X43588Y264659D01*
X43596Y264619D01*
X43597Y264608D01*
X43576Y264500D01*
X43760Y263572D01*
X43925Y263325D01*
X43689Y262884D01*
X43185D01*
Y263622D01*
X43107Y264012D01*
X42886Y264343D01*
X42555Y264564D01*
X42165Y264642D01*
X37835D01*
X37444Y264564D01*
X37114Y264343D01*
X36893Y264012D01*
X36816Y263981D01*
X36428Y264240D01*
X35500Y264424D01*
X34572Y264240D01*
X34491Y264186D01*
X34386Y264343D01*
X34056Y264564D01*
X33665Y264642D01*
X30547D01*
X30306Y265142D01*
X30477Y265358D01*
X33665D01*
X34056Y265436D01*
X34386Y265657D01*
X34607Y265988D01*
X34685Y266378D01*
Y270709D01*
X34662Y270823D01*
X35013Y271323D01*
X35250D01*
X35250Y271323D01*
X35796Y271431D01*
X36259Y271741D01*
X38073Y273554D01*
X38505Y273404D01*
D02*
G37*
G36*
X49518Y282903D02*
X49452Y282969D01*
X49369Y283005D01*
X49270Y283010D01*
X49154Y282984D01*
X49021Y282927D01*
X48871Y282840D01*
X48704Y282722D01*
X48521Y282573D01*
X48103Y282184D01*
X47640Y283135D01*
X47829Y283330D01*
X48128Y283685D01*
X48239Y283844D01*
X48323Y283992D01*
X48382Y284127D01*
X48415Y284251D01*
X48423Y284362D01*
X48404Y284462D01*
X48360Y284549D01*
X49518Y282903D01*
D02*
G37*
G36*
X7172Y317658D02*
X7232Y317625D01*
X7332Y317596D01*
X7472Y317570D01*
X7652Y317549D01*
X8132Y317518D01*
X9152Y317500D01*
Y315500D01*
X8771Y315490D01*
X8429Y315460D01*
X8128Y315410D01*
X7867Y315340D01*
X7645Y315250D01*
X7464Y315140D01*
X7323Y315010D01*
X7222Y314860D01*
X7161Y314690D01*
X7140Y314500D01*
X7152Y317696D01*
X7172Y317658D01*
D02*
G37*
G36*
X48360Y310957D02*
X48340Y311147D01*
X48279Y311317D01*
X48179Y311467D01*
X48038Y311597D01*
X47857Y311707D01*
X47635Y311797D01*
X47374Y311867D01*
X47072Y311917D01*
X46730Y311947D01*
X46348Y311957D01*
Y313957D01*
X46730Y313967D01*
X47072Y313997D01*
X47374Y314047D01*
X47635Y314117D01*
X47857Y314207D01*
X48038Y314317D01*
X48179Y314447D01*
X48279Y314597D01*
X48340Y314767D01*
X48360Y314957D01*
Y310957D01*
D02*
G37*
G36*
X36422Y311496D02*
X38127Y309994D01*
X38349Y309835D01*
X38741Y309595D01*
X34800Y308534D01*
X34918Y308749D01*
X35000Y308965D01*
X35047Y309181D01*
X35058Y309397D01*
X35035Y309613D01*
X34976Y309830D01*
X34882Y310047D01*
X34752Y310263D01*
X34588Y310481D01*
X34388Y310698D01*
X36076Y311838D01*
X36422Y311496D01*
D02*
G37*
G36*
X7567Y369196D02*
X7169Y368784D01*
X6545Y368048D01*
X6317Y367722D01*
X6146Y367425D01*
X6032Y367156D01*
X5974Y366916D01*
X5973Y366705D01*
X6028Y366522D01*
X6140Y366367D01*
X3324Y369184D01*
X3478Y369072D01*
X3661Y369016D01*
X3873Y369018D01*
X4113Y369075D01*
X4382Y369190D01*
X4679Y369361D01*
X5004Y369588D01*
X5359Y369872D01*
X6152Y370610D01*
X7567Y369196D01*
D02*
G37*
G36*
X6039Y360477D02*
X5983Y360293D01*
Y360081D01*
X6039Y359841D01*
X6152Y359572D01*
X6322Y359275D01*
X6548Y358950D01*
X6831Y358596D01*
X7567Y357804D01*
X6152Y356390D01*
X5742Y356786D01*
X5007Y357408D01*
X4682Y357635D01*
X4385Y357804D01*
X4116Y357917D01*
X3875Y357974D01*
X3663D01*
X3480Y357917D01*
X3324Y357804D01*
X6152Y360633D01*
X6039Y360477D01*
D02*
G37*
G36*
X48360Y318250D02*
X48339Y318440D01*
X48278Y318610D01*
X48177Y318760D01*
X48036Y318890D01*
X47855Y319000D01*
X47634Y319090D01*
X47372Y319160D01*
X47071Y319210D01*
X46729Y319240D01*
X46348Y319250D01*
Y321250D01*
X46728Y321259D01*
X47068Y321288D01*
X47368Y321335D01*
X47628Y321401D01*
X47848Y321486D01*
X48028Y321590D01*
X48168Y321713D01*
X48268Y321855D01*
X48328Y322016D01*
X48348Y322196D01*
X48360Y318250D01*
D02*
G37*
G36*
X41010Y287813D02*
X41040Y287471D01*
X41090Y287170D01*
X41160Y286908D01*
X41250Y286687D01*
X41360Y286506D01*
X41490Y286365D01*
X41640Y286264D01*
X41810Y286204D01*
X42000Y286184D01*
X38000D01*
X38190Y286204D01*
X38360Y286264D01*
X38510Y286365D01*
X38640Y286506D01*
X38750Y286687D01*
X38840Y286908D01*
X38910Y287170D01*
X38960Y287471D01*
X38990Y287813D01*
X39000Y288196D01*
X41000D01*
X41010Y287813D01*
D02*
G37*
G36*
X49673Y288256D02*
X50352Y287688D01*
X50664Y287475D01*
X50956Y287309D01*
X51229Y287190D01*
X51484Y287118D01*
X51719Y287093D01*
X51935Y287115D01*
X52133Y287184D01*
X48360Y285324D01*
X48514Y285436D01*
X48603Y285585D01*
X48626Y285773D01*
X48582Y285999D01*
X48473Y286262D01*
X48297Y286564D01*
X48055Y286904D01*
X47747Y287282D01*
X46933Y288152D01*
X49304Y288610D01*
X49673Y288256D01*
D02*
G37*
G36*
X8461Y305530D02*
Y290000D01*
X8616Y289220D01*
X9058Y288558D01*
X12461Y285155D01*
Y284497D01*
X11961Y284346D01*
X11714Y284714D01*
X10928Y285240D01*
X10573Y285311D01*
X7039Y288845D01*
Y304748D01*
X7052Y304895D01*
X7087Y305107D01*
X7128Y305258D01*
X7134Y305272D01*
X7165D01*
X7555Y305349D01*
X7886Y305570D01*
X7961Y305682D01*
X8461Y305530D01*
D02*
G37*
G36*
X6810Y306284D02*
X6640Y306224D01*
X6490Y306124D01*
X6360Y305984D01*
X6250Y305804D01*
X6160Y305584D01*
X6090Y305324D01*
X6040Y305024D01*
X6010Y304684D01*
X6000Y304304D01*
X4000D01*
X3990Y304684D01*
X3960Y305024D01*
X3910Y305324D01*
X3840Y305584D01*
X3750Y305804D01*
X3640Y305984D01*
X3510Y306124D01*
X3360Y306224D01*
X3190Y306284D01*
X3000Y306304D01*
X7000D01*
X6810Y306284D01*
D02*
G37*
G36*
X39233Y304580D02*
X39046Y304354D01*
X38881Y304122D01*
X38739Y303883D01*
X38618Y303638D01*
X38519Y303386D01*
X38442Y303128D01*
X38386Y302862D01*
X38353Y302591D01*
X38342Y302312D01*
X36342D01*
X36331Y302591D01*
X36298Y302862D01*
X36244Y303128D01*
X36167Y303386D01*
X36068Y303638D01*
X35947Y303883D01*
X35803Y304122D01*
X35638Y304354D01*
X35451Y304580D01*
X35243Y304799D01*
X39443D01*
X39233Y304580D01*
D02*
G37*
G36*
X46944Y310904D02*
X47158Y310869D01*
X47310Y310828D01*
X47315Y310826D01*
Y310791D01*
X47393Y310401D01*
X47614Y310070D01*
X47945Y309849D01*
X48335Y309772D01*
X52665D01*
X53056Y309849D01*
X53073Y309861D01*
X53573Y309594D01*
Y288406D01*
X53073Y288139D01*
X53056Y288151D01*
X52665Y288228D01*
X51402D01*
X51205Y288340D01*
X50968Y288502D01*
X50444Y288940D01*
X44539Y294845D01*
Y310762D01*
X44772Y310917D01*
X46795D01*
X46944Y310904D01*
D02*
G37*
G36*
X6661Y221810D02*
X6721Y221640D01*
X6821Y221490D01*
X6962Y221360D01*
X7143Y221250D01*
X7365Y221160D01*
X7626Y221090D01*
X7928Y221040D01*
X8270Y221010D01*
X8652Y221000D01*
Y219000D01*
X8270Y218990D01*
X7928Y218960D01*
X7626Y218910D01*
X7365Y218840D01*
X7143Y218750D01*
X6962Y218640D01*
X6821Y218510D01*
X6721Y218360D01*
X6661Y218190D01*
X6640Y218000D01*
Y222000D01*
X6661Y221810D01*
D02*
G37*
G36*
X48848Y212804D02*
X48818Y212945D01*
X48728Y213070D01*
X48578Y213181D01*
X48368Y213277D01*
X48098Y213359D01*
X47768Y213425D01*
X47378Y213477D01*
X46418Y213536D01*
X46027Y213541D01*
X46022Y213421D01*
X46000Y210882D01*
X44000D01*
X43939Y213940D01*
X45848D01*
Y216543D01*
X46418Y216549D01*
X47768Y216634D01*
X48098Y216685D01*
X48368Y216747D01*
X48578Y216821D01*
X48728Y216905D01*
X48818Y217002D01*
X48848Y217109D01*
Y212804D01*
D02*
G37*
G36*
X6483Y214814D02*
X6398Y214538D01*
Y214220D01*
X6483Y213859D01*
X6652Y213456D01*
X6907Y213011D01*
X7246Y212523D01*
X7671Y211992D01*
X8774Y210804D01*
X6652Y208683D01*
X6037Y209277D01*
X4934Y210210D01*
X4446Y210550D01*
X4001Y210804D01*
X3598Y210974D01*
X3237Y211059D01*
X2919D01*
X2643Y210974D01*
X2410Y210804D01*
X6652Y215047D01*
X6483Y214814D01*
D02*
G37*
G36*
X13704Y234810D02*
X13764Y234640D01*
X13865Y234490D01*
X14006Y234360D01*
X14187Y234250D01*
X14408Y234160D01*
X14670Y234090D01*
X14971Y234040D01*
X15313Y234010D01*
X15696Y234000D01*
Y232000D01*
X15313Y231990D01*
X14971Y231960D01*
X14670Y231910D01*
X14408Y231840D01*
X14187Y231750D01*
X14006Y231640D01*
X13865Y231510D01*
X13764Y231360D01*
X13704Y231190D01*
X13684Y231000D01*
Y235000D01*
X13704Y234810D01*
D02*
G37*
G36*
X52010Y225813D02*
X52040Y225471D01*
X52090Y225169D01*
X52160Y224908D01*
X52250Y224687D01*
X52360Y224506D01*
X52490Y224365D01*
X52640Y224264D01*
X52810Y224204D01*
X53000Y224184D01*
X49000D01*
X49190Y224204D01*
X49360Y224264D01*
X49510Y224365D01*
X49640Y224506D01*
X49750Y224687D01*
X49840Y224908D01*
X49910Y225169D01*
X49960Y225471D01*
X49990Y225813D01*
X50000Y226196D01*
X52000D01*
X52010Y225813D01*
D02*
G37*
G36*
X47815Y221400D02*
Y219878D01*
X47893Y219488D01*
X48114Y219157D01*
X48445Y218936D01*
X48835Y218858D01*
X53165D01*
X53506Y218500D01*
X53165Y218142D01*
X48835D01*
X48730Y218121D01*
X48725Y218121D01*
X48714Y218118D01*
X48445Y218064D01*
X48114Y217843D01*
X48028Y217715D01*
X47905Y217687D01*
X47658Y217649D01*
X46763Y217592D01*
X45043D01*
X44068Y217398D01*
X43241Y216846D01*
X43198Y216802D01*
X42645Y215975D01*
X42451Y215000D01*
X42645Y214024D01*
X42926Y213605D01*
X42961Y211849D01*
Y203000D01*
X43116Y202220D01*
X43558Y201558D01*
X48461Y196655D01*
Y136249D01*
X48448Y136099D01*
X48412Y135885D01*
X48371Y135733D01*
X48370Y135728D01*
X48335D01*
X47945Y135651D01*
X47614Y135430D01*
X47393Y135099D01*
X47315Y134709D01*
Y130378D01*
X47393Y129988D01*
X47614Y129657D01*
X47868Y129487D01*
X47846Y129158D01*
X47785Y128987D01*
X34708D01*
X34501Y129487D01*
X44442Y139428D01*
X44884Y140090D01*
X45039Y140870D01*
Y197000D01*
X45039Y197000D01*
X44884Y197780D01*
X44442Y198442D01*
X44442Y198442D01*
X36539Y206345D01*
Y212655D01*
X43815Y219932D01*
X44072Y219760D01*
X45000Y219576D01*
X45928Y219760D01*
X46714Y220286D01*
X47240Y221072D01*
X47315Y221450D01*
X47815Y221400D01*
D02*
G37*
G36*
X33702Y130158D02*
X33453Y129874D01*
X33230Y129548D01*
X33034Y129179D01*
X32866Y128769D01*
X32724Y128316D01*
X32678Y128115D01*
X32728Y128104D01*
X33152Y128040D01*
X34107Y127966D01*
X34639Y127957D01*
X34742Y122957D01*
X34210Y122947D01*
X33257Y122870D01*
X32835Y122802D01*
X32450Y122714D01*
X32102Y122608D01*
X31790Y122482D01*
X31515Y122336D01*
X31276Y122172D01*
X31075Y121988D01*
X30989Y126851D01*
X30845Y126996D01*
X30625Y126689D01*
X30390Y126313D01*
X30221Y125981D01*
X30120Y125696D01*
X30087Y125455D01*
X27585Y127957D01*
X27825Y127990D01*
X28111Y128091D01*
X28442Y128260D01*
X28819Y128495D01*
X29126Y128715D01*
X27549Y130291D01*
X28213Y130298D01*
X29414Y130392D01*
X29951Y130480D01*
X30446Y130594D01*
X30898Y130736D01*
X31309Y130904D01*
X31678Y131100D01*
X32004Y131323D01*
X32288Y131572D01*
X33702Y130158D01*
D02*
G37*
G36*
X49172Y74723D02*
X48436Y73976D01*
X46340Y71596D01*
X46027Y71154D01*
X45800Y70773D01*
X45657Y70453D01*
X45598Y70194D01*
X45625Y69996D01*
X42878Y76680D01*
X42974Y76551D01*
X43122Y76499D01*
X43324Y76524D01*
X43580Y76626D01*
X43889Y76806D01*
X44251Y77061D01*
X44666Y77394D01*
X45657Y78291D01*
X46232Y78854D01*
X49172Y74723D01*
D02*
G37*
G36*
X9286Y78234D02*
X9302Y78171D01*
X9317Y78078D01*
X9340Y77804D01*
X9362Y76904D01*
X9363Y76605D01*
X9375Y70910D01*
X9340Y70979D01*
X9233Y71116D01*
X9056Y71321D01*
X6502Y73961D01*
X5828Y74637D01*
X9268Y78268D01*
X9286Y78234D01*
D02*
G37*
G36*
X21334Y198273D02*
X21684Y198010D01*
X22030Y197810D01*
X22372Y197671D01*
X22710Y197595D01*
X23044Y197581D01*
X23374Y197628D01*
X23700Y197738D01*
X24023Y197910D01*
X24341Y198144D01*
X23359Y191710D01*
X23234Y191886D01*
X23051Y192115D01*
X22144Y193124D01*
X19454Y195881D01*
X20980Y198598D01*
X21334Y198273D01*
D02*
G37*
G36*
X47983Y212266D02*
X48005Y212233D01*
X48008Y212226D01*
X48013Y212221D01*
X48114Y212070D01*
X48287Y211954D01*
X48293Y211949D01*
X48300Y211946D01*
X48445Y211849D01*
X48641Y211810D01*
X48663Y211802D01*
X48683Y211802D01*
X48835Y211772D01*
X53165D01*
X53573Y211343D01*
Y135907D01*
X53092Y135650D01*
X53041Y135659D01*
X52610Y135803D01*
X52588Y135885D01*
X52552Y136099D01*
X52539Y136249D01*
Y197500D01*
X52384Y198280D01*
X51942Y198942D01*
X47039Y203845D01*
Y212067D01*
X47455Y212367D01*
X47983Y212266D01*
D02*
G37*
G36*
X51510Y136313D02*
X51540Y135971D01*
X51590Y135670D01*
X51660Y135408D01*
X51750Y135187D01*
X51860Y135006D01*
X51990Y134865D01*
X52140Y134764D01*
X52310Y134704D01*
X52500Y134684D01*
X48500D01*
X48690Y134704D01*
X48860Y134764D01*
X49010Y134865D01*
X49140Y135006D01*
X49250Y135187D01*
X49340Y135408D01*
X49410Y135670D01*
X49460Y135971D01*
X49490Y136313D01*
X49500Y136696D01*
X51500D01*
X51510Y136313D01*
D02*
G37*
G36*
X53155Y238784D02*
X53157Y238724D01*
X53165Y236804D01*
X51165D01*
X51155Y237184D01*
X51125Y237524D01*
X51075Y237824D01*
X51005Y238084D01*
X50915Y238304D01*
X50805Y238484D01*
X50675Y238624D01*
X50525Y238724D01*
X50355Y238784D01*
X50165Y238804D01*
X53152D01*
X53155Y238784D01*
D02*
G37*
G36*
X24810Y266284D02*
X24640Y266224D01*
X24490Y266124D01*
X24360Y265984D01*
X24250Y265804D01*
X24160Y265584D01*
X24090Y265324D01*
X24040Y265024D01*
X24010Y264684D01*
X24000Y264304D01*
X22000D01*
X21990Y264684D01*
X21960Y265024D01*
X21910Y265324D01*
X21840Y265584D01*
X21750Y265804D01*
X21640Y265984D01*
X21510Y266124D01*
X21360Y266224D01*
X21190Y266284D01*
X21000Y266304D01*
X25000D01*
X24810Y266284D01*
D02*
G37*
G36*
X24010Y263813D02*
X24040Y263471D01*
X24090Y263170D01*
X24160Y262908D01*
X24250Y262687D01*
X24360Y262506D01*
X24490Y262365D01*
X24640Y262264D01*
X24810Y262204D01*
X25000Y262184D01*
X21000D01*
X21190Y262204D01*
X21360Y262264D01*
X21510Y262365D01*
X21640Y262506D01*
X21750Y262687D01*
X21840Y262908D01*
X21910Y263170D01*
X21960Y263471D01*
X21990Y263813D01*
X22000Y264196D01*
X24000D01*
X24010Y263813D01*
D02*
G37*
G36*
X36826Y262420D02*
X36892Y262311D01*
X36966Y262214D01*
X37048Y262131D01*
X37138Y262060D01*
X37235Y262003D01*
X37340Y261958D01*
X37433Y261931D01*
X37462Y261936D01*
X37567Y261964D01*
X37657Y262000D01*
X37730Y262044D01*
X37787Y262096D01*
X37827Y262156D01*
X37852Y262224D01*
X37860Y262300D01*
Y260700D01*
X37852Y260776D01*
X37827Y260844D01*
X37787Y260904D01*
X37730Y260956D01*
X37657Y261000D01*
X37567Y261036D01*
X37462Y261064D01*
X37340Y261084D01*
X37232Y261093D01*
X37153Y261086D01*
X37037Y261068D01*
X36787Y261011D01*
X36654Y260972D01*
X36371Y260872D01*
X36306Y260845D01*
X36261Y260792D01*
X36177Y260679D01*
X36103Y260564D01*
X36041Y260449D01*
X35990Y260332D01*
X35951Y260214D01*
X35923Y260096D01*
X35906Y259976D01*
X35900Y259855D01*
X35100D01*
X35094Y259976D01*
X35077Y260096D01*
X35049Y260214D01*
X35010Y260332D01*
X34959Y260449D01*
X34897Y260564D01*
X34823Y260679D01*
X34739Y260792D01*
X34696Y260842D01*
X34346Y260972D01*
X34213Y261011D01*
X34012Y261057D01*
X33933Y261036D01*
X33843Y261000D01*
X33770Y260956D01*
X33713Y260904D01*
X33673Y260844D01*
X33648Y260776D01*
X33640Y260700D01*
Y261100D01*
X33630Y261100D01*
X33299Y261900D01*
X33427Y261906D01*
X33547Y261926D01*
X33640Y261952D01*
Y262300D01*
X33648Y262224D01*
X33673Y262156D01*
X33713Y262096D01*
X33770Y262044D01*
X33802Y262025D01*
X33862Y262060D01*
X33952Y262131D01*
X34034Y262214D01*
X34108Y262311D01*
X34174Y262420D01*
X34233Y262542D01*
X34827Y261016D01*
X36173D01*
X36767Y262542D01*
X36826Y262420D01*
D02*
G37*
G36*
X30479Y266391D02*
X30417Y266436D01*
X30343Y266459D01*
X30258D01*
X30162Y266436D01*
X30055Y266391D01*
X29936Y266323D01*
X29806Y266232D01*
X29664Y266119D01*
X29348Y265825D01*
X28782Y266391D01*
X28940Y266555D01*
X29189Y266849D01*
X29280Y266979D01*
X29348Y267098D01*
X29393Y267206D01*
X29416Y267302D01*
Y267387D01*
X29393Y267460D01*
X29348Y267522D01*
X30479Y266391D01*
D02*
G37*
G36*
X9154Y268203D02*
X9193Y268151D01*
X9259Y268106D01*
X9351Y268066D01*
X9470Y268033D01*
X9614Y268005D01*
X9785Y267984D01*
X10207Y267960D01*
X10457Y267957D01*
Y265957D01*
X10207Y265954D01*
X9614Y265908D01*
X9470Y265881D01*
X9351Y265847D01*
X9259Y265808D01*
X9193Y265762D01*
X9154Y265710D01*
X9140Y265652D01*
Y268261D01*
X9154Y268203D01*
D02*
G37*
G36*
X44958Y266256D02*
X45058Y266176D01*
X45162Y266105D01*
X45269Y266043D01*
X45380Y265992D01*
X45494Y265950D01*
X45612Y265917D01*
X45733Y265895D01*
X45858Y265881D01*
X45986Y265878D01*
X44622Y264514D01*
X44619Y264642D01*
X44605Y264767D01*
X44583Y264888D01*
X44550Y265006D01*
X44508Y265120D01*
X44457Y265231D01*
X44395Y265338D01*
X44324Y265442D01*
X44244Y265542D01*
X44154Y265639D01*
X44861Y266346D01*
X44958Y266256D01*
D02*
G37*
G36*
X36556Y255558D02*
X36852Y255307D01*
X36982Y255215D01*
X37101Y255146D01*
X37208Y255100D01*
X37304Y255076D01*
X37389Y255075D01*
X37461Y255096D01*
X37522Y255140D01*
X36403Y254021D01*
X36447Y254082D01*
X36468Y254155D01*
X36467Y254239D01*
X36443Y254335D01*
X36397Y254442D01*
X36328Y254561D01*
X36236Y254692D01*
X36122Y254834D01*
X35825Y255152D01*
X36391Y255718D01*
X36556Y255558D01*
D02*
G37*
G36*
X53573Y260350D02*
Y251657D01*
X53165Y251228D01*
X52539D01*
X52214Y251714D01*
X51428Y252240D01*
X50500Y252425D01*
X49572Y252240D01*
X49315Y252068D01*
X48874Y252304D01*
Y256359D01*
X53073Y260557D01*
X53573Y260350D01*
D02*
G37*
G36*
X32874Y247212D02*
X32978Y246919D01*
X33035Y246786D01*
X33158Y246546D01*
X33224Y246439D01*
X33293Y246340D01*
X33365Y246250D01*
X33440Y246169D01*
X33048Y245430D01*
X32954Y245515D01*
X32855Y245587D01*
X32751Y245645D01*
X32643Y245690D01*
X32531Y245722D01*
X32413Y245740D01*
X32291Y245745D01*
X32165Y245737D01*
X32033Y245716D01*
X31897Y245681D01*
X32213Y246254D01*
X31995Y246481D01*
X31782Y246696D01*
X32348Y247261D01*
X32623Y247000D01*
X32827Y247371D01*
X32874Y247212D01*
D02*
G37*
G36*
X42149Y262181D02*
X42173Y262113D01*
X42213Y262053D01*
X42270Y262001D01*
X42343Y261957D01*
X42433Y261921D01*
X42538Y261893D01*
X42660Y261873D01*
X42798Y261861D01*
X42952Y261857D01*
Y261057D01*
X42798Y261053D01*
X42660Y261041D01*
X42538Y261021D01*
X42433Y260993D01*
X42343Y260957D01*
X42270Y260913D01*
X42213Y260861D01*
X42173Y260801D01*
X42149Y260733D01*
X42140Y260657D01*
Y262257D01*
X42149Y262181D01*
D02*
G37*
G36*
X16674Y261998D02*
X16737Y261776D01*
X16843Y261530D01*
X16992Y261261D01*
X17183Y260968D01*
X17416Y260651D01*
X18010Y259945D01*
X18774Y259144D01*
X17958Y257132D01*
X17808Y257276D01*
X17522Y257519D01*
X17385Y257617D01*
X17252Y257701D01*
X17124Y257769D01*
X16999Y257823D01*
X16880Y257861D01*
X16764Y257883D01*
X16652Y257891D01*
Y262196D01*
X16674Y261998D01*
D02*
G37*
G36*
X29511Y255560D02*
X29804Y255312D01*
X29934Y255221D01*
X30052Y255152D01*
X30160Y255105D01*
X30256Y255081D01*
X30342Y255078D01*
X30416Y255098D01*
X30479Y255140D01*
X29316Y254064D01*
X29362Y254123D01*
X29385Y254195D01*
X29385Y254278D01*
X29362Y254373D01*
X29316Y254480D01*
X29246Y254599D01*
X29154Y254730D01*
X29039Y254873D01*
X28739Y255196D01*
X29348Y255718D01*
X29511Y255560D01*
D02*
G37*
G36*
X39233Y380080D02*
X39046Y379854D01*
X38881Y379622D01*
X38739Y379383D01*
X38618Y379138D01*
X38519Y378886D01*
X38442Y378627D01*
X38386Y378362D01*
X38353Y378091D01*
X38342Y377813D01*
X36342D01*
X36331Y378091D01*
X36298Y378362D01*
X36244Y378627D01*
X36167Y378886D01*
X36068Y379138D01*
X35947Y379383D01*
X35803Y379622D01*
X35638Y379854D01*
X35451Y380080D01*
X35243Y380298D01*
X39443D01*
X39233Y380080D01*
D02*
G37*
G36*
X20019Y384332D02*
X20244Y384145D01*
X20477Y383980D01*
X20715Y383837D01*
X20960Y383716D01*
X21212Y383617D01*
X21471Y383540D01*
X21736Y383485D01*
X22008Y383452D01*
X22286Y383441D01*
Y381441D01*
X22008Y381430D01*
X21736Y381397D01*
X21471Y381342D01*
X21212Y381265D01*
X20960Y381166D01*
X20715Y381045D01*
X20477Y380902D01*
X20244Y380737D01*
X20019Y380550D01*
X19800Y380341D01*
Y384541D01*
X20019Y384332D01*
D02*
G37*
G36*
X18841Y379684D02*
X18570Y379563D01*
X17812Y379159D01*
X17578Y379011D01*
X17137Y378695D01*
X16930Y378528D01*
X16543Y378172D01*
X14433Y378890D01*
X14630Y379105D01*
X14794Y379323D01*
X14926Y379545D01*
X15025Y379769D01*
X15092Y379997D01*
X15125Y380228D01*
X15126Y380462D01*
X15095Y380699D01*
X15031Y380940D01*
X14934Y381183D01*
X18841Y379684D01*
D02*
G37*
G36*
X53573Y415307D02*
X53073Y415071D01*
X52221Y415769D01*
X51022Y416411D01*
X49720Y416806D01*
X48366Y416939D01*
X47012Y416806D01*
X45711Y416411D01*
X44511Y415769D01*
X43460Y414907D01*
X42597Y413855D01*
X41955Y412655D01*
X41561Y411354D01*
X41427Y410000D01*
X41561Y408646D01*
X41955Y407345D01*
X42597Y406145D01*
X43460Y405093D01*
X44511Y404230D01*
X45711Y403589D01*
X47012Y403194D01*
X48366Y403061D01*
X49720Y403194D01*
X51022Y403589D01*
X52221Y404230D01*
X53073Y404929D01*
X53573Y404693D01*
Y382682D01*
X53073Y382632D01*
X53065Y382670D01*
X52623Y383332D01*
X52181Y383627D01*
Y381890D01*
Y380153D01*
X52623Y380448D01*
X53065Y381109D01*
X53073Y381147D01*
X53573Y381098D01*
Y339807D01*
X53073Y339571D01*
X52221Y340269D01*
X51022Y340911D01*
X49720Y341306D01*
X48366Y341439D01*
X47012Y341306D01*
X45711Y340911D01*
X44511Y340269D01*
X43460Y339407D01*
X42597Y338355D01*
X41955Y337155D01*
X41561Y335854D01*
X41427Y334500D01*
X41561Y333146D01*
X41955Y331845D01*
X42597Y330645D01*
X43460Y329593D01*
X44511Y328731D01*
X45711Y328089D01*
X47012Y327694D01*
X48366Y327561D01*
X49720Y327694D01*
X51022Y328089D01*
X52221Y328731D01*
X53073Y329429D01*
X53573Y329193D01*
Y323407D01*
X53073Y323139D01*
X53056Y323151D01*
X52665Y323228D01*
X48335D01*
X48069Y323176D01*
X48064Y323175D01*
X48062Y323174D01*
X47945Y323151D01*
X47614Y322930D01*
X47393Y322599D01*
X47351Y322387D01*
X47317Y322374D01*
X47162Y322335D01*
X46946Y322301D01*
X46807Y322289D01*
X41978D01*
X41678Y322490D01*
X40750Y322674D01*
X39822Y322490D01*
X39036Y321964D01*
X38510Y321178D01*
X38326Y320250D01*
X38510Y319322D01*
X39036Y318536D01*
X39822Y318010D01*
X40750Y317826D01*
X41678Y318010D01*
X41978Y318211D01*
X46794D01*
X46943Y318198D01*
X47157Y318162D01*
X47309Y318122D01*
X47315Y318119D01*
Y317878D01*
X47393Y317488D01*
X47614Y317157D01*
X47945Y316936D01*
X48335Y316858D01*
X52665D01*
X52971Y316919D01*
X53408Y316616D01*
Y316384D01*
X52971Y316081D01*
X52665Y316142D01*
X48335D01*
X47945Y316064D01*
X47614Y315843D01*
X47393Y315512D01*
X47315Y315122D01*
Y315087D01*
X47310Y315085D01*
X47158Y315044D01*
X46944Y315009D01*
X46795Y314996D01*
X44772D01*
X44471Y315197D01*
X43543Y315381D01*
X42616Y315197D01*
X42315Y314996D01*
X41388D01*
X36539Y319845D01*
Y327155D01*
X38784Y329401D01*
X39226Y330062D01*
X39382Y330842D01*
Y378100D01*
X39393Y378197D01*
X39431Y378378D01*
X39483Y378553D01*
X39551Y378725D01*
X39634Y378895D01*
X39736Y379064D01*
X39856Y379233D01*
X39996Y379401D01*
X40115Y379527D01*
X40195Y379588D01*
X40837Y380424D01*
X41240Y381397D01*
X41377Y382441D01*
X41240Y383485D01*
X40837Y384458D01*
X40195Y385294D01*
X39360Y385935D01*
X38387Y386338D01*
X37343Y386475D01*
X36298Y386338D01*
X35325Y385935D01*
X34490Y385294D01*
X33849Y384458D01*
X33446Y383485D01*
X33308Y382441D01*
X33446Y381397D01*
X33849Y380424D01*
X34490Y379588D01*
X34570Y379527D01*
X34689Y379401D01*
X34829Y379233D01*
X34949Y379064D01*
X35050Y378895D01*
X35134Y378725D01*
X35202Y378553D01*
X35254Y378378D01*
X35291Y378197D01*
X35303Y378100D01*
Y331687D01*
X33058Y329442D01*
X32616Y328780D01*
X32461Y328000D01*
Y319000D01*
X32616Y318220D01*
X33058Y317558D01*
X39101Y311515D01*
X39763Y311073D01*
X40461Y310934D01*
Y310220D01*
X39961Y309974D01*
X39360Y310435D01*
X39243Y310484D01*
X38913Y310685D01*
X38762Y310793D01*
X37318Y312066D01*
X31442Y317942D01*
X30780Y318384D01*
X30000Y318539D01*
X8135D01*
X7746Y318565D01*
X7671Y318574D01*
X7555Y318651D01*
X7165Y318728D01*
X2835D01*
X2444Y318651D01*
X2114Y318430D01*
X1517Y318436D01*
X1427Y318505D01*
Y329193D01*
X1927Y329429D01*
X2779Y328731D01*
X3979Y328089D01*
X5280Y327694D01*
X6634Y327561D01*
X7988Y327694D01*
X9289Y328089D01*
X10489Y328731D01*
X11540Y329593D01*
X12403Y330645D01*
X13045Y331845D01*
X13439Y333146D01*
X13573Y334500D01*
X13439Y335854D01*
X13045Y337155D01*
X12403Y338355D01*
X11540Y339407D01*
X10489Y340269D01*
X9289Y340911D01*
X7988Y341306D01*
X6634Y341439D01*
X5280Y341306D01*
X3979Y340911D01*
X2779Y340269D01*
X1927Y339571D01*
X1427Y339807D01*
Y356343D01*
X1835Y356772D01*
X4137D01*
X4385Y356599D01*
X4963Y356110D01*
X7200Y353873D01*
X7260Y353572D01*
X7786Y352786D01*
X8572Y352260D01*
X9500Y352076D01*
X10428Y352260D01*
X11214Y352786D01*
X11740Y353572D01*
X11925Y354500D01*
X11740Y355428D01*
X11214Y356214D01*
X10428Y356740D01*
X10019Y356821D01*
X7941Y358900D01*
X7604Y359263D01*
X7366Y359560D01*
X7185Y359820D01*
Y362122D01*
X7107Y362512D01*
X6886Y362843D01*
X6555Y363064D01*
X6165Y363142D01*
X1835D01*
X1494Y363500D01*
X1835Y363858D01*
X6165D01*
X6555Y363936D01*
X6886Y364157D01*
X7107Y364488D01*
X7185Y364878D01*
Y367184D01*
X7353Y367425D01*
X7844Y368003D01*
X17590Y377749D01*
X17596Y377755D01*
X17755Y377884D01*
X18147Y378164D01*
X18325Y378277D01*
X19019Y378647D01*
X19258Y378754D01*
X19327Y378803D01*
X19675Y378947D01*
X20510Y379588D01*
X20572Y379668D01*
X20697Y379788D01*
X20866Y379928D01*
X21035Y380048D01*
X21204Y380149D01*
X21373Y380233D01*
X21545Y380300D01*
X21721Y380352D01*
X21901Y380390D01*
X21999Y380402D01*
X23159D01*
X23256Y380390D01*
X23437Y380352D01*
X23613Y380300D01*
X23784Y380233D01*
X23954Y380149D01*
X24123Y380048D01*
X24292Y379928D01*
X24460Y379788D01*
X24586Y379668D01*
X24647Y379588D01*
X25483Y378947D01*
X26456Y378544D01*
X27500Y378406D01*
X28544Y378544D01*
X29517Y378947D01*
X30353Y379588D01*
X30994Y380424D01*
X31397Y381397D01*
X31534Y382441D01*
X31397Y383485D01*
X30994Y384458D01*
X30353Y385294D01*
X29517Y385935D01*
X28544Y386338D01*
X27500Y386475D01*
X26456Y386338D01*
X25483Y385935D01*
X24647Y385294D01*
X24586Y385214D01*
X24460Y385094D01*
X24292Y384954D01*
X24123Y384834D01*
X23954Y384733D01*
X23784Y384649D01*
X23613Y384582D01*
X23437Y384529D01*
X23256Y384492D01*
X23159Y384480D01*
X21999D01*
X21901Y384492D01*
X21720Y384529D01*
X21545Y384582D01*
X21373Y384649D01*
X21204Y384733D01*
X21035Y384834D01*
X20866Y384954D01*
X20697Y385094D01*
X20572Y385214D01*
X20510Y385294D01*
X19675Y385935D01*
X18702Y386338D01*
X17658Y386475D01*
X16613Y386338D01*
X15640Y385935D01*
X14805Y385294D01*
X14164Y384458D01*
X13760Y383485D01*
X13623Y382441D01*
X13760Y381397D01*
X13972Y380887D01*
X13986Y380806D01*
X14061Y380619D01*
X14093Y380500D01*
X14107Y380397D01*
X14106Y380305D01*
X14093Y380215D01*
X14065Y380119D01*
X14018Y380013D01*
X13947Y379893D01*
X13888Y379816D01*
X5052Y370979D01*
X4692Y370644D01*
X4393Y370405D01*
X4140Y370228D01*
X1835D01*
X1427Y370657D01*
Y404693D01*
X1927Y404929D01*
X2779Y404230D01*
X3979Y403589D01*
X5280Y403194D01*
X6634Y403061D01*
X7988Y403194D01*
X9289Y403589D01*
X10489Y404230D01*
X11540Y405093D01*
X12403Y406145D01*
X13045Y407345D01*
X13439Y408646D01*
X13573Y410000D01*
X13439Y411354D01*
X13045Y412655D01*
X12403Y413855D01*
X11540Y414907D01*
X10489Y415769D01*
X9289Y416411D01*
X7988Y416806D01*
X6634Y416939D01*
X5280Y416806D01*
X3979Y416411D01*
X2779Y415769D01*
X1927Y415071D01*
X1427Y415307D01*
Y431573D01*
X53573D01*
Y415307D01*
D02*
G37*
G36*
X25358Y380341D02*
X25139Y380550D01*
X24913Y380737D01*
X24681Y380902D01*
X24442Y381045D01*
X24197Y381166D01*
X23945Y381265D01*
X23687Y381342D01*
X23422Y381397D01*
X23150Y381430D01*
X22872Y381441D01*
Y383441D01*
X23150Y383452D01*
X23422Y383485D01*
X23687Y383540D01*
X23945Y383617D01*
X24197Y383716D01*
X24442Y383837D01*
X24681Y383980D01*
X24913Y384145D01*
X25139Y384332D01*
X25358Y384541D01*
Y380341D01*
D02*
G37*
%LPC*%
G36*
X27500Y310976D02*
X26456Y310838D01*
X25483Y310435D01*
X24647Y309794D01*
X24586Y309714D01*
X24460Y309594D01*
X24292Y309454D01*
X24123Y309334D01*
X23954Y309233D01*
X23784Y309149D01*
X23613Y309082D01*
X23437Y309030D01*
X23256Y308992D01*
X23159Y308980D01*
X21999D01*
X21901Y308992D01*
X21720Y309030D01*
X21545Y309082D01*
X21373Y309149D01*
X21204Y309233D01*
X21035Y309334D01*
X20866Y309454D01*
X20697Y309594D01*
X20572Y309714D01*
X20510Y309794D01*
X19675Y310435D01*
X18702Y310838D01*
X17658Y310976D01*
X16613Y310838D01*
X15640Y310435D01*
X14805Y309794D01*
X14164Y308958D01*
X13760Y307985D01*
X13623Y306941D01*
X13760Y305897D01*
X14164Y304924D01*
X14805Y304088D01*
X15640Y303447D01*
X16613Y303044D01*
X17658Y302906D01*
X18702Y303044D01*
X19675Y303447D01*
X20510Y304088D01*
X20572Y304168D01*
X20697Y304288D01*
X20866Y304428D01*
X21035Y304548D01*
X21204Y304649D01*
X21373Y304733D01*
X21545Y304800D01*
X21721Y304852D01*
X21901Y304890D01*
X21999Y304902D01*
X23159D01*
X23256Y304890D01*
X23437Y304852D01*
X23613Y304800D01*
X23784Y304733D01*
X23954Y304649D01*
X24123Y304548D01*
X24292Y304428D01*
X24460Y304288D01*
X24586Y304168D01*
X24647Y304088D01*
X25483Y303447D01*
X26456Y303044D01*
X27500Y302906D01*
X28544Y303044D01*
X29111Y303278D01*
X29560Y303248D01*
X29585Y303200D01*
X29411Y302788D01*
X29117Y302591D01*
X28822Y302150D01*
X32296D01*
X32001Y302591D01*
X31339Y303034D01*
X30559Y303189D01*
X29779Y303034D01*
X29775Y303038D01*
X29800Y303664D01*
X30353Y304088D01*
X30994Y304924D01*
X31397Y305897D01*
X31534Y306941D01*
X31397Y307985D01*
X30994Y308958D01*
X30353Y309794D01*
X29517Y310435D01*
X28544Y310838D01*
X27500Y310976D01*
D02*
G37*
G36*
X23685Y302887D02*
Y302150D01*
X24422D01*
X24127Y302591D01*
X23685Y302887D01*
D02*
G37*
G36*
X17000Y295425D02*
X16072Y295240D01*
X15286Y294714D01*
X14760Y293928D01*
X14575Y293000D01*
X14760Y292072D01*
X15286Y291286D01*
X16072Y290760D01*
X17000Y290576D01*
X17928Y290760D01*
X18228Y290961D01*
X19293D01*
X19442Y290948D01*
X19656Y290912D01*
X19807Y290872D01*
X19815Y290868D01*
Y288878D01*
X19893Y288488D01*
X20114Y288157D01*
X20445Y287936D01*
X20835Y287858D01*
X25165D01*
X25556Y287936D01*
X25886Y288157D01*
X26107Y288488D01*
X26185Y288878D01*
Y293209D01*
X26107Y293599D01*
X25886Y293930D01*
X25556Y294151D01*
X25165Y294228D01*
X22699D01*
X22485Y294442D01*
X21824Y294884D01*
X21043Y295039D01*
X18228D01*
X17928Y295240D01*
X17000Y295425D01*
D02*
G37*
G36*
X31000Y296425D02*
X30072Y296240D01*
X29286Y295714D01*
X28760Y294928D01*
X28576Y294000D01*
X28760Y293072D01*
X28961Y292772D01*
Y287673D01*
X28956Y287549D01*
X28931Y287319D01*
X28899Y287136D01*
X28894Y287117D01*
X28816Y287065D01*
X28812Y287064D01*
X28808Y287060D01*
X28614Y286930D01*
X28524Y286795D01*
X28521Y286793D01*
X28519Y286787D01*
X28393Y286599D01*
X28362Y286445D01*
X28356Y286431D01*
X28355Y286408D01*
X28315Y286209D01*
Y286087D01*
X28310Y286085D01*
X28158Y286045D01*
X27944Y286009D01*
X27795Y285996D01*
X26705D01*
X26556Y286009D01*
X26342Y286045D01*
X26190Y286085D01*
X26185Y286087D01*
Y286122D01*
X26107Y286512D01*
X25886Y286843D01*
X25556Y287064D01*
X25165Y287142D01*
X20835D01*
X20445Y287064D01*
X20114Y286843D01*
X19893Y286512D01*
X19815Y286122D01*
Y281791D01*
X19893Y281401D01*
X20114Y281070D01*
X20445Y280849D01*
X20835Y280772D01*
X25165D01*
X25556Y280849D01*
X25886Y281070D01*
X26107Y281401D01*
X26185Y281791D01*
Y281826D01*
X26190Y281828D01*
X26342Y281869D01*
X26556Y281904D01*
X26705Y281918D01*
X27795D01*
X27944Y281904D01*
X28158Y281869D01*
X28310Y281828D01*
X28326Y281822D01*
X28393Y281488D01*
X28614Y281157D01*
X28945Y280936D01*
X29335Y280858D01*
X33665D01*
X34056Y280936D01*
X34386Y281157D01*
X34607Y281488D01*
X34685Y281878D01*
Y286209D01*
X34607Y286599D01*
X34386Y286930D01*
X34056Y287151D01*
X33665Y287228D01*
X33131D01*
X33128Y287235D01*
X33088Y287387D01*
X33052Y287601D01*
X33039Y287750D01*
Y292772D01*
X33240Y293072D01*
X33424Y294000D01*
X33240Y294928D01*
X32714Y295714D01*
X31928Y296240D01*
X31000Y296425D01*
D02*
G37*
G36*
X29559Y300150D02*
X28822D01*
X29117Y299708D01*
X29559Y299412D01*
Y300150D01*
D02*
G37*
G36*
X32296D02*
X31559D01*
Y299412D01*
X32001Y299708D01*
X32296Y300150D01*
D02*
G37*
G36*
X21685Y302887D02*
X21243Y302591D01*
X20948Y302150D01*
X21685D01*
Y302887D01*
D02*
G37*
G36*
Y300150D02*
X20948D01*
X21243Y299708D01*
X21685Y299412D01*
Y300150D01*
D02*
G37*
G36*
X24422D02*
X23685D01*
Y299412D01*
X24127Y299708D01*
X24422Y300150D01*
D02*
G37*
G36*
X30500Y280142D02*
X29335D01*
X28945Y280064D01*
X28614Y279843D01*
X28393Y279512D01*
X28315Y279122D01*
Y277957D01*
X30500D01*
Y280142D01*
D02*
G37*
G36*
X33665D02*
X32500D01*
Y277957D01*
X34685D01*
Y279122D01*
X34607Y279512D01*
X34386Y279843D01*
X34056Y280064D01*
X33665Y280142D01*
D02*
G37*
G36*
X25500Y279237D02*
Y278500D01*
X26237D01*
X25942Y278942D01*
X25500Y279237D01*
D02*
G37*
%LPD*%
G36*
X25358Y304841D02*
X25139Y305050D01*
X24913Y305237D01*
X24681Y305402D01*
X24442Y305545D01*
X24197Y305666D01*
X23945Y305765D01*
X23687Y305842D01*
X23422Y305897D01*
X23150Y305930D01*
X22872Y305941D01*
Y307941D01*
X23150Y307952D01*
X23422Y307985D01*
X23687Y308040D01*
X23945Y308117D01*
X24197Y308216D01*
X24442Y308337D01*
X24681Y308480D01*
X24913Y308645D01*
X25139Y308832D01*
X25358Y309041D01*
Y304841D01*
D02*
G37*
G36*
X20019Y308832D02*
X20244Y308645D01*
X20477Y308480D01*
X20715Y308337D01*
X20960Y308216D01*
X21212Y308117D01*
X21471Y308040D01*
X21736Y307985D01*
X22008Y307952D01*
X22286Y307941D01*
Y305941D01*
X22008Y305930D01*
X21736Y305897D01*
X21471Y305842D01*
X21212Y305765D01*
X20960Y305666D01*
X20715Y305545D01*
X20477Y305402D01*
X20244Y305237D01*
X20019Y305050D01*
X19800Y304841D01*
Y309041D01*
X20019Y308832D01*
D02*
G37*
G36*
X19228Y293992D02*
X19868Y293928D01*
X20128Y293871D01*
X20348Y293799D01*
X20528Y293710D01*
X20668Y293606D01*
X20768Y293485D01*
X20828Y293349D01*
X20848Y293196D01*
X20860Y291000D01*
X20839Y291190D01*
X20777Y291360D01*
X20676Y291510D01*
X20535Y291640D01*
X20354Y291750D01*
X20133Y291840D01*
X19872Y291910D01*
X19570Y291960D01*
X19229Y291990D01*
X18848Y292000D01*
Y294000D01*
X19228Y293992D01*
D02*
G37*
G36*
X29360Y281957D02*
X29340Y282147D01*
X29279Y282317D01*
X29179Y282467D01*
X29038Y282597D01*
X28857Y282707D01*
X28635Y282797D01*
X28374Y282867D01*
X28072Y282917D01*
X27730Y282947D01*
X27348Y282957D01*
Y284957D01*
X27730Y284967D01*
X28072Y284997D01*
X28374Y285047D01*
X28635Y285117D01*
X28857Y285207D01*
X29038Y285317D01*
X29179Y285447D01*
X29279Y285597D01*
X29340Y285767D01*
X29360Y285957D01*
Y281957D01*
D02*
G37*
G36*
X25161Y285767D02*
X25221Y285597D01*
X25321Y285447D01*
X25462Y285317D01*
X25643Y285207D01*
X25865Y285117D01*
X26126Y285047D01*
X26428Y284997D01*
X26770Y284967D01*
X27152Y284957D01*
Y282957D01*
X26770Y282947D01*
X26428Y282917D01*
X26126Y282867D01*
X25865Y282797D01*
X25643Y282707D01*
X25462Y282597D01*
X25321Y282467D01*
X25221Y282317D01*
X25161Y282147D01*
X25140Y281957D01*
Y285957D01*
X25161Y285767D01*
D02*
G37*
G36*
X32010Y287814D02*
X32040Y287472D01*
X32090Y287171D01*
X32160Y286910D01*
X32250Y286688D01*
X32360Y286507D01*
X32490Y286366D01*
X32640Y286265D01*
X32810Y286204D01*
X33000Y286184D01*
X29348Y286196D01*
X29472Y286216D01*
X29583Y286276D01*
X29680Y286376D01*
X29765Y286516D01*
X29837Y286696D01*
X29896Y286916D01*
X29941Y287176D01*
X29974Y287476D01*
X30000Y288196D01*
X32000D01*
X32010Y287814D01*
D02*
G37*
%LPC*%
G36*
X27500Y112954D02*
X27450Y112944D01*
X27400Y112949D01*
X26242Y112835D01*
X26146Y112806D01*
X26046Y112796D01*
X24933Y112458D01*
X24845Y112411D01*
X24748Y112382D01*
X23723Y111833D01*
X23645Y111769D01*
X23556Y111722D01*
X22657Y110984D01*
X22593Y110907D01*
X22516Y110843D01*
X21778Y109944D01*
X21731Y109855D01*
X21667Y109777D01*
X21118Y108751D01*
X21089Y108655D01*
X21042Y108567D01*
X20704Y107454D01*
X20694Y107354D01*
X20665Y107258D01*
X20551Y106100D01*
X20561Y106000D01*
X20551Y105900D01*
X20665Y104742D01*
X20694Y104646D01*
X20704Y104546D01*
X21042Y103433D01*
X21089Y103345D01*
X21118Y103249D01*
X21667Y102223D01*
X21731Y102145D01*
X21778Y102056D01*
X22516Y101157D01*
X22593Y101093D01*
X22657Y101016D01*
X23556Y100278D01*
X23645Y100231D01*
X23723Y100167D01*
X24748Y99618D01*
X24845Y99589D01*
X24933Y99542D01*
X26046Y99204D01*
X26146Y99194D01*
X26242Y99165D01*
X26973Y99093D01*
Y98591D01*
X26339Y98528D01*
X25223Y98190D01*
X24194Y97640D01*
X23293Y96900D01*
X22553Y95999D01*
X22003Y94970D01*
X21664Y93854D01*
X21550Y92693D01*
X21664Y91532D01*
X22003Y90416D01*
X22553Y89387D01*
X23293Y88486D01*
X24194Y87746D01*
X25223Y87196D01*
X26339Y86857D01*
X26497Y86842D01*
Y86339D01*
X26339Y86324D01*
X25223Y85985D01*
X24194Y85435D01*
X23293Y84695D01*
X22553Y83794D01*
X22003Y82765D01*
X21664Y81649D01*
X21649Y81488D01*
X33351D01*
X33336Y81649D01*
X32997Y82765D01*
X32447Y83794D01*
X31707Y84695D01*
X30806Y85435D01*
X29777Y85985D01*
X28661Y86324D01*
X28503Y86339D01*
Y86842D01*
X28661Y86857D01*
X29777Y87196D01*
X30806Y87746D01*
X31707Y88486D01*
X32447Y89387D01*
X32997Y90416D01*
X33336Y91532D01*
X33450Y92693D01*
X33336Y93854D01*
X32997Y94970D01*
X32447Y95999D01*
X31707Y96900D01*
X30806Y97640D01*
X29777Y98190D01*
X28661Y98528D01*
X28027Y98591D01*
Y99093D01*
X28758Y99165D01*
X28854Y99194D01*
X28954Y99204D01*
X30067Y99542D01*
X30155Y99589D01*
X30252Y99618D01*
X31277Y100167D01*
X31355Y100231D01*
X31444Y100278D01*
X32343Y101016D01*
X32407Y101093D01*
X32484Y101157D01*
X33222Y102056D01*
X33270Y102145D01*
X33333Y102223D01*
X33882Y103249D01*
X33911Y103345D01*
X33958Y103433D01*
X34296Y104546D01*
X34306Y104646D01*
X34335Y104742D01*
X34449Y105900D01*
X34439Y106000D01*
X34449Y106100D01*
X34335Y107258D01*
X34306Y107354D01*
X34296Y107454D01*
X33958Y108567D01*
X33911Y108655D01*
X33882Y108751D01*
X33333Y109777D01*
X33270Y109855D01*
X33222Y109944D01*
X32484Y110843D01*
X32406Y110907D01*
X32343Y110984D01*
X31444Y111722D01*
X31355Y111769D01*
X31277Y111833D01*
X30252Y112382D01*
X30155Y112411D01*
X30067Y112458D01*
X28954Y112796D01*
X28854Y112806D01*
X28758Y112835D01*
X27600Y112949D01*
X27550Y112944D01*
X27500Y112954D01*
D02*
G37*
G36*
X49244Y113910D02*
X48802Y113615D01*
X48507Y113173D01*
X49244D01*
Y113910D01*
D02*
G37*
G36*
X51244D02*
Y113173D01*
X51981D01*
X51686Y113615D01*
X51244Y113910D01*
D02*
G37*
G36*
X21685Y138732D02*
X20948D01*
X21243Y138290D01*
X21685Y137995D01*
Y138732D01*
D02*
G37*
G36*
X26500Y148488D02*
X21649D01*
X21664Y148327D01*
X22003Y147211D01*
X22553Y146183D01*
X23293Y145281D01*
X24194Y144541D01*
X25223Y143991D01*
X26339Y143653D01*
X26500Y143637D01*
Y148488D01*
D02*
G37*
G36*
X33351D02*
X28500D01*
Y143637D01*
X28661Y143653D01*
X29777Y143991D01*
X30806Y144541D01*
X31707Y145281D01*
X32447Y146183D01*
X32997Y147211D01*
X33336Y148327D01*
X33351Y148488D01*
D02*
G37*
G36*
X37433Y146606D02*
X36696D01*
X36991Y146164D01*
X37433Y145869D01*
Y146606D01*
D02*
G37*
G36*
X24422Y138732D02*
X23685D01*
Y137995D01*
X24127Y138290D01*
X24422Y138732D01*
D02*
G37*
G36*
X21685Y141470D02*
X21243Y141174D01*
X20948Y140732D01*
X21685D01*
Y141470D01*
D02*
G37*
G36*
X23685D02*
Y140732D01*
X24422D01*
X24127Y141174D01*
X23685Y141470D01*
D02*
G37*
G36*
X51981Y111173D02*
X51244D01*
Y110436D01*
X51686Y110731D01*
X51981Y111173D01*
D02*
G37*
G36*
X15811Y98162D02*
Y97425D01*
X16548D01*
X16253Y97867D01*
X15811Y98162D01*
D02*
G37*
G36*
X13811Y103299D02*
X13074D01*
X13369Y102857D01*
X13811Y102562D01*
Y103299D01*
D02*
G37*
G36*
X16548D02*
X15811D01*
Y102562D01*
X16253Y102857D01*
X16548Y103299D01*
D02*
G37*
G36*
X13811Y95425D02*
X13074D01*
X13369Y94983D01*
X13811Y94688D01*
Y95425D01*
D02*
G37*
G36*
X16548D02*
X15811D01*
Y94688D01*
X16253Y94983D01*
X16548Y95425D01*
D02*
G37*
G36*
X13811Y98162D02*
X13369Y97867D01*
X13074Y97425D01*
X13811D01*
Y98162D01*
D02*
G37*
G36*
X49244Y103299D02*
X48507D01*
X48802Y102857D01*
X49244Y102562D01*
Y103299D01*
D02*
G37*
G36*
Y106036D02*
X48802Y105741D01*
X48507Y105299D01*
X49244D01*
Y106036D01*
D02*
G37*
G36*
X51244D02*
Y105299D01*
X51981D01*
X51686Y105741D01*
X51244Y106036D01*
D02*
G37*
G36*
X49244Y111173D02*
X48507D01*
X48802Y110731D01*
X49244Y110436D01*
Y111173D01*
D02*
G37*
G36*
X51981Y103299D02*
X51244D01*
Y102562D01*
X51686Y102857D01*
X51981Y103299D01*
D02*
G37*
G36*
X13811Y106036D02*
X13369Y105741D01*
X13074Y105299D01*
X13811D01*
Y106036D01*
D02*
G37*
G36*
X15811D02*
Y105299D01*
X16548D01*
X16253Y105741D01*
X15811Y106036D01*
D02*
G37*
G36*
X37433Y149344D02*
X36991Y149048D01*
X36696Y148606D01*
X37433D01*
Y149344D01*
D02*
G37*
G36*
X11874Y216273D02*
Y215535D01*
X12611D01*
X12316Y215977D01*
X11874Y216273D01*
D02*
G37*
G36*
X19165Y220728D02*
X18000D01*
Y218543D01*
X20185D01*
Y219709D01*
X20107Y220099D01*
X19886Y220430D01*
X19556Y220651D01*
X19165Y220728D01*
D02*
G37*
G36*
X16000Y216543D02*
X13815D01*
Y215378D01*
X13893Y214988D01*
X14114Y214657D01*
X14445Y214436D01*
X14835Y214358D01*
X16000D01*
Y216543D01*
D02*
G37*
G36*
X20185D02*
X18000D01*
Y214358D01*
X19165D01*
X19556Y214436D01*
X19886Y214657D01*
X20107Y214988D01*
X20185Y215378D01*
Y216543D01*
D02*
G37*
G36*
X9874Y216273D02*
X9432Y215977D01*
X9137Y215535D01*
X9874D01*
Y216273D01*
D02*
G37*
G36*
X7642Y232000D02*
X5457D01*
Y229815D01*
X6622D01*
X7012Y229893D01*
X7343Y230114D01*
X7564Y230445D01*
X7642Y230835D01*
Y232000D01*
D02*
G37*
G36*
X6622Y236185D02*
X5457D01*
Y234000D01*
X7642D01*
Y235165D01*
X7564Y235556D01*
X7343Y235886D01*
X7012Y236107D01*
X6622Y236185D01*
D02*
G37*
G36*
X36665Y240642D02*
X32335D01*
X31945Y240564D01*
X31614Y240343D01*
X31393Y240012D01*
X31315Y239622D01*
Y235291D01*
X31345Y235141D01*
X31345Y235121D01*
X31353Y235099D01*
X31393Y234901D01*
X31402Y234887D01*
X31461Y233943D01*
Y231228D01*
X31260Y230928D01*
X31076Y230000D01*
X31260Y229072D01*
X31786Y228286D01*
X32572Y227760D01*
X33500Y227575D01*
X34428Y227760D01*
X35214Y228286D01*
X35272Y228371D01*
X35772Y228220D01*
Y226335D01*
X35849Y225944D01*
X36070Y225614D01*
X36401Y225393D01*
X36791Y225315D01*
X41122D01*
X41512Y225393D01*
X41843Y225614D01*
X42064Y225944D01*
X42142Y226335D01*
Y230665D01*
X42064Y231055D01*
X41843Y231386D01*
X41512Y231607D01*
X41122Y231685D01*
X40788D01*
X40740Y231928D01*
X40214Y232714D01*
X39428Y233240D01*
X38500Y233424D01*
X37572Y233240D01*
X36786Y232714D01*
X36260Y231928D01*
X36228Y231767D01*
X36039Y231652D01*
X35539Y231934D01*
Y233748D01*
X35552Y233895D01*
X35587Y234107D01*
X35628Y234258D01*
X35634Y234272D01*
X36665D01*
X37056Y234349D01*
X37386Y234570D01*
X37607Y234901D01*
X37685Y235291D01*
Y239622D01*
X37607Y240012D01*
X37386Y240343D01*
X37056Y240564D01*
X36665Y240642D01*
D02*
G37*
G36*
X45043Y227500D02*
X42858D01*
Y226335D01*
X42936Y225944D01*
X43157Y225614D01*
X43488Y225393D01*
X43878Y225315D01*
X45043D01*
Y227500D01*
D02*
G37*
G36*
X9874Y193850D02*
X9137D01*
X9432Y193409D01*
X9874Y193113D01*
Y193850D01*
D02*
G37*
G36*
X12611D02*
X11874D01*
Y193113D01*
X12316Y193409D01*
X12611Y193850D01*
D02*
G37*
G36*
X37433Y170228D02*
X36696D01*
X36991Y169786D01*
X37433Y169491D01*
Y170228D01*
D02*
G37*
G36*
Y172966D02*
X36991Y172670D01*
X36696Y172228D01*
X37433D01*
Y172966D01*
D02*
G37*
G36*
X27500Y181954D02*
X27450Y181944D01*
X27400Y181949D01*
X26242Y181835D01*
X26146Y181806D01*
X26046Y181796D01*
X24933Y181458D01*
X24845Y181411D01*
X24748Y181382D01*
X23723Y180833D01*
X23645Y180770D01*
X23556Y180722D01*
X22657Y179984D01*
X22593Y179906D01*
X22516Y179843D01*
X21778Y178944D01*
X21731Y178855D01*
X21667Y178777D01*
X21118Y177752D01*
X21089Y177655D01*
X21042Y177567D01*
X20704Y176454D01*
X20694Y176354D01*
X20665Y176258D01*
X20551Y175100D01*
X20561Y175000D01*
X20551Y174900D01*
X20665Y173742D01*
X20694Y173646D01*
X20704Y173546D01*
X21042Y172433D01*
X21089Y172345D01*
X21118Y172248D01*
X21667Y171223D01*
X21731Y171145D01*
X21778Y171056D01*
X22516Y170157D01*
X22593Y170093D01*
X22657Y170016D01*
X23556Y169278D01*
X23645Y169230D01*
X23723Y169167D01*
X24748Y168618D01*
X24845Y168589D01*
X24933Y168542D01*
X26046Y168204D01*
X26146Y168194D01*
X26242Y168165D01*
X26973Y168093D01*
Y167591D01*
X26339Y167528D01*
X25223Y167190D01*
X24194Y166640D01*
X23293Y165900D01*
X22553Y164998D01*
X22003Y163970D01*
X21664Y162854D01*
X21550Y161693D01*
X21664Y160532D01*
X22003Y159416D01*
X22553Y158387D01*
X23293Y157486D01*
X24194Y156746D01*
X25223Y156196D01*
X26339Y155857D01*
X26497Y155842D01*
Y155339D01*
X26339Y155324D01*
X25223Y154985D01*
X24194Y154435D01*
X23293Y153695D01*
X22553Y152794D01*
X22003Y151765D01*
X21664Y150649D01*
X21649Y150488D01*
X33351D01*
X33336Y150649D01*
X32997Y151765D01*
X32447Y152794D01*
X31707Y153695D01*
X30806Y154435D01*
X29777Y154985D01*
X28661Y155324D01*
X28503Y155339D01*
Y155842D01*
X28661Y155857D01*
X29777Y156196D01*
X30806Y156746D01*
X31707Y157486D01*
X32447Y158387D01*
X32997Y159416D01*
X33336Y160532D01*
X33450Y161693D01*
X33336Y162854D01*
X32997Y163970D01*
X32447Y164998D01*
X31707Y165900D01*
X30806Y166640D01*
X29777Y167190D01*
X28661Y167528D01*
X28027Y167591D01*
Y168093D01*
X28758Y168165D01*
X28854Y168194D01*
X28954Y168204D01*
X30067Y168542D01*
X30155Y168589D01*
X30252Y168618D01*
X31277Y169167D01*
X31355Y169230D01*
X31444Y169278D01*
X32343Y170016D01*
X32407Y170094D01*
X32484Y170157D01*
X33222Y171056D01*
X33270Y171145D01*
X33333Y171223D01*
X33882Y172248D01*
X33911Y172345D01*
X33958Y172433D01*
X34296Y173546D01*
X34306Y173646D01*
X34335Y173742D01*
X34449Y174900D01*
X34439Y175000D01*
X34449Y175100D01*
X34335Y176258D01*
X34306Y176354D01*
X34296Y176454D01*
X33958Y177567D01*
X33911Y177655D01*
X33882Y177752D01*
X33333Y178777D01*
X33270Y178855D01*
X33222Y178944D01*
X32484Y179843D01*
X32406Y179907D01*
X32343Y179984D01*
X31444Y180722D01*
X31355Y180770D01*
X31277Y180833D01*
X30252Y181382D01*
X30155Y181411D01*
X30067Y181458D01*
X28954Y181796D01*
X28854Y181806D01*
X28758Y181835D01*
X27600Y181949D01*
X27550Y181944D01*
X27500Y181954D01*
D02*
G37*
G36*
X9874Y196588D02*
X9432Y196292D01*
X9137Y195850D01*
X9874D01*
Y196588D01*
D02*
G37*
G36*
Y213535D02*
X9137D01*
X9432Y213093D01*
X9874Y212798D01*
Y213535D01*
D02*
G37*
G36*
X12611D02*
X11874D01*
Y212798D01*
X12316Y213093D01*
X12611Y213535D01*
D02*
G37*
G36*
X11874Y196588D02*
Y195850D01*
X12611D01*
X12316Y196292D01*
X11874Y196588D01*
D02*
G37*
G36*
X25622Y204462D02*
X25180Y204166D01*
X24885Y203724D01*
X25622D01*
Y204462D01*
D02*
G37*
G36*
X27622D02*
Y203724D01*
X28359D01*
X28064Y204166D01*
X27622Y204462D01*
D02*
G37*
G36*
X50165Y93228D02*
X49000D01*
Y91043D01*
X51185D01*
Y92209D01*
X51107Y92599D01*
X50886Y92930D01*
X50555Y93151D01*
X50165Y93228D01*
D02*
G37*
G36*
X36355Y25000D02*
X33500D01*
Y22145D01*
X33532Y22149D01*
X34493Y22547D01*
X35319Y23181D01*
X35953Y24007D01*
X36351Y24968D01*
X36355Y25000D01*
D02*
G37*
G36*
X21500Y29855D02*
X21468Y29851D01*
X20507Y29453D01*
X19681Y28819D01*
X19047Y27993D01*
X18649Y27032D01*
X18645Y27000D01*
X21500D01*
Y29855D01*
D02*
G37*
G36*
X31500D02*
X31468Y29851D01*
X30507Y29453D01*
X29681Y28819D01*
X29047Y27993D01*
X28649Y27032D01*
X28645Y27000D01*
X31500D01*
Y29855D01*
D02*
G37*
G36*
X21500Y25000D02*
X18645D01*
X18649Y24968D01*
X19047Y24007D01*
X19681Y23181D01*
X20507Y22547D01*
X21468Y22149D01*
X21500Y22145D01*
Y25000D01*
D02*
G37*
G36*
X31500D02*
X28645D01*
X28649Y24968D01*
X29047Y24007D01*
X29681Y23181D01*
X30507Y22547D01*
X31468Y22149D01*
X31500Y22145D01*
Y25000D01*
D02*
G37*
G36*
X26355D02*
X23500D01*
Y22145D01*
X23532Y22149D01*
X24493Y22547D01*
X25319Y23181D01*
X25953Y24007D01*
X26351Y24968D01*
X26355Y25000D01*
D02*
G37*
G36*
X23500Y29855D02*
Y27000D01*
X26355D01*
X26351Y27032D01*
X25953Y27993D01*
X25319Y28819D01*
X24493Y29453D01*
X23532Y29851D01*
X23500Y29855D01*
D02*
G37*
G36*
X26355Y35000D02*
X23500D01*
Y32145D01*
X23532Y32149D01*
X24493Y32547D01*
X25319Y33181D01*
X25953Y34007D01*
X26351Y34968D01*
X26355Y35000D01*
D02*
G37*
G36*
X36355D02*
X33500D01*
Y32145D01*
X33532Y32149D01*
X34493Y32547D01*
X35319Y33181D01*
X35953Y34007D01*
X36351Y34968D01*
X36355Y35000D01*
D02*
G37*
G36*
X21500Y39855D02*
X21468Y39851D01*
X20507Y39453D01*
X19681Y38819D01*
X19047Y37993D01*
X18649Y37032D01*
X18645Y37000D01*
X21500D01*
Y39855D01*
D02*
G37*
G36*
X33500Y29855D02*
Y27000D01*
X36355D01*
X36351Y27032D01*
X35953Y27993D01*
X35319Y28819D01*
X34493Y29453D01*
X33532Y29851D01*
X33500Y29855D01*
D02*
G37*
G36*
X21500Y35000D02*
X18645D01*
X18649Y34968D01*
X19047Y34007D01*
X19681Y33181D01*
X20507Y32547D01*
X21468Y32149D01*
X21500Y32145D01*
Y35000D01*
D02*
G37*
G36*
X31500D02*
X28645D01*
X28649Y34968D01*
X29047Y34007D01*
X29681Y33181D01*
X30507Y32547D01*
X31468Y32149D01*
X31500Y32145D01*
Y35000D01*
D02*
G37*
G36*
X33500Y19855D02*
Y17000D01*
X36355D01*
X36351Y17032D01*
X35953Y17993D01*
X35319Y18819D01*
X34493Y19453D01*
X33532Y19851D01*
X33500Y19855D01*
D02*
G37*
G36*
X12611Y8811D02*
X11874D01*
Y8074D01*
X12316Y8369D01*
X12611Y8811D01*
D02*
G37*
G36*
X9874Y11548D02*
X9432Y11253D01*
X9137Y10811D01*
X9874D01*
Y11548D01*
D02*
G37*
G36*
X11874D02*
Y10811D01*
X12611D01*
X12316Y11253D01*
X11874Y11548D01*
D02*
G37*
G36*
X22500Y9987D02*
X21468Y9851D01*
X20507Y9453D01*
X19681Y8819D01*
X19047Y7993D01*
X18649Y7032D01*
X18513Y6000D01*
X18649Y4968D01*
X19047Y4007D01*
X19681Y3181D01*
X20507Y2547D01*
X21468Y2149D01*
X22500Y2013D01*
X23532Y2149D01*
X24493Y2547D01*
X25319Y3181D01*
X25953Y4007D01*
X26351Y4968D01*
X26487Y6000D01*
X26351Y7032D01*
X25953Y7993D01*
X25319Y8819D01*
X24493Y9453D01*
X23532Y9851D01*
X22500Y9987D01*
D02*
G37*
G36*
X32500D02*
X31468Y9851D01*
X30507Y9453D01*
X29681Y8819D01*
X29047Y7993D01*
X28649Y7032D01*
X28513Y6000D01*
X28649Y4968D01*
X29047Y4007D01*
X29681Y3181D01*
X30507Y2547D01*
X31468Y2149D01*
X32500Y2013D01*
X33532Y2149D01*
X34493Y2547D01*
X35319Y3181D01*
X35953Y4007D01*
X36351Y4968D01*
X36487Y6000D01*
X36351Y7032D01*
X35953Y7993D01*
X35319Y8819D01*
X34493Y9453D01*
X33532Y9851D01*
X32500Y9987D01*
D02*
G37*
G36*
X9874Y8811D02*
X9137D01*
X9432Y8369D01*
X9874Y8074D01*
Y8811D01*
D02*
G37*
G36*
X21500Y15000D02*
X18645D01*
X18649Y14968D01*
X19047Y14007D01*
X19681Y13181D01*
X20507Y12547D01*
X21468Y12149D01*
X21500Y12145D01*
Y15000D01*
D02*
G37*
G36*
Y19855D02*
X21468Y19851D01*
X20507Y19453D01*
X19681Y18819D01*
X19047Y17993D01*
X18649Y17032D01*
X18645Y17000D01*
X21500D01*
Y19855D01*
D02*
G37*
G36*
X31500D02*
X31468Y19851D01*
X30507Y19453D01*
X29681Y18819D01*
X29047Y17993D01*
X28649Y17032D01*
X28645Y17000D01*
X31500D01*
Y19855D01*
D02*
G37*
G36*
X23500D02*
Y17000D01*
X26355D01*
X26351Y17032D01*
X25953Y17993D01*
X25319Y18819D01*
X24493Y19453D01*
X23532Y19851D01*
X23500Y19855D01*
D02*
G37*
G36*
X31500Y15000D02*
X28645D01*
X28649Y14968D01*
X29047Y14007D01*
X29681Y13181D01*
X30507Y12547D01*
X31468Y12149D01*
X31500Y12145D01*
Y15000D01*
D02*
G37*
G36*
X26355D02*
X23500D01*
Y12145D01*
X23532Y12149D01*
X24493Y12547D01*
X25319Y13181D01*
X25953Y14007D01*
X26351Y14968D01*
X26355Y15000D01*
D02*
G37*
G36*
X36355D02*
X33500D01*
Y12145D01*
X33532Y12149D01*
X34493Y12547D01*
X35319Y13181D01*
X35953Y14007D01*
X36351Y14968D01*
X36355Y15000D01*
D02*
G37*
G36*
X31500Y39855D02*
X31468Y39851D01*
X30507Y39453D01*
X29681Y38819D01*
X29047Y37993D01*
X28649Y37032D01*
X28645Y37000D01*
X31500D01*
Y39855D01*
D02*
G37*
G36*
X28359Y59992D02*
X27622D01*
Y59255D01*
X28064Y59550D01*
X28359Y59992D01*
D02*
G37*
G36*
X25622Y62729D02*
X25180Y62434D01*
X24885Y61992D01*
X25622D01*
Y62729D01*
D02*
G37*
G36*
X27622D02*
Y61992D01*
X28359D01*
X28064Y62434D01*
X27622Y62729D01*
D02*
G37*
G36*
X41500Y63551D02*
X39350D01*
X38960Y63473D01*
X38629Y63253D01*
X38408Y62922D01*
X38331Y62532D01*
Y58413D01*
X41500D01*
Y63551D01*
D02*
G37*
G36*
X45650D02*
X43500D01*
Y58413D01*
X46669D01*
Y62532D01*
X46592Y62922D01*
X46371Y63253D01*
X46040Y63473D01*
X45650Y63551D01*
D02*
G37*
G36*
X25622Y59992D02*
X24885D01*
X25180Y59550D01*
X25622Y59255D01*
Y59992D01*
D02*
G37*
G36*
X6500Y93228D02*
X5335D01*
X4944Y93151D01*
X4614Y92930D01*
X4393Y92599D01*
X4315Y92209D01*
Y91043D01*
X6500D01*
Y93228D01*
D02*
G37*
G36*
X9665D02*
X8500D01*
Y91043D01*
X10685D01*
Y92209D01*
X10607Y92599D01*
X10386Y92930D01*
X10056Y93151D01*
X9665Y93228D01*
D02*
G37*
G36*
X47000D02*
X45835D01*
X45445Y93151D01*
X45114Y92930D01*
X44893Y92599D01*
X44815Y92209D01*
Y91043D01*
X47000D01*
Y93228D01*
D02*
G37*
G36*
X26500Y79488D02*
X21649D01*
X21664Y79327D01*
X22003Y78211D01*
X22553Y77183D01*
X23293Y76281D01*
X24194Y75541D01*
X25223Y74991D01*
X26339Y74653D01*
X26500Y74637D01*
Y79488D01*
D02*
G37*
G36*
X33351D02*
X28500D01*
Y74637D01*
X28661Y74653D01*
X29777Y74991D01*
X30806Y75541D01*
X31707Y76281D01*
X32447Y77183D01*
X32997Y78211D01*
X33336Y79327D01*
X33351Y79488D01*
D02*
G37*
G36*
X15650Y63464D02*
X13500D01*
Y58327D01*
X16669D01*
Y62445D01*
X16592Y62835D01*
X16371Y63166D01*
X16040Y63387D01*
X15650Y63464D01*
D02*
G37*
G36*
X44107Y40307D02*
X43370D01*
Y39570D01*
X43812Y39865D01*
X44107Y40307D01*
D02*
G37*
G36*
X22500Y49987D02*
X21468Y49851D01*
X20507Y49453D01*
X19681Y48819D01*
X19047Y47993D01*
X18649Y47032D01*
X18513Y46000D01*
X18649Y44968D01*
X19047Y44007D01*
X19681Y43181D01*
X20507Y42547D01*
X21468Y42149D01*
X22500Y42013D01*
X23532Y42149D01*
X24493Y42547D01*
X25319Y43181D01*
X25953Y44007D01*
X26351Y44968D01*
X26487Y46000D01*
X26351Y47032D01*
X25953Y47993D01*
X25319Y48819D01*
X24493Y49453D01*
X23532Y49851D01*
X22500Y49987D01*
D02*
G37*
G36*
X35453Y49972D02*
X29547D01*
X29157Y49895D01*
X28826Y49674D01*
X28605Y49343D01*
X28528Y48953D01*
Y43047D01*
X28605Y42657D01*
X28826Y42326D01*
X29157Y42105D01*
X29547Y42028D01*
X35453D01*
X35843Y42105D01*
X36174Y42326D01*
X36395Y42657D01*
X36472Y43047D01*
Y48953D01*
X36395Y49343D01*
X36174Y49674D01*
X35843Y49895D01*
X35453Y49972D01*
D02*
G37*
G36*
X23500Y39855D02*
Y37000D01*
X26355D01*
X26351Y37032D01*
X25953Y37993D01*
X25319Y38819D01*
X24493Y39453D01*
X23532Y39851D01*
X23500Y39855D01*
D02*
G37*
G36*
X33500D02*
Y37000D01*
X36355D01*
X36351Y37032D01*
X35953Y37993D01*
X35319Y38819D01*
X34493Y39453D01*
X33532Y39851D01*
X33500Y39855D01*
D02*
G37*
G36*
X41370Y40307D02*
X40633D01*
X40928Y39865D01*
X41370Y39570D01*
Y40307D01*
D02*
G37*
G36*
Y43044D02*
X40928Y42749D01*
X40633Y42307D01*
X41370D01*
Y43044D01*
D02*
G37*
G36*
X41500Y56413D02*
X38331D01*
Y52295D01*
X38408Y51905D01*
X38629Y51574D01*
X38960Y51353D01*
X39350Y51276D01*
X41500D01*
Y56413D01*
D02*
G37*
G36*
X46669D02*
X43500D01*
Y51276D01*
X45650D01*
X46040Y51353D01*
X46371Y51574D01*
X46592Y51905D01*
X46669Y52295D01*
Y56413D01*
D02*
G37*
G36*
X11500Y63464D02*
X9350D01*
X8960Y63387D01*
X8629Y63166D01*
X8408Y62835D01*
X8331Y62445D01*
Y58327D01*
X11500D01*
Y63464D01*
D02*
G37*
G36*
X43370Y43044D02*
Y42307D01*
X44107D01*
X43812Y42749D01*
X43370Y43044D01*
D02*
G37*
G36*
X11500Y56327D02*
X8331D01*
Y52209D01*
X8408Y51819D01*
X8629Y51488D01*
X8960Y51267D01*
X9350Y51189D01*
X11500D01*
Y56327D01*
D02*
G37*
G36*
X16669D02*
X13500D01*
Y51189D01*
X15650D01*
X16040Y51267D01*
X16371Y51488D01*
X16592Y51819D01*
X16669Y52209D01*
Y56327D01*
D02*
G37*
G36*
X9165Y277228D02*
X4835D01*
X4445Y277151D01*
X4114Y276930D01*
X3893Y276599D01*
X3815Y276209D01*
Y271878D01*
X3893Y271488D01*
X4114Y271157D01*
X4445Y270936D01*
X4835Y270858D01*
X9165D01*
X9556Y270936D01*
X9886Y271157D01*
X9977Y271293D01*
X10714Y271786D01*
X11240Y272572D01*
X11424Y273500D01*
X11240Y274428D01*
X10714Y275214D01*
X10185Y275568D01*
Y276209D01*
X10107Y276599D01*
X9886Y276930D01*
X9556Y277151D01*
X9165Y277228D01*
D02*
G37*
G36*
X41370Y238910D02*
X40928Y238615D01*
X40633Y238173D01*
X41370D01*
Y238910D01*
D02*
G37*
G36*
X7685Y243457D02*
X5500D01*
Y241272D01*
X6665D01*
X7056Y241349D01*
X7386Y241570D01*
X7607Y241901D01*
X7685Y242291D01*
Y243457D01*
D02*
G37*
G36*
X6665Y247642D02*
X5500D01*
Y245457D01*
X7685D01*
Y246622D01*
X7607Y247012D01*
X7386Y247343D01*
X7056Y247564D01*
X6665Y247642D01*
D02*
G37*
G36*
X41370Y236173D02*
X40633D01*
X40928Y235731D01*
X41370Y235436D01*
Y236173D01*
D02*
G37*
G36*
X13500Y251957D02*
X11315D01*
Y250791D01*
X11393Y250401D01*
X11614Y250070D01*
X11945Y249849D01*
X12335Y249772D01*
X13500D01*
Y251957D01*
D02*
G37*
G36*
Y256142D02*
X12335D01*
X11945Y256064D01*
X11614Y255843D01*
X11393Y255512D01*
X11315Y255122D01*
Y253957D01*
X13500D01*
Y256142D01*
D02*
G37*
%LPD*%
G36*
X35310Y235284D02*
X35140Y235224D01*
X34990Y235124D01*
X34860Y234984D01*
X34750Y234804D01*
X34660Y234584D01*
X34590Y234324D01*
X34540Y234024D01*
X34510Y233684D01*
X34500Y233304D01*
X32500D01*
X32498Y233684D01*
X32403Y235224D01*
X32377Y235284D01*
X32348Y235304D01*
X35500D01*
X35310Y235284D01*
D02*
G37*
%LPC*%
G36*
X31559Y424934D02*
Y424197D01*
X32296D01*
X32001Y424639D01*
X31559Y424934D01*
D02*
G37*
G36*
X29559D02*
X29117Y424639D01*
X28822Y424197D01*
X29559D01*
Y424934D01*
D02*
G37*
G36*
X19748D02*
Y424197D01*
X20485D01*
X20190Y424639D01*
X19748Y424934D01*
D02*
G37*
G36*
X32296Y422197D02*
X31559D01*
Y421460D01*
X32001Y421755D01*
X32296Y422197D01*
D02*
G37*
G36*
X29559D02*
X28822D01*
X29117Y421755D01*
X29559Y421460D01*
Y422197D01*
D02*
G37*
G36*
X17748D02*
X17011D01*
X17306Y421755D01*
X17748Y421460D01*
Y422197D01*
D02*
G37*
G36*
X20485D02*
X19748D01*
Y421460D01*
X20190Y421755D01*
X20485Y422197D01*
D02*
G37*
G36*
X41370D02*
X40633D01*
X40928Y421755D01*
X41370Y421460D01*
Y422197D01*
D02*
G37*
G36*
X17748Y424934D02*
X17306Y424639D01*
X17011Y424197D01*
X17748D01*
Y424934D01*
D02*
G37*
G36*
X44107Y422197D02*
X43370D01*
Y421460D01*
X43812Y421755D01*
X44107Y422197D01*
D02*
G37*
G36*
X43370Y424934D02*
Y424197D01*
X44107D01*
X43812Y424639D01*
X43370Y424934D01*
D02*
G37*
G36*
X41370D02*
X40928Y424639D01*
X40633Y424197D01*
X41370D01*
Y424934D01*
D02*
G37*
G36*
X27622Y330446D02*
Y329709D01*
X28359D01*
X28064Y330151D01*
X27622Y330446D01*
D02*
G37*
G36*
X21685Y339520D02*
X20948D01*
X21243Y339078D01*
X21685Y338783D01*
Y339520D01*
D02*
G37*
G36*
X24422D02*
X23685D01*
Y338783D01*
X24127Y339078D01*
X24422Y339520D01*
D02*
G37*
G36*
X25622Y327709D02*
X24885D01*
X25180Y327267D01*
X25622Y326972D01*
Y327709D01*
D02*
G37*
G36*
X28359D02*
X27622D01*
Y326972D01*
X28064Y327267D01*
X28359Y327709D01*
D02*
G37*
G36*
X25622Y330446D02*
X25180Y330151D01*
X24885Y329709D01*
X25622D01*
Y330446D01*
D02*
G37*
G36*
X29559Y339520D02*
X28822D01*
X29117Y339078D01*
X29559Y338783D01*
Y339520D01*
D02*
G37*
G36*
Y342257D02*
X29117Y341962D01*
X28822Y341520D01*
X29559D01*
Y342257D01*
D02*
G37*
G36*
X31559D02*
Y341520D01*
X32296D01*
X32001Y341962D01*
X31559Y342257D01*
D02*
G37*
G36*
X5937Y343457D02*
X5200D01*
X5495Y343015D01*
X5937Y342720D01*
Y343457D01*
D02*
G37*
G36*
X32296Y339520D02*
X31559D01*
Y338783D01*
X32001Y339078D01*
X32296Y339520D01*
D02*
G37*
G36*
X21685Y342257D02*
X21243Y341962D01*
X20948Y341520D01*
X21685D01*
Y342257D01*
D02*
G37*
G36*
X23685D02*
Y341520D01*
X24422D01*
X24127Y341962D01*
X23685Y342257D01*
D02*
G37*
G36*
X49244Y367079D02*
X48507D01*
X48802Y366637D01*
X49244Y366341D01*
Y367079D01*
D02*
G37*
G36*
X8674Y382827D02*
X7937D01*
Y382090D01*
X8379Y382385D01*
X8674Y382827D01*
D02*
G37*
G36*
X5937Y385564D02*
X5495Y385269D01*
X5200Y384827D01*
X5937D01*
Y385564D01*
D02*
G37*
G36*
X50181Y383627D02*
X49739Y383332D01*
X49444Y382890D01*
X50181D01*
Y383627D01*
D02*
G37*
G36*
X51981Y367079D02*
X51244D01*
Y366341D01*
X51686Y366637D01*
X51981Y367079D01*
D02*
G37*
G36*
X5937Y382827D02*
X5200D01*
X5495Y382385D01*
X5937Y382090D01*
Y382827D01*
D02*
G37*
G36*
X5722Y323772D02*
X4984D01*
Y323035D01*
X5426Y323330D01*
X5722Y323772D01*
D02*
G37*
G36*
X2984Y326509D02*
X2542Y326214D01*
X2247Y325772D01*
X2984D01*
Y326509D01*
D02*
G37*
G36*
X4984D02*
Y325772D01*
X5722D01*
X5426Y326214D01*
X4984Y326509D01*
D02*
G37*
G36*
X49244Y369816D02*
X48802Y369521D01*
X48507Y369079D01*
X49244D01*
Y369816D01*
D02*
G37*
G36*
X43370D02*
Y369079D01*
X44107D01*
X43812Y369521D01*
X43370Y369816D01*
D02*
G37*
G36*
X2984Y323772D02*
X2247D01*
X2542Y323330D01*
X2984Y323035D01*
Y323772D01*
D02*
G37*
G36*
X43370Y354068D02*
Y353331D01*
X44107D01*
X43812Y353773D01*
X43370Y354068D01*
D02*
G37*
G36*
X49244D02*
X48802Y353773D01*
X48507Y353331D01*
X49244D01*
Y354068D01*
D02*
G37*
G36*
X51244D02*
Y353331D01*
X51981D01*
X51686Y353773D01*
X51244Y354068D01*
D02*
G37*
G36*
X17748D02*
X17306Y353773D01*
X17011Y353331D01*
X17748D01*
Y354068D01*
D02*
G37*
G36*
X19748D02*
Y353331D01*
X20485D01*
X20190Y353773D01*
X19748Y354068D01*
D02*
G37*
G36*
X41370D02*
X40928Y353773D01*
X40633Y353331D01*
X41370D01*
Y354068D01*
D02*
G37*
G36*
X50181Y380890D02*
X49444D01*
X49739Y380448D01*
X50181Y380153D01*
Y380890D01*
D02*
G37*
G36*
X32296Y367079D02*
X31559D01*
Y366341D01*
X32001Y366637D01*
X32296Y367079D01*
D02*
G37*
G36*
X41370D02*
X40633D01*
X40928Y366637D01*
X41370Y366341D01*
Y367079D01*
D02*
G37*
G36*
X44107D02*
X43370D01*
Y366341D01*
X43812Y366637D01*
X44107Y367079D01*
D02*
G37*
G36*
X17748D02*
X17011D01*
X17306Y366637D01*
X17748Y366341D01*
Y367079D01*
D02*
G37*
G36*
X20485D02*
X19748D01*
Y366341D01*
X20190Y366637D01*
X20485Y367079D01*
D02*
G37*
G36*
X29559D02*
X28822D01*
X29117Y366637D01*
X29559Y366341D01*
Y367079D01*
D02*
G37*
G36*
X30496Y349394D02*
X29759D01*
X30054Y348952D01*
X30496Y348657D01*
Y349394D01*
D02*
G37*
G36*
X33233D02*
X32496D01*
Y348657D01*
X32938Y348952D01*
X33233Y349394D01*
D02*
G37*
G36*
X17748Y351331D02*
X17011D01*
X17306Y350889D01*
X17748Y350593D01*
Y351331D01*
D02*
G37*
G36*
X8674Y343457D02*
X7937D01*
Y342720D01*
X8379Y343015D01*
X8674Y343457D01*
D02*
G37*
G36*
X5937Y346194D02*
X5495Y345899D01*
X5200Y345457D01*
X5937D01*
Y346194D01*
D02*
G37*
G36*
X7937D02*
Y345457D01*
X8674D01*
X8379Y345899D01*
X7937Y346194D01*
D02*
G37*
G36*
X20485Y351331D02*
X19748D01*
Y350593D01*
X20190Y350889D01*
X20485Y351331D01*
D02*
G37*
G36*
X51981D02*
X51244D01*
Y350593D01*
X51686Y350889D01*
X51981Y351331D01*
D02*
G37*
G36*
X30496Y352131D02*
X30054Y351836D01*
X29759Y351394D01*
X30496D01*
Y352131D01*
D02*
G37*
G36*
X32496D02*
Y351394D01*
X33233D01*
X32938Y351836D01*
X32496Y352131D01*
D02*
G37*
G36*
X41370Y351331D02*
X40633D01*
X40928Y350889D01*
X41370Y350593D01*
Y351331D01*
D02*
G37*
G36*
X44107D02*
X43370D01*
Y350593D01*
X43812Y350889D01*
X44107Y351331D01*
D02*
G37*
G36*
X49244D02*
X48507D01*
X48802Y350889D01*
X49244Y350593D01*
Y351331D01*
D02*
G37*
G36*
X51244Y397375D02*
Y396638D01*
X51981D01*
X51686Y397080D01*
X51244Y397375D01*
D02*
G37*
G36*
X49244D02*
X48802Y397080D01*
X48507Y396638D01*
X49244D01*
Y397375D01*
D02*
G37*
G36*
X39433D02*
Y396638D01*
X40170D01*
X39875Y397080D01*
X39433Y397375D01*
D02*
G37*
G36*
X33496Y406449D02*
X32759D01*
X33054Y406007D01*
X33496Y405712D01*
Y406449D01*
D02*
G37*
G36*
X24422D02*
X23685D01*
Y405712D01*
X24127Y406007D01*
X24422Y406449D01*
D02*
G37*
G36*
X21685D02*
X20948D01*
X21243Y406007D01*
X21685Y405712D01*
Y406449D01*
D02*
G37*
G36*
X37433Y397375D02*
X36991Y397080D01*
X36696Y396638D01*
X37433D01*
Y397375D01*
D02*
G37*
G36*
X15811D02*
Y396638D01*
X16548D01*
X16253Y397080D01*
X15811Y397375D01*
D02*
G37*
G36*
X13811D02*
X13369Y397080D01*
X13074Y396638D01*
X13811D01*
Y397375D01*
D02*
G37*
G36*
X7937D02*
Y396638D01*
X8674D01*
X8379Y397080D01*
X7937Y397375D01*
D02*
G37*
G36*
X27622D02*
Y396638D01*
X28359D01*
X28064Y397080D01*
X27622Y397375D01*
D02*
G37*
G36*
X25622D02*
X25180Y397080D01*
X24885Y396638D01*
X25622D01*
Y397375D01*
D02*
G37*
G36*
X31559Y369816D02*
Y369079D01*
X32296D01*
X32001Y369521D01*
X31559Y369816D01*
D02*
G37*
G36*
X51244D02*
Y369079D01*
X51981D01*
X51686Y369521D01*
X51244Y369816D01*
D02*
G37*
G36*
X35496Y409186D02*
Y408449D01*
X36233D01*
X35938Y408891D01*
X35496Y409186D01*
D02*
G37*
G36*
X23685D02*
Y408449D01*
X24422D01*
X24127Y408891D01*
X23685Y409186D01*
D02*
G37*
G36*
X21685D02*
X21243Y408891D01*
X20948Y408449D01*
X21685D01*
Y409186D01*
D02*
G37*
G36*
X36233Y406449D02*
X35496D01*
Y405712D01*
X35938Y406007D01*
X36233Y406449D01*
D02*
G37*
G36*
X33496Y409186D02*
X33054Y408891D01*
X32759Y408449D01*
X33496D01*
Y409186D01*
D02*
G37*
G36*
X17748Y369816D02*
X17306Y369521D01*
X17011Y369079D01*
X17748D01*
Y369816D01*
D02*
G37*
G36*
X5937Y394638D02*
X5200D01*
X5495Y394196D01*
X5937Y393901D01*
Y394638D01*
D02*
G37*
G36*
X13811D02*
X13074D01*
X13369Y394196D01*
X13811Y393901D01*
Y394638D01*
D02*
G37*
G36*
X8674D02*
X7937D01*
Y393901D01*
X8379Y394196D01*
X8674Y394638D01*
D02*
G37*
G36*
X7937Y385564D02*
Y384827D01*
X8674D01*
X8379Y385269D01*
X7937Y385564D01*
D02*
G37*
G36*
X41370Y369816D02*
X40928Y369521D01*
X40633Y369079D01*
X41370D01*
Y369816D01*
D02*
G37*
G36*
X40170Y394638D02*
X39433D01*
Y393901D01*
X39875Y394196D01*
X40170Y394638D01*
D02*
G37*
G36*
X37433D02*
X36696D01*
X36991Y394196D01*
X37433Y393901D01*
Y394638D01*
D02*
G37*
G36*
X5937Y397375D02*
X5495Y397080D01*
X5200Y396638D01*
X5937D01*
Y397375D01*
D02*
G37*
G36*
X51981Y394638D02*
X51244D01*
Y393901D01*
X51686Y394196D01*
X51981Y394638D01*
D02*
G37*
G36*
X49244D02*
X48507D01*
X48802Y394196D01*
X49244Y393901D01*
Y394638D01*
D02*
G37*
G36*
X29559Y369816D02*
X29117Y369521D01*
X28822Y369079D01*
X29559D01*
Y369816D01*
D02*
G37*
G36*
X19748D02*
Y369079D01*
X20485D01*
X20190Y369521D01*
X19748Y369816D01*
D02*
G37*
G36*
X16548Y394638D02*
X15811D01*
Y393901D01*
X16253Y394196D01*
X16548Y394638D01*
D02*
G37*
G36*
X28359D02*
X27622D01*
Y393901D01*
X28064Y394196D01*
X28359Y394638D01*
D02*
G37*
G36*
X25622D02*
X24885D01*
X25180Y394196D01*
X25622Y393901D01*
Y394638D01*
D02*
G37*
%LPD*%
D13*
X23000Y283957D02*
D03*
Y291043D02*
D03*
X48000Y82957D02*
D03*
Y90043D02*
D03*
X51000Y214957D02*
D03*
Y222043D02*
D03*
X4500Y220043D02*
D03*
Y212957D02*
D03*
X50500Y125457D02*
D03*
Y132543D02*
D03*
X51000Y240957D02*
D03*
Y248043D02*
D03*
X40000Y261457D02*
D03*
Y268543D02*
D03*
X31500Y268543D02*
D03*
Y261457D02*
D03*
X31500Y276957D02*
D03*
Y284043D02*
D03*
X50500Y277957D02*
D03*
Y285043D02*
D03*
X4000Y367043D02*
D03*
Y359957D02*
D03*
X50500Y320043D02*
D03*
Y312957D02*
D03*
X5000Y315543D02*
D03*
Y308457D02*
D03*
X17000Y217543D02*
D03*
Y210457D02*
D03*
X7500Y82957D02*
D03*
Y90043D02*
D03*
X4500Y244457D02*
D03*
Y251543D02*
D03*
X23000Y268457D02*
D03*
Y275543D02*
D03*
Y252957D02*
D03*
Y260043D02*
D03*
X34500Y237457D02*
D03*
Y244543D02*
D03*
X40000Y284043D02*
D03*
Y276957D02*
D03*
X14500Y260043D02*
D03*
Y252957D02*
D03*
X7000Y274043D02*
D03*
Y266957D02*
D03*
D14*
X50500Y277957D02*
X52000Y276457D01*
X17658Y382441D02*
X27500D01*
X17658Y380701D02*
Y382441D01*
X37343Y330842D02*
Y382441D01*
X14500Y260043D02*
X16461D01*
X18665Y257839D01*
Y248947D02*
Y257839D01*
X18427Y248709D02*
X18665Y248947D01*
X11000Y260587D02*
X11543Y260043D01*
X11000Y260587D02*
Y266500D01*
X23000Y215500D02*
Y244136D01*
X18427Y248709D02*
X23000Y244136D01*
X51000Y240957D02*
X52165Y239791D01*
Y235236D02*
Y239791D01*
X52000Y262368D02*
Y276457D01*
X46835Y257203D02*
X52000Y262368D01*
X46835Y235165D02*
Y257203D01*
Y235165D02*
X51000Y231000D01*
X4000Y367043D02*
X17658Y380701D01*
X51000Y222043D02*
Y231000D01*
X33500Y230000D02*
Y236457D01*
X34500Y237457D01*
X4543Y220000D02*
X11000D01*
X50500Y132543D02*
Y197500D01*
X45000Y203000D02*
X50500Y197500D01*
X45000Y203000D02*
Y215000D01*
X43000Y140870D02*
Y197000D01*
X34500Y205500D02*
X43000Y197000D01*
X34500Y205500D02*
Y213500D01*
X27500Y125370D02*
X27587Y125457D01*
X43000Y140870D01*
Y222000D02*
X45000D01*
X34500Y213500D02*
X43000Y222000D01*
X11543Y260043D02*
X14500D01*
X23000Y250500D02*
X24500Y249000D01*
X23000Y250500D02*
Y252957D01*
Y260043D02*
Y268457D01*
X11543Y233000D02*
X18500D01*
X37343Y306941D02*
Y309157D01*
X17658Y306941D02*
X27500D01*
X40750Y320250D02*
X50293D01*
X50500Y320043D01*
X43543Y312957D02*
X50500D01*
X42500Y311913D02*
X43543Y312957D01*
X7000Y266957D02*
X10457D01*
X23000Y283957D02*
X31413D01*
X31500Y284043D01*
X17000Y293000D02*
X21043D01*
X23000Y291043D01*
X5000Y288000D02*
Y308457D01*
Y288000D02*
X10000Y283000D01*
X14214Y280850D02*
X14500Y281136D01*
Y286000D01*
X30000Y316500D02*
X37343Y309157D01*
X5000Y315543D02*
X5957Y316500D01*
X30000D01*
X10500Y290000D02*
X14500Y286000D01*
X10500Y290000D02*
Y311500D01*
X11000Y312000D01*
X9457Y354500D02*
X9500D01*
X4000Y359957D02*
X9457Y354500D01*
X34500Y328000D02*
X37343Y330842D01*
X34500Y319000D02*
Y328000D01*
Y319000D02*
X40543Y312957D01*
X43543D01*
X50500Y285043D02*
Y286000D01*
X42500Y294000D02*
Y311913D01*
Y294000D02*
X50500Y286000D01*
X40000Y284043D02*
Y288500D01*
X37343Y291158D02*
X40000Y288500D01*
X37343Y291158D02*
Y306941D01*
X31000Y284543D02*
Y294000D01*
Y284543D02*
X31500Y284043D01*
X7000Y274043D02*
X7543Y273500D01*
X14214Y278286D02*
Y280850D01*
Y278286D02*
X14428Y278500D01*
X18000D01*
X7543Y273500D02*
X9000D01*
X10457Y266957D02*
X10500Y267000D01*
X11000Y266500D01*
X23000Y215500D02*
X26500Y212000D01*
X27500Y232000D02*
Y245000D01*
D15*
X23087Y194370D02*
X27500D01*
X4500Y212957D02*
X23087Y194370D01*
X45043Y215043D02*
X51000D01*
X45000Y215000D02*
X45043Y215043D01*
D16*
X42500Y71587D02*
X48000Y77087D01*
X7500Y76500D02*
X12500Y71500D01*
X7500Y76500D02*
Y82957D01*
X48000Y77087D02*
Y82957D01*
X27587Y125457D02*
X50500D01*
X4500Y177500D02*
X15000Y167000D01*
X4500Y177500D02*
Y200500D01*
D17*
X35500Y261500D02*
X39957D01*
X31543D02*
X35500D01*
X46803Y271697D02*
Y271697D01*
X46165Y272000D02*
X46500D01*
X40000Y268543D02*
Y276957D01*
X27500Y264543D02*
X31500Y268543D01*
X27500Y257000D02*
Y264543D01*
Y257000D02*
X31457Y253043D01*
Y253000D02*
Y253043D01*
X46600Y269506D02*
Y271494D01*
Y269506D02*
X49000Y267106D01*
Y263500D02*
Y267106D01*
X46957Y261457D02*
X49000Y263500D01*
X40000Y261457D02*
X46957D01*
X31500Y261457D02*
X31543Y261500D01*
X39957D02*
X40000Y261457D01*
X35500Y256043D02*
Y261500D01*
Y256043D02*
X38543Y253000D01*
X32043Y247000D02*
X34500Y244543D01*
X31500Y247000D02*
X32043D01*
X39457Y276957D02*
X40000D01*
X35250Y272750D02*
X39457Y276957D01*
X35250Y272750D02*
X35250Y272750D01*
X28013Y272750D02*
X35250D01*
D18*
X46835Y275170D02*
Y281622D01*
Y275170D02*
X49000Y273005D01*
Y270500D02*
Y273005D01*
X43665Y266835D02*
Y271330D01*
X43000Y271995D02*
Y273036D01*
Y271995D02*
X43665Y271330D01*
X43878Y273914D02*
Y280165D01*
X43000Y273036D02*
X43878Y273914D01*
X43665Y266835D02*
X46000Y264500D01*
X40000Y284043D02*
X43878Y280165D01*
X46835Y281622D02*
X50256Y285043D01*
X50500D01*
D20*
X27500Y149488D02*
D03*
Y161693D02*
D03*
Y194370D02*
D03*
Y80488D02*
D03*
Y92693D02*
D03*
Y125370D02*
D03*
D21*
Y175000D02*
D03*
X37343Y306941D02*
D03*
X17658D02*
D03*
X27500D02*
D03*
X37343Y382441D02*
D03*
X17658D02*
D03*
X27500D02*
D03*
Y106000D02*
D03*
X49500Y74500D02*
D03*
X5500Y75500D02*
D03*
D22*
X6634Y334500D02*
D03*
X48366D02*
D03*
X6634Y410000D02*
D03*
X48366D02*
D03*
D23*
X32500Y46000D02*
D03*
D24*
X22500D02*
D03*
X32500Y36000D02*
D03*
X22500D02*
D03*
X32500Y26000D02*
D03*
X22500D02*
D03*
X32500Y16000D02*
D03*
X22500D02*
D03*
X32500Y6000D02*
D03*
X22500D02*
D03*
D25*
X52213Y277528D02*
D03*
X42370Y237173D02*
D03*
X3984Y324772D02*
D03*
X52165Y235236D02*
D03*
X10874Y214535D02*
D03*
X26622Y202724D02*
D03*
X10874Y194850D02*
D03*
Y9811D02*
D03*
X42370Y41307D02*
D03*
X26622Y60992D02*
D03*
X14811Y96425D02*
D03*
Y104299D02*
D03*
X50244D02*
D03*
Y112173D02*
D03*
X22685Y139732D02*
D03*
X38433Y147606D02*
D03*
Y171228D02*
D03*
X22685Y301150D02*
D03*
X30559D02*
D03*
X18748Y423197D02*
D03*
X30559D02*
D03*
X42370D02*
D03*
X22685Y407449D02*
D03*
X34496D02*
D03*
X6937Y344457D02*
D03*
X26622Y328709D02*
D03*
X22685Y340520D02*
D03*
X30559D02*
D03*
X18748Y352331D02*
D03*
X31496Y350394D02*
D03*
X18748Y368079D02*
D03*
X30559D02*
D03*
X6937Y383827D02*
D03*
Y395638D02*
D03*
X14811D02*
D03*
X26622D02*
D03*
X38433D02*
D03*
X42370Y368079D02*
D03*
Y352331D02*
D03*
X50244Y395638D02*
D03*
Y368079D02*
D03*
X51181Y381890D02*
D03*
X50244Y352331D02*
D03*
X5500Y244000D02*
D03*
X24500Y277500D02*
D03*
X29500Y269500D02*
D03*
X46165Y272000D02*
D03*
X49000Y270500D02*
D03*
X6500Y253500D02*
D03*
D26*
X35500Y262000D02*
D03*
X50500Y250000D02*
D03*
X36500Y251000D02*
D03*
X38500Y231000D02*
D03*
X33500Y230000D02*
D03*
X16500Y208000D02*
D03*
X15000Y167000D02*
D03*
X4500Y200500D02*
D03*
X45000Y215000D02*
D03*
X11000Y220000D02*
D03*
X45000Y222000D02*
D03*
X26500Y212000D02*
D03*
X24500Y249000D02*
D03*
X19500Y232000D02*
D03*
X40750Y320250D02*
D03*
X43543Y312957D02*
D03*
X17000Y293000D02*
D03*
X10000Y283000D02*
D03*
X11000Y312000D02*
D03*
X9500Y354500D02*
D03*
X31000Y294000D02*
D03*
X18000Y278500D02*
D03*
X31500Y247000D02*
D03*
X46000Y264500D02*
D03*
X28013Y272750D02*
D03*
X9000Y273500D02*
D03*
X10500Y267000D02*
D03*
X27500Y245000D02*
D03*
Y232000D02*
D03*
D27*
X12500Y71500D02*
D03*
Y57327D02*
D03*
X42500Y57413D02*
D03*
Y71587D02*
D03*
D28*
X11543Y233000D02*
D03*
X4457D02*
D03*
X38543Y253000D02*
D03*
X31457D02*
D03*
X38957Y228500D02*
D03*
X46043D02*
D03*
M02*
