G04 Layer_Color=16711935*
%FSLAX25Y25*%
%MOIN*%
G70*
G01*
G75*
%ADD36R,0.05131X0.05131*%
%ADD37C,0.10642*%
%ADD38C,0.06800*%
%ADD39C,0.12611*%
%ADD40R,0.06706X0.06706*%
%ADD41C,0.06706*%
%ADD42R,0.07099X0.11036*%
%ADD43R,0.05131X0.05131*%
D36*
X23000Y283957D02*
D03*
Y291043D02*
D03*
X48000Y82957D02*
D03*
Y90043D02*
D03*
X51000Y214957D02*
D03*
Y222043D02*
D03*
X4500Y220043D02*
D03*
Y212957D02*
D03*
X50500Y125457D02*
D03*
Y132543D02*
D03*
X51000Y240957D02*
D03*
Y248043D02*
D03*
X40000Y261457D02*
D03*
Y268543D02*
D03*
X31500Y268543D02*
D03*
Y261457D02*
D03*
X31500Y276957D02*
D03*
Y284043D02*
D03*
X50500Y277957D02*
D03*
Y285043D02*
D03*
X4000Y367043D02*
D03*
Y359957D02*
D03*
X50500Y320043D02*
D03*
Y312957D02*
D03*
X5000Y315543D02*
D03*
Y308457D02*
D03*
X17000Y217543D02*
D03*
Y210457D02*
D03*
X7500Y82957D02*
D03*
Y90043D02*
D03*
X4500Y244457D02*
D03*
Y251543D02*
D03*
X23000Y268457D02*
D03*
Y275543D02*
D03*
Y252957D02*
D03*
Y260043D02*
D03*
X34500Y237457D02*
D03*
Y244543D02*
D03*
X40000Y284043D02*
D03*
Y276957D02*
D03*
X14500Y260043D02*
D03*
Y252957D02*
D03*
X7000Y274043D02*
D03*
Y266957D02*
D03*
D37*
X27500Y149488D02*
D03*
Y161693D02*
D03*
Y194370D02*
D03*
Y80488D02*
D03*
Y92693D02*
D03*
Y125370D02*
D03*
D38*
Y175000D02*
D03*
X37343Y306941D02*
D03*
X17658D02*
D03*
X27500D02*
D03*
X37343Y382441D02*
D03*
X17658D02*
D03*
X27500D02*
D03*
Y106000D02*
D03*
X49500Y74500D02*
D03*
X5500Y75500D02*
D03*
D39*
X6634Y334500D02*
D03*
X48366D02*
D03*
X6634Y410000D02*
D03*
X48366D02*
D03*
D40*
X32500Y46000D02*
D03*
D41*
X22500D02*
D03*
X32500Y36000D02*
D03*
X22500D02*
D03*
X32500Y26000D02*
D03*
X22500D02*
D03*
X32500Y16000D02*
D03*
X22500D02*
D03*
X32500Y6000D02*
D03*
X22500D02*
D03*
D42*
X12500Y71500D02*
D03*
Y57327D02*
D03*
X42500Y57413D02*
D03*
Y71587D02*
D03*
D43*
X11543Y233000D02*
D03*
X4457D02*
D03*
X38543Y253000D02*
D03*
X31457D02*
D03*
X38957Y228500D02*
D03*
X46043D02*
D03*
M02*
