G04 Layer_Color=8388736*
%FSLAX25Y25*%
%MOIN*%
G70*
G01*
G75*
%ADD20C,0.01000*%
%ADD36R,0.05131X0.05131*%
%ADD37R,0.03556X0.05524*%
%ADD38R,0.05328X0.06509*%
%ADD39R,0.11036X0.07099*%
%ADD40R,0.06509X0.05328*%
G04:AMPARAMS|DCode=41|XSize=29.65mil|YSize=57.21mil|CornerRadius=5.95mil|HoleSize=0mil|Usage=FLASHONLY|Rotation=90.000|XOffset=0mil|YOffset=0mil|HoleType=Round|Shape=RoundedRectangle|*
%AMROUNDEDRECTD41*
21,1,0.02965,0.04532,0,0,90.0*
21,1,0.01776,0.05721,0,0,90.0*
1,1,0.01190,0.02266,0.00888*
1,1,0.01190,0.02266,-0.00888*
1,1,0.01190,-0.02266,-0.00888*
1,1,0.01190,-0.02266,0.00888*
%
%ADD41ROUNDEDRECTD41*%
%ADD42R,0.07099X0.11036*%
%ADD43O,0.08083X0.02965*%
%ADD44C,0.06800*%
%ADD45C,0.12611*%
%ADD46C,0.10642*%
%ADD47R,0.06706X0.06706*%
%ADD48C,0.06706*%
D20*
X11000Y428499D02*
X12999D01*
X13999Y427499D01*
Y424500D01*
X11000D01*
X10000Y425500D01*
X11000Y426499D01*
X13999D01*
X15998Y428499D02*
Y425500D01*
X16998Y424500D01*
X19997D01*
Y428499D01*
X21996D02*
X25995Y424500D01*
X23995Y426499D01*
X25995Y428499D01*
X21996Y424500D01*
X27994Y428499D02*
Y424500D01*
Y426499D01*
X28994Y427499D01*
X29994Y428499D01*
X30993D01*
X36991Y424500D02*
X34992D01*
X33992Y425500D01*
Y427499D01*
X34992Y428499D01*
X36991D01*
X37991Y427499D01*
Y426499D01*
X33992D01*
X39990Y424500D02*
Y428499D01*
X42989D01*
X43989Y427499D01*
Y424500D01*
D36*
X4500Y227043D02*
D03*
Y219957D02*
D03*
X6000Y250957D02*
D03*
Y258043D02*
D03*
X51500Y251543D02*
D03*
Y244457D02*
D03*
X4000Y274043D02*
D03*
Y266957D02*
D03*
Y289543D02*
D03*
Y282457D02*
D03*
X51500Y264457D02*
D03*
Y271543D02*
D03*
X50500Y294957D02*
D03*
Y302043D02*
D03*
X50500Y279413D02*
D03*
Y286500D02*
D03*
D37*
X6000Y27217D02*
D03*
Y41783D02*
D03*
X49000Y41783D02*
D03*
Y27217D02*
D03*
D38*
X17043Y73000D02*
D03*
X9957D02*
D03*
D39*
X21087Y59000D02*
D03*
X6913D02*
D03*
D40*
X17000Y27957D02*
D03*
Y35043D02*
D03*
D41*
X17665Y225000D02*
D03*
Y220000D02*
D03*
Y215000D02*
D03*
Y210000D02*
D03*
X38335Y225000D02*
D03*
Y220000D02*
D03*
Y215000D02*
D03*
Y210000D02*
D03*
D42*
X35000Y29413D02*
D03*
Y43587D02*
D03*
D43*
X16500Y288000D02*
D03*
Y283000D02*
D03*
Y278000D02*
D03*
Y273000D02*
D03*
Y268000D02*
D03*
Y263000D02*
D03*
Y258000D02*
D03*
Y253000D02*
D03*
Y248000D02*
D03*
Y243000D02*
D03*
X42500Y288000D02*
D03*
Y283000D02*
D03*
Y278000D02*
D03*
Y273000D02*
D03*
Y268000D02*
D03*
Y263000D02*
D03*
Y258000D02*
D03*
Y253000D02*
D03*
Y248000D02*
D03*
Y243000D02*
D03*
D44*
X37343Y306941D02*
D03*
X17658D02*
D03*
X27500D02*
D03*
Y175000D02*
D03*
X37343Y366941D02*
D03*
X17658D02*
D03*
X27500D02*
D03*
Y106000D02*
D03*
D45*
X6634Y334500D02*
D03*
X48366D02*
D03*
X6634Y394500D02*
D03*
X48366D02*
D03*
D46*
X27500Y149488D02*
D03*
Y161693D02*
D03*
Y194370D02*
D03*
Y80488D02*
D03*
Y92693D02*
D03*
Y125370D02*
D03*
D47*
X7500Y17500D02*
D03*
D48*
Y7500D02*
D03*
X17500Y17500D02*
D03*
Y7500D02*
D03*
X27500Y17500D02*
D03*
Y7500D02*
D03*
X37500Y17500D02*
D03*
Y7500D02*
D03*
X47500Y17500D02*
D03*
Y7500D02*
D03*
M02*
