M48
;Layer_Color=9474304
;FILE_FORMAT=2:5
INCH,LZ
;TYPE=PLATED
T1F00S00C0.01000
T2F00S00C0.01181
T3F00S00C0.03543
T4F00S00C0.03937
T5F00S00C0.05906
T6F00S00C0.08661
T7F00S00C0.11811
%
T01
X00065Y02535
X0048Y02705
T02
X00265Y0212
X00275Y0232
X00345Y023
X0045Y0222
Y0215
X0011Y022
X00195Y0232
X00045Y02005
X0015Y0167
X00245Y0249
X00105Y0267
X0009Y02735
X001Y0283
X0018Y02785
X0017Y0293
X0011Y0312
X00095Y03545
X004075Y032025
X0043543Y0312957
X0031Y0294
X0028013Y027275
X0028665Y0262878
X0042406Y0258417
X0046Y02645
X0041Y0272
X00512Y0256791
X0036Y025
X00315Y0247
X00275Y0245
T03
X00075Y00075
X00175
Y00175
X00075
X00275
X00375
X00475
Y00075
X00375
X00275
T04
X0017658Y0306941
Y0366941
X00275
X0037343
Y0306941
X00275
T05
X00275Y0080488
Y0092693
Y012537
Y0149488
Y0161693
Y019437
T06
X0006634Y03345
Y03945
X0048366
Y03345
T07
X00275Y0106
Y0175
M30
